M48
; DRILL file {KiCad 5.1.9-73d0e3b20d~88~ubuntu20.04.1} date Wed Mar 17 08:49:22 2021
; FORMAT={-:-/ absolute / metric / decimal}
; #@! TF.CreationDate,2021-03-17T08:49:22+01:00
; #@! TF.GenerationSoftware,Kicad,Pcbnew,5.1.9-73d0e3b20d~88~ubuntu20.04.1
; #@! TF.FileFunction,NonPlated,1,2,NPTH
FMAT,2
METRIC
T1C0.600
T2C1.700
T3C4.000
%
G90
G05
T1
X23.11Y5.7
X28.89Y5.7
X77.11Y5.7
X82.89Y5.7
T2
X6.0Y54.89
X6.0Y37.11
X6.0Y30.89
X6.0Y13.11
X41.61Y11.0
X50.5Y86.89
X50.5Y69.11
X59.39Y11.0
X97.0Y54.89
X97.0Y37.11
X97.0Y30.89
X97.0Y13.11
T3
X5.0Y85.0
X5.0Y5.0
X98.0Y85.0
X98.0Y5.0
T0
M30
