M48
; DRILL file {KiCad 5.1.6-c6e7f7d~87~ubuntu18.04.1} date Fri Nov 13 16:07:17 2020
; FORMAT={-:-/ absolute / metric / decimal}
; #@! TF.CreationDate,2020-11-13T16:07:17+01:00
; #@! TF.GenerationSoftware,Kicad,Pcbnew,5.1.6-c6e7f7d~87~ubuntu18.04.1
; #@! TF.FileFunction,Plated,1,2,PTH
FMAT,2
METRIC
T1C0.300
T2C0.600
T3C1.000
%
G90
G05
T1
X2.05Y10.3
X8.675Y29.62
X8.675Y27.08
X8.675Y22.0
X9.3Y10.3
X11.0Y35.0
X11.1Y36.8
X13.3Y20.85
X13.6Y15.5
X13.65Y18.55
X14.4Y26.05
X16.7Y47.45
X16.7Y45.45
X16.743Y41.307
X16.9Y27.05
X17.1Y20.8
X17.325Y39.356
X17.7Y37.7
X17.95Y48.2
X17.95Y18.5
X18.0Y17.0
X18.0Y15.5
X18.0Y14.1
X18.15Y12.5
X18.9Y14.9
X19.4Y17.8
X19.65Y9.3
X19.7Y11.2
X19.75Y20.6
X19.8Y40.95
X20.65Y13.15
X20.85Y10.25
X21.1Y41.0
X21.3Y49.35
X22.4Y87.15
X22.4Y65.85
X22.4Y56.9
X22.4Y52.7
X22.45Y78.65
X22.45Y70.15
X22.45Y61.35
X22.45Y8.4
X22.5Y82.95
X22.65Y22.35
X23.6Y40.8
X23.6Y8.4
X23.9Y14.8
X23.993Y36.125
X24.095Y19.845
X24.109Y47.49
X24.25Y66.75
X24.75Y50.95
X24.9Y36.9
X25.232Y9.512
X25.35Y22.05
X25.45Y85.775
X25.859Y9.1
X26.0Y60.2
X26.0Y56.2
X26.0Y49.45
X26.0Y19.6
X26.2Y85.3
X26.2Y41.0
X26.5Y14.8
X26.55Y9.675
X26.6Y15.6
X26.8Y63.6
X27.089Y9.1
X27.445Y37.745
X27.75Y56.15
X28.1Y60.3
X28.28Y70.87
X28.3Y85.75
X28.4Y8.4
X29.1Y51.65
X29.2Y41.0
X29.2Y15.9
X29.275Y50.9
X29.5Y85.75
X29.5Y77.75
X29.5Y55.95
X30.2Y75.25
X30.5Y15.65
X30.6Y41.0
X31.2Y62.2
X31.25Y56.05
X31.25Y7.55
X31.55Y35.55
X31.8Y49.35
X31.8Y37.7
X32.3Y20.2
X32.4Y61.3
X33.1Y37.7
X33.75Y85.75
X33.75Y81.75
X34.4Y41.0
X34.62Y70.87
X34.7Y37.4
X35.35Y75.25
X35.75Y36.75
X36.0Y60.0
X36.0Y10.0
X36.0Y5.0
X36.75Y49.4
X36.95Y40.75
X38.25Y87.9
X38.425Y71.175
X39.4Y63.7
X40.3Y5.55
X40.9Y70.5
X41.0Y36.0
X41.2Y21.0
X41.8Y45.1
X43.4Y45.9
X43.457Y69.057
X43.9Y65.8
X44.2Y10.6
X44.35Y22.55
X44.8Y66.9
X45.5Y29.9
X45.7Y21.0
X46.0Y60.0
X46.0Y40.0
X47.0Y66.5
X47.15Y28.15
X47.8Y65.9
X47.975Y72.92
X49.2Y10.45
X50.55Y15.95
X51.0Y60.0
X51.0Y45.0
X51.75Y10.5
X53.75Y66.5
X54.35Y10.5
X54.887Y28.688
X56.0Y60.0
X56.0Y40.0
X56.6Y20.0
X56.85Y10.55
X57.0Y66.6
X57.8Y28.7
X59.2Y66.2
X59.925Y83.325
X59.975Y85.475
X60.2Y22.5
X61.0Y5.0
X61.15Y10.7
X61.2Y66.2
X61.55Y78.75
X62.0Y48.1
X62.6Y46.4
X62.75Y29.5
X63.8Y41.6
X64.1Y87.8
X64.2Y37.8
X64.4Y63.3
X65.8Y46.4
X65.95Y49.1
X66.0Y10.0
X66.0Y5.0
X66.1Y37.325
X66.925Y83.325
X67.5Y50.5
X67.7Y36.3
X67.95Y62.25
X68.075Y71.325
X68.7Y85.75
X68.9Y69.4
X68.95Y62.15
X69.1Y75.3
X70.3Y63.0
X71.0Y35.6
X71.0Y23.5
X71.0Y22.2
X71.1Y37.9
X71.5Y85.5
X71.55Y62.0
X71.55Y64.5
X71.85Y77.2
X72.45Y41.05
X72.95Y78.75
X73.35Y49.1
X73.5Y23.5
X73.7Y50.5
X73.7Y30.3
X73.7Y20.6
X73.7Y17.4
X73.8Y36.2
X74.3Y85.4
X74.325Y71.325
X74.75Y41.55
X74.9Y61.0
X75.0Y75.3
X75.65Y7.95
X75.65Y64.5
X75.7Y18.1
X75.825Y17.075
X76.2Y50.5
X76.2Y35.8
X76.4Y42.6
X76.85Y49.05
X76.85Y41.15
X77.09Y22.2
X77.095Y17.705
X77.1Y85.45
X77.55Y69.4
X77.6Y8.4
X77.7Y18.4
X78.1Y37.8
X78.35Y19.05
X79.06Y10.093
X79.308Y42.375
X79.4Y41.225
X79.65Y18.95
X79.675Y9.1
X80.15Y84.35
X80.25Y72.05
X80.3Y88.6
X80.3Y79.55
X80.3Y67.55
X80.3Y62.8
X80.35Y53.4
X80.375Y10.014
X80.4Y57.8
X80.825Y9.1
X80.9Y41.9
X80.946Y22.525
X81.9Y49.05
X81.9Y41.9
X81.95Y37.0
X82.054Y22.525
X82.2Y31.3
X82.4Y35.8
X82.4Y8.4
X82.7Y19.0
X83.15Y38.0
X83.6Y23.3
X84.25Y19.0
X84.3Y8.25
X84.4Y20.5
X84.478Y21.375
X85.0Y25.65
X85.3Y22.7
X85.7Y35.8
X85.75Y21.75
X86.1Y47.7
X86.1Y45.9
X86.5Y42.4
X89.4Y26.2
X91.0Y85.0
X91.0Y80.0
X91.0Y75.0
X91.0Y70.0
X91.0Y65.0
X91.0Y60.0
X92.05Y11.8
X92.15Y35.85
X94.475Y29.62
X94.475Y27.08
X102.15Y35.8
X102.15Y11.8
T3
X11.75Y32.2
X11.75Y29.66
X11.75Y27.12
X11.75Y24.58
X11.75Y22.04
X11.75Y19.5
X91.5Y32.25
X91.5Y29.71
X91.5Y27.17
X91.5Y24.63
X91.5Y22.09
X91.5Y19.55
T2
G00X75.68Y5.63
M15
G01X75.68Y6.73
M16
G05
G00X75.68Y1.61
M15
G01X75.68Y2.41
M16
G05
G00X84.32Y5.63
M15
G01X84.32Y6.73
M16
G05
G00X84.32Y1.61
M15
G01X84.32Y2.41
M16
G05
G00X21.68Y5.63
M15
G01X21.68Y6.73
M16
G05
G00X21.68Y1.61
M15
G01X21.68Y2.41
M16
G05
G00X30.32Y5.63
M15
G01X30.32Y6.73
M16
G05
G00X30.32Y1.61
M15
G01X30.32Y2.41
M16
G05
T0
M30
