G04 #@! TF.GenerationSoftware,KiCad,Pcbnew,5.1.9-73d0e3b20d~88~ubuntu20.04.1*
G04 #@! TF.CreationDate,2021-03-17T08:49:08+01:00*
G04 #@! TF.ProjectId,rs232-sniffer,72733233-322d-4736-9e69-666665722e6b,V20.0.1*
G04 #@! TF.SameCoordinates,PX206cc80PY7bfa480*
G04 #@! TF.FileFunction,Legend,Top*
G04 #@! TF.FilePolarity,Positive*
%FSLAX46Y46*%
G04 Gerber Fmt 4.6, Leading zero omitted, Abs format (unit mm)*
G04 Created by KiCad (PCBNEW 5.1.9-73d0e3b20d~88~ubuntu20.04.1) date 2021-03-17 08:49:08*
%MOMM*%
%LPD*%
G01*
G04 APERTURE LIST*
%ADD10C,0.300000*%
%ADD11C,0.200000*%
%ADD12C,0.400000*%
%ADD13C,0.120000*%
G04 APERTURE END LIST*
D10*
X98803571Y66442858D02*
X98803571Y65871429D01*
X97303571Y65871429D01*
X98017857Y66842858D02*
X98017857Y67242858D01*
X98803571Y67414286D02*
X98803571Y66842858D01*
X97303571Y66842858D01*
X97303571Y67414286D01*
X98803571Y67928572D02*
X97303571Y67928572D01*
X97303571Y68214286D01*
X97375000Y68385715D01*
X97517857Y68500000D01*
X97660714Y68557143D01*
X97946428Y68614286D01*
X98160714Y68614286D01*
X98446428Y68557143D01*
X98589285Y68500000D01*
X98732142Y68385715D01*
X98803571Y68214286D01*
X98803571Y67928572D01*
X97375000Y70671429D02*
X97303571Y70557143D01*
X97303571Y70385715D01*
X97375000Y70214286D01*
X97517857Y70100000D01*
X97660714Y70042858D01*
X97946428Y69985715D01*
X98160714Y69985715D01*
X98446428Y70042858D01*
X98589285Y70100000D01*
X98732142Y70214286D01*
X98803571Y70385715D01*
X98803571Y70500000D01*
X98732142Y70671429D01*
X98660714Y70728572D01*
X98160714Y70728572D01*
X98160714Y70500000D01*
X98803571Y71242858D02*
X97303571Y71242858D01*
X98803571Y71928572D01*
X97303571Y71928572D01*
X98017857Y73414286D02*
X98017857Y74328572D01*
X98446428Y74328572D02*
X98446428Y73414286D01*
X98803571Y75814286D02*
X97303571Y75814286D01*
X98017857Y75814286D02*
X98017857Y76500000D01*
X98803571Y76500000D02*
X97303571Y76500000D01*
X98803571Y77071429D02*
X97303571Y77071429D01*
X97375000Y78271429D02*
X97303571Y78157143D01*
X97303571Y77985715D01*
X97375000Y77814286D01*
X97517857Y77700000D01*
X97660714Y77642858D01*
X97946428Y77585715D01*
X98160714Y77585715D01*
X98446428Y77642858D01*
X98589285Y77700000D01*
X98732142Y77814286D01*
X98803571Y77985715D01*
X98803571Y78100000D01*
X98732142Y78271429D01*
X98660714Y78328572D01*
X98160714Y78328572D01*
X98160714Y78100000D01*
X98803571Y78842858D02*
X97303571Y78842858D01*
X98017857Y78842858D02*
X98017857Y79528572D01*
X98803571Y79528572D02*
X97303571Y79528572D01*
X101353571Y66957143D02*
X101353571Y66385715D01*
X99853571Y66385715D01*
X100567857Y67357143D02*
X100567857Y67757143D01*
X101353571Y67928572D02*
X101353571Y67357143D01*
X99853571Y67357143D01*
X99853571Y67928572D01*
X101353571Y68442858D02*
X99853571Y68442858D01*
X99853571Y68728572D01*
X99925000Y68900000D01*
X100067857Y69014286D01*
X100210714Y69071429D01*
X100496428Y69128572D01*
X100710714Y69128572D01*
X100996428Y69071429D01*
X101139285Y69014286D01*
X101282142Y68900000D01*
X101353571Y68728572D01*
X101353571Y68442858D01*
X101353571Y71242858D02*
X100639285Y70842858D01*
X101353571Y70557143D02*
X99853571Y70557143D01*
X99853571Y71014286D01*
X99925000Y71128572D01*
X99996428Y71185715D01*
X100139285Y71242858D01*
X100353571Y71242858D01*
X100496428Y71185715D01*
X100567857Y71128572D01*
X100639285Y71014286D01*
X100639285Y70557143D01*
X99853571Y71585715D02*
X99853571Y72271429D01*
X101353571Y71928572D02*
X99853571Y71928572D01*
X100567857Y73585715D02*
X100567857Y74500000D01*
X100996428Y74500000D02*
X100996428Y73585715D01*
X101353571Y76557143D02*
X101353571Y75985715D01*
X99853571Y75985715D01*
X99853571Y77185715D02*
X99853571Y77414286D01*
X99925000Y77528572D01*
X100067857Y77642858D01*
X100353571Y77700000D01*
X100853571Y77700000D01*
X101139285Y77642858D01*
X101282142Y77528572D01*
X101353571Y77414286D01*
X101353571Y77185715D01*
X101282142Y77071429D01*
X101139285Y76957143D01*
X100853571Y76900000D01*
X100353571Y76900000D01*
X100067857Y76957143D01*
X99925000Y77071429D01*
X99853571Y77185715D01*
X99853571Y78100000D02*
X101353571Y78385715D01*
X100282142Y78614286D01*
X101353571Y78842858D01*
X99853571Y79128572D01*
X3203571Y66342858D02*
X3203571Y65771429D01*
X1703571Y65771429D01*
X2417857Y66742858D02*
X2417857Y67142858D01*
X3203571Y67314286D02*
X3203571Y66742858D01*
X1703571Y66742858D01*
X1703571Y67314286D01*
X3203571Y67828572D02*
X1703571Y67828572D01*
X1703571Y68114286D01*
X1775000Y68285715D01*
X1917857Y68400000D01*
X2060714Y68457143D01*
X2346428Y68514286D01*
X2560714Y68514286D01*
X2846428Y68457143D01*
X2989285Y68400000D01*
X3132142Y68285715D01*
X3203571Y68114286D01*
X3203571Y67828572D01*
X1775000Y70571429D02*
X1703571Y70457143D01*
X1703571Y70285715D01*
X1775000Y70114286D01*
X1917857Y70000000D01*
X2060714Y69942858D01*
X2346428Y69885715D01*
X2560714Y69885715D01*
X2846428Y69942858D01*
X2989285Y70000000D01*
X3132142Y70114286D01*
X3203571Y70285715D01*
X3203571Y70400000D01*
X3132142Y70571429D01*
X3060714Y70628572D01*
X2560714Y70628572D01*
X2560714Y70400000D01*
X3203571Y71142858D02*
X1703571Y71142858D01*
X3203571Y71828572D01*
X1703571Y71828572D01*
X2417857Y73314286D02*
X2417857Y74228572D01*
X2846428Y74228572D02*
X2846428Y73314286D01*
X3203571Y75714286D02*
X1703571Y75714286D01*
X2417857Y75714286D02*
X2417857Y76400000D01*
X3203571Y76400000D02*
X1703571Y76400000D01*
X3203571Y76971429D02*
X1703571Y76971429D01*
X1775000Y78171429D02*
X1703571Y78057143D01*
X1703571Y77885715D01*
X1775000Y77714286D01*
X1917857Y77600000D01*
X2060714Y77542858D01*
X2346428Y77485715D01*
X2560714Y77485715D01*
X2846428Y77542858D01*
X2989285Y77600000D01*
X3132142Y77714286D01*
X3203571Y77885715D01*
X3203571Y78000000D01*
X3132142Y78171429D01*
X3060714Y78228572D01*
X2560714Y78228572D01*
X2560714Y78000000D01*
X3203571Y78742858D02*
X1703571Y78742858D01*
X2417857Y78742858D02*
X2417857Y79428572D01*
X3203571Y79428572D02*
X1703571Y79428572D01*
X5753571Y66857143D02*
X5753571Y66285715D01*
X4253571Y66285715D01*
X4967857Y67257143D02*
X4967857Y67657143D01*
X5753571Y67828572D02*
X5753571Y67257143D01*
X4253571Y67257143D01*
X4253571Y67828572D01*
X5753571Y68342858D02*
X4253571Y68342858D01*
X4253571Y68628572D01*
X4325000Y68800000D01*
X4467857Y68914286D01*
X4610714Y68971429D01*
X4896428Y69028572D01*
X5110714Y69028572D01*
X5396428Y68971429D01*
X5539285Y68914286D01*
X5682142Y68800000D01*
X5753571Y68628572D01*
X5753571Y68342858D01*
X5753571Y71142858D02*
X5039285Y70742858D01*
X5753571Y70457143D02*
X4253571Y70457143D01*
X4253571Y70914286D01*
X4325000Y71028572D01*
X4396428Y71085715D01*
X4539285Y71142858D01*
X4753571Y71142858D01*
X4896428Y71085715D01*
X4967857Y71028572D01*
X5039285Y70914286D01*
X5039285Y70457143D01*
X4253571Y71485715D02*
X4253571Y72171429D01*
X5753571Y71828572D02*
X4253571Y71828572D01*
X4967857Y73485715D02*
X4967857Y74400000D01*
X5396428Y74400000D02*
X5396428Y73485715D01*
X5753571Y76457143D02*
X5753571Y75885715D01*
X4253571Y75885715D01*
X4253571Y77085715D02*
X4253571Y77314286D01*
X4325000Y77428572D01*
X4467857Y77542858D01*
X4753571Y77600000D01*
X5253571Y77600000D01*
X5539285Y77542858D01*
X5682142Y77428572D01*
X5753571Y77314286D01*
X5753571Y77085715D01*
X5682142Y76971429D01*
X5539285Y76857143D01*
X5253571Y76800000D01*
X4753571Y76800000D01*
X4467857Y76857143D01*
X4325000Y76971429D01*
X4253571Y77085715D01*
X4253571Y78000000D02*
X5753571Y78285715D01*
X4682142Y78514286D01*
X5753571Y78742858D01*
X4253571Y79028572D01*
D11*
G36*
X38750000Y59850000D02*
G01*
X37750000Y59850000D01*
X38250000Y61250000D01*
X38750000Y59850000D01*
G37*
X38750000Y59850000D02*
X37750000Y59850000D01*
X38250000Y61250000D01*
X38750000Y59850000D01*
X38250000Y60350000D02*
X38250000Y56850000D01*
X10000000Y89050000D02*
X10000000Y58300000D01*
X92800000Y88600000D02*
X92800000Y57850000D01*
D12*
X95904761Y69859524D02*
X94952380Y69192858D01*
X95904761Y68716667D02*
X93904761Y68716667D01*
X93904761Y69478572D01*
X94000000Y69669048D01*
X94095238Y69764286D01*
X94285714Y69859524D01*
X94571428Y69859524D01*
X94761904Y69764286D01*
X94857142Y69669048D01*
X94952380Y69478572D01*
X94952380Y68716667D01*
X95809523Y70621429D02*
X95904761Y70907143D01*
X95904761Y71383334D01*
X95809523Y71573810D01*
X95714285Y71669048D01*
X95523809Y71764286D01*
X95333333Y71764286D01*
X95142857Y71669048D01*
X95047619Y71573810D01*
X94952380Y71383334D01*
X94857142Y71002381D01*
X94761904Y70811905D01*
X94666666Y70716667D01*
X94476190Y70621429D01*
X94285714Y70621429D01*
X94095238Y70716667D01*
X94000000Y70811905D01*
X93904761Y71002381D01*
X93904761Y71478572D01*
X94000000Y71764286D01*
X94095238Y72526191D02*
X94000000Y72621429D01*
X93904761Y72811905D01*
X93904761Y73288096D01*
X94000000Y73478572D01*
X94095238Y73573810D01*
X94285714Y73669048D01*
X94476190Y73669048D01*
X94761904Y73573810D01*
X95904761Y72430953D01*
X95904761Y73669048D01*
X93904761Y74335715D02*
X93904761Y75573810D01*
X94666666Y74907143D01*
X94666666Y75192858D01*
X94761904Y75383334D01*
X94857142Y75478572D01*
X95047619Y75573810D01*
X95523809Y75573810D01*
X95714285Y75478572D01*
X95809523Y75383334D01*
X95904761Y75192858D01*
X95904761Y74621429D01*
X95809523Y74430953D01*
X95714285Y74335715D01*
X94095238Y76335715D02*
X94000000Y76430953D01*
X93904761Y76621429D01*
X93904761Y77097620D01*
X94000000Y77288096D01*
X94095238Y77383334D01*
X94285714Y77478572D01*
X94476190Y77478572D01*
X94761904Y77383334D01*
X95904761Y76240477D01*
X95904761Y77478572D01*
X9254761Y69209524D02*
X8302380Y68542858D01*
X9254761Y68066667D02*
X7254761Y68066667D01*
X7254761Y68828572D01*
X7350000Y69019048D01*
X7445238Y69114286D01*
X7635714Y69209524D01*
X7921428Y69209524D01*
X8111904Y69114286D01*
X8207142Y69019048D01*
X8302380Y68828572D01*
X8302380Y68066667D01*
X9159523Y69971429D02*
X9254761Y70257143D01*
X9254761Y70733334D01*
X9159523Y70923810D01*
X9064285Y71019048D01*
X8873809Y71114286D01*
X8683333Y71114286D01*
X8492857Y71019048D01*
X8397619Y70923810D01*
X8302380Y70733334D01*
X8207142Y70352381D01*
X8111904Y70161905D01*
X8016666Y70066667D01*
X7826190Y69971429D01*
X7635714Y69971429D01*
X7445238Y70066667D01*
X7350000Y70161905D01*
X7254761Y70352381D01*
X7254761Y70828572D01*
X7350000Y71114286D01*
X7445238Y71876191D02*
X7350000Y71971429D01*
X7254761Y72161905D01*
X7254761Y72638096D01*
X7350000Y72828572D01*
X7445238Y72923810D01*
X7635714Y73019048D01*
X7826190Y73019048D01*
X8111904Y72923810D01*
X9254761Y71780953D01*
X9254761Y73019048D01*
X7254761Y73685715D02*
X7254761Y74923810D01*
X8016666Y74257143D01*
X8016666Y74542858D01*
X8111904Y74733334D01*
X8207142Y74828572D01*
X8397619Y74923810D01*
X8873809Y74923810D01*
X9064285Y74828572D01*
X9159523Y74733334D01*
X9254761Y74542858D01*
X9254761Y73971429D01*
X9159523Y73780953D01*
X9064285Y73685715D01*
X7445238Y75685715D02*
X7350000Y75780953D01*
X7254761Y75971429D01*
X7254761Y76447620D01*
X7350000Y76638096D01*
X7445238Y76733334D01*
X7635714Y76828572D01*
X7826190Y76828572D01*
X8111904Y76733334D01*
X9254761Y75590477D01*
X9254761Y76828572D01*
X95147619Y63695239D02*
X96385714Y63695239D01*
X95719047Y62933334D01*
X96004761Y62933334D01*
X96195238Y62838096D01*
X96290476Y62742858D01*
X96385714Y62552381D01*
X96385714Y62076191D01*
X96290476Y61885715D01*
X96195238Y61790477D01*
X96004761Y61695239D01*
X95433333Y61695239D01*
X95242857Y61790477D01*
X95147619Y61885715D01*
X97242857Y61885715D02*
X97338095Y61790477D01*
X97242857Y61695239D01*
X97147619Y61790477D01*
X97242857Y61885715D01*
X97242857Y61695239D01*
X98004761Y63695239D02*
X99242857Y63695239D01*
X98576190Y62933334D01*
X98861904Y62933334D01*
X99052380Y62838096D01*
X99147619Y62742858D01*
X99242857Y62552381D01*
X99242857Y62076191D01*
X99147619Y61885715D01*
X99052380Y61790477D01*
X98861904Y61695239D01*
X98290476Y61695239D01*
X98100000Y61790477D01*
X98004761Y61885715D01*
X99814285Y63695239D02*
X100480952Y61695239D01*
X101147619Y63695239D01*
X94909523Y60295239D02*
X94909523Y58676191D01*
X95004761Y58485715D01*
X95100000Y58390477D01*
X95290476Y58295239D01*
X95671428Y58295239D01*
X95861904Y58390477D01*
X95957142Y58485715D01*
X96052380Y58676191D01*
X96052380Y60295239D01*
X96909523Y58866667D02*
X97861904Y58866667D01*
X96719047Y58295239D02*
X97385714Y60295239D01*
X98052380Y58295239D01*
X99861904Y58295239D02*
X99195238Y59247620D01*
X98719047Y58295239D02*
X98719047Y60295239D01*
X99480952Y60295239D01*
X99671428Y60200000D01*
X99766666Y60104762D01*
X99861904Y59914286D01*
X99861904Y59628572D01*
X99766666Y59438096D01*
X99671428Y59342858D01*
X99480952Y59247620D01*
X98719047Y59247620D01*
X100433333Y60295239D02*
X101576190Y60295239D01*
X101004761Y58295239D02*
X101004761Y60295239D01*
X1847619Y63745239D02*
X3085714Y63745239D01*
X2419047Y62983334D01*
X2704761Y62983334D01*
X2895238Y62888096D01*
X2990476Y62792858D01*
X3085714Y62602381D01*
X3085714Y62126191D01*
X2990476Y61935715D01*
X2895238Y61840477D01*
X2704761Y61745239D01*
X2133333Y61745239D01*
X1942857Y61840477D01*
X1847619Y61935715D01*
X3942857Y61935715D02*
X4038095Y61840477D01*
X3942857Y61745239D01*
X3847619Y61840477D01*
X3942857Y61935715D01*
X3942857Y61745239D01*
X4704761Y63745239D02*
X5942857Y63745239D01*
X5276190Y62983334D01*
X5561904Y62983334D01*
X5752380Y62888096D01*
X5847619Y62792858D01*
X5942857Y62602381D01*
X5942857Y62126191D01*
X5847619Y61935715D01*
X5752380Y61840477D01*
X5561904Y61745239D01*
X4990476Y61745239D01*
X4800000Y61840477D01*
X4704761Y61935715D01*
X6514285Y63745239D02*
X7180952Y61745239D01*
X7847619Y63745239D01*
X1609523Y60345239D02*
X1609523Y58726191D01*
X1704761Y58535715D01*
X1800000Y58440477D01*
X1990476Y58345239D01*
X2371428Y58345239D01*
X2561904Y58440477D01*
X2657142Y58535715D01*
X2752380Y58726191D01*
X2752380Y60345239D01*
X3609523Y58916667D02*
X4561904Y58916667D01*
X3419047Y58345239D02*
X4085714Y60345239D01*
X4752380Y58345239D01*
X6561904Y58345239D02*
X5895238Y59297620D01*
X5419047Y58345239D02*
X5419047Y60345239D01*
X6180952Y60345239D01*
X6371428Y60250000D01*
X6466666Y60154762D01*
X6561904Y59964286D01*
X6561904Y59678572D01*
X6466666Y59488096D01*
X6371428Y59392858D01*
X6180952Y59297620D01*
X5419047Y59297620D01*
X7133333Y60345239D02*
X8276190Y60345239D01*
X7704761Y58345239D02*
X7704761Y60345239D01*
X23988095Y53545239D02*
X23988095Y55545239D01*
X25130952Y53545239D01*
X25130952Y55545239D01*
X26940476Y54878572D02*
X26940476Y53545239D01*
X26083333Y54878572D02*
X26083333Y53830953D01*
X26178571Y53640477D01*
X26369047Y53545239D01*
X26654761Y53545239D01*
X26845238Y53640477D01*
X26940476Y53735715D01*
X28178571Y53545239D02*
X27988095Y53640477D01*
X27892857Y53830953D01*
X27892857Y55545239D01*
X29226190Y53545239D02*
X29035714Y53640477D01*
X28940476Y53830953D01*
X28940476Y55545239D01*
X29988095Y54307143D02*
X31511904Y54307143D01*
X23083333Y50145239D02*
X23083333Y52145239D01*
X23750000Y50716667D01*
X24416666Y52145239D01*
X24416666Y50145239D01*
X25654761Y50145239D02*
X25464285Y50240477D01*
X25369047Y50335715D01*
X25273809Y50526191D01*
X25273809Y51097620D01*
X25369047Y51288096D01*
X25464285Y51383334D01*
X25654761Y51478572D01*
X25940476Y51478572D01*
X26130952Y51383334D01*
X26226190Y51288096D01*
X26321428Y51097620D01*
X26321428Y50526191D01*
X26226190Y50335715D01*
X26130952Y50240477D01*
X25940476Y50145239D01*
X25654761Y50145239D01*
X28035714Y50145239D02*
X28035714Y52145239D01*
X28035714Y50240477D02*
X27845238Y50145239D01*
X27464285Y50145239D01*
X27273809Y50240477D01*
X27178571Y50335715D01*
X27083333Y50526191D01*
X27083333Y51097620D01*
X27178571Y51288096D01*
X27273809Y51383334D01*
X27464285Y51478572D01*
X27845238Y51478572D01*
X28035714Y51383334D01*
X29750000Y50240477D02*
X29559523Y50145239D01*
X29178571Y50145239D01*
X28988095Y50240477D01*
X28892857Y50430953D01*
X28892857Y51192858D01*
X28988095Y51383334D01*
X29178571Y51478572D01*
X29559523Y51478572D01*
X29750000Y51383334D01*
X29845238Y51192858D01*
X29845238Y51002381D01*
X28892857Y50811905D01*
X30702380Y50145239D02*
X30702380Y51478572D01*
X30702380Y51288096D02*
X30797619Y51383334D01*
X30988095Y51478572D01*
X31273809Y51478572D01*
X31464285Y51383334D01*
X31559523Y51192858D01*
X31559523Y50145239D01*
X31559523Y51192858D02*
X31654761Y51383334D01*
X31845238Y51478572D01*
X32130952Y51478572D01*
X32321428Y51383334D01*
X32416666Y51192858D01*
X32416666Y50145239D01*
D11*
G36*
X75150000Y50650000D02*
G01*
X74650000Y52050000D01*
X75650000Y52050000D01*
X75150000Y50650000D01*
G37*
X75150000Y50650000D02*
X74650000Y52050000D01*
X75650000Y52050000D01*
X75150000Y50650000D01*
G36*
X75650000Y54600000D02*
G01*
X74650000Y54600000D01*
X75150000Y56000000D01*
X75650000Y54600000D01*
G37*
X75650000Y54600000D02*
X74650000Y54600000D01*
X75150000Y56000000D01*
X75650000Y54600000D01*
X75150000Y55100000D02*
X75150000Y51600000D01*
X34350000Y54700000D02*
X34350000Y51200000D01*
G36*
X34350000Y50250000D02*
G01*
X33850000Y51650000D01*
X34850000Y51650000D01*
X34350000Y50250000D01*
G37*
X34350000Y50250000D02*
X33850000Y51650000D01*
X34850000Y51650000D01*
X34350000Y50250000D01*
G36*
X34850000Y54200000D02*
G01*
X33850000Y54200000D01*
X34350000Y55600000D01*
X34850000Y54200000D01*
G37*
X34850000Y54200000D02*
X33850000Y54200000D01*
X34350000Y55600000D01*
X34850000Y54200000D01*
D12*
X70392857Y52595239D02*
X69250000Y52595239D01*
X69821428Y52595239D02*
X69821428Y54595239D01*
X69630952Y54309524D01*
X69440476Y54119048D01*
X69250000Y54023810D01*
X71250000Y52785715D02*
X71345238Y52690477D01*
X71250000Y52595239D01*
X71154761Y52690477D01*
X71250000Y52785715D01*
X71250000Y52595239D01*
X71250000Y53833334D02*
X71345238Y53738096D01*
X71250000Y53642858D01*
X71154761Y53738096D01*
X71250000Y53833334D01*
X71250000Y53642858D01*
X73250000Y52595239D02*
X72107142Y52595239D01*
X72678571Y52595239D02*
X72678571Y54595239D01*
X72488095Y54309524D01*
X72297619Y54119048D01*
X72107142Y54023810D01*
D11*
X5188095Y9850000D02*
X5092857Y9897620D01*
X4950000Y9897620D01*
X4807142Y9850000D01*
X4711904Y9754762D01*
X4664285Y9659524D01*
X4616666Y9469048D01*
X4616666Y9326191D01*
X4664285Y9135715D01*
X4711904Y9040477D01*
X4807142Y8945239D01*
X4950000Y8897620D01*
X5045238Y8897620D01*
X5188095Y8945239D01*
X5235714Y8992858D01*
X5235714Y9326191D01*
X5045238Y9326191D01*
X5664285Y8897620D02*
X5664285Y9897620D01*
X6235714Y8897620D01*
X6235714Y9897620D01*
X6711904Y8897620D02*
X6711904Y9897620D01*
X6950000Y9897620D01*
X7092857Y9850000D01*
X7188095Y9754762D01*
X7235714Y9659524D01*
X7283333Y9469048D01*
X7283333Y9326191D01*
X7235714Y9135715D01*
X7188095Y9040477D01*
X7092857Y8945239D01*
X6950000Y8897620D01*
X6711904Y8897620D01*
X43959523Y17447620D02*
X43483333Y17447620D01*
X43435714Y16971429D01*
X43483333Y17019048D01*
X43578571Y17066667D01*
X43816666Y17066667D01*
X43911904Y17019048D01*
X43959523Y16971429D01*
X44007142Y16876191D01*
X44007142Y16638096D01*
X43959523Y16542858D01*
X43911904Y16495239D01*
X43816666Y16447620D01*
X43578571Y16447620D01*
X43483333Y16495239D01*
X43435714Y16542858D01*
X44292857Y17447620D02*
X44626190Y16447620D01*
X44959523Y17447620D01*
X39600000Y16000000D02*
X48900000Y16000000D01*
X55661904Y17447620D02*
X56280952Y17447620D01*
X55947619Y17066667D01*
X56090476Y17066667D01*
X56185714Y17019048D01*
X56233333Y16971429D01*
X56280952Y16876191D01*
X56280952Y16638096D01*
X56233333Y16542858D01*
X56185714Y16495239D01*
X56090476Y16447620D01*
X55804761Y16447620D01*
X55709523Y16495239D01*
X55661904Y16542858D01*
X56566666Y17447620D02*
X56900000Y16447620D01*
X57233333Y17447620D01*
X57471428Y17447620D02*
X58090476Y17447620D01*
X57757142Y17066667D01*
X57900000Y17066667D01*
X57995238Y17019048D01*
X58042857Y16971429D01*
X58090476Y16876191D01*
X58090476Y16638096D01*
X58042857Y16542858D01*
X57995238Y16495239D01*
X57900000Y16447620D01*
X57614285Y16447620D01*
X57519047Y16495239D01*
X57471428Y16542858D01*
X52350000Y16000000D02*
X61650000Y16000000D01*
X49638095Y5250000D02*
X49542857Y5297620D01*
X49400000Y5297620D01*
X49257142Y5250000D01*
X49161904Y5154762D01*
X49114285Y5059524D01*
X49066666Y4869048D01*
X49066666Y4726191D01*
X49114285Y4535715D01*
X49161904Y4440477D01*
X49257142Y4345239D01*
X49400000Y4297620D01*
X49495238Y4297620D01*
X49638095Y4345239D01*
X49685714Y4392858D01*
X49685714Y4726191D01*
X49495238Y4726191D01*
X50114285Y4297620D02*
X50114285Y5297620D01*
X50685714Y4297620D01*
X50685714Y5297620D01*
X51161904Y4297620D02*
X51161904Y5297620D01*
X51400000Y5297620D01*
X51542857Y5250000D01*
X51638095Y5154762D01*
X51685714Y5059524D01*
X51733333Y4869048D01*
X51733333Y4726191D01*
X51685714Y4535715D01*
X51638095Y4440477D01*
X51542857Y4345239D01*
X51400000Y4297620D01*
X51161904Y4297620D01*
X39650000Y6050000D02*
X61900000Y6050000D01*
X14618095Y4997620D02*
X14618095Y4188096D01*
X14665714Y4092858D01*
X14713333Y4045239D01*
X14808571Y3997620D01*
X14999047Y3997620D01*
X15094285Y4045239D01*
X15141904Y4092858D01*
X15189523Y4188096D01*
X15189523Y4997620D01*
X15618095Y4045239D02*
X15760952Y3997620D01*
X15999047Y3997620D01*
X16094285Y4045239D01*
X16141904Y4092858D01*
X16189523Y4188096D01*
X16189523Y4283334D01*
X16141904Y4378572D01*
X16094285Y4426191D01*
X15999047Y4473810D01*
X15808571Y4521429D01*
X15713333Y4569048D01*
X15665714Y4616667D01*
X15618095Y4711905D01*
X15618095Y4807143D01*
X15665714Y4902381D01*
X15713333Y4950000D01*
X15808571Y4997620D01*
X16046666Y4997620D01*
X16189523Y4950000D01*
X16951428Y4521429D02*
X17094285Y4473810D01*
X17141904Y4426191D01*
X17189523Y4330953D01*
X17189523Y4188096D01*
X17141904Y4092858D01*
X17094285Y4045239D01*
X16999047Y3997620D01*
X16618095Y3997620D01*
X16618095Y4997620D01*
X16951428Y4997620D01*
X17046666Y4950000D01*
X17094285Y4902381D01*
X17141904Y4807143D01*
X17141904Y4711905D01*
X17094285Y4616667D01*
X17046666Y4569048D01*
X16951428Y4521429D01*
X16618095Y4521429D01*
X17618095Y4378572D02*
X18380000Y4378572D01*
X19427619Y4092858D02*
X19380000Y4045239D01*
X19237142Y3997620D01*
X19141904Y3997620D01*
X18999047Y4045239D01*
X18903809Y4140477D01*
X18856190Y4235715D01*
X18808571Y4426191D01*
X18808571Y4569048D01*
X18856190Y4759524D01*
X18903809Y4854762D01*
X18999047Y4950000D01*
X19141904Y4997620D01*
X19237142Y4997620D01*
X19380000Y4950000D01*
X19427619Y4902381D01*
X14618095Y3297620D02*
X14618095Y2488096D01*
X14665714Y2392858D01*
X14713333Y2345239D01*
X14808571Y2297620D01*
X14999047Y2297620D01*
X15094285Y2345239D01*
X15141904Y2392858D01*
X15189523Y2488096D01*
X15189523Y3297620D01*
X15618095Y2345239D02*
X15760952Y2297620D01*
X15999047Y2297620D01*
X16094285Y2345239D01*
X16141904Y2392858D01*
X16189523Y2488096D01*
X16189523Y2583334D01*
X16141904Y2678572D01*
X16094285Y2726191D01*
X15999047Y2773810D01*
X15808571Y2821429D01*
X15713333Y2869048D01*
X15665714Y2916667D01*
X15618095Y3011905D01*
X15618095Y3107143D01*
X15665714Y3202381D01*
X15713333Y3250000D01*
X15808571Y3297620D01*
X16046666Y3297620D01*
X16189523Y3250000D01*
X16951428Y2821429D02*
X17094285Y2773810D01*
X17141904Y2726191D01*
X17189523Y2630953D01*
X17189523Y2488096D01*
X17141904Y2392858D01*
X17094285Y2345239D01*
X16999047Y2297620D01*
X16618095Y2297620D01*
X16618095Y3297620D01*
X16951428Y3297620D01*
X17046666Y3250000D01*
X17094285Y3202381D01*
X17141904Y3107143D01*
X17141904Y3011905D01*
X17094285Y2916667D01*
X17046666Y2869048D01*
X16951428Y2821429D01*
X16618095Y2821429D01*
X18332380Y3202381D02*
X18380000Y3250000D01*
X18475238Y3297620D01*
X18713333Y3297620D01*
X18808571Y3250000D01*
X18856190Y3202381D01*
X18903809Y3107143D01*
X18903809Y3011905D01*
X18856190Y2869048D01*
X18284761Y2297620D01*
X18903809Y2297620D01*
X19332380Y2392858D02*
X19380000Y2345239D01*
X19332380Y2297620D01*
X19284761Y2345239D01*
X19332380Y2392858D01*
X19332380Y2297620D01*
X19999047Y3297620D02*
X20094285Y3297620D01*
X20189523Y3250000D01*
X20237142Y3202381D01*
X20284761Y3107143D01*
X20332380Y2916667D01*
X20332380Y2678572D01*
X20284761Y2488096D01*
X20237142Y2392858D01*
X20189523Y2345239D01*
X20094285Y2297620D01*
X19999047Y2297620D01*
X19903809Y2345239D01*
X19856190Y2392858D01*
X19808571Y2488096D01*
X19760952Y2678572D01*
X19760952Y2916667D01*
X19808571Y3107143D01*
X19856190Y3202381D01*
X19903809Y3250000D01*
X19999047Y3297620D01*
X26621428Y10669048D02*
X26621428Y11430953D01*
X27002380Y11050000D02*
X26240476Y11050000D01*
X28302380Y9669048D02*
X27302380Y9669048D01*
X27302380Y9907143D01*
X27350000Y10050000D01*
X27445238Y10145239D01*
X27540476Y10192858D01*
X27730952Y10240477D01*
X27873809Y10240477D01*
X28064285Y10192858D01*
X28159523Y10145239D01*
X28254761Y10050000D01*
X28302380Y9907143D01*
X28302380Y9669048D01*
X27921428Y10669048D02*
X27921428Y11430953D01*
G36*
X1500000Y16960000D02*
G01*
X600000Y16460000D01*
X600000Y17460000D01*
X1500000Y16960000D01*
G37*
X1500000Y16960000D02*
X600000Y16460000D01*
X600000Y17460000D01*
X1500000Y16960000D01*
G36*
X1450000Y26620000D02*
G01*
X550000Y27120000D01*
X1450000Y27620000D01*
X1450000Y26620000D01*
G37*
X1450000Y26620000D02*
X550000Y27120000D01*
X1450000Y27620000D01*
X1450000Y26620000D01*
G36*
X1450000Y31700000D02*
G01*
X550000Y32200000D01*
X1450000Y32700000D01*
X1450000Y31700000D01*
G37*
X1450000Y31700000D02*
X550000Y32200000D01*
X1450000Y32700000D01*
X1450000Y31700000D01*
G36*
X1500000Y24580000D02*
G01*
X600000Y24080000D01*
X600000Y25080000D01*
X1500000Y24580000D01*
G37*
X1500000Y24580000D02*
X600000Y24080000D01*
X600000Y25080000D01*
X1500000Y24580000D01*
G36*
X1500000Y22040000D02*
G01*
X600000Y21540000D01*
X600000Y22540000D01*
X1500000Y22040000D01*
G37*
X1500000Y22040000D02*
X600000Y21540000D01*
X600000Y22540000D01*
X1500000Y22040000D01*
G36*
X1500000Y14420000D02*
G01*
X600000Y13920000D01*
X600000Y14920000D01*
X1500000Y14420000D01*
G37*
X1500000Y14420000D02*
X600000Y13920000D01*
X600000Y14920000D01*
X1500000Y14420000D01*
G36*
X1450000Y29160000D02*
G01*
X550000Y29660000D01*
X1450000Y30160000D01*
X1450000Y29160000D01*
G37*
X1450000Y29160000D02*
X550000Y29660000D01*
X1450000Y30160000D01*
X1450000Y29160000D01*
G36*
X1500000Y19500000D02*
G01*
X600000Y19000000D01*
X600000Y20000000D01*
X1500000Y19500000D01*
G37*
X1500000Y19500000D02*
X600000Y19000000D01*
X600000Y20000000D01*
X1500000Y19500000D01*
G36*
X1500000Y45360000D02*
G01*
X600000Y45860000D01*
X1500000Y46360000D01*
X1500000Y45360000D01*
G37*
X1500000Y45360000D02*
X600000Y45860000D01*
X1500000Y46360000D01*
X1500000Y45360000D01*
G36*
X1600000Y53610000D02*
G01*
X700000Y53110000D01*
X700000Y54110000D01*
X1600000Y53610000D01*
G37*
X1600000Y53610000D02*
X700000Y53110000D01*
X700000Y54110000D01*
X1600000Y53610000D01*
G36*
X1600000Y51070000D02*
G01*
X700000Y50570000D01*
X700000Y51570000D01*
X1600000Y51070000D01*
G37*
X1600000Y51070000D02*
X700000Y50570000D01*
X700000Y51570000D01*
X1600000Y51070000D01*
G36*
X1500000Y47900000D02*
G01*
X600000Y48400000D01*
X1500000Y48900000D01*
X1500000Y47900000D01*
G37*
X1500000Y47900000D02*
X600000Y48400000D01*
X1500000Y48900000D01*
X1500000Y47900000D01*
G36*
X1500000Y42820000D02*
G01*
X600000Y43320000D01*
X1500000Y43820000D01*
X1500000Y42820000D01*
G37*
X1500000Y42820000D02*
X600000Y43320000D01*
X1500000Y43820000D01*
X1500000Y42820000D01*
G36*
X1500000Y37860000D02*
G01*
X600000Y38360000D01*
X1500000Y38860000D01*
X1500000Y37860000D01*
G37*
X1500000Y37860000D02*
X600000Y38360000D01*
X1500000Y38860000D01*
X1500000Y37860000D01*
G36*
X1600000Y56150000D02*
G01*
X700000Y55650000D01*
X700000Y56650000D01*
X1600000Y56150000D01*
G37*
X1600000Y56150000D02*
X700000Y55650000D01*
X700000Y56650000D01*
X1600000Y56150000D01*
G36*
X1500000Y40400000D02*
G01*
X600000Y40900000D01*
X1500000Y41400000D01*
X1500000Y40400000D01*
G37*
X1500000Y40400000D02*
X600000Y40900000D01*
X1500000Y41400000D01*
X1500000Y40400000D01*
X59852380Y51028572D02*
X59376190Y50695239D01*
X59852380Y50457143D02*
X58852380Y50457143D01*
X58852380Y50838096D01*
X58900000Y50933334D01*
X58947619Y50980953D01*
X59042857Y51028572D01*
X59185714Y51028572D01*
X59280952Y50980953D01*
X59328571Y50933334D01*
X59376190Y50838096D01*
X59376190Y50457143D01*
X58852380Y51314286D02*
X58852380Y51885715D01*
X59852380Y51600000D02*
X58852380Y51600000D01*
X59852380Y52790477D02*
X59376190Y52457143D01*
X59852380Y52219048D02*
X58852380Y52219048D01*
X58852380Y52600000D01*
X58900000Y52695239D01*
X58947619Y52742858D01*
X59042857Y52790477D01*
X59185714Y52790477D01*
X59280952Y52742858D01*
X59328571Y52695239D01*
X59376190Y52600000D01*
X59376190Y52219048D01*
X57252380Y50657143D02*
X56252380Y50657143D01*
X56252380Y50895239D01*
X56300000Y51038096D01*
X56395238Y51133334D01*
X56490476Y51180953D01*
X56680952Y51228572D01*
X56823809Y51228572D01*
X57014285Y51180953D01*
X57109523Y51133334D01*
X57204761Y51038096D01*
X57252380Y50895239D01*
X57252380Y50657143D01*
X56252380Y51514286D02*
X56252380Y52085715D01*
X57252380Y51800000D02*
X56252380Y51800000D01*
X57252380Y52990477D02*
X56776190Y52657143D01*
X57252380Y52419048D02*
X56252380Y52419048D01*
X56252380Y52800000D01*
X56300000Y52895239D01*
X56347619Y52942858D01*
X56442857Y52990477D01*
X56585714Y52990477D01*
X56680952Y52942858D01*
X56728571Y52895239D01*
X56776190Y52800000D01*
X56776190Y52419048D01*
X53652380Y50609524D02*
X53652380Y51180953D01*
X54652380Y50895239D02*
X53652380Y50895239D01*
X54652380Y51419048D02*
X53985714Y51942858D01*
X53985714Y51419048D02*
X54652380Y51942858D01*
X54652380Y52323810D02*
X53652380Y52323810D01*
X53652380Y52561905D01*
X53700000Y52704762D01*
X53795238Y52800000D01*
X53890476Y52847620D01*
X54080952Y52895239D01*
X54223809Y52895239D01*
X54414285Y52847620D01*
X54509523Y52800000D01*
X54604761Y52704762D01*
X54652380Y52561905D01*
X54652380Y52323810D01*
X49557142Y51052381D02*
X49604761Y51004762D01*
X49652380Y50861905D01*
X49652380Y50766667D01*
X49604761Y50623810D01*
X49509523Y50528572D01*
X49414285Y50480953D01*
X49223809Y50433334D01*
X49080952Y50433334D01*
X48890476Y50480953D01*
X48795238Y50528572D01*
X48700000Y50623810D01*
X48652380Y50766667D01*
X48652380Y50861905D01*
X48700000Y51004762D01*
X48747619Y51052381D01*
X48652380Y51338096D02*
X48652380Y51909524D01*
X49652380Y51623810D02*
X48652380Y51623810D01*
X49604761Y52195239D02*
X49652380Y52338096D01*
X49652380Y52576191D01*
X49604761Y52671429D01*
X49557142Y52719048D01*
X49461904Y52766667D01*
X49366666Y52766667D01*
X49271428Y52719048D01*
X49223809Y52671429D01*
X49176190Y52576191D01*
X49128571Y52385715D01*
X49080952Y52290477D01*
X49033333Y52242858D01*
X48938095Y52195239D01*
X48842857Y52195239D01*
X48747619Y52242858D01*
X48700000Y52290477D01*
X48652380Y52385715D01*
X48652380Y52623810D01*
X48700000Y52766667D01*
X47052380Y50361905D02*
X46052380Y50361905D01*
X46052380Y50600000D01*
X46100000Y50742858D01*
X46195238Y50838096D01*
X46290476Y50885715D01*
X46480952Y50933334D01*
X46623809Y50933334D01*
X46814285Y50885715D01*
X46909523Y50838096D01*
X47004761Y50742858D01*
X47052380Y50600000D01*
X47052380Y50361905D01*
X47004761Y51314286D02*
X47052380Y51457143D01*
X47052380Y51695239D01*
X47004761Y51790477D01*
X46957142Y51838096D01*
X46861904Y51885715D01*
X46766666Y51885715D01*
X46671428Y51838096D01*
X46623809Y51790477D01*
X46576190Y51695239D01*
X46528571Y51504762D01*
X46480952Y51409524D01*
X46433333Y51361905D01*
X46338095Y51314286D01*
X46242857Y51314286D01*
X46147619Y51361905D01*
X46100000Y51409524D01*
X46052380Y51504762D01*
X46052380Y51742858D01*
X46100000Y51885715D01*
X47052380Y52885715D02*
X46576190Y52552381D01*
X47052380Y52314286D02*
X46052380Y52314286D01*
X46052380Y52695239D01*
X46100000Y52790477D01*
X46147619Y52838096D01*
X46242857Y52885715D01*
X46385714Y52885715D01*
X46480952Y52838096D01*
X46528571Y52790477D01*
X46576190Y52695239D01*
X46576190Y52314286D01*
X44652380Y50338096D02*
X43652380Y50338096D01*
X43652380Y50576191D01*
X43700000Y50719048D01*
X43795238Y50814286D01*
X43890476Y50861905D01*
X44080952Y50909524D01*
X44223809Y50909524D01*
X44414285Y50861905D01*
X44509523Y50814286D01*
X44604761Y50719048D01*
X44652380Y50576191D01*
X44652380Y50338096D01*
X44557142Y51909524D02*
X44604761Y51861905D01*
X44652380Y51719048D01*
X44652380Y51623810D01*
X44604761Y51480953D01*
X44509523Y51385715D01*
X44414285Y51338096D01*
X44223809Y51290477D01*
X44080952Y51290477D01*
X43890476Y51338096D01*
X43795238Y51385715D01*
X43700000Y51480953D01*
X43652380Y51623810D01*
X43652380Y51719048D01*
X43700000Y51861905D01*
X43747619Y51909524D01*
X44652380Y52338096D02*
X43652380Y52338096D01*
X43652380Y52576191D01*
X43700000Y52719048D01*
X43795238Y52814286D01*
X43890476Y52861905D01*
X44080952Y52909524D01*
X44223809Y52909524D01*
X44414285Y52861905D01*
X44509523Y52814286D01*
X44604761Y52719048D01*
X44652380Y52576191D01*
X44652380Y52338096D01*
X42052380Y51004762D02*
X41576190Y50671429D01*
X42052380Y50433334D02*
X41052380Y50433334D01*
X41052380Y50814286D01*
X41100000Y50909524D01*
X41147619Y50957143D01*
X41242857Y51004762D01*
X41385714Y51004762D01*
X41480952Y50957143D01*
X41528571Y50909524D01*
X41576190Y50814286D01*
X41576190Y50433334D01*
X42052380Y51338096D02*
X41385714Y51861905D01*
X41385714Y51338096D02*
X42052380Y51861905D01*
X42052380Y52242858D02*
X41052380Y52242858D01*
X41052380Y52480953D01*
X41100000Y52623810D01*
X41195238Y52719048D01*
X41290476Y52766667D01*
X41480952Y52814286D01*
X41623809Y52814286D01*
X41814285Y52766667D01*
X41909523Y52719048D01*
X42004761Y52623810D01*
X42052380Y52480953D01*
X42052380Y52242858D01*
X10761904Y43047620D02*
X10761904Y44047620D01*
X11000000Y44047620D01*
X11142857Y44000000D01*
X11238095Y43904762D01*
X11285714Y43809524D01*
X11333333Y43619048D01*
X11333333Y43476191D01*
X11285714Y43285715D01*
X11238095Y43190477D01*
X11142857Y43095239D01*
X11000000Y43047620D01*
X10761904Y43047620D01*
X11714285Y43095239D02*
X11857142Y43047620D01*
X12095238Y43047620D01*
X12190476Y43095239D01*
X12238095Y43142858D01*
X12285714Y43238096D01*
X12285714Y43333334D01*
X12238095Y43428572D01*
X12190476Y43476191D01*
X12095238Y43523810D01*
X11904761Y43571429D01*
X11809523Y43619048D01*
X11761904Y43666667D01*
X11714285Y43761905D01*
X11714285Y43857143D01*
X11761904Y43952381D01*
X11809523Y44000000D01*
X11904761Y44047620D01*
X12142857Y44047620D01*
X12285714Y44000000D01*
X13285714Y43047620D02*
X12952380Y43523810D01*
X12714285Y43047620D02*
X12714285Y44047620D01*
X13095238Y44047620D01*
X13190476Y44000000D01*
X13238095Y43952381D01*
X13285714Y43857143D01*
X13285714Y43714286D01*
X13238095Y43619048D01*
X13190476Y43571429D01*
X13095238Y43523810D01*
X12714285Y43523810D01*
X12038095Y36300000D02*
X11942857Y36347620D01*
X11800000Y36347620D01*
X11657142Y36300000D01*
X11561904Y36204762D01*
X11514285Y36109524D01*
X11466666Y35919048D01*
X11466666Y35776191D01*
X11514285Y35585715D01*
X11561904Y35490477D01*
X11657142Y35395239D01*
X11800000Y35347620D01*
X11895238Y35347620D01*
X12038095Y35395239D01*
X12085714Y35442858D01*
X12085714Y35776191D01*
X11895238Y35776191D01*
X12514285Y35347620D02*
X12514285Y36347620D01*
X13085714Y35347620D01*
X13085714Y36347620D01*
X13561904Y35347620D02*
X13561904Y36347620D01*
X13800000Y36347620D01*
X13942857Y36300000D01*
X14038095Y36204762D01*
X14085714Y36109524D01*
X14133333Y35919048D01*
X14133333Y35776191D01*
X14085714Y35585715D01*
X14038095Y35490477D01*
X13942857Y35395239D01*
X13800000Y35347620D01*
X13561904Y35347620D01*
X11404761Y48047620D02*
X11071428Y48523810D01*
X10833333Y48047620D02*
X10833333Y49047620D01*
X11214285Y49047620D01*
X11309523Y49000000D01*
X11357142Y48952381D01*
X11404761Y48857143D01*
X11404761Y48714286D01*
X11357142Y48619048D01*
X11309523Y48571429D01*
X11214285Y48523810D01*
X10833333Y48523810D01*
X11738095Y48047620D02*
X12261904Y48714286D01*
X11738095Y48714286D02*
X12261904Y48047620D01*
X12642857Y48047620D02*
X12642857Y49047620D01*
X12880952Y49047620D01*
X13023809Y49000000D01*
X13119047Y48904762D01*
X13166666Y48809524D01*
X13214285Y48619048D01*
X13214285Y48476191D01*
X13166666Y48285715D01*
X13119047Y48190477D01*
X13023809Y48095239D01*
X12880952Y48047620D01*
X12642857Y48047620D01*
X12071428Y38047620D02*
X11738095Y38523810D01*
X11500000Y38047620D02*
X11500000Y39047620D01*
X11880952Y39047620D01*
X11976190Y39000000D01*
X12023809Y38952381D01*
X12071428Y38857143D01*
X12071428Y38714286D01*
X12023809Y38619048D01*
X11976190Y38571429D01*
X11880952Y38523810D01*
X11500000Y38523810D01*
X12500000Y38047620D02*
X12500000Y39047620D01*
X10738095Y45547620D02*
X10738095Y46547620D01*
X10976190Y46547620D01*
X11119047Y46500000D01*
X11214285Y46404762D01*
X11261904Y46309524D01*
X11309523Y46119048D01*
X11309523Y45976191D01*
X11261904Y45785715D01*
X11214285Y45690477D01*
X11119047Y45595239D01*
X10976190Y45547620D01*
X10738095Y45547620D01*
X12309523Y45642858D02*
X12261904Y45595239D01*
X12119047Y45547620D01*
X12023809Y45547620D01*
X11880952Y45595239D01*
X11785714Y45690477D01*
X11738095Y45785715D01*
X11690476Y45976191D01*
X11690476Y46119048D01*
X11738095Y46309524D01*
X11785714Y46404762D01*
X11880952Y46500000D01*
X12023809Y46547620D01*
X12119047Y46547620D01*
X12261904Y46500000D01*
X12309523Y46452381D01*
X12738095Y45547620D02*
X12738095Y46547620D01*
X12976190Y46547620D01*
X13119047Y46500000D01*
X13214285Y46404762D01*
X13261904Y46309524D01*
X13309523Y46119048D01*
X13309523Y45976191D01*
X13261904Y45785715D01*
X13214285Y45690477D01*
X13119047Y45595239D01*
X12976190Y45547620D01*
X12738095Y45547620D01*
X10809523Y56797620D02*
X11380952Y56797620D01*
X11095238Y55797620D02*
X11095238Y56797620D01*
X11619047Y55797620D02*
X12142857Y56464286D01*
X11619047Y56464286D02*
X12142857Y55797620D01*
X12523809Y55797620D02*
X12523809Y56797620D01*
X12761904Y56797620D01*
X12904761Y56750000D01*
X13000000Y56654762D01*
X13047619Y56559524D01*
X13095238Y56369048D01*
X13095238Y56226191D01*
X13047619Y56035715D01*
X13000000Y55940477D01*
X12904761Y55845239D01*
X12761904Y55797620D01*
X12523809Y55797620D01*
X10857142Y53047620D02*
X10857142Y54047620D01*
X11095238Y54047620D01*
X11238095Y54000000D01*
X11333333Y53904762D01*
X11380952Y53809524D01*
X11428571Y53619048D01*
X11428571Y53476191D01*
X11380952Y53285715D01*
X11333333Y53190477D01*
X11238095Y53095239D01*
X11095238Y53047620D01*
X10857142Y53047620D01*
X11714285Y54047620D02*
X12285714Y54047620D01*
X12000000Y53047620D02*
X12000000Y54047620D01*
X13190476Y53047620D02*
X12857142Y53523810D01*
X12619047Y53047620D02*
X12619047Y54047620D01*
X13000000Y54047620D01*
X13095238Y54000000D01*
X13142857Y53952381D01*
X13190476Y53857143D01*
X13190476Y53714286D01*
X13142857Y53619048D01*
X13095238Y53571429D01*
X13000000Y53523810D01*
X12619047Y53523810D01*
X11428571Y50547620D02*
X11095238Y51023810D01*
X10857142Y50547620D02*
X10857142Y51547620D01*
X11238095Y51547620D01*
X11333333Y51500000D01*
X11380952Y51452381D01*
X11428571Y51357143D01*
X11428571Y51214286D01*
X11380952Y51119048D01*
X11333333Y51071429D01*
X11238095Y51023810D01*
X10857142Y51023810D01*
X11714285Y51547620D02*
X12285714Y51547620D01*
X12000000Y50547620D02*
X12000000Y51547620D01*
X13190476Y50547620D02*
X12857142Y51023810D01*
X12619047Y50547620D02*
X12619047Y51547620D01*
X13000000Y51547620D01*
X13095238Y51500000D01*
X13142857Y51452381D01*
X13190476Y51357143D01*
X13190476Y51214286D01*
X13142857Y51119048D01*
X13095238Y51071429D01*
X13000000Y51023810D01*
X12619047Y51023810D01*
X11452380Y40642858D02*
X11404761Y40595239D01*
X11261904Y40547620D01*
X11166666Y40547620D01*
X11023809Y40595239D01*
X10928571Y40690477D01*
X10880952Y40785715D01*
X10833333Y40976191D01*
X10833333Y41119048D01*
X10880952Y41309524D01*
X10928571Y41404762D01*
X11023809Y41500000D01*
X11166666Y41547620D01*
X11261904Y41547620D01*
X11404761Y41500000D01*
X11452380Y41452381D01*
X11738095Y41547620D02*
X12309523Y41547620D01*
X12023809Y40547620D02*
X12023809Y41547620D01*
X12595238Y40595239D02*
X12738095Y40547620D01*
X12976190Y40547620D01*
X13071428Y40595239D01*
X13119047Y40642858D01*
X13166666Y40738096D01*
X13166666Y40833334D01*
X13119047Y40928572D01*
X13071428Y40976191D01*
X12976190Y41023810D01*
X12785714Y41071429D01*
X12690476Y41119048D01*
X12642857Y41166667D01*
X12595238Y41261905D01*
X12595238Y41357143D01*
X12642857Y41452381D01*
X12690476Y41500000D01*
X12785714Y41547620D01*
X13023809Y41547620D01*
X13166666Y41500000D01*
X92500000Y11000000D02*
X92500000Y33500000D01*
X91000000Y14750000D02*
X92500000Y11000000D01*
X91000000Y750000D02*
X91000000Y14750000D01*
X96238095Y10000000D02*
X96142857Y10047620D01*
X96000000Y10047620D01*
X95857142Y10000000D01*
X95761904Y9904762D01*
X95714285Y9809524D01*
X95666666Y9619048D01*
X95666666Y9476191D01*
X95714285Y9285715D01*
X95761904Y9190477D01*
X95857142Y9095239D01*
X96000000Y9047620D01*
X96095238Y9047620D01*
X96238095Y9095239D01*
X96285714Y9142858D01*
X96285714Y9476191D01*
X96095238Y9476191D01*
X96714285Y9047620D02*
X96714285Y10047620D01*
X97285714Y9047620D01*
X97285714Y10047620D01*
X97761904Y9047620D02*
X97761904Y10047620D01*
X98000000Y10047620D01*
X98142857Y10000000D01*
X98238095Y9904762D01*
X98285714Y9809524D01*
X98333333Y9619048D01*
X98333333Y9476191D01*
X98285714Y9285715D01*
X98238095Y9190477D01*
X98142857Y9095239D01*
X98000000Y9047620D01*
X97761904Y9047620D01*
X88488095Y1750000D02*
X88392857Y1797620D01*
X88250000Y1797620D01*
X88107142Y1750000D01*
X88011904Y1654762D01*
X87964285Y1559524D01*
X87916666Y1369048D01*
X87916666Y1226191D01*
X87964285Y1035715D01*
X88011904Y940477D01*
X88107142Y845239D01*
X88250000Y797620D01*
X88345238Y797620D01*
X88488095Y845239D01*
X88535714Y892858D01*
X88535714Y1226191D01*
X88345238Y1226191D01*
X88964285Y797620D02*
X88964285Y1797620D01*
X89535714Y797620D01*
X89535714Y1797620D01*
X90011904Y797620D02*
X90011904Y1797620D01*
X90250000Y1797620D01*
X90392857Y1750000D01*
X90488095Y1654762D01*
X90535714Y1559524D01*
X90583333Y1369048D01*
X90583333Y1226191D01*
X90535714Y1035715D01*
X90488095Y940477D01*
X90392857Y845239D01*
X90250000Y797620D01*
X90011904Y797620D01*
X88011904Y5672620D02*
X88011904Y6672620D01*
X88250000Y6672620D01*
X88392857Y6625000D01*
X88488095Y6529762D01*
X88535714Y6434524D01*
X88583333Y6244048D01*
X88583333Y6101191D01*
X88535714Y5910715D01*
X88488095Y5815477D01*
X88392857Y5720239D01*
X88250000Y5672620D01*
X88011904Y5672620D01*
X88964285Y5720239D02*
X89107142Y5672620D01*
X89345238Y5672620D01*
X89440476Y5720239D01*
X89488095Y5767858D01*
X89535714Y5863096D01*
X89535714Y5958334D01*
X89488095Y6053572D01*
X89440476Y6101191D01*
X89345238Y6148810D01*
X89154761Y6196429D01*
X89059523Y6244048D01*
X89011904Y6291667D01*
X88964285Y6386905D01*
X88964285Y6482143D01*
X89011904Y6577381D01*
X89059523Y6625000D01*
X89154761Y6672620D01*
X89392857Y6672620D01*
X89535714Y6625000D01*
X90535714Y5672620D02*
X90202380Y6148810D01*
X89964285Y5672620D02*
X89964285Y6672620D01*
X90345238Y6672620D01*
X90440476Y6625000D01*
X90488095Y6577381D01*
X90535714Y6482143D01*
X90535714Y6339286D01*
X90488095Y6244048D01*
X90440476Y6196429D01*
X90345238Y6148810D01*
X89964285Y6148810D01*
X88654761Y8922620D02*
X88321428Y9398810D01*
X88083333Y8922620D02*
X88083333Y9922620D01*
X88464285Y9922620D01*
X88559523Y9875000D01*
X88607142Y9827381D01*
X88654761Y9732143D01*
X88654761Y9589286D01*
X88607142Y9494048D01*
X88559523Y9446429D01*
X88464285Y9398810D01*
X88083333Y9398810D01*
X88988095Y8922620D02*
X89511904Y9589286D01*
X88988095Y9589286D02*
X89511904Y8922620D01*
X89892857Y8922620D02*
X89892857Y9922620D01*
X90130952Y9922620D01*
X90273809Y9875000D01*
X90369047Y9779762D01*
X90416666Y9684524D01*
X90464285Y9494048D01*
X90464285Y9351191D01*
X90416666Y9160715D01*
X90369047Y9065477D01*
X90273809Y8970239D01*
X90130952Y8922620D01*
X89892857Y8922620D01*
X89321428Y2422620D02*
X88988095Y2898810D01*
X88750000Y2422620D02*
X88750000Y3422620D01*
X89130952Y3422620D01*
X89226190Y3375000D01*
X89273809Y3327381D01*
X89321428Y3232143D01*
X89321428Y3089286D01*
X89273809Y2994048D01*
X89226190Y2946429D01*
X89130952Y2898810D01*
X88750000Y2898810D01*
X89750000Y2422620D02*
X89750000Y3422620D01*
X87988095Y7297620D02*
X87988095Y8297620D01*
X88226190Y8297620D01*
X88369047Y8250000D01*
X88464285Y8154762D01*
X88511904Y8059524D01*
X88559523Y7869048D01*
X88559523Y7726191D01*
X88511904Y7535715D01*
X88464285Y7440477D01*
X88369047Y7345239D01*
X88226190Y7297620D01*
X87988095Y7297620D01*
X89559523Y7392858D02*
X89511904Y7345239D01*
X89369047Y7297620D01*
X89273809Y7297620D01*
X89130952Y7345239D01*
X89035714Y7440477D01*
X88988095Y7535715D01*
X88940476Y7726191D01*
X88940476Y7869048D01*
X88988095Y8059524D01*
X89035714Y8154762D01*
X89130952Y8250000D01*
X89273809Y8297620D01*
X89369047Y8297620D01*
X89511904Y8250000D01*
X89559523Y8202381D01*
X89988095Y7297620D02*
X89988095Y8297620D01*
X90226190Y8297620D01*
X90369047Y8250000D01*
X90464285Y8154762D01*
X90511904Y8059524D01*
X90559523Y7869048D01*
X90559523Y7726191D01*
X90511904Y7535715D01*
X90464285Y7440477D01*
X90369047Y7345239D01*
X90226190Y7297620D01*
X89988095Y7297620D01*
X88059523Y14797620D02*
X88630952Y14797620D01*
X88345238Y13797620D02*
X88345238Y14797620D01*
X88869047Y13797620D02*
X89392857Y14464286D01*
X88869047Y14464286D02*
X89392857Y13797620D01*
X89773809Y13797620D02*
X89773809Y14797620D01*
X90011904Y14797620D01*
X90154761Y14750000D01*
X90250000Y14654762D01*
X90297619Y14559524D01*
X90345238Y14369048D01*
X90345238Y14226191D01*
X90297619Y14035715D01*
X90250000Y13940477D01*
X90154761Y13845239D01*
X90011904Y13797620D01*
X89773809Y13797620D01*
X88107142Y12172620D02*
X88107142Y13172620D01*
X88345238Y13172620D01*
X88488095Y13125000D01*
X88583333Y13029762D01*
X88630952Y12934524D01*
X88678571Y12744048D01*
X88678571Y12601191D01*
X88630952Y12410715D01*
X88583333Y12315477D01*
X88488095Y12220239D01*
X88345238Y12172620D01*
X88107142Y12172620D01*
X88964285Y13172620D02*
X89535714Y13172620D01*
X89250000Y12172620D02*
X89250000Y13172620D01*
X90440476Y12172620D02*
X90107142Y12648810D01*
X89869047Y12172620D02*
X89869047Y13172620D01*
X90250000Y13172620D01*
X90345238Y13125000D01*
X90392857Y13077381D01*
X90440476Y12982143D01*
X90440476Y12839286D01*
X90392857Y12744048D01*
X90345238Y12696429D01*
X90250000Y12648810D01*
X89869047Y12648810D01*
X88678571Y10547620D02*
X88345238Y11023810D01*
X88107142Y10547620D02*
X88107142Y11547620D01*
X88488095Y11547620D01*
X88583333Y11500000D01*
X88630952Y11452381D01*
X88678571Y11357143D01*
X88678571Y11214286D01*
X88630952Y11119048D01*
X88583333Y11071429D01*
X88488095Y11023810D01*
X88107142Y11023810D01*
X88964285Y11547620D02*
X89535714Y11547620D01*
X89250000Y10547620D02*
X89250000Y11547620D01*
X90440476Y10547620D02*
X90107142Y11023810D01*
X89869047Y10547620D02*
X89869047Y11547620D01*
X90250000Y11547620D01*
X90345238Y11500000D01*
X90392857Y11452381D01*
X90440476Y11357143D01*
X90440476Y11214286D01*
X90392857Y11119048D01*
X90345238Y11071429D01*
X90250000Y11023810D01*
X89869047Y11023810D01*
X88702380Y4142858D02*
X88654761Y4095239D01*
X88511904Y4047620D01*
X88416666Y4047620D01*
X88273809Y4095239D01*
X88178571Y4190477D01*
X88130952Y4285715D01*
X88083333Y4476191D01*
X88083333Y4619048D01*
X88130952Y4809524D01*
X88178571Y4904762D01*
X88273809Y5000000D01*
X88416666Y5047620D01*
X88511904Y5047620D01*
X88654761Y5000000D01*
X88702380Y4952381D01*
X88988095Y5047620D02*
X89559523Y5047620D01*
X89273809Y4047620D02*
X89273809Y5047620D01*
X89845238Y4095239D02*
X89988095Y4047620D01*
X90226190Y4047620D01*
X90321428Y4095239D01*
X90369047Y4142858D01*
X90416666Y4238096D01*
X90416666Y4333334D01*
X90369047Y4428572D01*
X90321428Y4476191D01*
X90226190Y4523810D01*
X90035714Y4571429D01*
X89940476Y4619048D01*
X89892857Y4666667D01*
X89845238Y4761905D01*
X89845238Y4857143D01*
X89892857Y4952381D01*
X89940476Y5000000D01*
X90035714Y5047620D01*
X90273809Y5047620D01*
X90416666Y5000000D01*
G36*
X102400000Y13860000D02*
G01*
X101500000Y14360000D01*
X102400000Y14860000D01*
X102400000Y13860000D01*
G37*
X102400000Y13860000D02*
X101500000Y14360000D01*
X102400000Y14860000D01*
X102400000Y13860000D01*
G36*
X102400000Y16400000D02*
G01*
X101500000Y16900000D01*
X102400000Y17400000D01*
X102400000Y16400000D01*
G37*
X102400000Y16400000D02*
X101500000Y16900000D01*
X102400000Y17400000D01*
X102400000Y16400000D01*
G36*
X102400000Y18820000D02*
G01*
X101500000Y19320000D01*
X102400000Y19820000D01*
X102400000Y18820000D01*
G37*
X102400000Y18820000D02*
X101500000Y19320000D01*
X102400000Y19820000D01*
X102400000Y18820000D01*
G36*
X102400000Y23900000D02*
G01*
X101500000Y24400000D01*
X102400000Y24900000D01*
X102400000Y23900000D01*
G37*
X102400000Y23900000D02*
X101500000Y24400000D01*
X102400000Y24900000D01*
X102400000Y23900000D01*
G36*
X102400000Y21360000D02*
G01*
X101500000Y21860000D01*
X102400000Y22360000D01*
X102400000Y21360000D01*
G37*
X102400000Y21360000D02*
X101500000Y21860000D01*
X102400000Y22360000D01*
X102400000Y21360000D01*
G36*
X102500000Y29610000D02*
G01*
X101600000Y29110000D01*
X101600000Y30110000D01*
X102500000Y29610000D01*
G37*
X102500000Y29610000D02*
X101600000Y29110000D01*
X101600000Y30110000D01*
X102500000Y29610000D01*
G36*
X102500000Y27070000D02*
G01*
X101600000Y26570000D01*
X101600000Y27570000D01*
X102500000Y27070000D01*
G37*
X102500000Y27070000D02*
X101600000Y26570000D01*
X101600000Y27570000D01*
X102500000Y27070000D01*
G36*
X102500000Y32150000D02*
G01*
X101600000Y31650000D01*
X101600000Y32650000D01*
X102500000Y32150000D01*
G37*
X102500000Y32150000D02*
X101600000Y31650000D01*
X101600000Y32650000D01*
X102500000Y32150000D01*
X89488095Y36250000D02*
X89392857Y36297620D01*
X89250000Y36297620D01*
X89107142Y36250000D01*
X89011904Y36154762D01*
X88964285Y36059524D01*
X88916666Y35869048D01*
X88916666Y35726191D01*
X88964285Y35535715D01*
X89011904Y35440477D01*
X89107142Y35345239D01*
X89250000Y35297620D01*
X89345238Y35297620D01*
X89488095Y35345239D01*
X89535714Y35392858D01*
X89535714Y35726191D01*
X89345238Y35726191D01*
X89964285Y35297620D02*
X89964285Y36297620D01*
X90535714Y35297620D01*
X90535714Y36297620D01*
X91011904Y35297620D02*
X91011904Y36297620D01*
X91250000Y36297620D01*
X91392857Y36250000D01*
X91488095Y36154762D01*
X91535714Y36059524D01*
X91583333Y35869048D01*
X91583333Y35726191D01*
X91535714Y35535715D01*
X91488095Y35440477D01*
X91392857Y35345239D01*
X91250000Y35297620D01*
X91011904Y35297620D01*
G36*
X102500000Y48530000D02*
G01*
X101600000Y48030000D01*
X101600000Y49030000D01*
X102500000Y48530000D01*
G37*
X102500000Y48530000D02*
X101600000Y48030000D01*
X101600000Y49030000D01*
X102500000Y48530000D01*
G36*
X102500000Y45990000D02*
G01*
X101600000Y45490000D01*
X101600000Y46490000D01*
X102500000Y45990000D01*
G37*
X102500000Y45990000D02*
X101600000Y45490000D01*
X101600000Y46490000D01*
X102500000Y45990000D01*
G36*
X102500000Y43450000D02*
G01*
X101600000Y42950000D01*
X101600000Y43950000D01*
X102500000Y43450000D01*
G37*
X102500000Y43450000D02*
X101600000Y42950000D01*
X101600000Y43950000D01*
X102500000Y43450000D01*
G36*
X102500000Y40910000D02*
G01*
X101600000Y40410000D01*
X101600000Y41410000D01*
X102500000Y40910000D01*
G37*
X102500000Y40910000D02*
X101600000Y40410000D01*
X101600000Y41410000D01*
X102500000Y40910000D01*
G36*
X102500000Y38370000D02*
G01*
X101600000Y37870000D01*
X101600000Y38870000D01*
X102500000Y38370000D01*
G37*
X102500000Y38370000D02*
X101600000Y37870000D01*
X101600000Y38870000D01*
X102500000Y38370000D01*
G36*
X102450000Y50570000D02*
G01*
X101550000Y51070000D01*
X102450000Y51570000D01*
X102450000Y50570000D01*
G37*
X102450000Y50570000D02*
X101550000Y51070000D01*
X102450000Y51570000D01*
X102450000Y50570000D01*
G36*
X102450000Y53110000D02*
G01*
X101550000Y53610000D01*
X102450000Y54110000D01*
X102450000Y53110000D01*
G37*
X102450000Y53110000D02*
X101550000Y53610000D01*
X102450000Y54110000D01*
X102450000Y53110000D01*
G36*
X102450000Y55650000D02*
G01*
X101550000Y56150000D01*
X102450000Y56650000D01*
X102450000Y55650000D01*
G37*
X102450000Y55650000D02*
X101550000Y56150000D01*
X102450000Y56650000D01*
X102450000Y55650000D01*
X91321428Y38047620D02*
X90988095Y38523810D01*
X90750000Y38047620D02*
X90750000Y39047620D01*
X91130952Y39047620D01*
X91226190Y39000000D01*
X91273809Y38952381D01*
X91321428Y38857143D01*
X91321428Y38714286D01*
X91273809Y38619048D01*
X91226190Y38571429D01*
X91130952Y38523810D01*
X90750000Y38523810D01*
X91750000Y38047620D02*
X91750000Y39047620D01*
X90702380Y40642858D02*
X90654761Y40595239D01*
X90511904Y40547620D01*
X90416666Y40547620D01*
X90273809Y40595239D01*
X90178571Y40690477D01*
X90130952Y40785715D01*
X90083333Y40976191D01*
X90083333Y41119048D01*
X90130952Y41309524D01*
X90178571Y41404762D01*
X90273809Y41500000D01*
X90416666Y41547620D01*
X90511904Y41547620D01*
X90654761Y41500000D01*
X90702380Y41452381D01*
X90988095Y41547620D02*
X91559523Y41547620D01*
X91273809Y40547620D02*
X91273809Y41547620D01*
X91845238Y40595239D02*
X91988095Y40547620D01*
X92226190Y40547620D01*
X92321428Y40595239D01*
X92369047Y40642858D01*
X92416666Y40738096D01*
X92416666Y40833334D01*
X92369047Y40928572D01*
X92321428Y40976191D01*
X92226190Y41023810D01*
X92035714Y41071429D01*
X91940476Y41119048D01*
X91892857Y41166667D01*
X91845238Y41261905D01*
X91845238Y41357143D01*
X91892857Y41452381D01*
X91940476Y41500000D01*
X92035714Y41547620D01*
X92273809Y41547620D01*
X92416666Y41500000D01*
X90011904Y43047620D02*
X90011904Y44047620D01*
X90250000Y44047620D01*
X90392857Y44000000D01*
X90488095Y43904762D01*
X90535714Y43809524D01*
X90583333Y43619048D01*
X90583333Y43476191D01*
X90535714Y43285715D01*
X90488095Y43190477D01*
X90392857Y43095239D01*
X90250000Y43047620D01*
X90011904Y43047620D01*
X90964285Y43095239D02*
X91107142Y43047620D01*
X91345238Y43047620D01*
X91440476Y43095239D01*
X91488095Y43142858D01*
X91535714Y43238096D01*
X91535714Y43333334D01*
X91488095Y43428572D01*
X91440476Y43476191D01*
X91345238Y43523810D01*
X91154761Y43571429D01*
X91059523Y43619048D01*
X91011904Y43666667D01*
X90964285Y43761905D01*
X90964285Y43857143D01*
X91011904Y43952381D01*
X91059523Y44000000D01*
X91154761Y44047620D01*
X91392857Y44047620D01*
X91535714Y44000000D01*
X92535714Y43047620D02*
X92202380Y43523810D01*
X91964285Y43047620D02*
X91964285Y44047620D01*
X92345238Y44047620D01*
X92440476Y44000000D01*
X92488095Y43952381D01*
X92535714Y43857143D01*
X92535714Y43714286D01*
X92488095Y43619048D01*
X92440476Y43571429D01*
X92345238Y43523810D01*
X91964285Y43523810D01*
X89988095Y45547620D02*
X89988095Y46547620D01*
X90226190Y46547620D01*
X90369047Y46500000D01*
X90464285Y46404762D01*
X90511904Y46309524D01*
X90559523Y46119048D01*
X90559523Y45976191D01*
X90511904Y45785715D01*
X90464285Y45690477D01*
X90369047Y45595239D01*
X90226190Y45547620D01*
X89988095Y45547620D01*
X91559523Y45642858D02*
X91511904Y45595239D01*
X91369047Y45547620D01*
X91273809Y45547620D01*
X91130952Y45595239D01*
X91035714Y45690477D01*
X90988095Y45785715D01*
X90940476Y45976191D01*
X90940476Y46119048D01*
X90988095Y46309524D01*
X91035714Y46404762D01*
X91130952Y46500000D01*
X91273809Y46547620D01*
X91369047Y46547620D01*
X91511904Y46500000D01*
X91559523Y46452381D01*
X91988095Y45547620D02*
X91988095Y46547620D01*
X92226190Y46547620D01*
X92369047Y46500000D01*
X92464285Y46404762D01*
X92511904Y46309524D01*
X92559523Y46119048D01*
X92559523Y45976191D01*
X92511904Y45785715D01*
X92464285Y45690477D01*
X92369047Y45595239D01*
X92226190Y45547620D01*
X91988095Y45547620D01*
X90654761Y48047620D02*
X90321428Y48523810D01*
X90083333Y48047620D02*
X90083333Y49047620D01*
X90464285Y49047620D01*
X90559523Y49000000D01*
X90607142Y48952381D01*
X90654761Y48857143D01*
X90654761Y48714286D01*
X90607142Y48619048D01*
X90559523Y48571429D01*
X90464285Y48523810D01*
X90083333Y48523810D01*
X90988095Y48047620D02*
X91511904Y48714286D01*
X90988095Y48714286D02*
X91511904Y48047620D01*
X91892857Y48047620D02*
X91892857Y49047620D01*
X92130952Y49047620D01*
X92273809Y49000000D01*
X92369047Y48904762D01*
X92416666Y48809524D01*
X92464285Y48619048D01*
X92464285Y48476191D01*
X92416666Y48285715D01*
X92369047Y48190477D01*
X92273809Y48095239D01*
X92130952Y48047620D01*
X91892857Y48047620D01*
X90678571Y50547620D02*
X90345238Y51023810D01*
X90107142Y50547620D02*
X90107142Y51547620D01*
X90488095Y51547620D01*
X90583333Y51500000D01*
X90630952Y51452381D01*
X90678571Y51357143D01*
X90678571Y51214286D01*
X90630952Y51119048D01*
X90583333Y51071429D01*
X90488095Y51023810D01*
X90107142Y51023810D01*
X90964285Y51547620D02*
X91535714Y51547620D01*
X91250000Y50547620D02*
X91250000Y51547620D01*
X92440476Y50547620D02*
X92107142Y51023810D01*
X91869047Y50547620D02*
X91869047Y51547620D01*
X92250000Y51547620D01*
X92345238Y51500000D01*
X92392857Y51452381D01*
X92440476Y51357143D01*
X92440476Y51214286D01*
X92392857Y51119048D01*
X92345238Y51071429D01*
X92250000Y51023810D01*
X91869047Y51023810D01*
X90107142Y53047620D02*
X90107142Y54047620D01*
X90345238Y54047620D01*
X90488095Y54000000D01*
X90583333Y53904762D01*
X90630952Y53809524D01*
X90678571Y53619048D01*
X90678571Y53476191D01*
X90630952Y53285715D01*
X90583333Y53190477D01*
X90488095Y53095239D01*
X90345238Y53047620D01*
X90107142Y53047620D01*
X90964285Y54047620D02*
X91535714Y54047620D01*
X91250000Y53047620D02*
X91250000Y54047620D01*
X92440476Y53047620D02*
X92107142Y53523810D01*
X91869047Y53047620D02*
X91869047Y54047620D01*
X92250000Y54047620D01*
X92345238Y54000000D01*
X92392857Y53952381D01*
X92440476Y53857143D01*
X92440476Y53714286D01*
X92392857Y53619048D01*
X92345238Y53571429D01*
X92250000Y53523810D01*
X91869047Y53523810D01*
X90059523Y56797620D02*
X90630952Y56797620D01*
X90345238Y55797620D02*
X90345238Y56797620D01*
X90869047Y55797620D02*
X91392857Y56464286D01*
X90869047Y56464286D02*
X91392857Y55797620D01*
X91773809Y55797620D02*
X91773809Y56797620D01*
X92011904Y56797620D01*
X92154761Y56750000D01*
X92250000Y56654762D01*
X92297619Y56559524D01*
X92345238Y56369048D01*
X92345238Y56226191D01*
X92297619Y56035715D01*
X92250000Y55940477D01*
X92154761Y55845239D01*
X92011904Y55797620D01*
X91773809Y55797620D01*
X68952380Y19857143D02*
X67952380Y19857143D01*
X67952380Y20095239D01*
X68000000Y20238096D01*
X68095238Y20333334D01*
X68190476Y20380953D01*
X68380952Y20428572D01*
X68523809Y20428572D01*
X68714285Y20380953D01*
X68809523Y20333334D01*
X68904761Y20238096D01*
X68952380Y20095239D01*
X68952380Y19857143D01*
X67952380Y20714286D02*
X67952380Y21285715D01*
X68952380Y21000000D02*
X67952380Y21000000D01*
X68952380Y22190477D02*
X68476190Y21857143D01*
X68952380Y21619048D02*
X67952380Y21619048D01*
X67952380Y22000000D01*
X68000000Y22095239D01*
X68047619Y22142858D01*
X68142857Y22190477D01*
X68285714Y22190477D01*
X68380952Y22142858D01*
X68428571Y22095239D01*
X68476190Y22000000D01*
X68476190Y21619048D01*
X65452380Y19809524D02*
X65452380Y20380953D01*
X66452380Y20095239D02*
X65452380Y20095239D01*
X66452380Y20619048D02*
X65785714Y21142858D01*
X65785714Y20619048D02*
X66452380Y21142858D01*
X66452380Y21523810D02*
X65452380Y21523810D01*
X65452380Y21761905D01*
X65500000Y21904762D01*
X65595238Y22000000D01*
X65690476Y22047620D01*
X65880952Y22095239D01*
X66023809Y22095239D01*
X66214285Y22047620D01*
X66309523Y22000000D01*
X66404761Y21904762D01*
X66452380Y21761905D01*
X66452380Y21523810D01*
X37000000Y20500000D02*
X18250000Y20500000D01*
X40000000Y18250000D02*
X37000000Y20500000D01*
X58750000Y18250000D02*
X40000000Y18250000D01*
X65500000Y22750000D02*
X58750000Y18250000D01*
X83750000Y22750000D02*
X65500000Y22750000D01*
X37052380Y22221429D02*
X36576190Y21888096D01*
X37052380Y21650000D02*
X36052380Y21650000D01*
X36052380Y22030953D01*
X36100000Y22126191D01*
X36147619Y22173810D01*
X36242857Y22221429D01*
X36385714Y22221429D01*
X36480952Y22173810D01*
X36528571Y22126191D01*
X36576190Y22030953D01*
X36576190Y21650000D01*
X37052380Y22650000D02*
X36052380Y22650000D01*
X34407142Y21602381D02*
X34454761Y21554762D01*
X34502380Y21411905D01*
X34502380Y21316667D01*
X34454761Y21173810D01*
X34359523Y21078572D01*
X34264285Y21030953D01*
X34073809Y20983334D01*
X33930952Y20983334D01*
X33740476Y21030953D01*
X33645238Y21078572D01*
X33550000Y21173810D01*
X33502380Y21316667D01*
X33502380Y21411905D01*
X33550000Y21554762D01*
X33597619Y21602381D01*
X33502380Y21888096D02*
X33502380Y22459524D01*
X34502380Y22173810D02*
X33502380Y22173810D01*
X34454761Y22745239D02*
X34502380Y22888096D01*
X34502380Y23126191D01*
X34454761Y23221429D01*
X34407142Y23269048D01*
X34311904Y23316667D01*
X34216666Y23316667D01*
X34121428Y23269048D01*
X34073809Y23221429D01*
X34026190Y23126191D01*
X33978571Y22935715D01*
X33930952Y22840477D01*
X33883333Y22792858D01*
X33788095Y22745239D01*
X33692857Y22745239D01*
X33597619Y22792858D01*
X33550000Y22840477D01*
X33502380Y22935715D01*
X33502380Y23173810D01*
X33550000Y23316667D01*
X32052380Y20911905D02*
X31052380Y20911905D01*
X31052380Y21150000D01*
X31100000Y21292858D01*
X31195238Y21388096D01*
X31290476Y21435715D01*
X31480952Y21483334D01*
X31623809Y21483334D01*
X31814285Y21435715D01*
X31909523Y21388096D01*
X32004761Y21292858D01*
X32052380Y21150000D01*
X32052380Y20911905D01*
X32004761Y21864286D02*
X32052380Y22007143D01*
X32052380Y22245239D01*
X32004761Y22340477D01*
X31957142Y22388096D01*
X31861904Y22435715D01*
X31766666Y22435715D01*
X31671428Y22388096D01*
X31623809Y22340477D01*
X31576190Y22245239D01*
X31528571Y22054762D01*
X31480952Y21959524D01*
X31433333Y21911905D01*
X31338095Y21864286D01*
X31242857Y21864286D01*
X31147619Y21911905D01*
X31100000Y21959524D01*
X31052380Y22054762D01*
X31052380Y22292858D01*
X31100000Y22435715D01*
X32052380Y23435715D02*
X31576190Y23102381D01*
X32052380Y22864286D02*
X31052380Y22864286D01*
X31052380Y23245239D01*
X31100000Y23340477D01*
X31147619Y23388096D01*
X31242857Y23435715D01*
X31385714Y23435715D01*
X31480952Y23388096D01*
X31528571Y23340477D01*
X31576190Y23245239D01*
X31576190Y22864286D01*
X29452380Y20888096D02*
X28452380Y20888096D01*
X28452380Y21126191D01*
X28500000Y21269048D01*
X28595238Y21364286D01*
X28690476Y21411905D01*
X28880952Y21459524D01*
X29023809Y21459524D01*
X29214285Y21411905D01*
X29309523Y21364286D01*
X29404761Y21269048D01*
X29452380Y21126191D01*
X29452380Y20888096D01*
X29357142Y22459524D02*
X29404761Y22411905D01*
X29452380Y22269048D01*
X29452380Y22173810D01*
X29404761Y22030953D01*
X29309523Y21935715D01*
X29214285Y21888096D01*
X29023809Y21840477D01*
X28880952Y21840477D01*
X28690476Y21888096D01*
X28595238Y21935715D01*
X28500000Y22030953D01*
X28452380Y22173810D01*
X28452380Y22269048D01*
X28500000Y22411905D01*
X28547619Y22459524D01*
X29452380Y22888096D02*
X28452380Y22888096D01*
X28452380Y23126191D01*
X28500000Y23269048D01*
X28595238Y23364286D01*
X28690476Y23411905D01*
X28880952Y23459524D01*
X29023809Y23459524D01*
X29214285Y23411905D01*
X29309523Y23364286D01*
X29404761Y23269048D01*
X29452380Y23126191D01*
X29452380Y22888096D01*
X26952380Y21604762D02*
X26476190Y21271429D01*
X26952380Y21033334D02*
X25952380Y21033334D01*
X25952380Y21414286D01*
X26000000Y21509524D01*
X26047619Y21557143D01*
X26142857Y21604762D01*
X26285714Y21604762D01*
X26380952Y21557143D01*
X26428571Y21509524D01*
X26476190Y21414286D01*
X26476190Y21033334D01*
X26952380Y21938096D02*
X26285714Y22461905D01*
X26285714Y21938096D02*
X26952380Y22461905D01*
X26952380Y22842858D02*
X25952380Y22842858D01*
X25952380Y23080953D01*
X26000000Y23223810D01*
X26095238Y23319048D01*
X26190476Y23366667D01*
X26380952Y23414286D01*
X26523809Y23414286D01*
X26714285Y23366667D01*
X26809523Y23319048D01*
X26904761Y23223810D01*
X26952380Y23080953D01*
X26952380Y22842858D01*
X24502380Y21578572D02*
X24026190Y21245239D01*
X24502380Y21007143D02*
X23502380Y21007143D01*
X23502380Y21388096D01*
X23550000Y21483334D01*
X23597619Y21530953D01*
X23692857Y21578572D01*
X23835714Y21578572D01*
X23930952Y21530953D01*
X23978571Y21483334D01*
X24026190Y21388096D01*
X24026190Y21007143D01*
X23502380Y21864286D02*
X23502380Y22435715D01*
X24502380Y22150000D02*
X23502380Y22150000D01*
X24502380Y23340477D02*
X24026190Y23007143D01*
X24502380Y22769048D02*
X23502380Y22769048D01*
X23502380Y23150000D01*
X23550000Y23245239D01*
X23597619Y23292858D01*
X23692857Y23340477D01*
X23835714Y23340477D01*
X23930952Y23292858D01*
X23978571Y23245239D01*
X24026190Y23150000D01*
X24026190Y22769048D01*
X21852380Y21207143D02*
X20852380Y21207143D01*
X20852380Y21445239D01*
X20900000Y21588096D01*
X20995238Y21683334D01*
X21090476Y21730953D01*
X21280952Y21778572D01*
X21423809Y21778572D01*
X21614285Y21730953D01*
X21709523Y21683334D01*
X21804761Y21588096D01*
X21852380Y21445239D01*
X21852380Y21207143D01*
X20852380Y22064286D02*
X20852380Y22635715D01*
X21852380Y22350000D02*
X20852380Y22350000D01*
X21852380Y23540477D02*
X21376190Y23207143D01*
X21852380Y22969048D02*
X20852380Y22969048D01*
X20852380Y23350000D01*
X20900000Y23445239D01*
X20947619Y23492858D01*
X21042857Y23540477D01*
X21185714Y23540477D01*
X21280952Y23492858D01*
X21328571Y23445239D01*
X21376190Y23350000D01*
X21376190Y22969048D01*
X18302380Y21009524D02*
X18302380Y21580953D01*
X19302380Y21295239D02*
X18302380Y21295239D01*
X19302380Y21819048D02*
X18635714Y22342858D01*
X18635714Y21819048D02*
X19302380Y22342858D01*
X19302380Y22723810D02*
X18302380Y22723810D01*
X18302380Y22961905D01*
X18350000Y23104762D01*
X18445238Y23200000D01*
X18540476Y23247620D01*
X18730952Y23295239D01*
X18873809Y23295239D01*
X19064285Y23247620D01*
X19159523Y23200000D01*
X19254761Y23104762D01*
X19302380Y22961905D01*
X19302380Y22723810D01*
X62952380Y53595239D02*
X62904761Y53500000D01*
X62857142Y53452381D01*
X62761904Y53404762D01*
X62476190Y53404762D01*
X62380952Y53452381D01*
X62333333Y53500000D01*
X62285714Y53595239D01*
X62285714Y53738096D01*
X62333333Y53833334D01*
X62380952Y53880953D01*
X62476190Y53928572D01*
X62761904Y53928572D01*
X62857142Y53880953D01*
X62904761Y53833334D01*
X62952380Y53738096D01*
X62952380Y53595239D01*
X62285714Y54357143D02*
X63285714Y54357143D01*
X62333333Y54357143D02*
X62285714Y54452381D01*
X62285714Y54642858D01*
X62333333Y54738096D01*
X62380952Y54785715D01*
X62476190Y54833334D01*
X62761904Y54833334D01*
X62857142Y54785715D01*
X62904761Y54738096D01*
X62952380Y54642858D01*
X62952380Y54452381D01*
X62904761Y54357143D01*
X62904761Y55642858D02*
X62952380Y55547620D01*
X62952380Y55357143D01*
X62904761Y55261905D01*
X62809523Y55214286D01*
X62428571Y55214286D01*
X62333333Y55261905D01*
X62285714Y55357143D01*
X62285714Y55547620D01*
X62333333Y55642858D01*
X62428571Y55690477D01*
X62523809Y55690477D01*
X62619047Y55214286D01*
X62285714Y56119048D02*
X62952380Y56119048D01*
X62380952Y56119048D02*
X62333333Y56166667D01*
X62285714Y56261905D01*
X62285714Y56404762D01*
X62333333Y56500000D01*
X62428571Y56547620D01*
X62952380Y56547620D01*
X62904761Y59988096D02*
X62952380Y59892858D01*
X62952380Y59702381D01*
X62904761Y59607143D01*
X62857142Y59559524D01*
X62761904Y59511905D01*
X62476190Y59511905D01*
X62380952Y59559524D01*
X62333333Y59607143D01*
X62285714Y59702381D01*
X62285714Y59892858D01*
X62333333Y59988096D01*
X62952380Y60559524D02*
X62904761Y60464286D01*
X62809523Y60416667D01*
X61952380Y60416667D01*
X62952380Y61083334D02*
X62904761Y60988096D01*
X62857142Y60940477D01*
X62761904Y60892858D01*
X62476190Y60892858D01*
X62380952Y60940477D01*
X62333333Y60988096D01*
X62285714Y61083334D01*
X62285714Y61226191D01*
X62333333Y61321429D01*
X62380952Y61369048D01*
X62476190Y61416667D01*
X62761904Y61416667D01*
X62857142Y61369048D01*
X62904761Y61321429D01*
X62952380Y61226191D01*
X62952380Y61083334D01*
X62904761Y61797620D02*
X62952380Y61892858D01*
X62952380Y62083334D01*
X62904761Y62178572D01*
X62809523Y62226191D01*
X62761904Y62226191D01*
X62666666Y62178572D01*
X62619047Y62083334D01*
X62619047Y61940477D01*
X62571428Y61845239D01*
X62476190Y61797620D01*
X62428571Y61797620D01*
X62333333Y61845239D01*
X62285714Y61940477D01*
X62285714Y62083334D01*
X62333333Y62178572D01*
X62904761Y63035715D02*
X62952380Y62940477D01*
X62952380Y62750000D01*
X62904761Y62654762D01*
X62809523Y62607143D01*
X62428571Y62607143D01*
X62333333Y62654762D01*
X62285714Y62750000D01*
X62285714Y62940477D01*
X62333333Y63035715D01*
X62428571Y63083334D01*
X62523809Y63083334D01*
X62619047Y62607143D01*
X62952380Y63940477D02*
X61952380Y63940477D01*
X62904761Y63940477D02*
X62952380Y63845239D01*
X62952380Y63654762D01*
X62904761Y63559524D01*
X62857142Y63511905D01*
X62761904Y63464286D01*
X62476190Y63464286D01*
X62380952Y63511905D01*
X62333333Y63559524D01*
X62285714Y63654762D01*
X62285714Y63845239D01*
X62333333Y63940477D01*
X62904761Y30738096D02*
X62952380Y30642858D01*
X62952380Y30452381D01*
X62904761Y30357143D01*
X62857142Y30309524D01*
X62761904Y30261905D01*
X62476190Y30261905D01*
X62380952Y30309524D01*
X62333333Y30357143D01*
X62285714Y30452381D01*
X62285714Y30642858D01*
X62333333Y30738096D01*
X62952380Y31309524D02*
X62904761Y31214286D01*
X62809523Y31166667D01*
X61952380Y31166667D01*
X62952380Y31833334D02*
X62904761Y31738096D01*
X62857142Y31690477D01*
X62761904Y31642858D01*
X62476190Y31642858D01*
X62380952Y31690477D01*
X62333333Y31738096D01*
X62285714Y31833334D01*
X62285714Y31976191D01*
X62333333Y32071429D01*
X62380952Y32119048D01*
X62476190Y32166667D01*
X62761904Y32166667D01*
X62857142Y32119048D01*
X62904761Y32071429D01*
X62952380Y31976191D01*
X62952380Y31833334D01*
X62904761Y32547620D02*
X62952380Y32642858D01*
X62952380Y32833334D01*
X62904761Y32928572D01*
X62809523Y32976191D01*
X62761904Y32976191D01*
X62666666Y32928572D01*
X62619047Y32833334D01*
X62619047Y32690477D01*
X62571428Y32595239D01*
X62476190Y32547620D01*
X62428571Y32547620D01*
X62333333Y32595239D01*
X62285714Y32690477D01*
X62285714Y32833334D01*
X62333333Y32928572D01*
X62904761Y33785715D02*
X62952380Y33690477D01*
X62952380Y33500000D01*
X62904761Y33404762D01*
X62809523Y33357143D01*
X62428571Y33357143D01*
X62333333Y33404762D01*
X62285714Y33500000D01*
X62285714Y33690477D01*
X62333333Y33785715D01*
X62428571Y33833334D01*
X62523809Y33833334D01*
X62619047Y33357143D01*
X62952380Y34690477D02*
X61952380Y34690477D01*
X62904761Y34690477D02*
X62952380Y34595239D01*
X62952380Y34404762D01*
X62904761Y34309524D01*
X62857142Y34261905D01*
X62761904Y34214286D01*
X62476190Y34214286D01*
X62380952Y34261905D01*
X62333333Y34309524D01*
X62285714Y34404762D01*
X62285714Y34595239D01*
X62333333Y34690477D01*
X62952380Y24345239D02*
X62904761Y24250000D01*
X62857142Y24202381D01*
X62761904Y24154762D01*
X62476190Y24154762D01*
X62380952Y24202381D01*
X62333333Y24250000D01*
X62285714Y24345239D01*
X62285714Y24488096D01*
X62333333Y24583334D01*
X62380952Y24630953D01*
X62476190Y24678572D01*
X62761904Y24678572D01*
X62857142Y24630953D01*
X62904761Y24583334D01*
X62952380Y24488096D01*
X62952380Y24345239D01*
X62285714Y25107143D02*
X63285714Y25107143D01*
X62333333Y25107143D02*
X62285714Y25202381D01*
X62285714Y25392858D01*
X62333333Y25488096D01*
X62380952Y25535715D01*
X62476190Y25583334D01*
X62761904Y25583334D01*
X62857142Y25535715D01*
X62904761Y25488096D01*
X62952380Y25392858D01*
X62952380Y25202381D01*
X62904761Y25107143D01*
X62904761Y26392858D02*
X62952380Y26297620D01*
X62952380Y26107143D01*
X62904761Y26011905D01*
X62809523Y25964286D01*
X62428571Y25964286D01*
X62333333Y26011905D01*
X62285714Y26107143D01*
X62285714Y26297620D01*
X62333333Y26392858D01*
X62428571Y26440477D01*
X62523809Y26440477D01*
X62619047Y25964286D01*
X62285714Y26869048D02*
X62952380Y26869048D01*
X62380952Y26869048D02*
X62333333Y26916667D01*
X62285714Y27011905D01*
X62285714Y27154762D01*
X62333333Y27250000D01*
X62428571Y27297620D01*
X62952380Y27297620D01*
X40202380Y24595239D02*
X40154761Y24500000D01*
X40107142Y24452381D01*
X40011904Y24404762D01*
X39726190Y24404762D01*
X39630952Y24452381D01*
X39583333Y24500000D01*
X39535714Y24595239D01*
X39535714Y24738096D01*
X39583333Y24833334D01*
X39630952Y24880953D01*
X39726190Y24928572D01*
X40011904Y24928572D01*
X40107142Y24880953D01*
X40154761Y24833334D01*
X40202380Y24738096D01*
X40202380Y24595239D01*
X39535714Y25357143D02*
X40535714Y25357143D01*
X39583333Y25357143D02*
X39535714Y25452381D01*
X39535714Y25642858D01*
X39583333Y25738096D01*
X39630952Y25785715D01*
X39726190Y25833334D01*
X40011904Y25833334D01*
X40107142Y25785715D01*
X40154761Y25738096D01*
X40202380Y25642858D01*
X40202380Y25452381D01*
X40154761Y25357143D01*
X40154761Y26642858D02*
X40202380Y26547620D01*
X40202380Y26357143D01*
X40154761Y26261905D01*
X40059523Y26214286D01*
X39678571Y26214286D01*
X39583333Y26261905D01*
X39535714Y26357143D01*
X39535714Y26547620D01*
X39583333Y26642858D01*
X39678571Y26690477D01*
X39773809Y26690477D01*
X39869047Y26214286D01*
X39535714Y27119048D02*
X40202380Y27119048D01*
X39630952Y27119048D02*
X39583333Y27166667D01*
X39535714Y27261905D01*
X39535714Y27404762D01*
X39583333Y27500000D01*
X39678571Y27547620D01*
X40202380Y27547620D01*
X40154761Y30988096D02*
X40202380Y30892858D01*
X40202380Y30702381D01*
X40154761Y30607143D01*
X40107142Y30559524D01*
X40011904Y30511905D01*
X39726190Y30511905D01*
X39630952Y30559524D01*
X39583333Y30607143D01*
X39535714Y30702381D01*
X39535714Y30892858D01*
X39583333Y30988096D01*
X40202380Y31559524D02*
X40154761Y31464286D01*
X40059523Y31416667D01*
X39202380Y31416667D01*
X40202380Y32083334D02*
X40154761Y31988096D01*
X40107142Y31940477D01*
X40011904Y31892858D01*
X39726190Y31892858D01*
X39630952Y31940477D01*
X39583333Y31988096D01*
X39535714Y32083334D01*
X39535714Y32226191D01*
X39583333Y32321429D01*
X39630952Y32369048D01*
X39726190Y32416667D01*
X40011904Y32416667D01*
X40107142Y32369048D01*
X40154761Y32321429D01*
X40202380Y32226191D01*
X40202380Y32083334D01*
X40154761Y32797620D02*
X40202380Y32892858D01*
X40202380Y33083334D01*
X40154761Y33178572D01*
X40059523Y33226191D01*
X40011904Y33226191D01*
X39916666Y33178572D01*
X39869047Y33083334D01*
X39869047Y32940477D01*
X39821428Y32845239D01*
X39726190Y32797620D01*
X39678571Y32797620D01*
X39583333Y32845239D01*
X39535714Y32940477D01*
X39535714Y33083334D01*
X39583333Y33178572D01*
X40154761Y34035715D02*
X40202380Y33940477D01*
X40202380Y33750000D01*
X40154761Y33654762D01*
X40059523Y33607143D01*
X39678571Y33607143D01*
X39583333Y33654762D01*
X39535714Y33750000D01*
X39535714Y33940477D01*
X39583333Y34035715D01*
X39678571Y34083334D01*
X39773809Y34083334D01*
X39869047Y33607143D01*
X40202380Y34940477D02*
X39202380Y34940477D01*
X40154761Y34940477D02*
X40202380Y34845239D01*
X40202380Y34654762D01*
X40154761Y34559524D01*
X40107142Y34511905D01*
X40011904Y34464286D01*
X39726190Y34464286D01*
X39630952Y34511905D01*
X39583333Y34559524D01*
X39535714Y34654762D01*
X39535714Y34845239D01*
X39583333Y34940477D01*
X81452380Y11869048D02*
X80452380Y11869048D01*
X80452380Y12107143D01*
X80500000Y12250000D01*
X80595238Y12345239D01*
X80690476Y12392858D01*
X80880952Y12440477D01*
X81023809Y12440477D01*
X81214285Y12392858D01*
X81309523Y12345239D01*
X81404761Y12250000D01*
X81452380Y12107143D01*
X81452380Y11869048D01*
X81071428Y12869048D02*
X81071428Y13630953D01*
X79952380Y11869048D02*
X78952380Y11869048D01*
X78952380Y12107143D01*
X79000000Y12250000D01*
X79095238Y12345239D01*
X79190476Y12392858D01*
X79380952Y12440477D01*
X79523809Y12440477D01*
X79714285Y12392858D01*
X79809523Y12345239D01*
X79904761Y12250000D01*
X79952380Y12107143D01*
X79952380Y11869048D01*
X79571428Y12869048D02*
X79571428Y13630953D01*
X79952380Y13250000D02*
X79190476Y13250000D01*
X68988095Y17547620D02*
X68988095Y16738096D01*
X69035714Y16642858D01*
X69083333Y16595239D01*
X69178571Y16547620D01*
X69369047Y16547620D01*
X69464285Y16595239D01*
X69511904Y16642858D01*
X69559523Y16738096D01*
X69559523Y17547620D01*
X69988095Y16595239D02*
X70130952Y16547620D01*
X70369047Y16547620D01*
X70464285Y16595239D01*
X70511904Y16642858D01*
X70559523Y16738096D01*
X70559523Y16833334D01*
X70511904Y16928572D01*
X70464285Y16976191D01*
X70369047Y17023810D01*
X70178571Y17071429D01*
X70083333Y17119048D01*
X70035714Y17166667D01*
X69988095Y17261905D01*
X69988095Y17357143D01*
X70035714Y17452381D01*
X70083333Y17500000D01*
X70178571Y17547620D01*
X70416666Y17547620D01*
X70559523Y17500000D01*
X71321428Y17071429D02*
X71464285Y17023810D01*
X71511904Y16976191D01*
X71559523Y16880953D01*
X71559523Y16738096D01*
X71511904Y16642858D01*
X71464285Y16595239D01*
X71369047Y16547620D01*
X70988095Y16547620D01*
X70988095Y17547620D01*
X71321428Y17547620D01*
X71416666Y17500000D01*
X71464285Y17452381D01*
X71511904Y17357143D01*
X71511904Y17261905D01*
X71464285Y17166667D01*
X71416666Y17119048D01*
X71321428Y17071429D01*
X70988095Y17071429D01*
X73500000Y18000000D02*
X67750000Y18000000D01*
X68654761Y19297620D02*
X68654761Y18488096D01*
X68702380Y18392858D01*
X68750000Y18345239D01*
X68845238Y18297620D01*
X69035714Y18297620D01*
X69130952Y18345239D01*
X69178571Y18392858D01*
X69226190Y18488096D01*
X69226190Y19297620D01*
X69654761Y18583334D02*
X70130952Y18583334D01*
X69559523Y18297620D02*
X69892857Y19297620D01*
X70226190Y18297620D01*
X71130952Y18297620D02*
X70797619Y18773810D01*
X70559523Y18297620D02*
X70559523Y19297620D01*
X70940476Y19297620D01*
X71035714Y19250000D01*
X71083333Y19202381D01*
X71130952Y19107143D01*
X71130952Y18964286D01*
X71083333Y18869048D01*
X71035714Y18821429D01*
X70940476Y18773810D01*
X70559523Y18773810D01*
X71416666Y19297620D02*
X71988095Y19297620D01*
X71702380Y18297620D02*
X71702380Y19297620D01*
X37250000Y15250000D02*
X31500000Y15250000D01*
X32738095Y14797620D02*
X32738095Y13988096D01*
X32785714Y13892858D01*
X32833333Y13845239D01*
X32928571Y13797620D01*
X33119047Y13797620D01*
X33214285Y13845239D01*
X33261904Y13892858D01*
X33309523Y13988096D01*
X33309523Y14797620D01*
X33738095Y13845239D02*
X33880952Y13797620D01*
X34119047Y13797620D01*
X34214285Y13845239D01*
X34261904Y13892858D01*
X34309523Y13988096D01*
X34309523Y14083334D01*
X34261904Y14178572D01*
X34214285Y14226191D01*
X34119047Y14273810D01*
X33928571Y14321429D01*
X33833333Y14369048D01*
X33785714Y14416667D01*
X33738095Y14511905D01*
X33738095Y14607143D01*
X33785714Y14702381D01*
X33833333Y14750000D01*
X33928571Y14797620D01*
X34166666Y14797620D01*
X34309523Y14750000D01*
X35071428Y14321429D02*
X35214285Y14273810D01*
X35261904Y14226191D01*
X35309523Y14130953D01*
X35309523Y13988096D01*
X35261904Y13892858D01*
X35214285Y13845239D01*
X35119047Y13797620D01*
X34738095Y13797620D01*
X34738095Y14797620D01*
X35071428Y14797620D01*
X35166666Y14750000D01*
X35214285Y14702381D01*
X35261904Y14607143D01*
X35261904Y14511905D01*
X35214285Y14416667D01*
X35166666Y14369048D01*
X35071428Y14321429D01*
X34738095Y14321429D01*
X32404761Y16547620D02*
X32404761Y15738096D01*
X32452380Y15642858D01*
X32500000Y15595239D01*
X32595238Y15547620D01*
X32785714Y15547620D01*
X32880952Y15595239D01*
X32928571Y15642858D01*
X32976190Y15738096D01*
X32976190Y16547620D01*
X33404761Y15833334D02*
X33880952Y15833334D01*
X33309523Y15547620D02*
X33642857Y16547620D01*
X33976190Y15547620D01*
X34880952Y15547620D02*
X34547619Y16023810D01*
X34309523Y15547620D02*
X34309523Y16547620D01*
X34690476Y16547620D01*
X34785714Y16500000D01*
X34833333Y16452381D01*
X34880952Y16357143D01*
X34880952Y16214286D01*
X34833333Y16119048D01*
X34785714Y16071429D01*
X34690476Y16023810D01*
X34309523Y16023810D01*
X35166666Y16547620D02*
X35738095Y16547620D01*
X35452380Y15547620D02*
X35452380Y16547620D01*
X56559523Y41547620D02*
X56654761Y41547620D01*
X56750000Y41500000D01*
X56797619Y41452381D01*
X56845238Y41357143D01*
X56892857Y41166667D01*
X56892857Y40928572D01*
X56845238Y40738096D01*
X56797619Y40642858D01*
X56750000Y40595239D01*
X56654761Y40547620D01*
X56559523Y40547620D01*
X56464285Y40595239D01*
X56416666Y40642858D01*
X56369047Y40738096D01*
X56321428Y40928572D01*
X56321428Y41166667D01*
X56369047Y41357143D01*
X56416666Y41452381D01*
X56464285Y41500000D01*
X56559523Y41547620D01*
X58035714Y41595239D02*
X57178571Y40309524D01*
X58273809Y41547620D02*
X58892857Y41547620D01*
X58559523Y41166667D01*
X58702380Y41166667D01*
X58797619Y41119048D01*
X58845238Y41071429D01*
X58892857Y40976191D01*
X58892857Y40738096D01*
X58845238Y40642858D01*
X58797619Y40595239D01*
X58702380Y40547620D01*
X58416666Y40547620D01*
X58321428Y40595239D01*
X58273809Y40642858D01*
X59321428Y40642858D02*
X59369047Y40595239D01*
X59321428Y40547620D01*
X59273809Y40595239D01*
X59321428Y40642858D01*
X59321428Y40547620D01*
X59702380Y41547620D02*
X60321428Y41547620D01*
X59988095Y41166667D01*
X60130952Y41166667D01*
X60226190Y41119048D01*
X60273809Y41071429D01*
X60321428Y40976191D01*
X60321428Y40738096D01*
X60273809Y40642858D01*
X60226190Y40595239D01*
X60130952Y40547620D01*
X59845238Y40547620D01*
X59750000Y40595239D01*
X59702380Y40642858D01*
X60607142Y41547620D02*
X60940476Y40547620D01*
X61273809Y41547620D01*
X55797619Y42869048D02*
X56559523Y42869048D01*
X56178571Y42488096D02*
X56178571Y43250000D01*
X56559523Y42297620D02*
X55797619Y42297620D01*
X56940476Y43297620D02*
X57559523Y43297620D01*
X57226190Y42916667D01*
X57369047Y42916667D01*
X57464285Y42869048D01*
X57511904Y42821429D01*
X57559523Y42726191D01*
X57559523Y42488096D01*
X57511904Y42392858D01*
X57464285Y42345239D01*
X57369047Y42297620D01*
X57083333Y42297620D01*
X56988095Y42345239D01*
X56940476Y42392858D01*
X57988095Y42392858D02*
X58035714Y42345239D01*
X57988095Y42297620D01*
X57940476Y42345239D01*
X57988095Y42392858D01*
X57988095Y42297620D01*
X58464285Y42392858D02*
X58511904Y42345239D01*
X58464285Y42297620D01*
X58416666Y42345239D01*
X58464285Y42392858D01*
X58464285Y42297620D01*
X58940476Y42392858D02*
X58988095Y42345239D01*
X58940476Y42297620D01*
X58892857Y42345239D01*
X58940476Y42392858D01*
X58940476Y42297620D01*
X59940476Y42297620D02*
X59369047Y42297620D01*
X59654761Y42297620D02*
X59654761Y43297620D01*
X59559523Y43154762D01*
X59464285Y43059524D01*
X59369047Y43011905D01*
X60845238Y43297620D02*
X60369047Y43297620D01*
X60321428Y42821429D01*
X60369047Y42869048D01*
X60464285Y42916667D01*
X60702380Y42916667D01*
X60797619Y42869048D01*
X60845238Y42821429D01*
X60892857Y42726191D01*
X60892857Y42488096D01*
X60845238Y42392858D01*
X60797619Y42345239D01*
X60702380Y42297620D01*
X60464285Y42297620D01*
X60369047Y42345239D01*
X60321428Y42392858D01*
X61178571Y43297620D02*
X61511904Y42297620D01*
X61845238Y43297620D01*
X42654761Y41547620D02*
X42654761Y40738096D01*
X42702380Y40642858D01*
X42750000Y40595239D01*
X42845238Y40547620D01*
X43035714Y40547620D01*
X43130952Y40595239D01*
X43178571Y40642858D01*
X43226190Y40738096D01*
X43226190Y41547620D01*
X43654761Y40833334D02*
X44130952Y40833334D01*
X43559523Y40547620D02*
X43892857Y41547620D01*
X44226190Y40547620D01*
X45130952Y40547620D02*
X44797619Y41023810D01*
X44559523Y40547620D02*
X44559523Y41547620D01*
X44940476Y41547620D01*
X45035714Y41500000D01*
X45083333Y41452381D01*
X45130952Y41357143D01*
X45130952Y41214286D01*
X45083333Y41119048D01*
X45035714Y41071429D01*
X44940476Y41023810D01*
X44559523Y41023810D01*
X45416666Y41547620D02*
X45988095Y41547620D01*
X45702380Y40547620D02*
X45702380Y41547620D01*
X42654761Y42297620D02*
X42321428Y42773810D01*
X42083333Y42297620D02*
X42083333Y43297620D01*
X42464285Y43297620D01*
X42559523Y43250000D01*
X42607142Y43202381D01*
X42654761Y43107143D01*
X42654761Y42964286D01*
X42607142Y42869048D01*
X42559523Y42821429D01*
X42464285Y42773810D01*
X42083333Y42773810D01*
X43035714Y42345239D02*
X43178571Y42297620D01*
X43416666Y42297620D01*
X43511904Y42345239D01*
X43559523Y42392858D01*
X43607142Y42488096D01*
X43607142Y42583334D01*
X43559523Y42678572D01*
X43511904Y42726191D01*
X43416666Y42773810D01*
X43226190Y42821429D01*
X43130952Y42869048D01*
X43083333Y42916667D01*
X43035714Y43011905D01*
X43035714Y43107143D01*
X43083333Y43202381D01*
X43130952Y43250000D01*
X43226190Y43297620D01*
X43464285Y43297620D01*
X43607142Y43250000D01*
X43988095Y43202381D02*
X44035714Y43250000D01*
X44130952Y43297620D01*
X44369047Y43297620D01*
X44464285Y43250000D01*
X44511904Y43202381D01*
X44559523Y43107143D01*
X44559523Y43011905D01*
X44511904Y42869048D01*
X43940476Y42297620D01*
X44559523Y42297620D01*
X44892857Y43297620D02*
X45511904Y43297620D01*
X45178571Y42916667D01*
X45321428Y42916667D01*
X45416666Y42869048D01*
X45464285Y42821429D01*
X45511904Y42726191D01*
X45511904Y42488096D01*
X45464285Y42392858D01*
X45416666Y42345239D01*
X45321428Y42297620D01*
X45035714Y42297620D01*
X44940476Y42345239D01*
X44892857Y42392858D01*
X45892857Y43202381D02*
X45940476Y43250000D01*
X46035714Y43297620D01*
X46273809Y43297620D01*
X46369047Y43250000D01*
X46416666Y43202381D01*
X46464285Y43107143D01*
X46464285Y43011905D01*
X46416666Y42869048D01*
X45845238Y42297620D01*
X46464285Y42297620D01*
X63000000Y42000000D02*
X39500000Y42000000D01*
X79821428Y51797620D02*
X79488095Y52273810D01*
X79250000Y51797620D02*
X79250000Y52797620D01*
X79630952Y52797620D01*
X79726190Y52750000D01*
X79773809Y52702381D01*
X79821428Y52607143D01*
X79821428Y52464286D01*
X79773809Y52369048D01*
X79726190Y52321429D01*
X79630952Y52273810D01*
X79250000Y52273810D01*
X80250000Y51797620D02*
X80250000Y52797620D01*
X90209523Y57642858D02*
X90161904Y57595239D01*
X90019047Y57547620D01*
X89923809Y57547620D01*
X89780952Y57595239D01*
X89685714Y57690477D01*
X89638095Y57785715D01*
X89590476Y57976191D01*
X89590476Y58119048D01*
X89638095Y58309524D01*
X89685714Y58404762D01*
X89780952Y58500000D01*
X89923809Y58547620D01*
X90019047Y58547620D01*
X90161904Y58500000D01*
X90209523Y58452381D01*
X90495238Y58547620D02*
X91066666Y58547620D01*
X90780952Y57547620D02*
X90780952Y58547620D01*
X91352381Y57595239D02*
X91495238Y57547620D01*
X91733333Y57547620D01*
X91828571Y57595239D01*
X91876190Y57642858D01*
X91923809Y57738096D01*
X91923809Y57833334D01*
X91876190Y57928572D01*
X91828571Y57976191D01*
X91733333Y58023810D01*
X91542857Y58071429D01*
X91447619Y58119048D01*
X91400000Y58166667D01*
X91352381Y58261905D01*
X91352381Y58357143D01*
X91400000Y58452381D01*
X91447619Y58500000D01*
X91542857Y58547620D01*
X91780952Y58547620D01*
X91923809Y58500000D01*
X89638094Y61447620D02*
X89638094Y62447620D01*
X89876190Y62447620D01*
X90019047Y62400000D01*
X90114285Y62304762D01*
X90161904Y62209524D01*
X90209523Y62019048D01*
X90209523Y61876191D01*
X90161904Y61685715D01*
X90114285Y61590477D01*
X90019047Y61495239D01*
X89876190Y61447620D01*
X89638094Y61447620D01*
X90590475Y61495239D02*
X90733332Y61447620D01*
X90971428Y61447620D01*
X91066666Y61495239D01*
X91114285Y61542858D01*
X91161904Y61638096D01*
X91161904Y61733334D01*
X91114285Y61828572D01*
X91066666Y61876191D01*
X90971428Y61923810D01*
X90780951Y61971429D01*
X90685713Y62019048D01*
X90638094Y62066667D01*
X90590475Y62161905D01*
X90590475Y62257143D01*
X90638094Y62352381D01*
X90685713Y62400000D01*
X90780951Y62447620D01*
X91019047Y62447620D01*
X91161904Y62400000D01*
X92161904Y61447620D02*
X91828570Y61923810D01*
X91590475Y61447620D02*
X91590475Y62447620D01*
X91971428Y62447620D01*
X92066666Y62400000D01*
X92114285Y62352381D01*
X92161904Y62257143D01*
X92161904Y62114286D01*
X92114285Y62019048D01*
X92066666Y61971429D01*
X91971428Y61923810D01*
X91590475Y61923810D01*
X89638095Y66247620D02*
X89638095Y67247620D01*
X89876190Y67247620D01*
X90019047Y67200000D01*
X90114285Y67104762D01*
X90161904Y67009524D01*
X90209523Y66819048D01*
X90209523Y66676191D01*
X90161904Y66485715D01*
X90114285Y66390477D01*
X90019047Y66295239D01*
X89876190Y66247620D01*
X89638095Y66247620D01*
X91209523Y66342858D02*
X91161904Y66295239D01*
X91019047Y66247620D01*
X90923809Y66247620D01*
X90780952Y66295239D01*
X90685714Y66390477D01*
X90638095Y66485715D01*
X90590476Y66676191D01*
X90590476Y66819048D01*
X90638095Y67009524D01*
X90685714Y67104762D01*
X90780952Y67200000D01*
X90923809Y67247620D01*
X91019047Y67247620D01*
X91161904Y67200000D01*
X91209523Y67152381D01*
X91638095Y66247620D02*
X91638095Y67247620D01*
X91876190Y67247620D01*
X92019047Y67200000D01*
X92114285Y67104762D01*
X92161904Y67009524D01*
X92209523Y66819048D01*
X92209523Y66676191D01*
X92161904Y66485715D01*
X92114285Y66390477D01*
X92019047Y66295239D01*
X91876190Y66247620D01*
X91638095Y66247620D01*
X90209523Y70897620D02*
X89876190Y71373810D01*
X89638095Y70897620D02*
X89638095Y71897620D01*
X90019047Y71897620D01*
X90114285Y71850000D01*
X90161904Y71802381D01*
X90209523Y71707143D01*
X90209523Y71564286D01*
X90161904Y71469048D01*
X90114285Y71421429D01*
X90019047Y71373810D01*
X89638095Y71373810D01*
X90542857Y70897620D02*
X91066666Y71564286D01*
X90542857Y71564286D02*
X91066666Y70897620D01*
X91447619Y70897620D02*
X91447619Y71897620D01*
X91685714Y71897620D01*
X91828571Y71850000D01*
X91923809Y71754762D01*
X91971428Y71659524D01*
X92019047Y71469048D01*
X92019047Y71326191D01*
X91971428Y71135715D01*
X91923809Y71040477D01*
X91828571Y70945239D01*
X91685714Y70897620D01*
X91447619Y70897620D01*
X90209523Y78197620D02*
X89876190Y78673810D01*
X89638094Y78197620D02*
X89638094Y79197620D01*
X90019047Y79197620D01*
X90114285Y79150000D01*
X90161904Y79102381D01*
X90209523Y79007143D01*
X90209523Y78864286D01*
X90161904Y78769048D01*
X90114285Y78721429D01*
X90019047Y78673810D01*
X89638094Y78673810D01*
X90495237Y79197620D02*
X91066666Y79197620D01*
X90780952Y78197620D02*
X90780952Y79197620D01*
X91971428Y78197620D02*
X91638094Y78673810D01*
X91399999Y78197620D02*
X91399999Y79197620D01*
X91780952Y79197620D01*
X91876190Y79150000D01*
X91923809Y79102381D01*
X91971428Y79007143D01*
X91971428Y78864286D01*
X91923809Y78769048D01*
X91876190Y78721429D01*
X91780952Y78673810D01*
X91399999Y78673810D01*
X89638094Y82697620D02*
X89638094Y83697620D01*
X89876190Y83697620D01*
X90019047Y83650000D01*
X90114285Y83554762D01*
X90161904Y83459524D01*
X90209523Y83269048D01*
X90209523Y83126191D01*
X90161904Y82935715D01*
X90114285Y82840477D01*
X90019047Y82745239D01*
X89876190Y82697620D01*
X89638094Y82697620D01*
X90495237Y83697620D02*
X91066666Y83697620D01*
X90780952Y82697620D02*
X90780952Y83697620D01*
X91971428Y82697620D02*
X91638094Y83173810D01*
X91399999Y82697620D02*
X91399999Y83697620D01*
X91780952Y83697620D01*
X91876190Y83650000D01*
X91923809Y83602381D01*
X91971428Y83507143D01*
X91971428Y83364286D01*
X91923809Y83269048D01*
X91876190Y83221429D01*
X91780952Y83173810D01*
X91399999Y83173810D01*
X89495237Y88247620D02*
X90066666Y88247620D01*
X89780952Y87247620D02*
X89780952Y88247620D01*
X90304761Y87247620D02*
X90828571Y87914286D01*
X90304761Y87914286D02*
X90828571Y87247620D01*
X91209523Y87247620D02*
X91209523Y88247620D01*
X91447618Y88247620D01*
X91590475Y88200000D01*
X91685714Y88104762D01*
X91733333Y88009524D01*
X91780952Y87819048D01*
X91780952Y87676191D01*
X91733333Y87485715D01*
X91685714Y87390477D01*
X91590475Y87295239D01*
X91447618Y87247620D01*
X91209523Y87247620D01*
X17071428Y50547620D02*
X16738095Y51023810D01*
X16500000Y50547620D02*
X16500000Y51547620D01*
X16880952Y51547620D01*
X16976190Y51500000D01*
X17023809Y51452381D01*
X17071428Y51357143D01*
X17071428Y51214286D01*
X17023809Y51119048D01*
X16976190Y51071429D01*
X16880952Y51023810D01*
X16500000Y51023810D01*
X17500000Y50547620D02*
X17500000Y51547620D01*
X11402380Y58642858D02*
X11354761Y58595239D01*
X11211904Y58547620D01*
X11116666Y58547620D01*
X10973809Y58595239D01*
X10878571Y58690477D01*
X10830952Y58785715D01*
X10783333Y58976191D01*
X10783333Y59119048D01*
X10830952Y59309524D01*
X10878571Y59404762D01*
X10973809Y59500000D01*
X11116666Y59547620D01*
X11211904Y59547620D01*
X11354761Y59500000D01*
X11402380Y59452381D01*
X11688095Y59547620D02*
X12259523Y59547620D01*
X11973809Y58547620D02*
X11973809Y59547620D01*
X12545238Y58595239D02*
X12688095Y58547620D01*
X12926190Y58547620D01*
X13021428Y58595239D01*
X13069047Y58642858D01*
X13116666Y58738096D01*
X13116666Y58833334D01*
X13069047Y58928572D01*
X13021428Y58976191D01*
X12926190Y59023810D01*
X12735714Y59071429D01*
X12640476Y59119048D01*
X12592857Y59166667D01*
X12545238Y59261905D01*
X12545238Y59357143D01*
X12592857Y59452381D01*
X12640476Y59500000D01*
X12735714Y59547620D01*
X12973809Y59547620D01*
X13116666Y59500000D01*
X10411904Y61697620D02*
X10411904Y62697620D01*
X10650000Y62697620D01*
X10792857Y62650000D01*
X10888095Y62554762D01*
X10935714Y62459524D01*
X10983333Y62269048D01*
X10983333Y62126191D01*
X10935714Y61935715D01*
X10888095Y61840477D01*
X10792857Y61745239D01*
X10650000Y61697620D01*
X10411904Y61697620D01*
X11364285Y61745239D02*
X11507142Y61697620D01*
X11745238Y61697620D01*
X11840476Y61745239D01*
X11888095Y61792858D01*
X11935714Y61888096D01*
X11935714Y61983334D01*
X11888095Y62078572D01*
X11840476Y62126191D01*
X11745238Y62173810D01*
X11554761Y62221429D01*
X11459523Y62269048D01*
X11411904Y62316667D01*
X11364285Y62411905D01*
X11364285Y62507143D01*
X11411904Y62602381D01*
X11459523Y62650000D01*
X11554761Y62697620D01*
X11792857Y62697620D01*
X11935714Y62650000D01*
X12935714Y61697620D02*
X12602380Y62173810D01*
X12364285Y61697620D02*
X12364285Y62697620D01*
X12745238Y62697620D01*
X12840476Y62650000D01*
X12888095Y62602381D01*
X12935714Y62507143D01*
X12935714Y62364286D01*
X12888095Y62269048D01*
X12840476Y62221429D01*
X12745238Y62173810D01*
X12364285Y62173810D01*
X10388095Y66297620D02*
X10388095Y67297620D01*
X10626190Y67297620D01*
X10769047Y67250000D01*
X10864285Y67154762D01*
X10911904Y67059524D01*
X10959523Y66869048D01*
X10959523Y66726191D01*
X10911904Y66535715D01*
X10864285Y66440477D01*
X10769047Y66345239D01*
X10626190Y66297620D01*
X10388095Y66297620D01*
X11959523Y66392858D02*
X11911904Y66345239D01*
X11769047Y66297620D01*
X11673809Y66297620D01*
X11530952Y66345239D01*
X11435714Y66440477D01*
X11388095Y66535715D01*
X11340476Y66726191D01*
X11340476Y66869048D01*
X11388095Y67059524D01*
X11435714Y67154762D01*
X11530952Y67250000D01*
X11673809Y67297620D01*
X11769047Y67297620D01*
X11911904Y67250000D01*
X11959523Y67202381D01*
X12388095Y66297620D02*
X12388095Y67297620D01*
X12626190Y67297620D01*
X12769047Y67250000D01*
X12864285Y67154762D01*
X12911904Y67059524D01*
X12959523Y66869048D01*
X12959523Y66726191D01*
X12911904Y66535715D01*
X12864285Y66440477D01*
X12769047Y66345239D01*
X12626190Y66297620D01*
X12388095Y66297620D01*
X11054761Y70447620D02*
X10721428Y70923810D01*
X10483333Y70447620D02*
X10483333Y71447620D01*
X10864285Y71447620D01*
X10959523Y71400000D01*
X11007142Y71352381D01*
X11054761Y71257143D01*
X11054761Y71114286D01*
X11007142Y71019048D01*
X10959523Y70971429D01*
X10864285Y70923810D01*
X10483333Y70923810D01*
X11388095Y70447620D02*
X11911904Y71114286D01*
X11388095Y71114286D02*
X11911904Y70447620D01*
X12292857Y70447620D02*
X12292857Y71447620D01*
X12530952Y71447620D01*
X12673809Y71400000D01*
X12769047Y71304762D01*
X12816666Y71209524D01*
X12864285Y71019048D01*
X12864285Y70876191D01*
X12816666Y70685715D01*
X12769047Y70590477D01*
X12673809Y70495239D01*
X12530952Y70447620D01*
X12292857Y70447620D01*
X11128571Y78897620D02*
X10795238Y79373810D01*
X10557142Y78897620D02*
X10557142Y79897620D01*
X10938095Y79897620D01*
X11033333Y79850000D01*
X11080952Y79802381D01*
X11128571Y79707143D01*
X11128571Y79564286D01*
X11080952Y79469048D01*
X11033333Y79421429D01*
X10938095Y79373810D01*
X10557142Y79373810D01*
X11414285Y79897620D02*
X11985714Y79897620D01*
X11700000Y78897620D02*
X11700000Y79897620D01*
X12890476Y78897620D02*
X12557142Y79373810D01*
X12319047Y78897620D02*
X12319047Y79897620D01*
X12700000Y79897620D01*
X12795238Y79850000D01*
X12842857Y79802381D01*
X12890476Y79707143D01*
X12890476Y79564286D01*
X12842857Y79469048D01*
X12795238Y79421429D01*
X12700000Y79373810D01*
X12319047Y79373810D01*
X10557142Y83197620D02*
X10557142Y84197620D01*
X10795238Y84197620D01*
X10938095Y84150000D01*
X11033333Y84054762D01*
X11080952Y83959524D01*
X11128571Y83769048D01*
X11128571Y83626191D01*
X11080952Y83435715D01*
X11033333Y83340477D01*
X10938095Y83245239D01*
X10795238Y83197620D01*
X10557142Y83197620D01*
X11414285Y84197620D02*
X11985714Y84197620D01*
X11700000Y83197620D02*
X11700000Y84197620D01*
X12890476Y83197620D02*
X12557142Y83673810D01*
X12319047Y83197620D02*
X12319047Y84197620D01*
X12700000Y84197620D01*
X12795238Y84150000D01*
X12842857Y84102381D01*
X12890476Y84007143D01*
X12890476Y83864286D01*
X12842857Y83769048D01*
X12795238Y83721429D01*
X12700000Y83673810D01*
X12319047Y83673810D01*
X10609523Y88497620D02*
X11180952Y88497620D01*
X10895238Y87497620D02*
X10895238Y88497620D01*
X11419047Y87497620D02*
X11942857Y88164286D01*
X11419047Y88164286D02*
X11942857Y87497620D01*
X12323809Y87497620D02*
X12323809Y88497620D01*
X12561904Y88497620D01*
X12704761Y88450000D01*
X12800000Y88354762D01*
X12847619Y88259524D01*
X12895238Y88069048D01*
X12895238Y87926191D01*
X12847619Y87735715D01*
X12800000Y87640477D01*
X12704761Y87545239D01*
X12561904Y87497620D01*
X12323809Y87497620D01*
X25852380Y82407143D02*
X24852380Y82407143D01*
X24852380Y82645238D01*
X24900000Y82788095D01*
X24995238Y82883333D01*
X25090476Y82930952D01*
X25280952Y82978571D01*
X25423809Y82978571D01*
X25614285Y82930952D01*
X25709523Y82883333D01*
X25804761Y82788095D01*
X25852380Y82645238D01*
X25852380Y82407143D01*
X25757142Y83978571D02*
X25804761Y83930952D01*
X25852380Y83788095D01*
X25852380Y83692857D01*
X25804761Y83550000D01*
X25709523Y83454762D01*
X25614285Y83407143D01*
X25423809Y83359524D01*
X25280952Y83359524D01*
X25090476Y83407143D01*
X24995238Y83454762D01*
X24900000Y83550000D01*
X24852380Y83692857D01*
X24852380Y83788095D01*
X24900000Y83930952D01*
X24947619Y83978571D01*
X25852380Y84407143D02*
X24852380Y84407143D01*
X24852380Y84645238D01*
X24900000Y84788095D01*
X24995238Y84883333D01*
X25090476Y84930952D01*
X25280952Y84978571D01*
X25423809Y84978571D01*
X25614285Y84930952D01*
X25709523Y84883333D01*
X25804761Y84788095D01*
X25852380Y84645238D01*
X25852380Y84407143D01*
X28652380Y82978571D02*
X28176190Y82645238D01*
X28652380Y82407143D02*
X27652380Y82407143D01*
X27652380Y82788095D01*
X27700000Y82883333D01*
X27747619Y82930952D01*
X27842857Y82978571D01*
X27985714Y82978571D01*
X28080952Y82930952D01*
X28128571Y82883333D01*
X28176190Y82788095D01*
X28176190Y82407143D01*
X28652380Y83311905D02*
X27985714Y83835714D01*
X27985714Y83311905D02*
X28652380Y83835714D01*
X28652380Y84216667D02*
X27652380Y84216667D01*
X27652380Y84454762D01*
X27700000Y84597619D01*
X27795238Y84692857D01*
X27890476Y84740476D01*
X28080952Y84788095D01*
X28223809Y84788095D01*
X28414285Y84740476D01*
X28509523Y84692857D01*
X28604761Y84597619D01*
X28652380Y84454762D01*
X28652380Y84216667D01*
X30452380Y82264285D02*
X30452380Y82835714D01*
X31452380Y82550000D02*
X30452380Y82550000D01*
X31452380Y83073809D02*
X30785714Y83597619D01*
X30785714Y83073809D02*
X31452380Y83597619D01*
X31452380Y83978571D02*
X30452380Y83978571D01*
X30452380Y84216666D01*
X30500000Y84359523D01*
X30595238Y84454761D01*
X30690476Y84502381D01*
X30880952Y84550000D01*
X31023809Y84550000D01*
X31214285Y84502381D01*
X31309523Y84454761D01*
X31404761Y84359523D01*
X31452380Y84216666D01*
X31452380Y83978571D01*
X34252380Y82407142D02*
X33252380Y82407142D01*
X33252380Y82645238D01*
X33300000Y82788095D01*
X33395238Y82883333D01*
X33490476Y82930952D01*
X33680952Y82978571D01*
X33823809Y82978571D01*
X34014285Y82930952D01*
X34109523Y82883333D01*
X34204761Y82788095D01*
X34252380Y82645238D01*
X34252380Y82407142D01*
X33252380Y83264285D02*
X33252380Y83835714D01*
X34252380Y83549999D02*
X33252380Y83549999D01*
X34252380Y84740476D02*
X33776190Y84407142D01*
X34252380Y84169047D02*
X33252380Y84169047D01*
X33252380Y84549999D01*
X33300000Y84645238D01*
X33347619Y84692857D01*
X33442857Y84740476D01*
X33585714Y84740476D01*
X33680952Y84692857D01*
X33728571Y84645238D01*
X33776190Y84549999D01*
X33776190Y84169047D01*
X36000000Y82930952D02*
X35952380Y82835714D01*
X35952380Y82692856D01*
X36000000Y82549999D01*
X36095238Y82454761D01*
X36190476Y82407142D01*
X36380952Y82359523D01*
X36523809Y82359523D01*
X36714285Y82407142D01*
X36809523Y82454761D01*
X36904761Y82549999D01*
X36952380Y82692856D01*
X36952380Y82788095D01*
X36904761Y82930952D01*
X36857142Y82978571D01*
X36523809Y82978571D01*
X36523809Y82788095D01*
X36952380Y83407142D02*
X35952380Y83407142D01*
X36952380Y83978571D01*
X35952380Y83978571D01*
X36952380Y84454761D02*
X35952380Y84454761D01*
X35952380Y84692856D01*
X36000000Y84835714D01*
X36095238Y84930952D01*
X36190476Y84978571D01*
X36380952Y85026190D01*
X36523809Y85026190D01*
X36714285Y84978571D01*
X36809523Y84930952D01*
X36904761Y84835714D01*
X36952380Y84692856D01*
X36952380Y84454761D01*
X65400000Y82030952D02*
X65352380Y81935714D01*
X65352380Y81792856D01*
X65400000Y81649999D01*
X65495238Y81554761D01*
X65590476Y81507142D01*
X65780952Y81459523D01*
X65923809Y81459523D01*
X66114285Y81507142D01*
X66209523Y81554761D01*
X66304761Y81649999D01*
X66352380Y81792856D01*
X66352380Y81888095D01*
X66304761Y82030952D01*
X66257142Y82078571D01*
X65923809Y82078571D01*
X65923809Y81888095D01*
X66352380Y82507142D02*
X65352380Y82507142D01*
X66352380Y83078571D01*
X65352380Y83078571D01*
X66352380Y83554761D02*
X65352380Y83554761D01*
X65352380Y83792856D01*
X65400000Y83935714D01*
X65495238Y84030952D01*
X65590476Y84078571D01*
X65780952Y84126190D01*
X65923809Y84126190D01*
X66114285Y84078571D01*
X66209523Y84030952D01*
X66304761Y83935714D01*
X66352380Y83792856D01*
X66352380Y83554761D01*
X77552380Y81507143D02*
X76552380Y81507143D01*
X76552380Y81745238D01*
X76600000Y81888095D01*
X76695238Y81983333D01*
X76790476Y82030952D01*
X76980952Y82078571D01*
X77123809Y82078571D01*
X77314285Y82030952D01*
X77409523Y81983333D01*
X77504761Y81888095D01*
X77552380Y81745238D01*
X77552380Y81507143D01*
X77457142Y83078571D02*
X77504761Y83030952D01*
X77552380Y82888095D01*
X77552380Y82792857D01*
X77504761Y82650000D01*
X77409523Y82554762D01*
X77314285Y82507143D01*
X77123809Y82459524D01*
X76980952Y82459524D01*
X76790476Y82507143D01*
X76695238Y82554762D01*
X76600000Y82650000D01*
X76552380Y82792857D01*
X76552380Y82888095D01*
X76600000Y83030952D01*
X76647619Y83078571D01*
X77552380Y83507143D02*
X76552380Y83507143D01*
X76552380Y83745238D01*
X76600000Y83888095D01*
X76695238Y83983333D01*
X76790476Y84030952D01*
X76980952Y84078571D01*
X77123809Y84078571D01*
X77314285Y84030952D01*
X77409523Y83983333D01*
X77504761Y83888095D01*
X77552380Y83745238D01*
X77552380Y83507143D01*
X74752380Y82078571D02*
X74276190Y81745238D01*
X74752380Y81507143D02*
X73752380Y81507143D01*
X73752380Y81888095D01*
X73800000Y81983333D01*
X73847619Y82030952D01*
X73942857Y82078571D01*
X74085714Y82078571D01*
X74180952Y82030952D01*
X74228571Y81983333D01*
X74276190Y81888095D01*
X74276190Y81507143D01*
X74752380Y82411905D02*
X74085714Y82935714D01*
X74085714Y82411905D02*
X74752380Y82935714D01*
X74752380Y83316667D02*
X73752380Y83316667D01*
X73752380Y83554762D01*
X73800000Y83697619D01*
X73895238Y83792857D01*
X73990476Y83840476D01*
X74180952Y83888095D01*
X74323809Y83888095D01*
X74514285Y83840476D01*
X74609523Y83792857D01*
X74704761Y83697619D01*
X74752380Y83554762D01*
X74752380Y83316667D01*
X70952380Y81364285D02*
X70952380Y81935714D01*
X71952380Y81650000D02*
X70952380Y81650000D01*
X71952380Y82173809D02*
X71285714Y82697619D01*
X71285714Y82173809D02*
X71952380Y82697619D01*
X71952380Y83078571D02*
X70952380Y83078571D01*
X70952380Y83316666D01*
X71000000Y83459523D01*
X71095238Y83554761D01*
X71190476Y83602381D01*
X71380952Y83650000D01*
X71523809Y83650000D01*
X71714285Y83602381D01*
X71809523Y83554761D01*
X71904761Y83459523D01*
X71952380Y83316666D01*
X71952380Y83078571D01*
X69252380Y81507142D02*
X68252380Y81507142D01*
X68252380Y81745238D01*
X68300000Y81888095D01*
X68395238Y81983333D01*
X68490476Y82030952D01*
X68680952Y82078571D01*
X68823809Y82078571D01*
X69014285Y82030952D01*
X69109523Y81983333D01*
X69204761Y81888095D01*
X69252380Y81745238D01*
X69252380Y81507142D01*
X68252380Y82364285D02*
X68252380Y82935714D01*
X69252380Y82649999D02*
X68252380Y82649999D01*
X69252380Y83840476D02*
X68776190Y83507142D01*
X69252380Y83269047D02*
X68252380Y83269047D01*
X68252380Y83649999D01*
X68300000Y83745238D01*
X68347619Y83792857D01*
X68442857Y83840476D01*
X68585714Y83840476D01*
X68680952Y83792857D01*
X68728571Y83745238D01*
X68776190Y83649999D01*
X68776190Y83269047D01*
X56038095Y68300000D02*
X55942857Y68347620D01*
X55800000Y68347620D01*
X55657142Y68300000D01*
X55561904Y68204762D01*
X55514285Y68109524D01*
X55466666Y67919048D01*
X55466666Y67776191D01*
X55514285Y67585715D01*
X55561904Y67490477D01*
X55657142Y67395239D01*
X55800000Y67347620D01*
X55895238Y67347620D01*
X56038095Y67395239D01*
X56085714Y67442858D01*
X56085714Y67776191D01*
X55895238Y67776191D01*
X56514285Y67347620D02*
X56514285Y68347620D01*
X57085714Y67347620D01*
X57085714Y68347620D01*
X57561904Y67347620D02*
X57561904Y68347620D01*
X57800000Y68347620D01*
X57942857Y68300000D01*
X58038095Y68204762D01*
X58085714Y68109524D01*
X58133333Y67919048D01*
X58133333Y67776191D01*
X58085714Y67585715D01*
X58038095Y67490477D01*
X57942857Y67395239D01*
X57800000Y67347620D01*
X57561904Y67347620D01*
X48152380Y31109524D02*
X48152380Y30633334D01*
X48628571Y30585715D01*
X48580952Y30633334D01*
X48533333Y30728572D01*
X48533333Y30966667D01*
X48580952Y31061905D01*
X48628571Y31109524D01*
X48723809Y31157143D01*
X48961904Y31157143D01*
X49057142Y31109524D01*
X49104761Y31061905D01*
X49152380Y30966667D01*
X49152380Y30728572D01*
X49104761Y30633334D01*
X49057142Y30585715D01*
X48152380Y31442858D02*
X49152380Y31776191D01*
X48152380Y32109524D01*
X52800000Y30638096D02*
X52752380Y30542858D01*
X52752380Y30400000D01*
X52800000Y30257143D01*
X52895238Y30161905D01*
X52990476Y30114286D01*
X53180952Y30066667D01*
X53323809Y30066667D01*
X53514285Y30114286D01*
X53609523Y30161905D01*
X53704761Y30257143D01*
X53752380Y30400000D01*
X53752380Y30495239D01*
X53704761Y30638096D01*
X53657142Y30685715D01*
X53323809Y30685715D01*
X53323809Y30495239D01*
X53752380Y31114286D02*
X52752380Y31114286D01*
X53752380Y31685715D01*
X52752380Y31685715D01*
X53752380Y32161905D02*
X52752380Y32161905D01*
X52752380Y32400000D01*
X52800000Y32542858D01*
X52895238Y32638096D01*
X52990476Y32685715D01*
X53180952Y32733334D01*
X53323809Y32733334D01*
X53514285Y32685715D01*
X53609523Y32638096D01*
X53704761Y32542858D01*
X53752380Y32400000D01*
X53752380Y32161905D01*
X49661904Y20347620D02*
X50280952Y20347620D01*
X49947619Y19966667D01*
X50090476Y19966667D01*
X50185714Y19919048D01*
X50233333Y19871429D01*
X50280952Y19776191D01*
X50280952Y19538096D01*
X50233333Y19442858D01*
X50185714Y19395239D01*
X50090476Y19347620D01*
X49804761Y19347620D01*
X49709523Y19395239D01*
X49661904Y19442858D01*
X50566666Y20347620D02*
X50900000Y19347620D01*
X51233333Y20347620D01*
X51471428Y20347620D02*
X52090476Y20347620D01*
X51757142Y19966667D01*
X51900000Y19966667D01*
X51995238Y19919048D01*
X52042857Y19871429D01*
X52090476Y19776191D01*
X52090476Y19538096D01*
X52042857Y19442858D01*
X51995238Y19395239D01*
X51900000Y19347620D01*
X51614285Y19347620D01*
X51519047Y19395239D01*
X51471428Y19442858D01*
X50238095Y40600000D02*
X50142857Y40647620D01*
X50000000Y40647620D01*
X49857142Y40600000D01*
X49761904Y40504762D01*
X49714285Y40409524D01*
X49666666Y40219048D01*
X49666666Y40076191D01*
X49714285Y39885715D01*
X49761904Y39790477D01*
X49857142Y39695239D01*
X50000000Y39647620D01*
X50095238Y39647620D01*
X50238095Y39695239D01*
X50285714Y39742858D01*
X50285714Y40076191D01*
X50095238Y40076191D01*
X50714285Y39647620D02*
X50714285Y40647620D01*
X51285714Y39647620D01*
X51285714Y40647620D01*
X51761904Y39647620D02*
X51761904Y40647620D01*
X52000000Y40647620D01*
X52142857Y40600000D01*
X52238095Y40504762D01*
X52285714Y40409524D01*
X52333333Y40219048D01*
X52333333Y40076191D01*
X52285714Y39885715D01*
X52238095Y39790477D01*
X52142857Y39695239D01*
X52000000Y39647620D01*
X51761904Y39647620D01*
X71138095Y73500000D02*
X71042857Y73547620D01*
X70900000Y73547620D01*
X70757142Y73500000D01*
X70661904Y73404762D01*
X70614285Y73309524D01*
X70566666Y73119048D01*
X70566666Y72976191D01*
X70614285Y72785715D01*
X70661904Y72690477D01*
X70757142Y72595239D01*
X70900000Y72547620D01*
X70995238Y72547620D01*
X71138095Y72595239D01*
X71185714Y72642858D01*
X71185714Y72976191D01*
X70995238Y72976191D01*
X71614285Y72547620D02*
X71614285Y73547620D01*
X72185714Y72547620D01*
X72185714Y73547620D01*
X72661904Y72547620D02*
X72661904Y73547620D01*
X72900000Y73547620D01*
X73042857Y73500000D01*
X73138095Y73404762D01*
X73185714Y73309524D01*
X73233333Y73119048D01*
X73233333Y72976191D01*
X73185714Y72785715D01*
X73138095Y72690477D01*
X73042857Y72595239D01*
X72900000Y72547620D01*
X72661904Y72547620D01*
X31938095Y73100000D02*
X31842857Y73147620D01*
X31700000Y73147620D01*
X31557142Y73100000D01*
X31461904Y73004762D01*
X31414285Y72909524D01*
X31366666Y72719048D01*
X31366666Y72576191D01*
X31414285Y72385715D01*
X31461904Y72290477D01*
X31557142Y72195239D01*
X31700000Y72147620D01*
X31795238Y72147620D01*
X31938095Y72195239D01*
X31985714Y72242858D01*
X31985714Y72576191D01*
X31795238Y72576191D01*
X32414285Y72147620D02*
X32414285Y73147620D01*
X32985714Y72147620D01*
X32985714Y73147620D01*
X33461904Y72147620D02*
X33461904Y73147620D01*
X33700000Y73147620D01*
X33842857Y73100000D01*
X33938095Y73004762D01*
X33985714Y72909524D01*
X34033333Y72719048D01*
X34033333Y72576191D01*
X33985714Y72385715D01*
X33938095Y72290477D01*
X33842857Y72195239D01*
X33700000Y72147620D01*
X33461904Y72147620D01*
X43738095Y68320000D02*
X43642857Y68367620D01*
X43500000Y68367620D01*
X43357142Y68320000D01*
X43261904Y68224762D01*
X43214285Y68129524D01*
X43166666Y67939048D01*
X43166666Y67796191D01*
X43214285Y67605715D01*
X43261904Y67510477D01*
X43357142Y67415239D01*
X43500000Y67367620D01*
X43595238Y67367620D01*
X43738095Y67415239D01*
X43785714Y67462858D01*
X43785714Y67796191D01*
X43595238Y67796191D01*
X44214285Y67367620D02*
X44214285Y68367620D01*
X44785714Y67367620D01*
X44785714Y68367620D01*
X45261904Y67367620D02*
X45261904Y68367620D01*
X45500000Y68367620D01*
X45642857Y68320000D01*
X45738095Y68224762D01*
X45785714Y68129524D01*
X45833333Y67939048D01*
X45833333Y67796191D01*
X45785714Y67605715D01*
X45738095Y67510477D01*
X45642857Y67415239D01*
X45500000Y67367620D01*
X45261904Y67367620D01*
X44571428Y69907620D02*
X44238095Y70383810D01*
X44000000Y69907620D02*
X44000000Y70907620D01*
X44380952Y70907620D01*
X44476190Y70860000D01*
X44523809Y70812381D01*
X44571428Y70717143D01*
X44571428Y70574286D01*
X44523809Y70479048D01*
X44476190Y70431429D01*
X44380952Y70383810D01*
X44000000Y70383810D01*
X45000000Y69907620D02*
X45000000Y70907620D01*
X43952380Y72542858D02*
X43904761Y72495239D01*
X43761904Y72447620D01*
X43666666Y72447620D01*
X43523809Y72495239D01*
X43428571Y72590477D01*
X43380952Y72685715D01*
X43333333Y72876191D01*
X43333333Y73019048D01*
X43380952Y73209524D01*
X43428571Y73304762D01*
X43523809Y73400000D01*
X43666666Y73447620D01*
X43761904Y73447620D01*
X43904761Y73400000D01*
X43952380Y73352381D01*
X44238095Y73447620D02*
X44809523Y73447620D01*
X44523809Y72447620D02*
X44523809Y73447620D01*
X45095238Y72495239D02*
X45238095Y72447620D01*
X45476190Y72447620D01*
X45571428Y72495239D01*
X45619047Y72542858D01*
X45666666Y72638096D01*
X45666666Y72733334D01*
X45619047Y72828572D01*
X45571428Y72876191D01*
X45476190Y72923810D01*
X45285714Y72971429D01*
X45190476Y73019048D01*
X45142857Y73066667D01*
X45095238Y73161905D01*
X45095238Y73257143D01*
X45142857Y73352381D01*
X45190476Y73400000D01*
X45285714Y73447620D01*
X45523809Y73447620D01*
X45666666Y73400000D01*
X43261904Y74987620D02*
X43261904Y75987620D01*
X43500000Y75987620D01*
X43642857Y75940000D01*
X43738095Y75844762D01*
X43785714Y75749524D01*
X43833333Y75559048D01*
X43833333Y75416191D01*
X43785714Y75225715D01*
X43738095Y75130477D01*
X43642857Y75035239D01*
X43500000Y74987620D01*
X43261904Y74987620D01*
X44214285Y75035239D02*
X44357142Y74987620D01*
X44595238Y74987620D01*
X44690476Y75035239D01*
X44738095Y75082858D01*
X44785714Y75178096D01*
X44785714Y75273334D01*
X44738095Y75368572D01*
X44690476Y75416191D01*
X44595238Y75463810D01*
X44404761Y75511429D01*
X44309523Y75559048D01*
X44261904Y75606667D01*
X44214285Y75701905D01*
X44214285Y75797143D01*
X44261904Y75892381D01*
X44309523Y75940000D01*
X44404761Y75987620D01*
X44642857Y75987620D01*
X44785714Y75940000D01*
X45785714Y74987620D02*
X45452380Y75463810D01*
X45214285Y74987620D02*
X45214285Y75987620D01*
X45595238Y75987620D01*
X45690476Y75940000D01*
X45738095Y75892381D01*
X45785714Y75797143D01*
X45785714Y75654286D01*
X45738095Y75559048D01*
X45690476Y75511429D01*
X45595238Y75463810D01*
X45214285Y75463810D01*
X43238095Y77527620D02*
X43238095Y78527620D01*
X43476190Y78527620D01*
X43619047Y78480000D01*
X43714285Y78384762D01*
X43761904Y78289524D01*
X43809523Y78099048D01*
X43809523Y77956191D01*
X43761904Y77765715D01*
X43714285Y77670477D01*
X43619047Y77575239D01*
X43476190Y77527620D01*
X43238095Y77527620D01*
X44809523Y77622858D02*
X44761904Y77575239D01*
X44619047Y77527620D01*
X44523809Y77527620D01*
X44380952Y77575239D01*
X44285714Y77670477D01*
X44238095Y77765715D01*
X44190476Y77956191D01*
X44190476Y78099048D01*
X44238095Y78289524D01*
X44285714Y78384762D01*
X44380952Y78480000D01*
X44523809Y78527620D01*
X44619047Y78527620D01*
X44761904Y78480000D01*
X44809523Y78432381D01*
X45238095Y77527620D02*
X45238095Y78527620D01*
X45476190Y78527620D01*
X45619047Y78480000D01*
X45714285Y78384762D01*
X45761904Y78289524D01*
X45809523Y78099048D01*
X45809523Y77956191D01*
X45761904Y77765715D01*
X45714285Y77670477D01*
X45619047Y77575239D01*
X45476190Y77527620D01*
X45238095Y77527620D01*
X43904761Y80067620D02*
X43571428Y80543810D01*
X43333333Y80067620D02*
X43333333Y81067620D01*
X43714285Y81067620D01*
X43809523Y81020000D01*
X43857142Y80972381D01*
X43904761Y80877143D01*
X43904761Y80734286D01*
X43857142Y80639048D01*
X43809523Y80591429D01*
X43714285Y80543810D01*
X43333333Y80543810D01*
X44238095Y80067620D02*
X44761904Y80734286D01*
X44238095Y80734286D02*
X44761904Y80067620D01*
X45142857Y80067620D02*
X45142857Y81067620D01*
X45380952Y81067620D01*
X45523809Y81020000D01*
X45619047Y80924762D01*
X45666666Y80829524D01*
X45714285Y80639048D01*
X45714285Y80496191D01*
X45666666Y80305715D01*
X45619047Y80210477D01*
X45523809Y80115239D01*
X45380952Y80067620D01*
X45142857Y80067620D01*
X43928571Y82607620D02*
X43595238Y83083810D01*
X43357142Y82607620D02*
X43357142Y83607620D01*
X43738095Y83607620D01*
X43833333Y83560000D01*
X43880952Y83512381D01*
X43928571Y83417143D01*
X43928571Y83274286D01*
X43880952Y83179048D01*
X43833333Y83131429D01*
X43738095Y83083810D01*
X43357142Y83083810D01*
X44214285Y83607620D02*
X44785714Y83607620D01*
X44500000Y82607620D02*
X44500000Y83607620D01*
X45690476Y82607620D02*
X45357142Y83083810D01*
X45119047Y82607620D02*
X45119047Y83607620D01*
X45500000Y83607620D01*
X45595238Y83560000D01*
X45642857Y83512381D01*
X45690476Y83417143D01*
X45690476Y83274286D01*
X45642857Y83179048D01*
X45595238Y83131429D01*
X45500000Y83083810D01*
X45119047Y83083810D01*
X43357142Y85147620D02*
X43357142Y86147620D01*
X43595238Y86147620D01*
X43738095Y86100000D01*
X43833333Y86004762D01*
X43880952Y85909524D01*
X43928571Y85719048D01*
X43928571Y85576191D01*
X43880952Y85385715D01*
X43833333Y85290477D01*
X43738095Y85195239D01*
X43595238Y85147620D01*
X43357142Y85147620D01*
X44214285Y86147620D02*
X44785714Y86147620D01*
X44500000Y85147620D02*
X44500000Y86147620D01*
X45690476Y85147620D02*
X45357142Y85623810D01*
X45119047Y85147620D02*
X45119047Y86147620D01*
X45500000Y86147620D01*
X45595238Y86100000D01*
X45642857Y86052381D01*
X45690476Y85957143D01*
X45690476Y85814286D01*
X45642857Y85719048D01*
X45595238Y85671429D01*
X45500000Y85623810D01*
X45119047Y85623810D01*
X43309523Y88647620D02*
X43880952Y88647620D01*
X43595238Y87647620D02*
X43595238Y88647620D01*
X44119047Y87647620D02*
X44642857Y88314286D01*
X44119047Y88314286D02*
X44642857Y87647620D01*
X45023809Y87647620D02*
X45023809Y88647620D01*
X45261904Y88647620D01*
X45404761Y88600000D01*
X45500000Y88504762D01*
X45547619Y88409524D01*
X45595238Y88219048D01*
X45595238Y88076191D01*
X45547619Y87885715D01*
X45500000Y87790477D01*
X45404761Y87695239D01*
X45261904Y87647620D01*
X45023809Y87647620D01*
D13*
X24276667Y89740000D02*
X24276667Y86000000D01*
X24276667Y86000000D02*
X37723333Y86000000D01*
X37723333Y86000000D02*
X37723333Y89740000D01*
X24036667Y88000000D02*
X24036667Y85760000D01*
X24036667Y85760000D02*
X28230000Y85760000D01*
X84650000Y62000000D02*
X84300000Y62000000D01*
X84300000Y62850000D02*
X82700000Y62850000D01*
X84300000Y61150000D02*
X82700000Y61150000D01*
X84650000Y52500000D02*
X84300000Y52500000D01*
X84300000Y53350000D02*
X82700000Y53350000D01*
X84300000Y51650000D02*
X82700000Y51650000D01*
X84650000Y57000000D02*
X84300000Y57000000D01*
X84300000Y57850000D02*
X82700000Y57850000D01*
X84300000Y56150000D02*
X82700000Y56150000D01*
X84650000Y78750000D02*
X84300000Y78750000D01*
X84300000Y79600000D02*
X82700000Y79600000D01*
X84300000Y77900000D02*
X82700000Y77900000D01*
X84650000Y83250000D02*
X84300000Y83250000D01*
X84300000Y84100000D02*
X82700000Y84100000D01*
X84300000Y82400000D02*
X82700000Y82400000D01*
X84650000Y87750000D02*
X84300000Y87750000D01*
X84300000Y88600000D02*
X82700000Y88600000D01*
X84300000Y86900000D02*
X82700000Y86900000D01*
X84650000Y71250000D02*
X84300000Y71250000D01*
X84300000Y72100000D02*
X82700000Y72100000D01*
X84300000Y70400000D02*
X82700000Y70400000D01*
X84650000Y66750000D02*
X84300000Y66750000D01*
X84300000Y67600000D02*
X82700000Y67600000D01*
X84300000Y65900000D02*
X82700000Y65900000D01*
X20395000Y53445000D02*
X20045000Y53445000D01*
X20045000Y54295000D02*
X18445000Y54295000D01*
X20045000Y52595000D02*
X18445000Y52595000D01*
X20395000Y57695000D02*
X20045000Y57695000D01*
X20045000Y58545000D02*
X18445000Y58545000D01*
X20045000Y56845000D02*
X18445000Y56845000D01*
X20395000Y79445000D02*
X20045000Y79445000D01*
X20045000Y80295000D02*
X18445000Y80295000D01*
X20045000Y78595000D02*
X18445000Y78595000D01*
X20395000Y62195000D02*
X20045000Y62195000D01*
X20045000Y63045000D02*
X18445000Y63045000D01*
X20045000Y61345000D02*
X18445000Y61345000D01*
X20395000Y83695000D02*
X20045000Y83695000D01*
X20045000Y84545000D02*
X18445000Y84545000D01*
X20045000Y82845000D02*
X18445000Y82845000D01*
X20395000Y87945000D02*
X20045000Y87945000D01*
X20045000Y88795000D02*
X18445000Y88795000D01*
X20045000Y87095000D02*
X18445000Y87095000D01*
X20395000Y70945000D02*
X20045000Y70945000D01*
X20045000Y71795000D02*
X18445000Y71795000D01*
X20045000Y70095000D02*
X18445000Y70095000D01*
X20395000Y66695000D02*
X20045000Y66695000D01*
X20045000Y67545000D02*
X18445000Y67545000D01*
X20045000Y65845000D02*
X18445000Y65845000D01*
X58750000Y22100000D02*
X58750000Y22450000D01*
X59600000Y22450000D02*
X59600000Y24050000D01*
X57900000Y22450000D02*
X57900000Y24050000D01*
X43000000Y22100000D02*
X43000000Y22450000D01*
X43850000Y22450000D02*
X43850000Y24050000D01*
X42150000Y22450000D02*
X42150000Y24050000D01*
X78463333Y85760000D02*
X74270000Y85760000D01*
X78463333Y88000000D02*
X78463333Y85760000D01*
X78223333Y86000000D02*
X78223333Y89740000D01*
X64776667Y86000000D02*
X78223333Y86000000D01*
X64776667Y89740000D02*
X64776667Y86000000D01*
X30470000Y-590000D02*
X21530000Y-590000D01*
X30470000Y4920000D02*
X30470000Y3120000D01*
X30470000Y-590000D02*
X30470000Y870000D01*
X21530000Y-590000D02*
X21530000Y870000D01*
X21530000Y4920000D02*
X21530000Y3120000D01*
X84470000Y-590000D02*
X75530000Y-590000D01*
X84470000Y4920000D02*
X84470000Y3120000D01*
X84470000Y-590000D02*
X84470000Y870000D01*
X75530000Y-590000D02*
X75530000Y870000D01*
X75530000Y4920000D02*
X75530000Y3120000D01*
X88087221Y38240000D02*
X88412779Y38240000D01*
X88087221Y39260000D02*
X88412779Y39260000D01*
X82010000Y61837221D02*
X82010000Y62162779D01*
X80990000Y61837221D02*
X80990000Y62162779D01*
X3400000Y57490000D02*
X8600000Y57490000D01*
X3400000Y34510000D02*
X8600000Y34510000D01*
X1960000Y56920000D02*
X3400000Y56920000D01*
X3400000Y57490000D02*
X3400000Y56920000D01*
X8600000Y57490000D02*
X8600000Y56920000D01*
X3400000Y35080000D02*
X3400000Y34510000D01*
X8600000Y35080000D02*
X8600000Y34510000D01*
X3400000Y55400000D02*
X3400000Y54380000D01*
X8600000Y55400000D02*
X8600000Y54380000D01*
X3400000Y52860000D02*
X3400000Y51840000D01*
X8600000Y52860000D02*
X8600000Y51840000D01*
X3400000Y50320000D02*
X3400000Y49300000D01*
X8600000Y50320000D02*
X8600000Y49300000D01*
X3400000Y47780000D02*
X3400000Y46760000D01*
X8600000Y47780000D02*
X8600000Y46760000D01*
X3400000Y45240000D02*
X3400000Y44220000D01*
X8600000Y45240000D02*
X8600000Y44220000D01*
X3400000Y42700000D02*
X3400000Y41680000D01*
X8600000Y42700000D02*
X8600000Y41680000D01*
X3400000Y40160000D02*
X3400000Y39140000D01*
X8600000Y40160000D02*
X8600000Y39140000D01*
X3400000Y37620000D02*
X3400000Y36600000D01*
X8600000Y37620000D02*
X8600000Y36600000D01*
X3400000Y33490000D02*
X8600000Y33490000D01*
X3400000Y10510000D02*
X8600000Y10510000D01*
X1960000Y32920000D02*
X3400000Y32920000D01*
X3400000Y33490000D02*
X3400000Y32920000D01*
X8600000Y33490000D02*
X8600000Y32920000D01*
X3400000Y11080000D02*
X3400000Y10510000D01*
X8600000Y11080000D02*
X8600000Y10510000D01*
X3400000Y31400000D02*
X3400000Y30380000D01*
X8600000Y31400000D02*
X8600000Y30380000D01*
X3400000Y28860000D02*
X3400000Y27840000D01*
X8600000Y28860000D02*
X8600000Y27840000D01*
X3400000Y26320000D02*
X3400000Y25300000D01*
X8600000Y26320000D02*
X8600000Y25300000D01*
X3400000Y23780000D02*
X3400000Y22760000D01*
X8600000Y23780000D02*
X8600000Y22760000D01*
X3400000Y21240000D02*
X3400000Y20220000D01*
X8600000Y21240000D02*
X8600000Y20220000D01*
X3400000Y18700000D02*
X3400000Y17680000D01*
X8600000Y18700000D02*
X8600000Y17680000D01*
X3400000Y16160000D02*
X3400000Y15140000D01*
X8600000Y16160000D02*
X8600000Y15140000D01*
X3400000Y13620000D02*
X3400000Y12600000D01*
X8600000Y13620000D02*
X8600000Y12600000D01*
X94400000Y57490000D02*
X99600000Y57490000D01*
X94400000Y34510000D02*
X99600000Y34510000D01*
X92960000Y56920000D02*
X94400000Y56920000D01*
X94400000Y57490000D02*
X94400000Y56920000D01*
X99600000Y57490000D02*
X99600000Y56920000D01*
X94400000Y35080000D02*
X94400000Y34510000D01*
X99600000Y35080000D02*
X99600000Y34510000D01*
X94400000Y55400000D02*
X94400000Y54380000D01*
X99600000Y55400000D02*
X99600000Y54380000D01*
X94400000Y52860000D02*
X94400000Y51840000D01*
X99600000Y52860000D02*
X99600000Y51840000D01*
X94400000Y50320000D02*
X94400000Y49300000D01*
X99600000Y50320000D02*
X99600000Y49300000D01*
X94400000Y47780000D02*
X94400000Y46760000D01*
X99600000Y47780000D02*
X99600000Y46760000D01*
X94400000Y45240000D02*
X94400000Y44220000D01*
X99600000Y45240000D02*
X99600000Y44220000D01*
X94400000Y42700000D02*
X94400000Y41680000D01*
X99600000Y42700000D02*
X99600000Y41680000D01*
X94400000Y40160000D02*
X94400000Y39140000D01*
X99600000Y40160000D02*
X99600000Y39140000D01*
X94400000Y37620000D02*
X94400000Y36600000D01*
X99600000Y37620000D02*
X99600000Y36600000D01*
X94400000Y33490000D02*
X99600000Y33490000D01*
X94400000Y10510000D02*
X99600000Y10510000D01*
X92960000Y32920000D02*
X94400000Y32920000D01*
X94400000Y33490000D02*
X94400000Y32920000D01*
X99600000Y33490000D02*
X99600000Y32920000D01*
X94400000Y11080000D02*
X94400000Y10510000D01*
X99600000Y11080000D02*
X99600000Y10510000D01*
X94400000Y31400000D02*
X94400000Y30380000D01*
X99600000Y31400000D02*
X99600000Y30380000D01*
X94400000Y28860000D02*
X94400000Y27840000D01*
X99600000Y28860000D02*
X99600000Y27840000D01*
X94400000Y26320000D02*
X94400000Y25300000D01*
X99600000Y26320000D02*
X99600000Y25300000D01*
X94400000Y23780000D02*
X94400000Y22760000D01*
X99600000Y23780000D02*
X99600000Y22760000D01*
X94400000Y21240000D02*
X94400000Y20220000D01*
X99600000Y21240000D02*
X99600000Y20220000D01*
X94400000Y18700000D02*
X94400000Y17680000D01*
X99600000Y18700000D02*
X99600000Y17680000D01*
X94400000Y16160000D02*
X94400000Y15140000D01*
X99600000Y16160000D02*
X99600000Y15140000D01*
X94400000Y13620000D02*
X94400000Y12600000D01*
X99600000Y13620000D02*
X99600000Y12600000D01*
X61990000Y13600000D02*
X61990000Y8400000D01*
X39010000Y13600000D02*
X39010000Y8400000D01*
X61420000Y15040000D02*
X61420000Y13600000D01*
X61990000Y13600000D02*
X61420000Y13600000D01*
X61990000Y8400000D02*
X61420000Y8400000D01*
X39580000Y13600000D02*
X39010000Y13600000D01*
X39580000Y8400000D02*
X39010000Y8400000D01*
X59900000Y13600000D02*
X58880000Y13600000D01*
X59900000Y8400000D02*
X58880000Y8400000D01*
X57360000Y13600000D02*
X56340000Y13600000D01*
X57360000Y8400000D02*
X56340000Y8400000D01*
X54820000Y13600000D02*
X53800000Y13600000D01*
X54820000Y8400000D02*
X53800000Y8400000D01*
X52280000Y13600000D02*
X51260000Y13600000D01*
X52280000Y8400000D02*
X51260000Y8400000D01*
X49740000Y13600000D02*
X48720000Y13600000D01*
X49740000Y8400000D02*
X48720000Y8400000D01*
X47200000Y13600000D02*
X46180000Y13600000D01*
X47200000Y8400000D02*
X46180000Y8400000D01*
X44660000Y13600000D02*
X43640000Y13600000D01*
X44660000Y8400000D02*
X43640000Y8400000D01*
X42120000Y13600000D02*
X41100000Y13600000D01*
X42120000Y8400000D02*
X41100000Y8400000D01*
X47900000Y89490000D02*
X53100000Y89490000D01*
X47900000Y66510000D02*
X53100000Y66510000D01*
X46460000Y88920000D02*
X47900000Y88920000D01*
X47900000Y89490000D02*
X47900000Y88920000D01*
X53100000Y89490000D02*
X53100000Y88920000D01*
X47900000Y67080000D02*
X47900000Y66510000D01*
X53100000Y67080000D02*
X53100000Y66510000D01*
X47900000Y87400000D02*
X47900000Y86380000D01*
X53100000Y87400000D02*
X53100000Y86380000D01*
X47900000Y84860000D02*
X47900000Y83840000D01*
X53100000Y84860000D02*
X53100000Y83840000D01*
X47900000Y82320000D02*
X47900000Y81300000D01*
X53100000Y82320000D02*
X53100000Y81300000D01*
X47900000Y79780000D02*
X47900000Y78760000D01*
X53100000Y79780000D02*
X53100000Y78760000D01*
X47900000Y77240000D02*
X47900000Y76220000D01*
X53100000Y77240000D02*
X53100000Y76220000D01*
X47900000Y74700000D02*
X47900000Y73680000D01*
X53100000Y74700000D02*
X53100000Y73680000D01*
X47900000Y72160000D02*
X47900000Y71140000D01*
X53100000Y72160000D02*
X53100000Y71140000D01*
X47900000Y69620000D02*
X47900000Y68600000D01*
X53100000Y69620000D02*
X53100000Y68600000D01*
X55790000Y27491422D02*
X55790000Y28008578D01*
X57210000Y27491422D02*
X57210000Y28008578D01*
X44790000Y27491422D02*
X44790000Y28008578D01*
X46210000Y27491422D02*
X46210000Y28008578D01*
X38810000Y41750000D02*
X38810000Y45200000D01*
X38810000Y41750000D02*
X38810000Y39800000D01*
X28690000Y41750000D02*
X28690000Y43700000D01*
X28690000Y41750000D02*
X28690000Y39800000D01*
X85060000Y42000000D02*
X85060000Y45450000D01*
X85060000Y42000000D02*
X85060000Y40050000D01*
X74940000Y42000000D02*
X74940000Y43950000D01*
X74940000Y42000000D02*
X74940000Y40050000D01*
X28060000Y41750000D02*
X28060000Y45200000D01*
X28060000Y41750000D02*
X28060000Y39800000D01*
X17940000Y41750000D02*
X17940000Y43700000D01*
X17940000Y41750000D02*
X17940000Y39800000D01*
X74310000Y42000000D02*
X74310000Y45450000D01*
X74310000Y42000000D02*
X74310000Y40050000D01*
X64190000Y42000000D02*
X64190000Y43950000D01*
X64190000Y42000000D02*
X64190000Y40050000D01*
X20940000Y15250000D02*
X20940000Y11800000D01*
X20940000Y15250000D02*
X20940000Y17200000D01*
X31060000Y15250000D02*
X31060000Y13300000D01*
X31060000Y15250000D02*
X31060000Y17200000D01*
X73940000Y18250000D02*
X73940000Y14800000D01*
X73940000Y18250000D02*
X73940000Y20200000D01*
X84060000Y18250000D02*
X84060000Y16300000D01*
X84060000Y18250000D02*
X84060000Y20200000D01*
X54410000Y29100000D02*
X54410000Y23090000D01*
X47590000Y26850000D02*
X47590000Y23090000D01*
X54410000Y23090000D02*
X53150000Y23090000D01*
X47590000Y23090000D02*
X48850000Y23090000D01*
X36005000Y28896667D02*
X37275000Y28896667D01*
X37205000Y27690000D02*
X37205000Y28896667D01*
X37085000Y27690000D02*
X37085000Y28896667D01*
X36965000Y27690000D02*
X36965000Y28896667D01*
X36845000Y27690000D02*
X36845000Y28896667D01*
X36725000Y27690000D02*
X36725000Y28896667D01*
X36605000Y27690000D02*
X36605000Y28896667D01*
X36485000Y27690000D02*
X36485000Y28896667D01*
X36365000Y27690000D02*
X36365000Y28896667D01*
X36245000Y27690000D02*
X36245000Y28896667D01*
X36125000Y27690000D02*
X36125000Y28896667D01*
X36005000Y31310000D02*
X36005000Y27690000D01*
X37275000Y31310000D02*
X36005000Y31310000D01*
X37275000Y27690000D02*
X37275000Y31310000D01*
X36005000Y27690000D02*
X37275000Y27690000D01*
X33465000Y28896667D02*
X34735000Y28896667D01*
X34665000Y27690000D02*
X34665000Y28896667D01*
X34545000Y27690000D02*
X34545000Y28896667D01*
X34425000Y27690000D02*
X34425000Y28896667D01*
X34305000Y27690000D02*
X34305000Y28896667D01*
X34185000Y27690000D02*
X34185000Y28896667D01*
X34065000Y27690000D02*
X34065000Y28896667D01*
X33945000Y27690000D02*
X33945000Y28896667D01*
X33825000Y27690000D02*
X33825000Y28896667D01*
X33705000Y27690000D02*
X33705000Y28896667D01*
X33585000Y27690000D02*
X33585000Y28896667D01*
X33465000Y31310000D02*
X33465000Y27690000D01*
X34735000Y31310000D02*
X33465000Y31310000D01*
X34735000Y27690000D02*
X34735000Y31310000D01*
X33465000Y27690000D02*
X34735000Y27690000D01*
X30925000Y28896667D02*
X32195000Y28896667D01*
X32125000Y27690000D02*
X32125000Y28896667D01*
X32005000Y27690000D02*
X32005000Y28896667D01*
X31885000Y27690000D02*
X31885000Y28896667D01*
X31765000Y27690000D02*
X31765000Y28896667D01*
X31645000Y27690000D02*
X31645000Y28896667D01*
X31525000Y27690000D02*
X31525000Y28896667D01*
X31405000Y27690000D02*
X31405000Y28896667D01*
X31285000Y27690000D02*
X31285000Y28896667D01*
X31165000Y27690000D02*
X31165000Y28896667D01*
X31045000Y27690000D02*
X31045000Y28896667D01*
X30925000Y31310000D02*
X30925000Y27690000D01*
X32195000Y31310000D02*
X30925000Y31310000D01*
X32195000Y27690000D02*
X32195000Y31310000D01*
X30925000Y27690000D02*
X32195000Y27690000D01*
X28385000Y28896667D02*
X29655000Y28896667D01*
X29585000Y27690000D02*
X29585000Y28896667D01*
X29465000Y27690000D02*
X29465000Y28896667D01*
X29345000Y27690000D02*
X29345000Y28896667D01*
X29225000Y27690000D02*
X29225000Y28896667D01*
X29105000Y27690000D02*
X29105000Y28896667D01*
X28985000Y27690000D02*
X28985000Y28896667D01*
X28865000Y27690000D02*
X28865000Y28896667D01*
X28745000Y27690000D02*
X28745000Y28896667D01*
X28625000Y27690000D02*
X28625000Y28896667D01*
X28505000Y27690000D02*
X28505000Y28896667D01*
X28385000Y31310000D02*
X28385000Y27690000D01*
X29655000Y31310000D02*
X28385000Y31310000D01*
X29655000Y27690000D02*
X29655000Y31310000D01*
X28385000Y27690000D02*
X29655000Y27690000D01*
X25845000Y28896667D02*
X27115000Y28896667D01*
X27045000Y27690000D02*
X27045000Y28896667D01*
X26925000Y27690000D02*
X26925000Y28896667D01*
X26805000Y27690000D02*
X26805000Y28896667D01*
X26685000Y27690000D02*
X26685000Y28896667D01*
X26565000Y27690000D02*
X26565000Y28896667D01*
X26445000Y27690000D02*
X26445000Y28896667D01*
X26325000Y27690000D02*
X26325000Y28896667D01*
X26205000Y27690000D02*
X26205000Y28896667D01*
X26085000Y27690000D02*
X26085000Y28896667D01*
X25965000Y27690000D02*
X25965000Y28896667D01*
X25845000Y31310000D02*
X25845000Y27690000D01*
X27115000Y31310000D02*
X25845000Y31310000D01*
X27115000Y27690000D02*
X27115000Y31310000D01*
X25845000Y27690000D02*
X27115000Y27690000D01*
X23305000Y28896667D02*
X24575000Y28896667D01*
X24505000Y27690000D02*
X24505000Y28896667D01*
X24385000Y27690000D02*
X24385000Y28896667D01*
X24265000Y27690000D02*
X24265000Y28896667D01*
X24145000Y27690000D02*
X24145000Y28896667D01*
X24025000Y27690000D02*
X24025000Y28896667D01*
X23905000Y27690000D02*
X23905000Y28896667D01*
X23785000Y27690000D02*
X23785000Y28896667D01*
X23665000Y27690000D02*
X23665000Y28896667D01*
X23545000Y27690000D02*
X23545000Y28896667D01*
X23425000Y27690000D02*
X23425000Y28896667D01*
X23305000Y31310000D02*
X23305000Y27690000D01*
X24575000Y31310000D02*
X23305000Y31310000D01*
X24575000Y27690000D02*
X24575000Y31310000D01*
X23305000Y27690000D02*
X24575000Y27690000D01*
X20765000Y28896667D02*
X22035000Y28896667D01*
X21965000Y27690000D02*
X21965000Y28896667D01*
X21845000Y27690000D02*
X21845000Y28896667D01*
X21725000Y27690000D02*
X21725000Y28896667D01*
X21605000Y27690000D02*
X21605000Y28896667D01*
X21485000Y27690000D02*
X21485000Y28896667D01*
X21365000Y27690000D02*
X21365000Y28896667D01*
X21245000Y27690000D02*
X21245000Y28896667D01*
X21125000Y27690000D02*
X21125000Y28896667D01*
X21005000Y27690000D02*
X21005000Y28896667D01*
X20885000Y27690000D02*
X20885000Y28896667D01*
X20765000Y31310000D02*
X20765000Y27690000D01*
X22035000Y31310000D02*
X20765000Y31310000D01*
X22035000Y27690000D02*
X22035000Y31310000D01*
X20765000Y27690000D02*
X22035000Y27690000D01*
X18225000Y28896667D02*
X19495000Y28896667D01*
X19425000Y27690000D02*
X19425000Y28896667D01*
X19305000Y27690000D02*
X19305000Y28896667D01*
X19185000Y27690000D02*
X19185000Y28896667D01*
X19065000Y27690000D02*
X19065000Y28896667D01*
X18945000Y27690000D02*
X18945000Y28896667D01*
X18825000Y27690000D02*
X18825000Y28896667D01*
X18705000Y27690000D02*
X18705000Y28896667D01*
X18585000Y27690000D02*
X18585000Y28896667D01*
X18465000Y27690000D02*
X18465000Y28896667D01*
X18345000Y27690000D02*
X18345000Y28896667D01*
X18225000Y31310000D02*
X18225000Y27690000D01*
X19495000Y31310000D02*
X18225000Y31310000D01*
X19495000Y27690000D02*
X19495000Y31310000D01*
X18225000Y27690000D02*
X19495000Y27690000D01*
X16510000Y25850000D02*
X17893000Y25850000D01*
X16510000Y25850000D02*
X16510000Y27233000D01*
X19661000Y32910000D02*
X20601000Y32910000D01*
X16750000Y32910000D02*
X18060000Y32910000D01*
X22201000Y32910000D02*
X23141000Y32910000D01*
X24741000Y32910000D02*
X25681000Y32910000D01*
X27281000Y32910000D02*
X28221000Y32910000D01*
X29821000Y32910000D02*
X30761000Y32910000D01*
X32361000Y32910000D02*
X33301000Y32910000D01*
X34901000Y32910000D02*
X35840000Y32910000D01*
X37440000Y32910000D02*
X38751000Y32910000D01*
X37440000Y26090000D02*
X38751000Y26090000D01*
X34900000Y26090000D02*
X35840000Y26090000D01*
X32360000Y26090000D02*
X33300000Y26090000D01*
X29820000Y26090000D02*
X30760000Y26090000D01*
X27280000Y26090000D02*
X28220000Y26090000D01*
X24740000Y26090000D02*
X25680000Y26090000D01*
X22200000Y26090000D02*
X23140000Y26090000D01*
X19660000Y26090000D02*
X20600000Y26090000D01*
X16750000Y26090000D02*
X18060000Y26090000D01*
X38751000Y26090000D02*
X38751000Y32910000D01*
X16750000Y26090000D02*
X16750000Y32910000D01*
X83005000Y28896667D02*
X84275000Y28896667D01*
X84205000Y27690000D02*
X84205000Y28896667D01*
X84085000Y27690000D02*
X84085000Y28896667D01*
X83965000Y27690000D02*
X83965000Y28896667D01*
X83845000Y27690000D02*
X83845000Y28896667D01*
X83725000Y27690000D02*
X83725000Y28896667D01*
X83605000Y27690000D02*
X83605000Y28896667D01*
X83485000Y27690000D02*
X83485000Y28896667D01*
X83365000Y27690000D02*
X83365000Y28896667D01*
X83245000Y27690000D02*
X83245000Y28896667D01*
X83125000Y27690000D02*
X83125000Y28896667D01*
X83005000Y31310000D02*
X83005000Y27690000D01*
X84275000Y31310000D02*
X83005000Y31310000D01*
X84275000Y27690000D02*
X84275000Y31310000D01*
X83005000Y27690000D02*
X84275000Y27690000D01*
X80465000Y28896667D02*
X81735000Y28896667D01*
X81665000Y27690000D02*
X81665000Y28896667D01*
X81545000Y27690000D02*
X81545000Y28896667D01*
X81425000Y27690000D02*
X81425000Y28896667D01*
X81305000Y27690000D02*
X81305000Y28896667D01*
X81185000Y27690000D02*
X81185000Y28896667D01*
X81065000Y27690000D02*
X81065000Y28896667D01*
X80945000Y27690000D02*
X80945000Y28896667D01*
X80825000Y27690000D02*
X80825000Y28896667D01*
X80705000Y27690000D02*
X80705000Y28896667D01*
X80585000Y27690000D02*
X80585000Y28896667D01*
X80465000Y31310000D02*
X80465000Y27690000D01*
X81735000Y31310000D02*
X80465000Y31310000D01*
X81735000Y27690000D02*
X81735000Y31310000D01*
X80465000Y27690000D02*
X81735000Y27690000D01*
X77925000Y28896667D02*
X79195000Y28896667D01*
X79125000Y27690000D02*
X79125000Y28896667D01*
X79005000Y27690000D02*
X79005000Y28896667D01*
X78885000Y27690000D02*
X78885000Y28896667D01*
X78765000Y27690000D02*
X78765000Y28896667D01*
X78645000Y27690000D02*
X78645000Y28896667D01*
X78525000Y27690000D02*
X78525000Y28896667D01*
X78405000Y27690000D02*
X78405000Y28896667D01*
X78285000Y27690000D02*
X78285000Y28896667D01*
X78165000Y27690000D02*
X78165000Y28896667D01*
X78045000Y27690000D02*
X78045000Y28896667D01*
X77925000Y31310000D02*
X77925000Y27690000D01*
X79195000Y31310000D02*
X77925000Y31310000D01*
X79195000Y27690000D02*
X79195000Y31310000D01*
X77925000Y27690000D02*
X79195000Y27690000D01*
X75385000Y28896667D02*
X76655000Y28896667D01*
X76585000Y27690000D02*
X76585000Y28896667D01*
X76465000Y27690000D02*
X76465000Y28896667D01*
X76345000Y27690000D02*
X76345000Y28896667D01*
X76225000Y27690000D02*
X76225000Y28896667D01*
X76105000Y27690000D02*
X76105000Y28896667D01*
X75985000Y27690000D02*
X75985000Y28896667D01*
X75865000Y27690000D02*
X75865000Y28896667D01*
X75745000Y27690000D02*
X75745000Y28896667D01*
X75625000Y27690000D02*
X75625000Y28896667D01*
X75505000Y27690000D02*
X75505000Y28896667D01*
X75385000Y31310000D02*
X75385000Y27690000D01*
X76655000Y31310000D02*
X75385000Y31310000D01*
X76655000Y27690000D02*
X76655000Y31310000D01*
X75385000Y27690000D02*
X76655000Y27690000D01*
X72845000Y28896667D02*
X74115000Y28896667D01*
X74045000Y27690000D02*
X74045000Y28896667D01*
X73925000Y27690000D02*
X73925000Y28896667D01*
X73805000Y27690000D02*
X73805000Y28896667D01*
X73685000Y27690000D02*
X73685000Y28896667D01*
X73565000Y27690000D02*
X73565000Y28896667D01*
X73445000Y27690000D02*
X73445000Y28896667D01*
X73325000Y27690000D02*
X73325000Y28896667D01*
X73205000Y27690000D02*
X73205000Y28896667D01*
X73085000Y27690000D02*
X73085000Y28896667D01*
X72965000Y27690000D02*
X72965000Y28896667D01*
X72845000Y31310000D02*
X72845000Y27690000D01*
X74115000Y31310000D02*
X72845000Y31310000D01*
X74115000Y27690000D02*
X74115000Y31310000D01*
X72845000Y27690000D02*
X74115000Y27690000D01*
X70305000Y28896667D02*
X71575000Y28896667D01*
X71505000Y27690000D02*
X71505000Y28896667D01*
X71385000Y27690000D02*
X71385000Y28896667D01*
X71265000Y27690000D02*
X71265000Y28896667D01*
X71145000Y27690000D02*
X71145000Y28896667D01*
X71025000Y27690000D02*
X71025000Y28896667D01*
X70905000Y27690000D02*
X70905000Y28896667D01*
X70785000Y27690000D02*
X70785000Y28896667D01*
X70665000Y27690000D02*
X70665000Y28896667D01*
X70545000Y27690000D02*
X70545000Y28896667D01*
X70425000Y27690000D02*
X70425000Y28896667D01*
X70305000Y31310000D02*
X70305000Y27690000D01*
X71575000Y31310000D02*
X70305000Y31310000D01*
X71575000Y27690000D02*
X71575000Y31310000D01*
X70305000Y27690000D02*
X71575000Y27690000D01*
X67765000Y28896667D02*
X69035000Y28896667D01*
X68965000Y27690000D02*
X68965000Y28896667D01*
X68845000Y27690000D02*
X68845000Y28896667D01*
X68725000Y27690000D02*
X68725000Y28896667D01*
X68605000Y27690000D02*
X68605000Y28896667D01*
X68485000Y27690000D02*
X68485000Y28896667D01*
X68365000Y27690000D02*
X68365000Y28896667D01*
X68245000Y27690000D02*
X68245000Y28896667D01*
X68125000Y27690000D02*
X68125000Y28896667D01*
X68005000Y27690000D02*
X68005000Y28896667D01*
X67885000Y27690000D02*
X67885000Y28896667D01*
X67765000Y31310000D02*
X67765000Y27690000D01*
X69035000Y31310000D02*
X67765000Y31310000D01*
X69035000Y27690000D02*
X69035000Y31310000D01*
X67765000Y27690000D02*
X69035000Y27690000D01*
X65225000Y28896667D02*
X66495000Y28896667D01*
X66425000Y27690000D02*
X66425000Y28896667D01*
X66305000Y27690000D02*
X66305000Y28896667D01*
X66185000Y27690000D02*
X66185000Y28896667D01*
X66065000Y27690000D02*
X66065000Y28896667D01*
X65945000Y27690000D02*
X65945000Y28896667D01*
X65825000Y27690000D02*
X65825000Y28896667D01*
X65705000Y27690000D02*
X65705000Y28896667D01*
X65585000Y27690000D02*
X65585000Y28896667D01*
X65465000Y27690000D02*
X65465000Y28896667D01*
X65345000Y27690000D02*
X65345000Y28896667D01*
X65225000Y31310000D02*
X65225000Y27690000D01*
X66495000Y31310000D02*
X65225000Y31310000D01*
X66495000Y27690000D02*
X66495000Y31310000D01*
X65225000Y27690000D02*
X66495000Y27690000D01*
X63510000Y25850000D02*
X64893000Y25850000D01*
X63510000Y25850000D02*
X63510000Y27233000D01*
X66661000Y32910000D02*
X67601000Y32910000D01*
X63750000Y32910000D02*
X65060000Y32910000D01*
X69201000Y32910000D02*
X70141000Y32910000D01*
X71741000Y32910000D02*
X72681000Y32910000D01*
X74281000Y32910000D02*
X75221000Y32910000D01*
X76821000Y32910000D02*
X77761000Y32910000D01*
X79361000Y32910000D02*
X80301000Y32910000D01*
X81901000Y32910000D02*
X82840000Y32910000D01*
X84440000Y32910000D02*
X85751000Y32910000D01*
X84440000Y26090000D02*
X85751000Y26090000D01*
X81900000Y26090000D02*
X82840000Y26090000D01*
X79360000Y26090000D02*
X80300000Y26090000D01*
X76820000Y26090000D02*
X77760000Y26090000D01*
X74280000Y26090000D02*
X75220000Y26090000D01*
X71740000Y26090000D02*
X72680000Y26090000D01*
X69200000Y26090000D02*
X70140000Y26090000D01*
X66660000Y26090000D02*
X67600000Y26090000D01*
X63750000Y26090000D02*
X65060000Y26090000D01*
X85751000Y26090000D02*
X85751000Y32910000D01*
X63750000Y26090000D02*
X63750000Y32910000D01*
X58755000Y58396667D02*
X60025000Y58396667D01*
X59955000Y57190000D02*
X59955000Y58396667D01*
X59835000Y57190000D02*
X59835000Y58396667D01*
X59715000Y57190000D02*
X59715000Y58396667D01*
X59595000Y57190000D02*
X59595000Y58396667D01*
X59475000Y57190000D02*
X59475000Y58396667D01*
X59355000Y57190000D02*
X59355000Y58396667D01*
X59235000Y57190000D02*
X59235000Y58396667D01*
X59115000Y57190000D02*
X59115000Y58396667D01*
X58995000Y57190000D02*
X58995000Y58396667D01*
X58875000Y57190000D02*
X58875000Y58396667D01*
X58755000Y60810000D02*
X58755000Y57190000D01*
X60025000Y60810000D02*
X58755000Y60810000D01*
X60025000Y57190000D02*
X60025000Y60810000D01*
X58755000Y57190000D02*
X60025000Y57190000D01*
X56215000Y58396667D02*
X57485000Y58396667D01*
X57415000Y57190000D02*
X57415000Y58396667D01*
X57295000Y57190000D02*
X57295000Y58396667D01*
X57175000Y57190000D02*
X57175000Y58396667D01*
X57055000Y57190000D02*
X57055000Y58396667D01*
X56935000Y57190000D02*
X56935000Y58396667D01*
X56815000Y57190000D02*
X56815000Y58396667D01*
X56695000Y57190000D02*
X56695000Y58396667D01*
X56575000Y57190000D02*
X56575000Y58396667D01*
X56455000Y57190000D02*
X56455000Y58396667D01*
X56335000Y57190000D02*
X56335000Y58396667D01*
X56215000Y60810000D02*
X56215000Y57190000D01*
X57485000Y60810000D02*
X56215000Y60810000D01*
X57485000Y57190000D02*
X57485000Y60810000D01*
X56215000Y57190000D02*
X57485000Y57190000D01*
X53675000Y58396667D02*
X54945000Y58396667D01*
X54875000Y57190000D02*
X54875000Y58396667D01*
X54755000Y57190000D02*
X54755000Y58396667D01*
X54635000Y57190000D02*
X54635000Y58396667D01*
X54515000Y57190000D02*
X54515000Y58396667D01*
X54395000Y57190000D02*
X54395000Y58396667D01*
X54275000Y57190000D02*
X54275000Y58396667D01*
X54155000Y57190000D02*
X54155000Y58396667D01*
X54035000Y57190000D02*
X54035000Y58396667D01*
X53915000Y57190000D02*
X53915000Y58396667D01*
X53795000Y57190000D02*
X53795000Y58396667D01*
X53675000Y60810000D02*
X53675000Y57190000D01*
X54945000Y60810000D02*
X53675000Y60810000D01*
X54945000Y57190000D02*
X54945000Y60810000D01*
X53675000Y57190000D02*
X54945000Y57190000D01*
X51135000Y58396667D02*
X52405000Y58396667D01*
X52335000Y57190000D02*
X52335000Y58396667D01*
X52215000Y57190000D02*
X52215000Y58396667D01*
X52095000Y57190000D02*
X52095000Y58396667D01*
X51975000Y57190000D02*
X51975000Y58396667D01*
X51855000Y57190000D02*
X51855000Y58396667D01*
X51735000Y57190000D02*
X51735000Y58396667D01*
X51615000Y57190000D02*
X51615000Y58396667D01*
X51495000Y57190000D02*
X51495000Y58396667D01*
X51375000Y57190000D02*
X51375000Y58396667D01*
X51255000Y57190000D02*
X51255000Y58396667D01*
X51135000Y60810000D02*
X51135000Y57190000D01*
X52405000Y60810000D02*
X51135000Y60810000D01*
X52405000Y57190000D02*
X52405000Y60810000D01*
X51135000Y57190000D02*
X52405000Y57190000D01*
X48595000Y58396667D02*
X49865000Y58396667D01*
X49795000Y57190000D02*
X49795000Y58396667D01*
X49675000Y57190000D02*
X49675000Y58396667D01*
X49555000Y57190000D02*
X49555000Y58396667D01*
X49435000Y57190000D02*
X49435000Y58396667D01*
X49315000Y57190000D02*
X49315000Y58396667D01*
X49195000Y57190000D02*
X49195000Y58396667D01*
X49075000Y57190000D02*
X49075000Y58396667D01*
X48955000Y57190000D02*
X48955000Y58396667D01*
X48835000Y57190000D02*
X48835000Y58396667D01*
X48715000Y57190000D02*
X48715000Y58396667D01*
X48595000Y60810000D02*
X48595000Y57190000D01*
X49865000Y60810000D02*
X48595000Y60810000D01*
X49865000Y57190000D02*
X49865000Y60810000D01*
X48595000Y57190000D02*
X49865000Y57190000D01*
X46055000Y58396667D02*
X47325000Y58396667D01*
X47255000Y57190000D02*
X47255000Y58396667D01*
X47135000Y57190000D02*
X47135000Y58396667D01*
X47015000Y57190000D02*
X47015000Y58396667D01*
X46895000Y57190000D02*
X46895000Y58396667D01*
X46775000Y57190000D02*
X46775000Y58396667D01*
X46655000Y57190000D02*
X46655000Y58396667D01*
X46535000Y57190000D02*
X46535000Y58396667D01*
X46415000Y57190000D02*
X46415000Y58396667D01*
X46295000Y57190000D02*
X46295000Y58396667D01*
X46175000Y57190000D02*
X46175000Y58396667D01*
X46055000Y60810000D02*
X46055000Y57190000D01*
X47325000Y60810000D02*
X46055000Y60810000D01*
X47325000Y57190000D02*
X47325000Y60810000D01*
X46055000Y57190000D02*
X47325000Y57190000D01*
X43515000Y58396667D02*
X44785000Y58396667D01*
X44715000Y57190000D02*
X44715000Y58396667D01*
X44595000Y57190000D02*
X44595000Y58396667D01*
X44475000Y57190000D02*
X44475000Y58396667D01*
X44355000Y57190000D02*
X44355000Y58396667D01*
X44235000Y57190000D02*
X44235000Y58396667D01*
X44115000Y57190000D02*
X44115000Y58396667D01*
X43995000Y57190000D02*
X43995000Y58396667D01*
X43875000Y57190000D02*
X43875000Y58396667D01*
X43755000Y57190000D02*
X43755000Y58396667D01*
X43635000Y57190000D02*
X43635000Y58396667D01*
X43515000Y60810000D02*
X43515000Y57190000D01*
X44785000Y60810000D02*
X43515000Y60810000D01*
X44785000Y57190000D02*
X44785000Y60810000D01*
X43515000Y57190000D02*
X44785000Y57190000D01*
X40975000Y58396667D02*
X42245000Y58396667D01*
X42175000Y57190000D02*
X42175000Y58396667D01*
X42055000Y57190000D02*
X42055000Y58396667D01*
X41935000Y57190000D02*
X41935000Y58396667D01*
X41815000Y57190000D02*
X41815000Y58396667D01*
X41695000Y57190000D02*
X41695000Y58396667D01*
X41575000Y57190000D02*
X41575000Y58396667D01*
X41455000Y57190000D02*
X41455000Y58396667D01*
X41335000Y57190000D02*
X41335000Y58396667D01*
X41215000Y57190000D02*
X41215000Y58396667D01*
X41095000Y57190000D02*
X41095000Y58396667D01*
X40975000Y60810000D02*
X40975000Y57190000D01*
X42245000Y60810000D02*
X40975000Y60810000D01*
X42245000Y57190000D02*
X42245000Y60810000D01*
X40975000Y57190000D02*
X42245000Y57190000D01*
X39260000Y55350000D02*
X40643000Y55350000D01*
X39260000Y55350000D02*
X39260000Y56733000D01*
X42411000Y62410000D02*
X43351000Y62410000D01*
X39500000Y62410000D02*
X40810000Y62410000D01*
X44951000Y62410000D02*
X45891000Y62410000D01*
X47491000Y62410000D02*
X48431000Y62410000D01*
X50031000Y62410000D02*
X50971000Y62410000D01*
X52571000Y62410000D02*
X53511000Y62410000D01*
X55111000Y62410000D02*
X56051000Y62410000D01*
X57651000Y62410000D02*
X58590000Y62410000D01*
X60190000Y62410000D02*
X61501000Y62410000D01*
X60190000Y55590000D02*
X61501000Y55590000D01*
X57650000Y55590000D02*
X58590000Y55590000D01*
X55110000Y55590000D02*
X56050000Y55590000D01*
X52570000Y55590000D02*
X53510000Y55590000D01*
X50030000Y55590000D02*
X50970000Y55590000D01*
X47490000Y55590000D02*
X48430000Y55590000D01*
X44950000Y55590000D02*
X45890000Y55590000D01*
X42410000Y55590000D02*
X43350000Y55590000D01*
X39500000Y55590000D02*
X40810000Y55590000D01*
X61501000Y55590000D02*
X61501000Y62410000D01*
X39500000Y55590000D02*
X39500000Y62410000D01*
X21712779Y21060000D02*
X21387221Y21060000D01*
X21712779Y20040000D02*
X21387221Y20040000D01*
X72240000Y19912779D02*
X72240000Y19587221D01*
X73260000Y19912779D02*
X73260000Y19587221D01*
X14912779Y38760000D02*
X14587221Y38760000D01*
X14912779Y37740000D02*
X14587221Y37740000D01*
X14912779Y40260000D02*
X14587221Y40260000D01*
X14912779Y39240000D02*
X14587221Y39240000D01*
X14912779Y41760000D02*
X14587221Y41760000D01*
X14912779Y40740000D02*
X14587221Y40740000D01*
X14912779Y43260000D02*
X14587221Y43260000D01*
X14912779Y42240000D02*
X14587221Y42240000D01*
X14912779Y45010000D02*
X14587221Y45010000D01*
X14912779Y43990000D02*
X14587221Y43990000D01*
X14587221Y45490000D02*
X14912779Y45490000D01*
X14587221Y46510000D02*
X14912779Y46510000D01*
X14587221Y46990000D02*
X14912779Y46990000D01*
X14587221Y48010000D02*
X14912779Y48010000D01*
X14587221Y48490000D02*
X14912779Y48490000D01*
X14587221Y49510000D02*
X14912779Y49510000D01*
X15337221Y10490000D02*
X15662779Y10490000D01*
X15337221Y11510000D02*
X15662779Y11510000D01*
X15337221Y11990000D02*
X15662779Y11990000D01*
X15337221Y13010000D02*
X15662779Y13010000D01*
X15337221Y13490000D02*
X15662779Y13490000D01*
X15337221Y14510000D02*
X15662779Y14510000D01*
X15337221Y14990000D02*
X15662779Y14990000D01*
X15337221Y16010000D02*
X15662779Y16010000D01*
X15337221Y16490000D02*
X15662779Y16490000D01*
X15337221Y17510000D02*
X15662779Y17510000D01*
X15662779Y19010000D02*
X15337221Y19010000D01*
X15662779Y17990000D02*
X15337221Y17990000D01*
X15662779Y20510000D02*
X15337221Y20510000D01*
X15662779Y19490000D02*
X15337221Y19490000D01*
X15662779Y22010000D02*
X15337221Y22010000D01*
X15662779Y20990000D02*
X15337221Y20990000D01*
X87662779Y16260000D02*
X87337221Y16260000D01*
X87662779Y15240000D02*
X87337221Y15240000D01*
X87662779Y17760000D02*
X87337221Y17760000D01*
X87662779Y16740000D02*
X87337221Y16740000D01*
X87337221Y25740000D02*
X87662779Y25740000D01*
X87337221Y26760000D02*
X87662779Y26760000D01*
X87662779Y19260000D02*
X87337221Y19260000D01*
X87662779Y18240000D02*
X87337221Y18240000D01*
X87337221Y22740000D02*
X87662779Y22740000D01*
X87337221Y23760000D02*
X87662779Y23760000D01*
X87337221Y24240000D02*
X87662779Y24240000D01*
X87337221Y25260000D02*
X87662779Y25260000D01*
X87662779Y20760000D02*
X87337221Y20760000D01*
X87662779Y19740000D02*
X87337221Y19740000D01*
X87662779Y22260000D02*
X87337221Y22260000D01*
X87662779Y21240000D02*
X87337221Y21240000D01*
X88087221Y39740000D02*
X88412779Y39740000D01*
X88087221Y40760000D02*
X88412779Y40760000D01*
X88087221Y41240000D02*
X88412779Y41240000D01*
X88087221Y42260000D02*
X88412779Y42260000D01*
X88087221Y42740000D02*
X88412779Y42740000D01*
X88087221Y43760000D02*
X88412779Y43760000D01*
X88087221Y44240000D02*
X88412779Y44240000D01*
X88087221Y45260000D02*
X88412779Y45260000D01*
X88412779Y46760000D02*
X88087221Y46760000D01*
X88412779Y45740000D02*
X88087221Y45740000D01*
X88412779Y48260000D02*
X88087221Y48260000D01*
X88412779Y47240000D02*
X88087221Y47240000D01*
X88412779Y49760000D02*
X88087221Y49760000D01*
X88412779Y48740000D02*
X88087221Y48740000D01*
X82010000Y52337221D02*
X82010000Y52662779D01*
X80990000Y52337221D02*
X80990000Y52662779D01*
X82010000Y56837221D02*
X82010000Y57162779D01*
X80990000Y56837221D02*
X80990000Y57162779D01*
X82010000Y78587221D02*
X82010000Y78912779D01*
X80990000Y78587221D02*
X80990000Y78912779D01*
X82010000Y83087221D02*
X82010000Y83412779D01*
X80990000Y83087221D02*
X80990000Y83412779D01*
X82010000Y87587221D02*
X82010000Y87912779D01*
X80990000Y87587221D02*
X80990000Y87912779D01*
X82010000Y71087221D02*
X82010000Y71412779D01*
X80990000Y71087221D02*
X80990000Y71412779D01*
X82010000Y66587221D02*
X82010000Y66912779D01*
X80990000Y66587221D02*
X80990000Y66912779D01*
X20735000Y53607779D02*
X20735000Y53282221D01*
X21755000Y53607779D02*
X21755000Y53282221D01*
X20735000Y57857779D02*
X20735000Y57532221D01*
X21755000Y57857779D02*
X21755000Y57532221D01*
X20735000Y79607779D02*
X20735000Y79282221D01*
X21755000Y79607779D02*
X21755000Y79282221D01*
X20735000Y62357779D02*
X20735000Y62032221D01*
X21755000Y62357779D02*
X21755000Y62032221D01*
X20735000Y83857779D02*
X20735000Y83532221D01*
X21755000Y83857779D02*
X21755000Y83532221D01*
X20735000Y88107779D02*
X20735000Y87782221D01*
X21755000Y88107779D02*
X21755000Y87782221D01*
X20735000Y71107779D02*
X20735000Y70782221D01*
X21755000Y71107779D02*
X21755000Y70782221D01*
X20735000Y66857779D02*
X20735000Y66532221D01*
X21755000Y66857779D02*
X21755000Y66532221D01*
X59110000Y48037221D02*
X59110000Y48362779D01*
X58090000Y48037221D02*
X58090000Y48362779D01*
X57360000Y48037221D02*
X57360000Y48362779D01*
X56340000Y48037221D02*
X56340000Y48362779D01*
X55610000Y48037221D02*
X55610000Y48362779D01*
X54590000Y48037221D02*
X54590000Y48362779D01*
X75662779Y11010000D02*
X75337221Y11010000D01*
X75662779Y9990000D02*
X75337221Y9990000D01*
X74490000Y58412779D02*
X74490000Y58087221D01*
X75510000Y58412779D02*
X75510000Y58087221D01*
X31087221Y8140000D02*
X31412779Y8140000D01*
X31087221Y9160000D02*
X31412779Y9160000D01*
X72740000Y58412779D02*
X72740000Y58087221D01*
X73760000Y58412779D02*
X73760000Y58087221D01*
X70990000Y58412779D02*
X70990000Y58087221D01*
X72010000Y58412779D02*
X72010000Y58087221D01*
X69240000Y58412779D02*
X69240000Y58087221D01*
X70260000Y58412779D02*
X70260000Y58087221D01*
X67490000Y58412779D02*
X67490000Y58087221D01*
X68510000Y58412779D02*
X68510000Y58087221D01*
X58740000Y27162779D02*
X58740000Y26837221D01*
X59760000Y27162779D02*
X59760000Y26837221D01*
X48260000Y48037221D02*
X48260000Y48362779D01*
X47240000Y48037221D02*
X47240000Y48362779D01*
X46510000Y48037221D02*
X46510000Y48362779D01*
X45490000Y48037221D02*
X45490000Y48362779D01*
X44760000Y48037221D02*
X44760000Y48362779D01*
X43740000Y48037221D02*
X43740000Y48362779D01*
X43010000Y48037221D02*
X43010000Y48362779D01*
X41990000Y48037221D02*
X41990000Y48362779D01*
X27240000Y58412779D02*
X27240000Y58087221D01*
X28260000Y58412779D02*
X28260000Y58087221D01*
X30740000Y58412779D02*
X30740000Y58087221D01*
X31760000Y58412779D02*
X31760000Y58087221D01*
X28990000Y58412779D02*
X28990000Y58087221D01*
X30010000Y58412779D02*
X30010000Y58087221D01*
X25490000Y58412779D02*
X25490000Y58087221D01*
X26510000Y58412779D02*
X26510000Y58087221D01*
X42490000Y27162779D02*
X42490000Y26837221D01*
X43510000Y27162779D02*
X43510000Y26837221D01*
X36240000Y47662779D02*
X36240000Y47337221D01*
X37260000Y47662779D02*
X37260000Y47337221D01*
X31240000Y47662779D02*
X31240000Y47337221D01*
X32260000Y47662779D02*
X32260000Y47337221D01*
X32740000Y47662779D02*
X32740000Y47337221D01*
X33760000Y47662779D02*
X33760000Y47337221D01*
X37337221Y36240000D02*
X37662779Y36240000D01*
X37337221Y37260000D02*
X37662779Y37260000D01*
X38760000Y47337221D02*
X38760000Y47662779D01*
X37740000Y47337221D02*
X37740000Y47662779D01*
X82490000Y48412779D02*
X82490000Y48087221D01*
X83510000Y48412779D02*
X83510000Y48087221D01*
X77490000Y48412779D02*
X77490000Y48087221D01*
X78510000Y48412779D02*
X78510000Y48087221D01*
X81260000Y48087221D02*
X81260000Y48412779D01*
X80240000Y48087221D02*
X80240000Y48412779D01*
X83587221Y36490000D02*
X83912779Y36490000D01*
X83587221Y37510000D02*
X83912779Y37510000D01*
X85010000Y48087221D02*
X85010000Y48412779D01*
X83990000Y48087221D02*
X83990000Y48412779D01*
X25490000Y47662779D02*
X25490000Y47337221D01*
X26510000Y47662779D02*
X26510000Y47337221D01*
X20490000Y47662779D02*
X20490000Y47337221D01*
X21510000Y47662779D02*
X21510000Y47337221D01*
X21990000Y47662779D02*
X21990000Y47337221D01*
X23010000Y47662779D02*
X23010000Y47337221D01*
X26587221Y36240000D02*
X26912779Y36240000D01*
X26587221Y37260000D02*
X26912779Y37260000D01*
X28010000Y47337221D02*
X28010000Y47662779D01*
X26990000Y47337221D02*
X26990000Y47662779D01*
X71740000Y48412779D02*
X71740000Y48087221D01*
X72760000Y48412779D02*
X72760000Y48087221D01*
X66490000Y48412779D02*
X66490000Y48087221D01*
X67510000Y48412779D02*
X67510000Y48087221D01*
X68240000Y48412779D02*
X68240000Y48087221D01*
X69260000Y48412779D02*
X69260000Y48087221D01*
X72837221Y36490000D02*
X73162779Y36490000D01*
X72837221Y37510000D02*
X73162779Y37510000D01*
X69990000Y48412779D02*
X69990000Y48087221D01*
X71010000Y48412779D02*
X71010000Y48087221D01*
X20510000Y15837221D02*
X20510000Y16162779D01*
X19490000Y15837221D02*
X19490000Y16162779D01*
X22912779Y10760000D02*
X22587221Y10760000D01*
X22912779Y9740000D02*
X22587221Y9740000D01*
X19190000Y7562779D02*
X19190000Y7237221D01*
X20210000Y7562779D02*
X20210000Y7237221D01*
X73260000Y16337221D02*
X73260000Y16662779D01*
X72240000Y16337221D02*
X72240000Y16662779D01*
X75912779Y13760000D02*
X75587221Y13760000D01*
X75912779Y12740000D02*
X75587221Y12740000D01*
X71490000Y8200279D02*
X71490000Y7874721D01*
X72510000Y8200279D02*
X72510000Y7874721D01*
M02*
