G04 #@! TF.GenerationSoftware,KiCad,Pcbnew,5.1.9-73d0e3b20d~88~ubuntu20.04.1*
G04 #@! TF.CreationDate,2021-03-17T08:49:08+01:00*
G04 #@! TF.ProjectId,rs232-sniffer,72733233-322d-4736-9e69-666665722e6b,V20.0.1*
G04 #@! TF.SameCoordinates,PX206cc80PY7bfa480*
G04 #@! TF.FileFunction,Soldermask,Bot*
G04 #@! TF.FilePolarity,Negative*
%FSLAX46Y46*%
G04 Gerber Fmt 4.6, Leading zero omitted, Abs format (unit mm)*
G04 Created by KiCad (PCBNEW 5.1.9-73d0e3b20d~88~ubuntu20.04.1) date 2021-03-17 08:49:08*
%MOMM*%
%LPD*%
G01*
G04 APERTURE LIST*
%ADD10C,0.702000*%
%ADD11O,1.002000X1.802000*%
%ADD12O,1.002000X2.102000*%
%ADD13O,1.802000X1.802000*%
%ADD14C,1.802000*%
%ADD15C,4.102000*%
%ADD16C,0.100000*%
G04 APERTURE END LIST*
G36*
G01*
X36129333Y89740000D02*
X36129333Y86260000D01*
G75*
G02*
X36078333Y86209000I-51000J0D01*
G01*
X34231667Y86209000D01*
G75*
G02*
X34180667Y86260000I0J51000D01*
G01*
X34180667Y89740000D01*
G75*
G02*
X34231667Y89791000I51000J0D01*
G01*
X36078333Y89791000D01*
G75*
G02*
X36129333Y89740000I0J-51000D01*
G01*
G37*
G36*
G01*
X33359333Y89740000D02*
X33359333Y86260000D01*
G75*
G02*
X33308333Y86209000I-51000J0D01*
G01*
X31461667Y86209000D01*
G75*
G02*
X31410667Y86260000I0J51000D01*
G01*
X31410667Y89740000D01*
G75*
G02*
X31461667Y89791000I51000J0D01*
G01*
X33308333Y89791000D01*
G75*
G02*
X33359333Y89740000I0J-51000D01*
G01*
G37*
G36*
G01*
X30589333Y89740000D02*
X30589333Y86260000D01*
G75*
G02*
X30538333Y86209000I-51000J0D01*
G01*
X28691667Y86209000D01*
G75*
G02*
X28640667Y86260000I0J51000D01*
G01*
X28640667Y89740000D01*
G75*
G02*
X28691667Y89791000I51000J0D01*
G01*
X30538333Y89791000D01*
G75*
G02*
X30589333Y89740000I0J-51000D01*
G01*
G37*
G36*
G01*
X27819333Y89740000D02*
X27819333Y86260000D01*
G75*
G02*
X27768333Y86209000I-51000J0D01*
G01*
X25921667Y86209000D01*
G75*
G02*
X25870667Y86260000I0J51000D01*
G01*
X25870667Y89740000D01*
G75*
G02*
X25921667Y89791000I51000J0D01*
G01*
X27768333Y89791000D01*
G75*
G02*
X27819333Y89740000I0J-51000D01*
G01*
G37*
G36*
G01*
X68319333Y89740000D02*
X68319333Y86260000D01*
G75*
G02*
X68268333Y86209000I-51000J0D01*
G01*
X66421667Y86209000D01*
G75*
G02*
X66370667Y86260000I0J51000D01*
G01*
X66370667Y89740000D01*
G75*
G02*
X66421667Y89791000I51000J0D01*
G01*
X68268333Y89791000D01*
G75*
G02*
X68319333Y89740000I0J-51000D01*
G01*
G37*
G36*
G01*
X71089333Y89740000D02*
X71089333Y86260000D01*
G75*
G02*
X71038333Y86209000I-51000J0D01*
G01*
X69191667Y86209000D01*
G75*
G02*
X69140667Y86260000I0J51000D01*
G01*
X69140667Y89740000D01*
G75*
G02*
X69191667Y89791000I51000J0D01*
G01*
X71038333Y89791000D01*
G75*
G02*
X71089333Y89740000I0J-51000D01*
G01*
G37*
G36*
G01*
X73859333Y89740000D02*
X73859333Y86260000D01*
G75*
G02*
X73808333Y86209000I-51000J0D01*
G01*
X71961667Y86209000D01*
G75*
G02*
X71910667Y86260000I0J51000D01*
G01*
X71910667Y89740000D01*
G75*
G02*
X71961667Y89791000I51000J0D01*
G01*
X73808333Y89791000D01*
G75*
G02*
X73859333Y89740000I0J-51000D01*
G01*
G37*
G36*
G01*
X76629333Y89740000D02*
X76629333Y86260000D01*
G75*
G02*
X76578333Y86209000I-51000J0D01*
G01*
X74731667Y86209000D01*
G75*
G02*
X74680667Y86260000I0J51000D01*
G01*
X74680667Y89740000D01*
G75*
G02*
X74731667Y89791000I51000J0D01*
G01*
X76578333Y89791000D01*
G75*
G02*
X76629333Y89740000I0J-51000D01*
G01*
G37*
D10*
X23110000Y5700000D03*
X28890000Y5700000D03*
D11*
X30320000Y2010000D03*
X21680000Y2010000D03*
D12*
X30320000Y6180000D03*
X21680000Y6180000D03*
X75680000Y6180000D03*
X84320000Y6180000D03*
D11*
X75680000Y2010000D03*
X84320000Y2010000D03*
D10*
X82890000Y5700000D03*
X77110000Y5700000D03*
D13*
X11750000Y32200000D03*
X11750000Y29660000D03*
X11750000Y27120000D03*
X11750000Y24580000D03*
X11750000Y22040000D03*
G36*
G01*
X10849000Y18650000D02*
X10849000Y20350000D01*
G75*
G02*
X10900000Y20401000I51000J0D01*
G01*
X12600000Y20401000D01*
G75*
G02*
X12651000Y20350000I0J-51000D01*
G01*
X12651000Y18650000D01*
G75*
G02*
X12600000Y18599000I-51000J0D01*
G01*
X10900000Y18599000D01*
G75*
G02*
X10849000Y18650000I0J51000D01*
G01*
G37*
X91500000Y19550000D03*
X91500000Y22090000D03*
X91500000Y24630000D03*
X91500000Y27170000D03*
X91500000Y29710000D03*
G36*
G01*
X92401000Y33100000D02*
X92401000Y31400000D01*
G75*
G02*
X92350000Y31349000I-51000J0D01*
G01*
X90650000Y31349000D01*
G75*
G02*
X90599000Y31400000I0J51000D01*
G01*
X90599000Y33100000D01*
G75*
G02*
X90650000Y33151000I51000J0D01*
G01*
X92350000Y33151000D01*
G75*
G02*
X92401000Y33100000I0J-51000D01*
G01*
G37*
D14*
X6000000Y54890000D03*
X6000000Y37110000D03*
X6000000Y30890000D03*
X6000000Y13110000D03*
X97000000Y54890000D03*
X97000000Y37110000D03*
X97000000Y30890000D03*
X97000000Y13110000D03*
X59390000Y11000000D03*
X41610000Y11000000D03*
X50500000Y86890000D03*
X50500000Y69110000D03*
D15*
X5000000Y85000000D03*
X98000000Y85000000D03*
X98000000Y5000000D03*
X5000000Y5000000D03*
D10*
X22450000Y78650000D03*
X38250000Y87900000D03*
X64100000Y87800000D03*
X22500000Y82950000D03*
X22450000Y61350000D03*
X22400000Y65850000D03*
X22450000Y70150000D03*
X36750000Y49400000D03*
X22400000Y52700000D03*
X22400000Y87150000D03*
X60200000Y22500000D03*
X21300000Y49350000D03*
X31800000Y49350000D03*
X26000000Y49450000D03*
X54887500Y28687500D03*
X45500000Y29900000D03*
X44350000Y22550000D03*
X36000000Y10000000D03*
X36000000Y5000000D03*
X40300000Y5550000D03*
X61000000Y5000000D03*
X66000000Y5000000D03*
X66000000Y10000000D03*
X56000000Y40000000D03*
X51000000Y45000000D03*
X46000000Y40000000D03*
X41000000Y36000000D03*
X11000000Y35000000D03*
X91000000Y60000000D03*
X91000000Y65000000D03*
X91000000Y70000000D03*
X91000000Y75000000D03*
X91000000Y80000000D03*
X91000000Y85000000D03*
X56000000Y60000000D03*
X51000000Y60000000D03*
X46000000Y60000000D03*
X36000000Y60000000D03*
X80150000Y84350000D03*
X80300000Y88600000D03*
X30200000Y75250000D03*
X71850000Y77200000D03*
X69100000Y75300000D03*
X35350000Y75250000D03*
X19650000Y9300000D03*
X31250000Y7550000D03*
X22450000Y8400000D03*
X20650000Y13150000D03*
X18900000Y14900000D03*
X81900000Y49050000D03*
X80350000Y53400000D03*
X80900000Y41900000D03*
X76850000Y41150000D03*
X22400000Y56900000D03*
X80300000Y79550000D03*
X80250000Y72050000D03*
X80300000Y67550000D03*
X80300000Y62800000D03*
X80400000Y57800000D03*
X76850000Y49050000D03*
X81950000Y37000000D03*
X11100000Y36800000D03*
X2050000Y10300000D03*
X9300000Y10300000D03*
X20850000Y10250000D03*
X19750000Y20600000D03*
X24900000Y36900000D03*
X26200000Y41000000D03*
X30600000Y41000000D03*
X36950000Y40750000D03*
X35750000Y36750000D03*
X50550000Y15950000D03*
X44200000Y10600000D03*
X49200000Y10450000D03*
X51750000Y10500000D03*
X54350000Y10500000D03*
X56850000Y10550000D03*
X61150000Y10700000D03*
X102150000Y11800000D03*
X92050000Y11800000D03*
X92150000Y35850000D03*
X102150000Y35800000D03*
X83150000Y38000000D03*
X72450000Y41050000D03*
X65950000Y49100000D03*
X73350000Y49100000D03*
X75000000Y75300000D03*
X75650000Y7950000D03*
X84300000Y8250000D03*
X53750000Y66500000D03*
X47000000Y66500000D03*
X24250000Y66750000D03*
X43900000Y65800000D03*
X38425000Y71175000D03*
X25450000Y85775010D03*
X28300000Y85750000D03*
X28279990Y70870010D03*
X39400000Y63700000D03*
X34620010Y70870010D03*
X26000000Y60200000D03*
X26200000Y85300000D03*
X33750000Y81750000D03*
X33750000Y85750000D03*
X32399997Y61299997D03*
X44800000Y66900000D03*
X40900000Y70500000D03*
X26800000Y63600000D03*
X29500000Y85750000D03*
X29500000Y77750000D03*
X28100000Y60300000D03*
X47800000Y65900000D03*
X47975000Y72920000D03*
X31200000Y62200000D03*
X77100000Y85450000D03*
X77550000Y69400000D03*
X68950000Y62150000D03*
X68900000Y69400000D03*
X74300000Y85400000D03*
X74324990Y71324990D03*
X67950000Y62250000D03*
X68075010Y71324990D03*
X57000000Y66600000D03*
X59975000Y85475000D03*
X71500000Y85500000D03*
X68700000Y85750000D03*
X59200000Y66200000D03*
X59925010Y83324990D03*
X66924990Y83324990D03*
X75650011Y64500011D03*
X71550000Y62000000D03*
X71550011Y64500011D03*
X72950000Y78750000D03*
X61200000Y66200000D03*
X61550000Y78750000D03*
X70300000Y63000000D03*
X64400000Y63300000D03*
X74900000Y61000000D03*
X82200000Y31300000D03*
X47150000Y28149986D03*
X16900000Y27050000D03*
X62750002Y29500000D03*
X56600000Y20000000D03*
X73700000Y30300000D03*
X73800000Y36200000D03*
X73700000Y17400000D03*
X73700000Y20600000D03*
X27445000Y37745000D03*
X17700000Y37700000D03*
X34700000Y37400000D03*
X45700000Y21000000D03*
X41200000Y21000000D03*
X32300000Y20200000D03*
X19400000Y17800000D03*
X57800000Y28700000D03*
X94475000Y27080000D03*
X94475000Y29620000D03*
X89400000Y26200000D03*
X23600000Y8400000D03*
X28400000Y8400000D03*
X14400000Y26050000D03*
X13650000Y18550000D03*
X13300000Y20850000D03*
X8675000Y27080000D03*
X8675000Y29620000D03*
X77600000Y8400000D03*
X82400000Y8400000D03*
X27750000Y56150002D03*
X29275118Y50900401D03*
X23600000Y40800000D03*
X24109373Y47489972D03*
X24750000Y50950002D03*
X26000000Y56199998D03*
X29500000Y55950002D03*
X29100000Y51650000D03*
X34400000Y41000000D03*
X31250000Y56050002D03*
X41800000Y45100000D03*
X43400000Y45900000D03*
X71100000Y37900000D03*
X64200000Y37800000D03*
X65800000Y46400000D03*
X62600000Y46400000D03*
X62000000Y48100000D03*
X81900000Y41900000D03*
X18000000Y15500000D03*
X26600000Y15600000D03*
X18000000Y17000000D03*
X26000000Y19599998D03*
X19700000Y11200000D03*
X17100000Y20800000D03*
X25350000Y22050000D03*
X22650000Y22350000D03*
X18000000Y14100000D03*
X29200000Y15900000D03*
X17950000Y18500000D03*
X24095000Y19845000D03*
X18150000Y12500000D03*
X30500006Y15650000D03*
X23900000Y14800000D03*
X26500000Y14800000D03*
X17950000Y48200000D03*
X21100000Y41000000D03*
X16700000Y47450000D03*
X19800000Y40950000D03*
X33100000Y37700000D03*
X31550000Y35550000D03*
X16743406Y41306594D03*
X31800000Y37700000D03*
X23993406Y36125010D03*
X16700000Y45450000D03*
X29200000Y41000000D03*
X17325010Y39355916D03*
X84400000Y20500000D03*
X79650000Y18950000D03*
X75700000Y18100000D03*
X73500000Y23500000D03*
X77095000Y17705000D03*
X85750000Y21750000D03*
X75825000Y17075000D03*
X85000000Y25650000D03*
X78350000Y19050000D03*
X84478470Y21374990D03*
X82700000Y19000000D03*
X84250000Y19000000D03*
X82053833Y22525010D03*
X71000000Y23500000D03*
X71000000Y22200000D03*
X77700000Y18400000D03*
X85300000Y22700000D03*
X77090000Y22200000D03*
X83600000Y23300000D03*
X80946298Y22525010D03*
X76400000Y42600000D03*
X74750000Y41550000D03*
X76200000Y35800000D03*
X86499998Y42400000D03*
X76200000Y50500000D03*
X73700000Y50500000D03*
X67500000Y50500000D03*
X63800000Y41600000D03*
X67700000Y36300000D03*
X66100000Y37324990D03*
X86100000Y47700000D03*
X79308221Y42374990D03*
X79400000Y41224979D03*
X86100000Y45900000D03*
X78100000Y37800000D03*
X71000000Y35600000D03*
X85700000Y35800000D03*
X82400000Y35800000D03*
X8675000Y22000000D03*
X13600000Y15500000D03*
X79059990Y10092883D03*
X80374848Y10013670D03*
X79675010Y9100000D03*
X80825022Y9100000D03*
X25232073Y9512139D03*
X26550012Y9675020D03*
X27088962Y9100010D03*
X25858705Y9100010D03*
X43456594Y69056594D03*
D16*
G36*
X25572877Y9429844D02*
G01*
X25573548Y9428144D01*
X25572846Y9421026D01*
X25573768Y9411666D01*
X25576500Y9402661D01*
X25580934Y9394364D01*
X25586903Y9387092D01*
X25594174Y9381124D01*
X25602472Y9376689D01*
X25611476Y9373959D01*
X25620836Y9373036D01*
X25630196Y9373958D01*
X25639201Y9376690D01*
X25645506Y9380061D01*
X25647505Y9379996D01*
X25648448Y9378232D01*
X25647560Y9376634D01*
X25637307Y9369783D01*
X25588932Y9321408D01*
X25550924Y9264523D01*
X25524743Y9201318D01*
X25521182Y9183419D01*
X25519863Y9181915D01*
X25517901Y9182305D01*
X25517230Y9184005D01*
X25517932Y9191123D01*
X25517010Y9200483D01*
X25514278Y9209488D01*
X25509844Y9217785D01*
X25503875Y9225057D01*
X25496604Y9231025D01*
X25488306Y9235460D01*
X25479302Y9238190D01*
X25469942Y9239113D01*
X25460582Y9238191D01*
X25451577Y9235459D01*
X25445272Y9232088D01*
X25443273Y9232153D01*
X25442330Y9233917D01*
X25443218Y9235515D01*
X25453471Y9242366D01*
X25501846Y9290741D01*
X25539854Y9347626D01*
X25566035Y9410831D01*
X25569596Y9428730D01*
X25570915Y9430234D01*
X25572877Y9429844D01*
G37*
G36*
X29266141Y51341811D02*
G01*
X29266906Y51339963D01*
X29266192Y51338678D01*
X29259764Y51333402D01*
X29253796Y51326130D01*
X29249362Y51317833D01*
X29246630Y51308828D01*
X29245708Y51299468D01*
X29246630Y51290109D01*
X29249362Y51281104D01*
X29253797Y51272806D01*
X29259765Y51265535D01*
X29267037Y51259567D01*
X29275334Y51255133D01*
X29284339Y51252401D01*
X29291448Y51251701D01*
X29293074Y51250536D01*
X29292878Y51248546D01*
X29291252Y51247711D01*
X29240913Y51247711D01*
X29173810Y51234363D01*
X29110960Y51208329D01*
X29108977Y51208590D01*
X29108212Y51210438D01*
X29108926Y51211723D01*
X29115354Y51216999D01*
X29121322Y51224271D01*
X29125756Y51232568D01*
X29128488Y51241573D01*
X29129410Y51250933D01*
X29128488Y51260292D01*
X29125756Y51269297D01*
X29121321Y51277595D01*
X29115353Y51284866D01*
X29108081Y51290834D01*
X29099784Y51295268D01*
X29090779Y51298000D01*
X29083670Y51298700D01*
X29082044Y51299865D01*
X29082240Y51301855D01*
X29083866Y51302690D01*
X29134205Y51302690D01*
X29201308Y51316038D01*
X29264158Y51342072D01*
X29266141Y51341811D01*
G37*
M02*
