G04 #@! TF.GenerationSoftware,KiCad,Pcbnew,5.1.6-c6e7f7d~87~ubuntu18.04.1*
G04 #@! TF.CreationDate,2020-11-13T16:07:13+01:00*
G04 #@! TF.ProjectId,rs232-sniffer,72733233-322d-4736-9e69-666665722e6b,V20.0.0-dev*
G04 #@! TF.SameCoordinates,PX206cc80PY7bfa480*
G04 #@! TF.FileFunction,Paste,Top*
G04 #@! TF.FilePolarity,Positive*
%FSLAX46Y46*%
G04 Gerber Fmt 4.6, Leading zero omitted, Abs format (unit mm)*
G04 Created by KiCad (PCBNEW 5.1.6-c6e7f7d~87~ubuntu18.04.1) date 2020-11-13 16:07:13*
%MOMM*%
%LPD*%
G01*
G04 APERTURE LIST*
%ADD10R,0.500000X1.080000*%
%ADD11R,0.200000X1.080000*%
%ADD12R,1.420000X1.920000*%
%ADD13R,3.720000X1.920000*%
%ADD14R,1.040000X2.360000*%
%ADD15R,1.766667X3.400000*%
G04 APERTURE END LIST*
D10*
X29200000Y6760000D03*
X28400000Y6760000D03*
X29200000Y6760000D03*
X28400000Y6760000D03*
X22800000Y6760000D03*
X22800000Y6760000D03*
X23600000Y6760000D03*
X23600000Y6760000D03*
D11*
X27750000Y6760000D03*
X26750000Y6760000D03*
X27250000Y6760000D03*
X24750000Y6760000D03*
X24250000Y6760000D03*
X26250000Y6760000D03*
X25750000Y6760000D03*
X25250000Y6760000D03*
X79250000Y6760000D03*
X79750000Y6760000D03*
X80250000Y6760000D03*
X78250000Y6760000D03*
X78750000Y6760000D03*
X81250000Y6760000D03*
X80750000Y6760000D03*
X81750000Y6760000D03*
D10*
X77600000Y6760000D03*
X77600000Y6760000D03*
X76800000Y6760000D03*
X76800000Y6760000D03*
X82400000Y6760000D03*
X83200000Y6760000D03*
X82400000Y6760000D03*
X83200000Y6760000D03*
G36*
G01*
X88640000Y38513750D02*
X88640000Y38986250D01*
G75*
G02*
X88838750Y39185000I198750J0D01*
G01*
X89236250Y39185000D01*
G75*
G02*
X89435000Y38986250I0J-198750D01*
G01*
X89435000Y38513750D01*
G75*
G02*
X89236250Y38315000I-198750J0D01*
G01*
X88838750Y38315000D01*
G75*
G02*
X88640000Y38513750I0J198750D01*
G01*
G37*
G36*
G01*
X87065000Y38513750D02*
X87065000Y38986250D01*
G75*
G02*
X87263750Y39185000I198750J0D01*
G01*
X87661250Y39185000D01*
G75*
G02*
X87860000Y38986250I0J-198750D01*
G01*
X87860000Y38513750D01*
G75*
G02*
X87661250Y38315000I-198750J0D01*
G01*
X87263750Y38315000D01*
G75*
G02*
X87065000Y38513750I0J198750D01*
G01*
G37*
G36*
G01*
X88960000Y62605000D02*
X88960000Y61395000D01*
G75*
G02*
X88355000Y60790000I-605000J0D01*
G01*
X85645000Y60790000D01*
G75*
G02*
X85040000Y61395000I0J605000D01*
G01*
X85040000Y62605000D01*
G75*
G02*
X85645000Y63210000I605000J0D01*
G01*
X88355000Y63210000D01*
G75*
G02*
X88960000Y62605000I0J-605000D01*
G01*
G37*
G36*
G01*
X81736250Y62390000D02*
X81263750Y62390000D01*
G75*
G02*
X81065000Y62588750I0J198750D01*
G01*
X81065000Y62986250D01*
G75*
G02*
X81263750Y63185000I198750J0D01*
G01*
X81736250Y63185000D01*
G75*
G02*
X81935000Y62986250I0J-198750D01*
G01*
X81935000Y62588750D01*
G75*
G02*
X81736250Y62390000I-198750J0D01*
G01*
G37*
G36*
G01*
X81736250Y60815000D02*
X81263750Y60815000D01*
G75*
G02*
X81065000Y61013750I0J198750D01*
G01*
X81065000Y61411250D01*
G75*
G02*
X81263750Y61610000I198750J0D01*
G01*
X81736250Y61610000D01*
G75*
G02*
X81935000Y61411250I0J-198750D01*
G01*
X81935000Y61013750D01*
G75*
G02*
X81736250Y60815000I-198750J0D01*
G01*
G37*
G36*
G01*
X84210000Y61517500D02*
X84210000Y61032500D01*
G75*
G02*
X84067500Y60890000I-142500J0D01*
G01*
X83782500Y60890000D01*
G75*
G02*
X83640000Y61032500I0J142500D01*
G01*
X83640000Y61517500D01*
G75*
G02*
X83782500Y61660000I142500J0D01*
G01*
X84067500Y61660000D01*
G75*
G02*
X84210000Y61517500I0J-142500D01*
G01*
G37*
G36*
G01*
X84210000Y62967500D02*
X84210000Y62482500D01*
G75*
G02*
X84067500Y62340000I-142500J0D01*
G01*
X83782500Y62340000D01*
G75*
G02*
X83640000Y62482500I0J142500D01*
G01*
X83640000Y62967500D01*
G75*
G02*
X83782500Y63110000I142500J0D01*
G01*
X84067500Y63110000D01*
G75*
G02*
X84210000Y62967500I0J-142500D01*
G01*
G37*
G36*
G01*
X83360000Y62967500D02*
X83360000Y62482500D01*
G75*
G02*
X83217500Y62340000I-142500J0D01*
G01*
X82932500Y62340000D01*
G75*
G02*
X82790000Y62482500I0J142500D01*
G01*
X82790000Y62967500D01*
G75*
G02*
X82932500Y63110000I142500J0D01*
G01*
X83217500Y63110000D01*
G75*
G02*
X83360000Y62967500I0J-142500D01*
G01*
G37*
G36*
G01*
X83360000Y61517500D02*
X83360000Y61032500D01*
G75*
G02*
X83217500Y60890000I-142500J0D01*
G01*
X82932500Y60890000D01*
G75*
G02*
X82790000Y61032500I0J142500D01*
G01*
X82790000Y61517500D01*
G75*
G02*
X82932500Y61660000I142500J0D01*
G01*
X83217500Y61660000D01*
G75*
G02*
X83360000Y61517500I0J-142500D01*
G01*
G37*
G36*
G01*
X7040000Y35535000D02*
X7040000Y36145000D01*
G75*
G02*
X7345000Y36450000I305000J0D01*
G01*
X10005000Y36450000D01*
G75*
G02*
X10310000Y36145000I0J-305000D01*
G01*
X10310000Y35535000D01*
G75*
G02*
X10005000Y35230000I-305000J0D01*
G01*
X7345000Y35230000D01*
G75*
G02*
X7040000Y35535000I0J305000D01*
G01*
G37*
G36*
G01*
X1840000Y35535000D02*
X1840000Y36145000D01*
G75*
G02*
X2145000Y36450000I305000J0D01*
G01*
X4805000Y36450000D01*
G75*
G02*
X5110000Y36145000I0J-305000D01*
G01*
X5110000Y35535000D01*
G75*
G02*
X4805000Y35230000I-305000J0D01*
G01*
X2145000Y35230000D01*
G75*
G02*
X1840000Y35535000I0J305000D01*
G01*
G37*
G36*
G01*
X7040000Y38075000D02*
X7040000Y38685000D01*
G75*
G02*
X7345000Y38990000I305000J0D01*
G01*
X10005000Y38990000D01*
G75*
G02*
X10310000Y38685000I0J-305000D01*
G01*
X10310000Y38075000D01*
G75*
G02*
X10005000Y37770000I-305000J0D01*
G01*
X7345000Y37770000D01*
G75*
G02*
X7040000Y38075000I0J305000D01*
G01*
G37*
G36*
G01*
X1840000Y38075000D02*
X1840000Y38685000D01*
G75*
G02*
X2145000Y38990000I305000J0D01*
G01*
X4805000Y38990000D01*
G75*
G02*
X5110000Y38685000I0J-305000D01*
G01*
X5110000Y38075000D01*
G75*
G02*
X4805000Y37770000I-305000J0D01*
G01*
X2145000Y37770000D01*
G75*
G02*
X1840000Y38075000I0J305000D01*
G01*
G37*
G36*
G01*
X7040000Y40615000D02*
X7040000Y41225000D01*
G75*
G02*
X7345000Y41530000I305000J0D01*
G01*
X10005000Y41530000D01*
G75*
G02*
X10310000Y41225000I0J-305000D01*
G01*
X10310000Y40615000D01*
G75*
G02*
X10005000Y40310000I-305000J0D01*
G01*
X7345000Y40310000D01*
G75*
G02*
X7040000Y40615000I0J305000D01*
G01*
G37*
G36*
G01*
X1840000Y40615000D02*
X1840000Y41225000D01*
G75*
G02*
X2145000Y41530000I305000J0D01*
G01*
X4805000Y41530000D01*
G75*
G02*
X5110000Y41225000I0J-305000D01*
G01*
X5110000Y40615000D01*
G75*
G02*
X4805000Y40310000I-305000J0D01*
G01*
X2145000Y40310000D01*
G75*
G02*
X1840000Y40615000I0J305000D01*
G01*
G37*
G36*
G01*
X7040000Y43155000D02*
X7040000Y43765000D01*
G75*
G02*
X7345000Y44070000I305000J0D01*
G01*
X10005000Y44070000D01*
G75*
G02*
X10310000Y43765000I0J-305000D01*
G01*
X10310000Y43155000D01*
G75*
G02*
X10005000Y42850000I-305000J0D01*
G01*
X7345000Y42850000D01*
G75*
G02*
X7040000Y43155000I0J305000D01*
G01*
G37*
G36*
G01*
X1840000Y43155000D02*
X1840000Y43765000D01*
G75*
G02*
X2145000Y44070000I305000J0D01*
G01*
X4805000Y44070000D01*
G75*
G02*
X5110000Y43765000I0J-305000D01*
G01*
X5110000Y43155000D01*
G75*
G02*
X4805000Y42850000I-305000J0D01*
G01*
X2145000Y42850000D01*
G75*
G02*
X1840000Y43155000I0J305000D01*
G01*
G37*
G36*
G01*
X7040000Y45695000D02*
X7040000Y46305000D01*
G75*
G02*
X7345000Y46610000I305000J0D01*
G01*
X10005000Y46610000D01*
G75*
G02*
X10310000Y46305000I0J-305000D01*
G01*
X10310000Y45695000D01*
G75*
G02*
X10005000Y45390000I-305000J0D01*
G01*
X7345000Y45390000D01*
G75*
G02*
X7040000Y45695000I0J305000D01*
G01*
G37*
G36*
G01*
X1840000Y45695000D02*
X1840000Y46305000D01*
G75*
G02*
X2145000Y46610000I305000J0D01*
G01*
X4805000Y46610000D01*
G75*
G02*
X5110000Y46305000I0J-305000D01*
G01*
X5110000Y45695000D01*
G75*
G02*
X4805000Y45390000I-305000J0D01*
G01*
X2145000Y45390000D01*
G75*
G02*
X1840000Y45695000I0J305000D01*
G01*
G37*
G36*
G01*
X7040000Y48235000D02*
X7040000Y48845000D01*
G75*
G02*
X7345000Y49150000I305000J0D01*
G01*
X10005000Y49150000D01*
G75*
G02*
X10310000Y48845000I0J-305000D01*
G01*
X10310000Y48235000D01*
G75*
G02*
X10005000Y47930000I-305000J0D01*
G01*
X7345000Y47930000D01*
G75*
G02*
X7040000Y48235000I0J305000D01*
G01*
G37*
G36*
G01*
X1840000Y48235000D02*
X1840000Y48845000D01*
G75*
G02*
X2145000Y49150000I305000J0D01*
G01*
X4805000Y49150000D01*
G75*
G02*
X5110000Y48845000I0J-305000D01*
G01*
X5110000Y48235000D01*
G75*
G02*
X4805000Y47930000I-305000J0D01*
G01*
X2145000Y47930000D01*
G75*
G02*
X1840000Y48235000I0J305000D01*
G01*
G37*
G36*
G01*
X7040000Y50775000D02*
X7040000Y51385000D01*
G75*
G02*
X7345000Y51690000I305000J0D01*
G01*
X10005000Y51690000D01*
G75*
G02*
X10310000Y51385000I0J-305000D01*
G01*
X10310000Y50775000D01*
G75*
G02*
X10005000Y50470000I-305000J0D01*
G01*
X7345000Y50470000D01*
G75*
G02*
X7040000Y50775000I0J305000D01*
G01*
G37*
G36*
G01*
X1840000Y50775000D02*
X1840000Y51385000D01*
G75*
G02*
X2145000Y51690000I305000J0D01*
G01*
X4805000Y51690000D01*
G75*
G02*
X5110000Y51385000I0J-305000D01*
G01*
X5110000Y50775000D01*
G75*
G02*
X4805000Y50470000I-305000J0D01*
G01*
X2145000Y50470000D01*
G75*
G02*
X1840000Y50775000I0J305000D01*
G01*
G37*
G36*
G01*
X7040000Y53315000D02*
X7040000Y53925000D01*
G75*
G02*
X7345000Y54230000I305000J0D01*
G01*
X10005000Y54230000D01*
G75*
G02*
X10310000Y53925000I0J-305000D01*
G01*
X10310000Y53315000D01*
G75*
G02*
X10005000Y53010000I-305000J0D01*
G01*
X7345000Y53010000D01*
G75*
G02*
X7040000Y53315000I0J305000D01*
G01*
G37*
G36*
G01*
X1840000Y53315000D02*
X1840000Y53925000D01*
G75*
G02*
X2145000Y54230000I305000J0D01*
G01*
X4805000Y54230000D01*
G75*
G02*
X5110000Y53925000I0J-305000D01*
G01*
X5110000Y53315000D01*
G75*
G02*
X4805000Y53010000I-305000J0D01*
G01*
X2145000Y53010000D01*
G75*
G02*
X1840000Y53315000I0J305000D01*
G01*
G37*
G36*
G01*
X7040000Y55855000D02*
X7040000Y56465000D01*
G75*
G02*
X7345000Y56770000I305000J0D01*
G01*
X10005000Y56770000D01*
G75*
G02*
X10310000Y56465000I0J-305000D01*
G01*
X10310000Y55855000D01*
G75*
G02*
X10005000Y55550000I-305000J0D01*
G01*
X7345000Y55550000D01*
G75*
G02*
X7040000Y55855000I0J305000D01*
G01*
G37*
G36*
G01*
X1840000Y55855000D02*
X1840000Y56465000D01*
G75*
G02*
X2145000Y56770000I305000J0D01*
G01*
X4805000Y56770000D01*
G75*
G02*
X5110000Y56465000I0J-305000D01*
G01*
X5110000Y55855000D01*
G75*
G02*
X4805000Y55550000I-305000J0D01*
G01*
X2145000Y55550000D01*
G75*
G02*
X1840000Y55855000I0J305000D01*
G01*
G37*
G36*
G01*
X7040000Y11535000D02*
X7040000Y12145000D01*
G75*
G02*
X7345000Y12450000I305000J0D01*
G01*
X10005000Y12450000D01*
G75*
G02*
X10310000Y12145000I0J-305000D01*
G01*
X10310000Y11535000D01*
G75*
G02*
X10005000Y11230000I-305000J0D01*
G01*
X7345000Y11230000D01*
G75*
G02*
X7040000Y11535000I0J305000D01*
G01*
G37*
G36*
G01*
X1840000Y11535000D02*
X1840000Y12145000D01*
G75*
G02*
X2145000Y12450000I305000J0D01*
G01*
X4805000Y12450000D01*
G75*
G02*
X5110000Y12145000I0J-305000D01*
G01*
X5110000Y11535000D01*
G75*
G02*
X4805000Y11230000I-305000J0D01*
G01*
X2145000Y11230000D01*
G75*
G02*
X1840000Y11535000I0J305000D01*
G01*
G37*
G36*
G01*
X7040000Y14075000D02*
X7040000Y14685000D01*
G75*
G02*
X7345000Y14990000I305000J0D01*
G01*
X10005000Y14990000D01*
G75*
G02*
X10310000Y14685000I0J-305000D01*
G01*
X10310000Y14075000D01*
G75*
G02*
X10005000Y13770000I-305000J0D01*
G01*
X7345000Y13770000D01*
G75*
G02*
X7040000Y14075000I0J305000D01*
G01*
G37*
G36*
G01*
X1840000Y14075000D02*
X1840000Y14685000D01*
G75*
G02*
X2145000Y14990000I305000J0D01*
G01*
X4805000Y14990000D01*
G75*
G02*
X5110000Y14685000I0J-305000D01*
G01*
X5110000Y14075000D01*
G75*
G02*
X4805000Y13770000I-305000J0D01*
G01*
X2145000Y13770000D01*
G75*
G02*
X1840000Y14075000I0J305000D01*
G01*
G37*
G36*
G01*
X7040000Y16615000D02*
X7040000Y17225000D01*
G75*
G02*
X7345000Y17530000I305000J0D01*
G01*
X10005000Y17530000D01*
G75*
G02*
X10310000Y17225000I0J-305000D01*
G01*
X10310000Y16615000D01*
G75*
G02*
X10005000Y16310000I-305000J0D01*
G01*
X7345000Y16310000D01*
G75*
G02*
X7040000Y16615000I0J305000D01*
G01*
G37*
G36*
G01*
X1840000Y16615000D02*
X1840000Y17225000D01*
G75*
G02*
X2145000Y17530000I305000J0D01*
G01*
X4805000Y17530000D01*
G75*
G02*
X5110000Y17225000I0J-305000D01*
G01*
X5110000Y16615000D01*
G75*
G02*
X4805000Y16310000I-305000J0D01*
G01*
X2145000Y16310000D01*
G75*
G02*
X1840000Y16615000I0J305000D01*
G01*
G37*
G36*
G01*
X7040000Y19155000D02*
X7040000Y19765000D01*
G75*
G02*
X7345000Y20070000I305000J0D01*
G01*
X10005000Y20070000D01*
G75*
G02*
X10310000Y19765000I0J-305000D01*
G01*
X10310000Y19155000D01*
G75*
G02*
X10005000Y18850000I-305000J0D01*
G01*
X7345000Y18850000D01*
G75*
G02*
X7040000Y19155000I0J305000D01*
G01*
G37*
G36*
G01*
X1840000Y19155000D02*
X1840000Y19765000D01*
G75*
G02*
X2145000Y20070000I305000J0D01*
G01*
X4805000Y20070000D01*
G75*
G02*
X5110000Y19765000I0J-305000D01*
G01*
X5110000Y19155000D01*
G75*
G02*
X4805000Y18850000I-305000J0D01*
G01*
X2145000Y18850000D01*
G75*
G02*
X1840000Y19155000I0J305000D01*
G01*
G37*
G36*
G01*
X7040000Y21695000D02*
X7040000Y22305000D01*
G75*
G02*
X7345000Y22610000I305000J0D01*
G01*
X10005000Y22610000D01*
G75*
G02*
X10310000Y22305000I0J-305000D01*
G01*
X10310000Y21695000D01*
G75*
G02*
X10005000Y21390000I-305000J0D01*
G01*
X7345000Y21390000D01*
G75*
G02*
X7040000Y21695000I0J305000D01*
G01*
G37*
G36*
G01*
X1840000Y21695000D02*
X1840000Y22305000D01*
G75*
G02*
X2145000Y22610000I305000J0D01*
G01*
X4805000Y22610000D01*
G75*
G02*
X5110000Y22305000I0J-305000D01*
G01*
X5110000Y21695000D01*
G75*
G02*
X4805000Y21390000I-305000J0D01*
G01*
X2145000Y21390000D01*
G75*
G02*
X1840000Y21695000I0J305000D01*
G01*
G37*
G36*
G01*
X7040000Y24235000D02*
X7040000Y24845000D01*
G75*
G02*
X7345000Y25150000I305000J0D01*
G01*
X10005000Y25150000D01*
G75*
G02*
X10310000Y24845000I0J-305000D01*
G01*
X10310000Y24235000D01*
G75*
G02*
X10005000Y23930000I-305000J0D01*
G01*
X7345000Y23930000D01*
G75*
G02*
X7040000Y24235000I0J305000D01*
G01*
G37*
G36*
G01*
X1840000Y24235000D02*
X1840000Y24845000D01*
G75*
G02*
X2145000Y25150000I305000J0D01*
G01*
X4805000Y25150000D01*
G75*
G02*
X5110000Y24845000I0J-305000D01*
G01*
X5110000Y24235000D01*
G75*
G02*
X4805000Y23930000I-305000J0D01*
G01*
X2145000Y23930000D01*
G75*
G02*
X1840000Y24235000I0J305000D01*
G01*
G37*
G36*
G01*
X7040000Y26775000D02*
X7040000Y27385000D01*
G75*
G02*
X7345000Y27690000I305000J0D01*
G01*
X10005000Y27690000D01*
G75*
G02*
X10310000Y27385000I0J-305000D01*
G01*
X10310000Y26775000D01*
G75*
G02*
X10005000Y26470000I-305000J0D01*
G01*
X7345000Y26470000D01*
G75*
G02*
X7040000Y26775000I0J305000D01*
G01*
G37*
G36*
G01*
X1840000Y26775000D02*
X1840000Y27385000D01*
G75*
G02*
X2145000Y27690000I305000J0D01*
G01*
X4805000Y27690000D01*
G75*
G02*
X5110000Y27385000I0J-305000D01*
G01*
X5110000Y26775000D01*
G75*
G02*
X4805000Y26470000I-305000J0D01*
G01*
X2145000Y26470000D01*
G75*
G02*
X1840000Y26775000I0J305000D01*
G01*
G37*
G36*
G01*
X7040000Y29315000D02*
X7040000Y29925000D01*
G75*
G02*
X7345000Y30230000I305000J0D01*
G01*
X10005000Y30230000D01*
G75*
G02*
X10310000Y29925000I0J-305000D01*
G01*
X10310000Y29315000D01*
G75*
G02*
X10005000Y29010000I-305000J0D01*
G01*
X7345000Y29010000D01*
G75*
G02*
X7040000Y29315000I0J305000D01*
G01*
G37*
G36*
G01*
X1840000Y29315000D02*
X1840000Y29925000D01*
G75*
G02*
X2145000Y30230000I305000J0D01*
G01*
X4805000Y30230000D01*
G75*
G02*
X5110000Y29925000I0J-305000D01*
G01*
X5110000Y29315000D01*
G75*
G02*
X4805000Y29010000I-305000J0D01*
G01*
X2145000Y29010000D01*
G75*
G02*
X1840000Y29315000I0J305000D01*
G01*
G37*
G36*
G01*
X7040000Y31855000D02*
X7040000Y32465000D01*
G75*
G02*
X7345000Y32770000I305000J0D01*
G01*
X10005000Y32770000D01*
G75*
G02*
X10310000Y32465000I0J-305000D01*
G01*
X10310000Y31855000D01*
G75*
G02*
X10005000Y31550000I-305000J0D01*
G01*
X7345000Y31550000D01*
G75*
G02*
X7040000Y31855000I0J305000D01*
G01*
G37*
G36*
G01*
X1840000Y31855000D02*
X1840000Y32465000D01*
G75*
G02*
X2145000Y32770000I305000J0D01*
G01*
X4805000Y32770000D01*
G75*
G02*
X5110000Y32465000I0J-305000D01*
G01*
X5110000Y31855000D01*
G75*
G02*
X4805000Y31550000I-305000J0D01*
G01*
X2145000Y31550000D01*
G75*
G02*
X1840000Y31855000I0J305000D01*
G01*
G37*
G36*
G01*
X98040000Y35535000D02*
X98040000Y36145000D01*
G75*
G02*
X98345000Y36450000I305000J0D01*
G01*
X101005000Y36450000D01*
G75*
G02*
X101310000Y36145000I0J-305000D01*
G01*
X101310000Y35535000D01*
G75*
G02*
X101005000Y35230000I-305000J0D01*
G01*
X98345000Y35230000D01*
G75*
G02*
X98040000Y35535000I0J305000D01*
G01*
G37*
G36*
G01*
X92840000Y35535000D02*
X92840000Y36145000D01*
G75*
G02*
X93145000Y36450000I305000J0D01*
G01*
X95805000Y36450000D01*
G75*
G02*
X96110000Y36145000I0J-305000D01*
G01*
X96110000Y35535000D01*
G75*
G02*
X95805000Y35230000I-305000J0D01*
G01*
X93145000Y35230000D01*
G75*
G02*
X92840000Y35535000I0J305000D01*
G01*
G37*
G36*
G01*
X98040000Y38075000D02*
X98040000Y38685000D01*
G75*
G02*
X98345000Y38990000I305000J0D01*
G01*
X101005000Y38990000D01*
G75*
G02*
X101310000Y38685000I0J-305000D01*
G01*
X101310000Y38075000D01*
G75*
G02*
X101005000Y37770000I-305000J0D01*
G01*
X98345000Y37770000D01*
G75*
G02*
X98040000Y38075000I0J305000D01*
G01*
G37*
G36*
G01*
X92840000Y38075000D02*
X92840000Y38685000D01*
G75*
G02*
X93145000Y38990000I305000J0D01*
G01*
X95805000Y38990000D01*
G75*
G02*
X96110000Y38685000I0J-305000D01*
G01*
X96110000Y38075000D01*
G75*
G02*
X95805000Y37770000I-305000J0D01*
G01*
X93145000Y37770000D01*
G75*
G02*
X92840000Y38075000I0J305000D01*
G01*
G37*
G36*
G01*
X98040000Y40615000D02*
X98040000Y41225000D01*
G75*
G02*
X98345000Y41530000I305000J0D01*
G01*
X101005000Y41530000D01*
G75*
G02*
X101310000Y41225000I0J-305000D01*
G01*
X101310000Y40615000D01*
G75*
G02*
X101005000Y40310000I-305000J0D01*
G01*
X98345000Y40310000D01*
G75*
G02*
X98040000Y40615000I0J305000D01*
G01*
G37*
G36*
G01*
X92840000Y40615000D02*
X92840000Y41225000D01*
G75*
G02*
X93145000Y41530000I305000J0D01*
G01*
X95805000Y41530000D01*
G75*
G02*
X96110000Y41225000I0J-305000D01*
G01*
X96110000Y40615000D01*
G75*
G02*
X95805000Y40310000I-305000J0D01*
G01*
X93145000Y40310000D01*
G75*
G02*
X92840000Y40615000I0J305000D01*
G01*
G37*
G36*
G01*
X98040000Y43155000D02*
X98040000Y43765000D01*
G75*
G02*
X98345000Y44070000I305000J0D01*
G01*
X101005000Y44070000D01*
G75*
G02*
X101310000Y43765000I0J-305000D01*
G01*
X101310000Y43155000D01*
G75*
G02*
X101005000Y42850000I-305000J0D01*
G01*
X98345000Y42850000D01*
G75*
G02*
X98040000Y43155000I0J305000D01*
G01*
G37*
G36*
G01*
X92840000Y43155000D02*
X92840000Y43765000D01*
G75*
G02*
X93145000Y44070000I305000J0D01*
G01*
X95805000Y44070000D01*
G75*
G02*
X96110000Y43765000I0J-305000D01*
G01*
X96110000Y43155000D01*
G75*
G02*
X95805000Y42850000I-305000J0D01*
G01*
X93145000Y42850000D01*
G75*
G02*
X92840000Y43155000I0J305000D01*
G01*
G37*
G36*
G01*
X98040000Y45695000D02*
X98040000Y46305000D01*
G75*
G02*
X98345000Y46610000I305000J0D01*
G01*
X101005000Y46610000D01*
G75*
G02*
X101310000Y46305000I0J-305000D01*
G01*
X101310000Y45695000D01*
G75*
G02*
X101005000Y45390000I-305000J0D01*
G01*
X98345000Y45390000D01*
G75*
G02*
X98040000Y45695000I0J305000D01*
G01*
G37*
G36*
G01*
X92840000Y45695000D02*
X92840000Y46305000D01*
G75*
G02*
X93145000Y46610000I305000J0D01*
G01*
X95805000Y46610000D01*
G75*
G02*
X96110000Y46305000I0J-305000D01*
G01*
X96110000Y45695000D01*
G75*
G02*
X95805000Y45390000I-305000J0D01*
G01*
X93145000Y45390000D01*
G75*
G02*
X92840000Y45695000I0J305000D01*
G01*
G37*
G36*
G01*
X98040000Y48235000D02*
X98040000Y48845000D01*
G75*
G02*
X98345000Y49150000I305000J0D01*
G01*
X101005000Y49150000D01*
G75*
G02*
X101310000Y48845000I0J-305000D01*
G01*
X101310000Y48235000D01*
G75*
G02*
X101005000Y47930000I-305000J0D01*
G01*
X98345000Y47930000D01*
G75*
G02*
X98040000Y48235000I0J305000D01*
G01*
G37*
G36*
G01*
X92840000Y48235000D02*
X92840000Y48845000D01*
G75*
G02*
X93145000Y49150000I305000J0D01*
G01*
X95805000Y49150000D01*
G75*
G02*
X96110000Y48845000I0J-305000D01*
G01*
X96110000Y48235000D01*
G75*
G02*
X95805000Y47930000I-305000J0D01*
G01*
X93145000Y47930000D01*
G75*
G02*
X92840000Y48235000I0J305000D01*
G01*
G37*
G36*
G01*
X98040000Y50775000D02*
X98040000Y51385000D01*
G75*
G02*
X98345000Y51690000I305000J0D01*
G01*
X101005000Y51690000D01*
G75*
G02*
X101310000Y51385000I0J-305000D01*
G01*
X101310000Y50775000D01*
G75*
G02*
X101005000Y50470000I-305000J0D01*
G01*
X98345000Y50470000D01*
G75*
G02*
X98040000Y50775000I0J305000D01*
G01*
G37*
G36*
G01*
X92840000Y50775000D02*
X92840000Y51385000D01*
G75*
G02*
X93145000Y51690000I305000J0D01*
G01*
X95805000Y51690000D01*
G75*
G02*
X96110000Y51385000I0J-305000D01*
G01*
X96110000Y50775000D01*
G75*
G02*
X95805000Y50470000I-305000J0D01*
G01*
X93145000Y50470000D01*
G75*
G02*
X92840000Y50775000I0J305000D01*
G01*
G37*
G36*
G01*
X98040000Y53315000D02*
X98040000Y53925000D01*
G75*
G02*
X98345000Y54230000I305000J0D01*
G01*
X101005000Y54230000D01*
G75*
G02*
X101310000Y53925000I0J-305000D01*
G01*
X101310000Y53315000D01*
G75*
G02*
X101005000Y53010000I-305000J0D01*
G01*
X98345000Y53010000D01*
G75*
G02*
X98040000Y53315000I0J305000D01*
G01*
G37*
G36*
G01*
X92840000Y53315000D02*
X92840000Y53925000D01*
G75*
G02*
X93145000Y54230000I305000J0D01*
G01*
X95805000Y54230000D01*
G75*
G02*
X96110000Y53925000I0J-305000D01*
G01*
X96110000Y53315000D01*
G75*
G02*
X95805000Y53010000I-305000J0D01*
G01*
X93145000Y53010000D01*
G75*
G02*
X92840000Y53315000I0J305000D01*
G01*
G37*
G36*
G01*
X98040000Y55855000D02*
X98040000Y56465000D01*
G75*
G02*
X98345000Y56770000I305000J0D01*
G01*
X101005000Y56770000D01*
G75*
G02*
X101310000Y56465000I0J-305000D01*
G01*
X101310000Y55855000D01*
G75*
G02*
X101005000Y55550000I-305000J0D01*
G01*
X98345000Y55550000D01*
G75*
G02*
X98040000Y55855000I0J305000D01*
G01*
G37*
G36*
G01*
X92840000Y55855000D02*
X92840000Y56465000D01*
G75*
G02*
X93145000Y56770000I305000J0D01*
G01*
X95805000Y56770000D01*
G75*
G02*
X96110000Y56465000I0J-305000D01*
G01*
X96110000Y55855000D01*
G75*
G02*
X95805000Y55550000I-305000J0D01*
G01*
X93145000Y55550000D01*
G75*
G02*
X92840000Y55855000I0J305000D01*
G01*
G37*
G36*
G01*
X98040000Y11535000D02*
X98040000Y12145000D01*
G75*
G02*
X98345000Y12450000I305000J0D01*
G01*
X101005000Y12450000D01*
G75*
G02*
X101310000Y12145000I0J-305000D01*
G01*
X101310000Y11535000D01*
G75*
G02*
X101005000Y11230000I-305000J0D01*
G01*
X98345000Y11230000D01*
G75*
G02*
X98040000Y11535000I0J305000D01*
G01*
G37*
G36*
G01*
X92840000Y11535000D02*
X92840000Y12145000D01*
G75*
G02*
X93145000Y12450000I305000J0D01*
G01*
X95805000Y12450000D01*
G75*
G02*
X96110000Y12145000I0J-305000D01*
G01*
X96110000Y11535000D01*
G75*
G02*
X95805000Y11230000I-305000J0D01*
G01*
X93145000Y11230000D01*
G75*
G02*
X92840000Y11535000I0J305000D01*
G01*
G37*
G36*
G01*
X98040000Y14075000D02*
X98040000Y14685000D01*
G75*
G02*
X98345000Y14990000I305000J0D01*
G01*
X101005000Y14990000D01*
G75*
G02*
X101310000Y14685000I0J-305000D01*
G01*
X101310000Y14075000D01*
G75*
G02*
X101005000Y13770000I-305000J0D01*
G01*
X98345000Y13770000D01*
G75*
G02*
X98040000Y14075000I0J305000D01*
G01*
G37*
G36*
G01*
X92840000Y14075000D02*
X92840000Y14685000D01*
G75*
G02*
X93145000Y14990000I305000J0D01*
G01*
X95805000Y14990000D01*
G75*
G02*
X96110000Y14685000I0J-305000D01*
G01*
X96110000Y14075000D01*
G75*
G02*
X95805000Y13770000I-305000J0D01*
G01*
X93145000Y13770000D01*
G75*
G02*
X92840000Y14075000I0J305000D01*
G01*
G37*
G36*
G01*
X98040000Y16615000D02*
X98040000Y17225000D01*
G75*
G02*
X98345000Y17530000I305000J0D01*
G01*
X101005000Y17530000D01*
G75*
G02*
X101310000Y17225000I0J-305000D01*
G01*
X101310000Y16615000D01*
G75*
G02*
X101005000Y16310000I-305000J0D01*
G01*
X98345000Y16310000D01*
G75*
G02*
X98040000Y16615000I0J305000D01*
G01*
G37*
G36*
G01*
X92840000Y16615000D02*
X92840000Y17225000D01*
G75*
G02*
X93145000Y17530000I305000J0D01*
G01*
X95805000Y17530000D01*
G75*
G02*
X96110000Y17225000I0J-305000D01*
G01*
X96110000Y16615000D01*
G75*
G02*
X95805000Y16310000I-305000J0D01*
G01*
X93145000Y16310000D01*
G75*
G02*
X92840000Y16615000I0J305000D01*
G01*
G37*
G36*
G01*
X98040000Y19155000D02*
X98040000Y19765000D01*
G75*
G02*
X98345000Y20070000I305000J0D01*
G01*
X101005000Y20070000D01*
G75*
G02*
X101310000Y19765000I0J-305000D01*
G01*
X101310000Y19155000D01*
G75*
G02*
X101005000Y18850000I-305000J0D01*
G01*
X98345000Y18850000D01*
G75*
G02*
X98040000Y19155000I0J305000D01*
G01*
G37*
G36*
G01*
X92840000Y19155000D02*
X92840000Y19765000D01*
G75*
G02*
X93145000Y20070000I305000J0D01*
G01*
X95805000Y20070000D01*
G75*
G02*
X96110000Y19765000I0J-305000D01*
G01*
X96110000Y19155000D01*
G75*
G02*
X95805000Y18850000I-305000J0D01*
G01*
X93145000Y18850000D01*
G75*
G02*
X92840000Y19155000I0J305000D01*
G01*
G37*
G36*
G01*
X98040000Y21695000D02*
X98040000Y22305000D01*
G75*
G02*
X98345000Y22610000I305000J0D01*
G01*
X101005000Y22610000D01*
G75*
G02*
X101310000Y22305000I0J-305000D01*
G01*
X101310000Y21695000D01*
G75*
G02*
X101005000Y21390000I-305000J0D01*
G01*
X98345000Y21390000D01*
G75*
G02*
X98040000Y21695000I0J305000D01*
G01*
G37*
G36*
G01*
X92840000Y21695000D02*
X92840000Y22305000D01*
G75*
G02*
X93145000Y22610000I305000J0D01*
G01*
X95805000Y22610000D01*
G75*
G02*
X96110000Y22305000I0J-305000D01*
G01*
X96110000Y21695000D01*
G75*
G02*
X95805000Y21390000I-305000J0D01*
G01*
X93145000Y21390000D01*
G75*
G02*
X92840000Y21695000I0J305000D01*
G01*
G37*
G36*
G01*
X98040000Y24235000D02*
X98040000Y24845000D01*
G75*
G02*
X98345000Y25150000I305000J0D01*
G01*
X101005000Y25150000D01*
G75*
G02*
X101310000Y24845000I0J-305000D01*
G01*
X101310000Y24235000D01*
G75*
G02*
X101005000Y23930000I-305000J0D01*
G01*
X98345000Y23930000D01*
G75*
G02*
X98040000Y24235000I0J305000D01*
G01*
G37*
G36*
G01*
X92840000Y24235000D02*
X92840000Y24845000D01*
G75*
G02*
X93145000Y25150000I305000J0D01*
G01*
X95805000Y25150000D01*
G75*
G02*
X96110000Y24845000I0J-305000D01*
G01*
X96110000Y24235000D01*
G75*
G02*
X95805000Y23930000I-305000J0D01*
G01*
X93145000Y23930000D01*
G75*
G02*
X92840000Y24235000I0J305000D01*
G01*
G37*
G36*
G01*
X98040000Y26775000D02*
X98040000Y27385000D01*
G75*
G02*
X98345000Y27690000I305000J0D01*
G01*
X101005000Y27690000D01*
G75*
G02*
X101310000Y27385000I0J-305000D01*
G01*
X101310000Y26775000D01*
G75*
G02*
X101005000Y26470000I-305000J0D01*
G01*
X98345000Y26470000D01*
G75*
G02*
X98040000Y26775000I0J305000D01*
G01*
G37*
G36*
G01*
X92840000Y26775000D02*
X92840000Y27385000D01*
G75*
G02*
X93145000Y27690000I305000J0D01*
G01*
X95805000Y27690000D01*
G75*
G02*
X96110000Y27385000I0J-305000D01*
G01*
X96110000Y26775000D01*
G75*
G02*
X95805000Y26470000I-305000J0D01*
G01*
X93145000Y26470000D01*
G75*
G02*
X92840000Y26775000I0J305000D01*
G01*
G37*
G36*
G01*
X98040000Y29315000D02*
X98040000Y29925000D01*
G75*
G02*
X98345000Y30230000I305000J0D01*
G01*
X101005000Y30230000D01*
G75*
G02*
X101310000Y29925000I0J-305000D01*
G01*
X101310000Y29315000D01*
G75*
G02*
X101005000Y29010000I-305000J0D01*
G01*
X98345000Y29010000D01*
G75*
G02*
X98040000Y29315000I0J305000D01*
G01*
G37*
G36*
G01*
X92840000Y29315000D02*
X92840000Y29925000D01*
G75*
G02*
X93145000Y30230000I305000J0D01*
G01*
X95805000Y30230000D01*
G75*
G02*
X96110000Y29925000I0J-305000D01*
G01*
X96110000Y29315000D01*
G75*
G02*
X95805000Y29010000I-305000J0D01*
G01*
X93145000Y29010000D01*
G75*
G02*
X92840000Y29315000I0J305000D01*
G01*
G37*
G36*
G01*
X98040000Y31855000D02*
X98040000Y32465000D01*
G75*
G02*
X98345000Y32770000I305000J0D01*
G01*
X101005000Y32770000D01*
G75*
G02*
X101310000Y32465000I0J-305000D01*
G01*
X101310000Y31855000D01*
G75*
G02*
X101005000Y31550000I-305000J0D01*
G01*
X98345000Y31550000D01*
G75*
G02*
X98040000Y31855000I0J305000D01*
G01*
G37*
G36*
G01*
X92840000Y31855000D02*
X92840000Y32465000D01*
G75*
G02*
X93145000Y32770000I305000J0D01*
G01*
X95805000Y32770000D01*
G75*
G02*
X96110000Y32465000I0J-305000D01*
G01*
X96110000Y31855000D01*
G75*
G02*
X95805000Y31550000I-305000J0D01*
G01*
X93145000Y31550000D01*
G75*
G02*
X92840000Y31855000I0J305000D01*
G01*
G37*
G36*
G01*
X40035000Y9960000D02*
X40645000Y9960000D01*
G75*
G02*
X40950000Y9655000I0J-305000D01*
G01*
X40950000Y6995000D01*
G75*
G02*
X40645000Y6690000I-305000J0D01*
G01*
X40035000Y6690000D01*
G75*
G02*
X39730000Y6995000I0J305000D01*
G01*
X39730000Y9655000D01*
G75*
G02*
X40035000Y9960000I305000J0D01*
G01*
G37*
G36*
G01*
X40035000Y15160000D02*
X40645000Y15160000D01*
G75*
G02*
X40950000Y14855000I0J-305000D01*
G01*
X40950000Y12195000D01*
G75*
G02*
X40645000Y11890000I-305000J0D01*
G01*
X40035000Y11890000D01*
G75*
G02*
X39730000Y12195000I0J305000D01*
G01*
X39730000Y14855000D01*
G75*
G02*
X40035000Y15160000I305000J0D01*
G01*
G37*
G36*
G01*
X42575000Y9960000D02*
X43185000Y9960000D01*
G75*
G02*
X43490000Y9655000I0J-305000D01*
G01*
X43490000Y6995000D01*
G75*
G02*
X43185000Y6690000I-305000J0D01*
G01*
X42575000Y6690000D01*
G75*
G02*
X42270000Y6995000I0J305000D01*
G01*
X42270000Y9655000D01*
G75*
G02*
X42575000Y9960000I305000J0D01*
G01*
G37*
G36*
G01*
X42575000Y15160000D02*
X43185000Y15160000D01*
G75*
G02*
X43490000Y14855000I0J-305000D01*
G01*
X43490000Y12195000D01*
G75*
G02*
X43185000Y11890000I-305000J0D01*
G01*
X42575000Y11890000D01*
G75*
G02*
X42270000Y12195000I0J305000D01*
G01*
X42270000Y14855000D01*
G75*
G02*
X42575000Y15160000I305000J0D01*
G01*
G37*
G36*
G01*
X45115000Y9960000D02*
X45725000Y9960000D01*
G75*
G02*
X46030000Y9655000I0J-305000D01*
G01*
X46030000Y6995000D01*
G75*
G02*
X45725000Y6690000I-305000J0D01*
G01*
X45115000Y6690000D01*
G75*
G02*
X44810000Y6995000I0J305000D01*
G01*
X44810000Y9655000D01*
G75*
G02*
X45115000Y9960000I305000J0D01*
G01*
G37*
G36*
G01*
X45115000Y15160000D02*
X45725000Y15160000D01*
G75*
G02*
X46030000Y14855000I0J-305000D01*
G01*
X46030000Y12195000D01*
G75*
G02*
X45725000Y11890000I-305000J0D01*
G01*
X45115000Y11890000D01*
G75*
G02*
X44810000Y12195000I0J305000D01*
G01*
X44810000Y14855000D01*
G75*
G02*
X45115000Y15160000I305000J0D01*
G01*
G37*
G36*
G01*
X47655000Y9960000D02*
X48265000Y9960000D01*
G75*
G02*
X48570000Y9655000I0J-305000D01*
G01*
X48570000Y6995000D01*
G75*
G02*
X48265000Y6690000I-305000J0D01*
G01*
X47655000Y6690000D01*
G75*
G02*
X47350000Y6995000I0J305000D01*
G01*
X47350000Y9655000D01*
G75*
G02*
X47655000Y9960000I305000J0D01*
G01*
G37*
G36*
G01*
X47655000Y15160000D02*
X48265000Y15160000D01*
G75*
G02*
X48570000Y14855000I0J-305000D01*
G01*
X48570000Y12195000D01*
G75*
G02*
X48265000Y11890000I-305000J0D01*
G01*
X47655000Y11890000D01*
G75*
G02*
X47350000Y12195000I0J305000D01*
G01*
X47350000Y14855000D01*
G75*
G02*
X47655000Y15160000I305000J0D01*
G01*
G37*
G36*
G01*
X50195000Y9960000D02*
X50805000Y9960000D01*
G75*
G02*
X51110000Y9655000I0J-305000D01*
G01*
X51110000Y6995000D01*
G75*
G02*
X50805000Y6690000I-305000J0D01*
G01*
X50195000Y6690000D01*
G75*
G02*
X49890000Y6995000I0J305000D01*
G01*
X49890000Y9655000D01*
G75*
G02*
X50195000Y9960000I305000J0D01*
G01*
G37*
G36*
G01*
X50195000Y15160000D02*
X50805000Y15160000D01*
G75*
G02*
X51110000Y14855000I0J-305000D01*
G01*
X51110000Y12195000D01*
G75*
G02*
X50805000Y11890000I-305000J0D01*
G01*
X50195000Y11890000D01*
G75*
G02*
X49890000Y12195000I0J305000D01*
G01*
X49890000Y14855000D01*
G75*
G02*
X50195000Y15160000I305000J0D01*
G01*
G37*
G36*
G01*
X52735000Y9960000D02*
X53345000Y9960000D01*
G75*
G02*
X53650000Y9655000I0J-305000D01*
G01*
X53650000Y6995000D01*
G75*
G02*
X53345000Y6690000I-305000J0D01*
G01*
X52735000Y6690000D01*
G75*
G02*
X52430000Y6995000I0J305000D01*
G01*
X52430000Y9655000D01*
G75*
G02*
X52735000Y9960000I305000J0D01*
G01*
G37*
G36*
G01*
X52735000Y15160000D02*
X53345000Y15160000D01*
G75*
G02*
X53650000Y14855000I0J-305000D01*
G01*
X53650000Y12195000D01*
G75*
G02*
X53345000Y11890000I-305000J0D01*
G01*
X52735000Y11890000D01*
G75*
G02*
X52430000Y12195000I0J305000D01*
G01*
X52430000Y14855000D01*
G75*
G02*
X52735000Y15160000I305000J0D01*
G01*
G37*
G36*
G01*
X55275000Y9960000D02*
X55885000Y9960000D01*
G75*
G02*
X56190000Y9655000I0J-305000D01*
G01*
X56190000Y6995000D01*
G75*
G02*
X55885000Y6690000I-305000J0D01*
G01*
X55275000Y6690000D01*
G75*
G02*
X54970000Y6995000I0J305000D01*
G01*
X54970000Y9655000D01*
G75*
G02*
X55275000Y9960000I305000J0D01*
G01*
G37*
G36*
G01*
X55275000Y15160000D02*
X55885000Y15160000D01*
G75*
G02*
X56190000Y14855000I0J-305000D01*
G01*
X56190000Y12195000D01*
G75*
G02*
X55885000Y11890000I-305000J0D01*
G01*
X55275000Y11890000D01*
G75*
G02*
X54970000Y12195000I0J305000D01*
G01*
X54970000Y14855000D01*
G75*
G02*
X55275000Y15160000I305000J0D01*
G01*
G37*
G36*
G01*
X57815000Y9960000D02*
X58425000Y9960000D01*
G75*
G02*
X58730000Y9655000I0J-305000D01*
G01*
X58730000Y6995000D01*
G75*
G02*
X58425000Y6690000I-305000J0D01*
G01*
X57815000Y6690000D01*
G75*
G02*
X57510000Y6995000I0J305000D01*
G01*
X57510000Y9655000D01*
G75*
G02*
X57815000Y9960000I305000J0D01*
G01*
G37*
G36*
G01*
X57815000Y15160000D02*
X58425000Y15160000D01*
G75*
G02*
X58730000Y14855000I0J-305000D01*
G01*
X58730000Y12195000D01*
G75*
G02*
X58425000Y11890000I-305000J0D01*
G01*
X57815000Y11890000D01*
G75*
G02*
X57510000Y12195000I0J305000D01*
G01*
X57510000Y14855000D01*
G75*
G02*
X57815000Y15160000I305000J0D01*
G01*
G37*
G36*
G01*
X60355000Y9960000D02*
X60965000Y9960000D01*
G75*
G02*
X61270000Y9655000I0J-305000D01*
G01*
X61270000Y6995000D01*
G75*
G02*
X60965000Y6690000I-305000J0D01*
G01*
X60355000Y6690000D01*
G75*
G02*
X60050000Y6995000I0J305000D01*
G01*
X60050000Y9655000D01*
G75*
G02*
X60355000Y9960000I305000J0D01*
G01*
G37*
G36*
G01*
X60355000Y15160000D02*
X60965000Y15160000D01*
G75*
G02*
X61270000Y14855000I0J-305000D01*
G01*
X61270000Y12195000D01*
G75*
G02*
X60965000Y11890000I-305000J0D01*
G01*
X60355000Y11890000D01*
G75*
G02*
X60050000Y12195000I0J305000D01*
G01*
X60050000Y14855000D01*
G75*
G02*
X60355000Y15160000I305000J0D01*
G01*
G37*
G36*
G01*
X51540000Y67535000D02*
X51540000Y68145000D01*
G75*
G02*
X51845000Y68450000I305000J0D01*
G01*
X54505000Y68450000D01*
G75*
G02*
X54810000Y68145000I0J-305000D01*
G01*
X54810000Y67535000D01*
G75*
G02*
X54505000Y67230000I-305000J0D01*
G01*
X51845000Y67230000D01*
G75*
G02*
X51540000Y67535000I0J305000D01*
G01*
G37*
G36*
G01*
X46340000Y67535000D02*
X46340000Y68145000D01*
G75*
G02*
X46645000Y68450000I305000J0D01*
G01*
X49305000Y68450000D01*
G75*
G02*
X49610000Y68145000I0J-305000D01*
G01*
X49610000Y67535000D01*
G75*
G02*
X49305000Y67230000I-305000J0D01*
G01*
X46645000Y67230000D01*
G75*
G02*
X46340000Y67535000I0J305000D01*
G01*
G37*
G36*
G01*
X51540000Y70075000D02*
X51540000Y70685000D01*
G75*
G02*
X51845000Y70990000I305000J0D01*
G01*
X54505000Y70990000D01*
G75*
G02*
X54810000Y70685000I0J-305000D01*
G01*
X54810000Y70075000D01*
G75*
G02*
X54505000Y69770000I-305000J0D01*
G01*
X51845000Y69770000D01*
G75*
G02*
X51540000Y70075000I0J305000D01*
G01*
G37*
G36*
G01*
X46340000Y70075000D02*
X46340000Y70685000D01*
G75*
G02*
X46645000Y70990000I305000J0D01*
G01*
X49305000Y70990000D01*
G75*
G02*
X49610000Y70685000I0J-305000D01*
G01*
X49610000Y70075000D01*
G75*
G02*
X49305000Y69770000I-305000J0D01*
G01*
X46645000Y69770000D01*
G75*
G02*
X46340000Y70075000I0J305000D01*
G01*
G37*
G36*
G01*
X51540000Y72615000D02*
X51540000Y73225000D01*
G75*
G02*
X51845000Y73530000I305000J0D01*
G01*
X54505000Y73530000D01*
G75*
G02*
X54810000Y73225000I0J-305000D01*
G01*
X54810000Y72615000D01*
G75*
G02*
X54505000Y72310000I-305000J0D01*
G01*
X51845000Y72310000D01*
G75*
G02*
X51540000Y72615000I0J305000D01*
G01*
G37*
G36*
G01*
X46340000Y72615000D02*
X46340000Y73225000D01*
G75*
G02*
X46645000Y73530000I305000J0D01*
G01*
X49305000Y73530000D01*
G75*
G02*
X49610000Y73225000I0J-305000D01*
G01*
X49610000Y72615000D01*
G75*
G02*
X49305000Y72310000I-305000J0D01*
G01*
X46645000Y72310000D01*
G75*
G02*
X46340000Y72615000I0J305000D01*
G01*
G37*
G36*
G01*
X51540000Y75155000D02*
X51540000Y75765000D01*
G75*
G02*
X51845000Y76070000I305000J0D01*
G01*
X54505000Y76070000D01*
G75*
G02*
X54810000Y75765000I0J-305000D01*
G01*
X54810000Y75155000D01*
G75*
G02*
X54505000Y74850000I-305000J0D01*
G01*
X51845000Y74850000D01*
G75*
G02*
X51540000Y75155000I0J305000D01*
G01*
G37*
G36*
G01*
X46340000Y75155000D02*
X46340000Y75765000D01*
G75*
G02*
X46645000Y76070000I305000J0D01*
G01*
X49305000Y76070000D01*
G75*
G02*
X49610000Y75765000I0J-305000D01*
G01*
X49610000Y75155000D01*
G75*
G02*
X49305000Y74850000I-305000J0D01*
G01*
X46645000Y74850000D01*
G75*
G02*
X46340000Y75155000I0J305000D01*
G01*
G37*
G36*
G01*
X51540000Y77695000D02*
X51540000Y78305000D01*
G75*
G02*
X51845000Y78610000I305000J0D01*
G01*
X54505000Y78610000D01*
G75*
G02*
X54810000Y78305000I0J-305000D01*
G01*
X54810000Y77695000D01*
G75*
G02*
X54505000Y77390000I-305000J0D01*
G01*
X51845000Y77390000D01*
G75*
G02*
X51540000Y77695000I0J305000D01*
G01*
G37*
G36*
G01*
X46340000Y77695000D02*
X46340000Y78305000D01*
G75*
G02*
X46645000Y78610000I305000J0D01*
G01*
X49305000Y78610000D01*
G75*
G02*
X49610000Y78305000I0J-305000D01*
G01*
X49610000Y77695000D01*
G75*
G02*
X49305000Y77390000I-305000J0D01*
G01*
X46645000Y77390000D01*
G75*
G02*
X46340000Y77695000I0J305000D01*
G01*
G37*
G36*
G01*
X51540000Y80235000D02*
X51540000Y80845000D01*
G75*
G02*
X51845000Y81150000I305000J0D01*
G01*
X54505000Y81150000D01*
G75*
G02*
X54810000Y80845000I0J-305000D01*
G01*
X54810000Y80235000D01*
G75*
G02*
X54505000Y79930000I-305000J0D01*
G01*
X51845000Y79930000D01*
G75*
G02*
X51540000Y80235000I0J305000D01*
G01*
G37*
G36*
G01*
X46340000Y80235000D02*
X46340000Y80845000D01*
G75*
G02*
X46645000Y81150000I305000J0D01*
G01*
X49305000Y81150000D01*
G75*
G02*
X49610000Y80845000I0J-305000D01*
G01*
X49610000Y80235000D01*
G75*
G02*
X49305000Y79930000I-305000J0D01*
G01*
X46645000Y79930000D01*
G75*
G02*
X46340000Y80235000I0J305000D01*
G01*
G37*
G36*
G01*
X51540000Y82775000D02*
X51540000Y83385000D01*
G75*
G02*
X51845000Y83690000I305000J0D01*
G01*
X54505000Y83690000D01*
G75*
G02*
X54810000Y83385000I0J-305000D01*
G01*
X54810000Y82775000D01*
G75*
G02*
X54505000Y82470000I-305000J0D01*
G01*
X51845000Y82470000D01*
G75*
G02*
X51540000Y82775000I0J305000D01*
G01*
G37*
G36*
G01*
X46340000Y82775000D02*
X46340000Y83385000D01*
G75*
G02*
X46645000Y83690000I305000J0D01*
G01*
X49305000Y83690000D01*
G75*
G02*
X49610000Y83385000I0J-305000D01*
G01*
X49610000Y82775000D01*
G75*
G02*
X49305000Y82470000I-305000J0D01*
G01*
X46645000Y82470000D01*
G75*
G02*
X46340000Y82775000I0J305000D01*
G01*
G37*
G36*
G01*
X51540000Y85315000D02*
X51540000Y85925000D01*
G75*
G02*
X51845000Y86230000I305000J0D01*
G01*
X54505000Y86230000D01*
G75*
G02*
X54810000Y85925000I0J-305000D01*
G01*
X54810000Y85315000D01*
G75*
G02*
X54505000Y85010000I-305000J0D01*
G01*
X51845000Y85010000D01*
G75*
G02*
X51540000Y85315000I0J305000D01*
G01*
G37*
G36*
G01*
X46340000Y85315000D02*
X46340000Y85925000D01*
G75*
G02*
X46645000Y86230000I305000J0D01*
G01*
X49305000Y86230000D01*
G75*
G02*
X49610000Y85925000I0J-305000D01*
G01*
X49610000Y85315000D01*
G75*
G02*
X49305000Y85010000I-305000J0D01*
G01*
X46645000Y85010000D01*
G75*
G02*
X46340000Y85315000I0J305000D01*
G01*
G37*
G36*
G01*
X51540000Y87855000D02*
X51540000Y88465000D01*
G75*
G02*
X51845000Y88770000I305000J0D01*
G01*
X54505000Y88770000D01*
G75*
G02*
X54810000Y88465000I0J-305000D01*
G01*
X54810000Y87855000D01*
G75*
G02*
X54505000Y87550000I-305000J0D01*
G01*
X51845000Y87550000D01*
G75*
G02*
X51540000Y87855000I0J305000D01*
G01*
G37*
G36*
G01*
X46340000Y87855000D02*
X46340000Y88465000D01*
G75*
G02*
X46645000Y88770000I305000J0D01*
G01*
X49305000Y88770000D01*
G75*
G02*
X49610000Y88465000I0J-305000D01*
G01*
X49610000Y87855000D01*
G75*
G02*
X49305000Y87550000I-305000J0D01*
G01*
X46645000Y87550000D01*
G75*
G02*
X46340000Y87855000I0J305000D01*
G01*
G37*
G36*
G01*
X56936250Y28240000D02*
X56063750Y28240000D01*
G75*
G02*
X55840000Y28463750I0J223750D01*
G01*
X55840000Y28911250D01*
G75*
G02*
X56063750Y29135000I223750J0D01*
G01*
X56936250Y29135000D01*
G75*
G02*
X57160000Y28911250I0J-223750D01*
G01*
X57160000Y28463750D01*
G75*
G02*
X56936250Y28240000I-223750J0D01*
G01*
G37*
G36*
G01*
X56936250Y26365000D02*
X56063750Y26365000D01*
G75*
G02*
X55840000Y26588750I0J223750D01*
G01*
X55840000Y27036250D01*
G75*
G02*
X56063750Y27260000I223750J0D01*
G01*
X56936250Y27260000D01*
G75*
G02*
X57160000Y27036250I0J-223750D01*
G01*
X57160000Y26588750D01*
G75*
G02*
X56936250Y26365000I-223750J0D01*
G01*
G37*
G36*
G01*
X45936250Y28240000D02*
X45063750Y28240000D01*
G75*
G02*
X44840000Y28463750I0J223750D01*
G01*
X44840000Y28911250D01*
G75*
G02*
X45063750Y29135000I223750J0D01*
G01*
X45936250Y29135000D01*
G75*
G02*
X46160000Y28911250I0J-223750D01*
G01*
X46160000Y28463750D01*
G75*
G02*
X45936250Y28240000I-223750J0D01*
G01*
G37*
G36*
G01*
X45936250Y26365000D02*
X45063750Y26365000D01*
G75*
G02*
X44840000Y26588750I0J223750D01*
G01*
X44840000Y27036250D01*
G75*
G02*
X45063750Y27260000I223750J0D01*
G01*
X45936250Y27260000D01*
G75*
G02*
X46160000Y27036250I0J-223750D01*
G01*
X46160000Y26588750D01*
G75*
G02*
X45936250Y26365000I-223750J0D01*
G01*
G37*
G36*
G01*
X38065000Y40210000D02*
X38325000Y40210000D01*
G75*
G02*
X38455000Y40080000I0J-130000D01*
G01*
X38455000Y38470000D01*
G75*
G02*
X38325000Y38340000I-130000J0D01*
G01*
X38065000Y38340000D01*
G75*
G02*
X37935000Y38470000I0J130000D01*
G01*
X37935000Y40080000D01*
G75*
G02*
X38065000Y40210000I130000J0D01*
G01*
G37*
G36*
G01*
X36795000Y40210000D02*
X37055000Y40210000D01*
G75*
G02*
X37185000Y40080000I0J-130000D01*
G01*
X37185000Y38470000D01*
G75*
G02*
X37055000Y38340000I-130000J0D01*
G01*
X36795000Y38340000D01*
G75*
G02*
X36665000Y38470000I0J130000D01*
G01*
X36665000Y40080000D01*
G75*
G02*
X36795000Y40210000I130000J0D01*
G01*
G37*
G36*
G01*
X35525000Y40210000D02*
X35785000Y40210000D01*
G75*
G02*
X35915000Y40080000I0J-130000D01*
G01*
X35915000Y38470000D01*
G75*
G02*
X35785000Y38340000I-130000J0D01*
G01*
X35525000Y38340000D01*
G75*
G02*
X35395000Y38470000I0J130000D01*
G01*
X35395000Y40080000D01*
G75*
G02*
X35525000Y40210000I130000J0D01*
G01*
G37*
G36*
G01*
X34255000Y40210000D02*
X34515000Y40210000D01*
G75*
G02*
X34645000Y40080000I0J-130000D01*
G01*
X34645000Y38470000D01*
G75*
G02*
X34515000Y38340000I-130000J0D01*
G01*
X34255000Y38340000D01*
G75*
G02*
X34125000Y38470000I0J130000D01*
G01*
X34125000Y40080000D01*
G75*
G02*
X34255000Y40210000I130000J0D01*
G01*
G37*
G36*
G01*
X32985000Y40210000D02*
X33245000Y40210000D01*
G75*
G02*
X33375000Y40080000I0J-130000D01*
G01*
X33375000Y38470000D01*
G75*
G02*
X33245000Y38340000I-130000J0D01*
G01*
X32985000Y38340000D01*
G75*
G02*
X32855000Y38470000I0J130000D01*
G01*
X32855000Y40080000D01*
G75*
G02*
X32985000Y40210000I130000J0D01*
G01*
G37*
G36*
G01*
X31715000Y40210000D02*
X31975000Y40210000D01*
G75*
G02*
X32105000Y40080000I0J-130000D01*
G01*
X32105000Y38470000D01*
G75*
G02*
X31975000Y38340000I-130000J0D01*
G01*
X31715000Y38340000D01*
G75*
G02*
X31585000Y38470000I0J130000D01*
G01*
X31585000Y40080000D01*
G75*
G02*
X31715000Y40210000I130000J0D01*
G01*
G37*
G36*
G01*
X30445000Y40210000D02*
X30705000Y40210000D01*
G75*
G02*
X30835000Y40080000I0J-130000D01*
G01*
X30835000Y38470000D01*
G75*
G02*
X30705000Y38340000I-130000J0D01*
G01*
X30445000Y38340000D01*
G75*
G02*
X30315000Y38470000I0J130000D01*
G01*
X30315000Y40080000D01*
G75*
G02*
X30445000Y40210000I130000J0D01*
G01*
G37*
G36*
G01*
X29175000Y40210000D02*
X29435000Y40210000D01*
G75*
G02*
X29565000Y40080000I0J-130000D01*
G01*
X29565000Y38470000D01*
G75*
G02*
X29435000Y38340000I-130000J0D01*
G01*
X29175000Y38340000D01*
G75*
G02*
X29045000Y38470000I0J130000D01*
G01*
X29045000Y40080000D01*
G75*
G02*
X29175000Y40210000I130000J0D01*
G01*
G37*
G36*
G01*
X29175000Y45160000D02*
X29435000Y45160000D01*
G75*
G02*
X29565000Y45030000I0J-130000D01*
G01*
X29565000Y43420000D01*
G75*
G02*
X29435000Y43290000I-130000J0D01*
G01*
X29175000Y43290000D01*
G75*
G02*
X29045000Y43420000I0J130000D01*
G01*
X29045000Y45030000D01*
G75*
G02*
X29175000Y45160000I130000J0D01*
G01*
G37*
G36*
G01*
X30445000Y45160000D02*
X30705000Y45160000D01*
G75*
G02*
X30835000Y45030000I0J-130000D01*
G01*
X30835000Y43420000D01*
G75*
G02*
X30705000Y43290000I-130000J0D01*
G01*
X30445000Y43290000D01*
G75*
G02*
X30315000Y43420000I0J130000D01*
G01*
X30315000Y45030000D01*
G75*
G02*
X30445000Y45160000I130000J0D01*
G01*
G37*
G36*
G01*
X31715000Y45160000D02*
X31975000Y45160000D01*
G75*
G02*
X32105000Y45030000I0J-130000D01*
G01*
X32105000Y43420000D01*
G75*
G02*
X31975000Y43290000I-130000J0D01*
G01*
X31715000Y43290000D01*
G75*
G02*
X31585000Y43420000I0J130000D01*
G01*
X31585000Y45030000D01*
G75*
G02*
X31715000Y45160000I130000J0D01*
G01*
G37*
G36*
G01*
X32985000Y45160000D02*
X33245000Y45160000D01*
G75*
G02*
X33375000Y45030000I0J-130000D01*
G01*
X33375000Y43420000D01*
G75*
G02*
X33245000Y43290000I-130000J0D01*
G01*
X32985000Y43290000D01*
G75*
G02*
X32855000Y43420000I0J130000D01*
G01*
X32855000Y45030000D01*
G75*
G02*
X32985000Y45160000I130000J0D01*
G01*
G37*
G36*
G01*
X34255000Y45160000D02*
X34515000Y45160000D01*
G75*
G02*
X34645000Y45030000I0J-130000D01*
G01*
X34645000Y43420000D01*
G75*
G02*
X34515000Y43290000I-130000J0D01*
G01*
X34255000Y43290000D01*
G75*
G02*
X34125000Y43420000I0J130000D01*
G01*
X34125000Y45030000D01*
G75*
G02*
X34255000Y45160000I130000J0D01*
G01*
G37*
G36*
G01*
X35525000Y45160000D02*
X35785000Y45160000D01*
G75*
G02*
X35915000Y45030000I0J-130000D01*
G01*
X35915000Y43420000D01*
G75*
G02*
X35785000Y43290000I-130000J0D01*
G01*
X35525000Y43290000D01*
G75*
G02*
X35395000Y43420000I0J130000D01*
G01*
X35395000Y45030000D01*
G75*
G02*
X35525000Y45160000I130000J0D01*
G01*
G37*
G36*
G01*
X36795000Y45160000D02*
X37055000Y45160000D01*
G75*
G02*
X37185000Y45030000I0J-130000D01*
G01*
X37185000Y43420000D01*
G75*
G02*
X37055000Y43290000I-130000J0D01*
G01*
X36795000Y43290000D01*
G75*
G02*
X36665000Y43420000I0J130000D01*
G01*
X36665000Y45030000D01*
G75*
G02*
X36795000Y45160000I130000J0D01*
G01*
G37*
G36*
G01*
X38065000Y45160000D02*
X38325000Y45160000D01*
G75*
G02*
X38455000Y45030000I0J-130000D01*
G01*
X38455000Y43420000D01*
G75*
G02*
X38325000Y43290000I-130000J0D01*
G01*
X38065000Y43290000D01*
G75*
G02*
X37935000Y43420000I0J130000D01*
G01*
X37935000Y45030000D01*
G75*
G02*
X38065000Y45160000I130000J0D01*
G01*
G37*
G36*
G01*
X84315000Y40460000D02*
X84575000Y40460000D01*
G75*
G02*
X84705000Y40330000I0J-130000D01*
G01*
X84705000Y38720000D01*
G75*
G02*
X84575000Y38590000I-130000J0D01*
G01*
X84315000Y38590000D01*
G75*
G02*
X84185000Y38720000I0J130000D01*
G01*
X84185000Y40330000D01*
G75*
G02*
X84315000Y40460000I130000J0D01*
G01*
G37*
G36*
G01*
X83045000Y40460000D02*
X83305000Y40460000D01*
G75*
G02*
X83435000Y40330000I0J-130000D01*
G01*
X83435000Y38720000D01*
G75*
G02*
X83305000Y38590000I-130000J0D01*
G01*
X83045000Y38590000D01*
G75*
G02*
X82915000Y38720000I0J130000D01*
G01*
X82915000Y40330000D01*
G75*
G02*
X83045000Y40460000I130000J0D01*
G01*
G37*
G36*
G01*
X81775000Y40460000D02*
X82035000Y40460000D01*
G75*
G02*
X82165000Y40330000I0J-130000D01*
G01*
X82165000Y38720000D01*
G75*
G02*
X82035000Y38590000I-130000J0D01*
G01*
X81775000Y38590000D01*
G75*
G02*
X81645000Y38720000I0J130000D01*
G01*
X81645000Y40330000D01*
G75*
G02*
X81775000Y40460000I130000J0D01*
G01*
G37*
G36*
G01*
X80505000Y40460000D02*
X80765000Y40460000D01*
G75*
G02*
X80895000Y40330000I0J-130000D01*
G01*
X80895000Y38720000D01*
G75*
G02*
X80765000Y38590000I-130000J0D01*
G01*
X80505000Y38590000D01*
G75*
G02*
X80375000Y38720000I0J130000D01*
G01*
X80375000Y40330000D01*
G75*
G02*
X80505000Y40460000I130000J0D01*
G01*
G37*
G36*
G01*
X79235000Y40460000D02*
X79495000Y40460000D01*
G75*
G02*
X79625000Y40330000I0J-130000D01*
G01*
X79625000Y38720000D01*
G75*
G02*
X79495000Y38590000I-130000J0D01*
G01*
X79235000Y38590000D01*
G75*
G02*
X79105000Y38720000I0J130000D01*
G01*
X79105000Y40330000D01*
G75*
G02*
X79235000Y40460000I130000J0D01*
G01*
G37*
G36*
G01*
X77965000Y40460000D02*
X78225000Y40460000D01*
G75*
G02*
X78355000Y40330000I0J-130000D01*
G01*
X78355000Y38720000D01*
G75*
G02*
X78225000Y38590000I-130000J0D01*
G01*
X77965000Y38590000D01*
G75*
G02*
X77835000Y38720000I0J130000D01*
G01*
X77835000Y40330000D01*
G75*
G02*
X77965000Y40460000I130000J0D01*
G01*
G37*
G36*
G01*
X76695000Y40460000D02*
X76955000Y40460000D01*
G75*
G02*
X77085000Y40330000I0J-130000D01*
G01*
X77085000Y38720000D01*
G75*
G02*
X76955000Y38590000I-130000J0D01*
G01*
X76695000Y38590000D01*
G75*
G02*
X76565000Y38720000I0J130000D01*
G01*
X76565000Y40330000D01*
G75*
G02*
X76695000Y40460000I130000J0D01*
G01*
G37*
G36*
G01*
X75425000Y40460000D02*
X75685000Y40460000D01*
G75*
G02*
X75815000Y40330000I0J-130000D01*
G01*
X75815000Y38720000D01*
G75*
G02*
X75685000Y38590000I-130000J0D01*
G01*
X75425000Y38590000D01*
G75*
G02*
X75295000Y38720000I0J130000D01*
G01*
X75295000Y40330000D01*
G75*
G02*
X75425000Y40460000I130000J0D01*
G01*
G37*
G36*
G01*
X75425000Y45410000D02*
X75685000Y45410000D01*
G75*
G02*
X75815000Y45280000I0J-130000D01*
G01*
X75815000Y43670000D01*
G75*
G02*
X75685000Y43540000I-130000J0D01*
G01*
X75425000Y43540000D01*
G75*
G02*
X75295000Y43670000I0J130000D01*
G01*
X75295000Y45280000D01*
G75*
G02*
X75425000Y45410000I130000J0D01*
G01*
G37*
G36*
G01*
X76695000Y45410000D02*
X76955000Y45410000D01*
G75*
G02*
X77085000Y45280000I0J-130000D01*
G01*
X77085000Y43670000D01*
G75*
G02*
X76955000Y43540000I-130000J0D01*
G01*
X76695000Y43540000D01*
G75*
G02*
X76565000Y43670000I0J130000D01*
G01*
X76565000Y45280000D01*
G75*
G02*
X76695000Y45410000I130000J0D01*
G01*
G37*
G36*
G01*
X77965000Y45410000D02*
X78225000Y45410000D01*
G75*
G02*
X78355000Y45280000I0J-130000D01*
G01*
X78355000Y43670000D01*
G75*
G02*
X78225000Y43540000I-130000J0D01*
G01*
X77965000Y43540000D01*
G75*
G02*
X77835000Y43670000I0J130000D01*
G01*
X77835000Y45280000D01*
G75*
G02*
X77965000Y45410000I130000J0D01*
G01*
G37*
G36*
G01*
X79235000Y45410000D02*
X79495000Y45410000D01*
G75*
G02*
X79625000Y45280000I0J-130000D01*
G01*
X79625000Y43670000D01*
G75*
G02*
X79495000Y43540000I-130000J0D01*
G01*
X79235000Y43540000D01*
G75*
G02*
X79105000Y43670000I0J130000D01*
G01*
X79105000Y45280000D01*
G75*
G02*
X79235000Y45410000I130000J0D01*
G01*
G37*
G36*
G01*
X80505000Y45410000D02*
X80765000Y45410000D01*
G75*
G02*
X80895000Y45280000I0J-130000D01*
G01*
X80895000Y43670000D01*
G75*
G02*
X80765000Y43540000I-130000J0D01*
G01*
X80505000Y43540000D01*
G75*
G02*
X80375000Y43670000I0J130000D01*
G01*
X80375000Y45280000D01*
G75*
G02*
X80505000Y45410000I130000J0D01*
G01*
G37*
G36*
G01*
X81775000Y45410000D02*
X82035000Y45410000D01*
G75*
G02*
X82165000Y45280000I0J-130000D01*
G01*
X82165000Y43670000D01*
G75*
G02*
X82035000Y43540000I-130000J0D01*
G01*
X81775000Y43540000D01*
G75*
G02*
X81645000Y43670000I0J130000D01*
G01*
X81645000Y45280000D01*
G75*
G02*
X81775000Y45410000I130000J0D01*
G01*
G37*
G36*
G01*
X83045000Y45410000D02*
X83305000Y45410000D01*
G75*
G02*
X83435000Y45280000I0J-130000D01*
G01*
X83435000Y43670000D01*
G75*
G02*
X83305000Y43540000I-130000J0D01*
G01*
X83045000Y43540000D01*
G75*
G02*
X82915000Y43670000I0J130000D01*
G01*
X82915000Y45280000D01*
G75*
G02*
X83045000Y45410000I130000J0D01*
G01*
G37*
G36*
G01*
X84315000Y45410000D02*
X84575000Y45410000D01*
G75*
G02*
X84705000Y45280000I0J-130000D01*
G01*
X84705000Y43670000D01*
G75*
G02*
X84575000Y43540000I-130000J0D01*
G01*
X84315000Y43540000D01*
G75*
G02*
X84185000Y43670000I0J130000D01*
G01*
X84185000Y45280000D01*
G75*
G02*
X84315000Y45410000I130000J0D01*
G01*
G37*
G36*
G01*
X27315000Y40210000D02*
X27575000Y40210000D01*
G75*
G02*
X27705000Y40080000I0J-130000D01*
G01*
X27705000Y38470000D01*
G75*
G02*
X27575000Y38340000I-130000J0D01*
G01*
X27315000Y38340000D01*
G75*
G02*
X27185000Y38470000I0J130000D01*
G01*
X27185000Y40080000D01*
G75*
G02*
X27315000Y40210000I130000J0D01*
G01*
G37*
G36*
G01*
X26045000Y40210000D02*
X26305000Y40210000D01*
G75*
G02*
X26435000Y40080000I0J-130000D01*
G01*
X26435000Y38470000D01*
G75*
G02*
X26305000Y38340000I-130000J0D01*
G01*
X26045000Y38340000D01*
G75*
G02*
X25915000Y38470000I0J130000D01*
G01*
X25915000Y40080000D01*
G75*
G02*
X26045000Y40210000I130000J0D01*
G01*
G37*
G36*
G01*
X24775000Y40210000D02*
X25035000Y40210000D01*
G75*
G02*
X25165000Y40080000I0J-130000D01*
G01*
X25165000Y38470000D01*
G75*
G02*
X25035000Y38340000I-130000J0D01*
G01*
X24775000Y38340000D01*
G75*
G02*
X24645000Y38470000I0J130000D01*
G01*
X24645000Y40080000D01*
G75*
G02*
X24775000Y40210000I130000J0D01*
G01*
G37*
G36*
G01*
X23505000Y40210000D02*
X23765000Y40210000D01*
G75*
G02*
X23895000Y40080000I0J-130000D01*
G01*
X23895000Y38470000D01*
G75*
G02*
X23765000Y38340000I-130000J0D01*
G01*
X23505000Y38340000D01*
G75*
G02*
X23375000Y38470000I0J130000D01*
G01*
X23375000Y40080000D01*
G75*
G02*
X23505000Y40210000I130000J0D01*
G01*
G37*
G36*
G01*
X22235000Y40210000D02*
X22495000Y40210000D01*
G75*
G02*
X22625000Y40080000I0J-130000D01*
G01*
X22625000Y38470000D01*
G75*
G02*
X22495000Y38340000I-130000J0D01*
G01*
X22235000Y38340000D01*
G75*
G02*
X22105000Y38470000I0J130000D01*
G01*
X22105000Y40080000D01*
G75*
G02*
X22235000Y40210000I130000J0D01*
G01*
G37*
G36*
G01*
X20965000Y40210000D02*
X21225000Y40210000D01*
G75*
G02*
X21355000Y40080000I0J-130000D01*
G01*
X21355000Y38470000D01*
G75*
G02*
X21225000Y38340000I-130000J0D01*
G01*
X20965000Y38340000D01*
G75*
G02*
X20835000Y38470000I0J130000D01*
G01*
X20835000Y40080000D01*
G75*
G02*
X20965000Y40210000I130000J0D01*
G01*
G37*
G36*
G01*
X19695000Y40210000D02*
X19955000Y40210000D01*
G75*
G02*
X20085000Y40080000I0J-130000D01*
G01*
X20085000Y38470000D01*
G75*
G02*
X19955000Y38340000I-130000J0D01*
G01*
X19695000Y38340000D01*
G75*
G02*
X19565000Y38470000I0J130000D01*
G01*
X19565000Y40080000D01*
G75*
G02*
X19695000Y40210000I130000J0D01*
G01*
G37*
G36*
G01*
X18425000Y40210000D02*
X18685000Y40210000D01*
G75*
G02*
X18815000Y40080000I0J-130000D01*
G01*
X18815000Y38470000D01*
G75*
G02*
X18685000Y38340000I-130000J0D01*
G01*
X18425000Y38340000D01*
G75*
G02*
X18295000Y38470000I0J130000D01*
G01*
X18295000Y40080000D01*
G75*
G02*
X18425000Y40210000I130000J0D01*
G01*
G37*
G36*
G01*
X18425000Y45160000D02*
X18685000Y45160000D01*
G75*
G02*
X18815000Y45030000I0J-130000D01*
G01*
X18815000Y43420000D01*
G75*
G02*
X18685000Y43290000I-130000J0D01*
G01*
X18425000Y43290000D01*
G75*
G02*
X18295000Y43420000I0J130000D01*
G01*
X18295000Y45030000D01*
G75*
G02*
X18425000Y45160000I130000J0D01*
G01*
G37*
G36*
G01*
X19695000Y45160000D02*
X19955000Y45160000D01*
G75*
G02*
X20085000Y45030000I0J-130000D01*
G01*
X20085000Y43420000D01*
G75*
G02*
X19955000Y43290000I-130000J0D01*
G01*
X19695000Y43290000D01*
G75*
G02*
X19565000Y43420000I0J130000D01*
G01*
X19565000Y45030000D01*
G75*
G02*
X19695000Y45160000I130000J0D01*
G01*
G37*
G36*
G01*
X20965000Y45160000D02*
X21225000Y45160000D01*
G75*
G02*
X21355000Y45030000I0J-130000D01*
G01*
X21355000Y43420000D01*
G75*
G02*
X21225000Y43290000I-130000J0D01*
G01*
X20965000Y43290000D01*
G75*
G02*
X20835000Y43420000I0J130000D01*
G01*
X20835000Y45030000D01*
G75*
G02*
X20965000Y45160000I130000J0D01*
G01*
G37*
G36*
G01*
X22235000Y45160000D02*
X22495000Y45160000D01*
G75*
G02*
X22625000Y45030000I0J-130000D01*
G01*
X22625000Y43420000D01*
G75*
G02*
X22495000Y43290000I-130000J0D01*
G01*
X22235000Y43290000D01*
G75*
G02*
X22105000Y43420000I0J130000D01*
G01*
X22105000Y45030000D01*
G75*
G02*
X22235000Y45160000I130000J0D01*
G01*
G37*
G36*
G01*
X23505000Y45160000D02*
X23765000Y45160000D01*
G75*
G02*
X23895000Y45030000I0J-130000D01*
G01*
X23895000Y43420000D01*
G75*
G02*
X23765000Y43290000I-130000J0D01*
G01*
X23505000Y43290000D01*
G75*
G02*
X23375000Y43420000I0J130000D01*
G01*
X23375000Y45030000D01*
G75*
G02*
X23505000Y45160000I130000J0D01*
G01*
G37*
G36*
G01*
X24775000Y45160000D02*
X25035000Y45160000D01*
G75*
G02*
X25165000Y45030000I0J-130000D01*
G01*
X25165000Y43420000D01*
G75*
G02*
X25035000Y43290000I-130000J0D01*
G01*
X24775000Y43290000D01*
G75*
G02*
X24645000Y43420000I0J130000D01*
G01*
X24645000Y45030000D01*
G75*
G02*
X24775000Y45160000I130000J0D01*
G01*
G37*
G36*
G01*
X26045000Y45160000D02*
X26305000Y45160000D01*
G75*
G02*
X26435000Y45030000I0J-130000D01*
G01*
X26435000Y43420000D01*
G75*
G02*
X26305000Y43290000I-130000J0D01*
G01*
X26045000Y43290000D01*
G75*
G02*
X25915000Y43420000I0J130000D01*
G01*
X25915000Y45030000D01*
G75*
G02*
X26045000Y45160000I130000J0D01*
G01*
G37*
G36*
G01*
X27315000Y45160000D02*
X27575000Y45160000D01*
G75*
G02*
X27705000Y45030000I0J-130000D01*
G01*
X27705000Y43420000D01*
G75*
G02*
X27575000Y43290000I-130000J0D01*
G01*
X27315000Y43290000D01*
G75*
G02*
X27185000Y43420000I0J130000D01*
G01*
X27185000Y45030000D01*
G75*
G02*
X27315000Y45160000I130000J0D01*
G01*
G37*
G36*
G01*
X73565000Y40460000D02*
X73825000Y40460000D01*
G75*
G02*
X73955000Y40330000I0J-130000D01*
G01*
X73955000Y38720000D01*
G75*
G02*
X73825000Y38590000I-130000J0D01*
G01*
X73565000Y38590000D01*
G75*
G02*
X73435000Y38720000I0J130000D01*
G01*
X73435000Y40330000D01*
G75*
G02*
X73565000Y40460000I130000J0D01*
G01*
G37*
G36*
G01*
X72295000Y40460000D02*
X72555000Y40460000D01*
G75*
G02*
X72685000Y40330000I0J-130000D01*
G01*
X72685000Y38720000D01*
G75*
G02*
X72555000Y38590000I-130000J0D01*
G01*
X72295000Y38590000D01*
G75*
G02*
X72165000Y38720000I0J130000D01*
G01*
X72165000Y40330000D01*
G75*
G02*
X72295000Y40460000I130000J0D01*
G01*
G37*
G36*
G01*
X71025000Y40460000D02*
X71285000Y40460000D01*
G75*
G02*
X71415000Y40330000I0J-130000D01*
G01*
X71415000Y38720000D01*
G75*
G02*
X71285000Y38590000I-130000J0D01*
G01*
X71025000Y38590000D01*
G75*
G02*
X70895000Y38720000I0J130000D01*
G01*
X70895000Y40330000D01*
G75*
G02*
X71025000Y40460000I130000J0D01*
G01*
G37*
G36*
G01*
X69755000Y40460000D02*
X70015000Y40460000D01*
G75*
G02*
X70145000Y40330000I0J-130000D01*
G01*
X70145000Y38720000D01*
G75*
G02*
X70015000Y38590000I-130000J0D01*
G01*
X69755000Y38590000D01*
G75*
G02*
X69625000Y38720000I0J130000D01*
G01*
X69625000Y40330000D01*
G75*
G02*
X69755000Y40460000I130000J0D01*
G01*
G37*
G36*
G01*
X68485000Y40460000D02*
X68745000Y40460000D01*
G75*
G02*
X68875000Y40330000I0J-130000D01*
G01*
X68875000Y38720000D01*
G75*
G02*
X68745000Y38590000I-130000J0D01*
G01*
X68485000Y38590000D01*
G75*
G02*
X68355000Y38720000I0J130000D01*
G01*
X68355000Y40330000D01*
G75*
G02*
X68485000Y40460000I130000J0D01*
G01*
G37*
G36*
G01*
X67215000Y40460000D02*
X67475000Y40460000D01*
G75*
G02*
X67605000Y40330000I0J-130000D01*
G01*
X67605000Y38720000D01*
G75*
G02*
X67475000Y38590000I-130000J0D01*
G01*
X67215000Y38590000D01*
G75*
G02*
X67085000Y38720000I0J130000D01*
G01*
X67085000Y40330000D01*
G75*
G02*
X67215000Y40460000I130000J0D01*
G01*
G37*
G36*
G01*
X65945000Y40460000D02*
X66205000Y40460000D01*
G75*
G02*
X66335000Y40330000I0J-130000D01*
G01*
X66335000Y38720000D01*
G75*
G02*
X66205000Y38590000I-130000J0D01*
G01*
X65945000Y38590000D01*
G75*
G02*
X65815000Y38720000I0J130000D01*
G01*
X65815000Y40330000D01*
G75*
G02*
X65945000Y40460000I130000J0D01*
G01*
G37*
G36*
G01*
X64675000Y40460000D02*
X64935000Y40460000D01*
G75*
G02*
X65065000Y40330000I0J-130000D01*
G01*
X65065000Y38720000D01*
G75*
G02*
X64935000Y38590000I-130000J0D01*
G01*
X64675000Y38590000D01*
G75*
G02*
X64545000Y38720000I0J130000D01*
G01*
X64545000Y40330000D01*
G75*
G02*
X64675000Y40460000I130000J0D01*
G01*
G37*
G36*
G01*
X64675000Y45410000D02*
X64935000Y45410000D01*
G75*
G02*
X65065000Y45280000I0J-130000D01*
G01*
X65065000Y43670000D01*
G75*
G02*
X64935000Y43540000I-130000J0D01*
G01*
X64675000Y43540000D01*
G75*
G02*
X64545000Y43670000I0J130000D01*
G01*
X64545000Y45280000D01*
G75*
G02*
X64675000Y45410000I130000J0D01*
G01*
G37*
G36*
G01*
X65945000Y45410000D02*
X66205000Y45410000D01*
G75*
G02*
X66335000Y45280000I0J-130000D01*
G01*
X66335000Y43670000D01*
G75*
G02*
X66205000Y43540000I-130000J0D01*
G01*
X65945000Y43540000D01*
G75*
G02*
X65815000Y43670000I0J130000D01*
G01*
X65815000Y45280000D01*
G75*
G02*
X65945000Y45410000I130000J0D01*
G01*
G37*
G36*
G01*
X67215000Y45410000D02*
X67475000Y45410000D01*
G75*
G02*
X67605000Y45280000I0J-130000D01*
G01*
X67605000Y43670000D01*
G75*
G02*
X67475000Y43540000I-130000J0D01*
G01*
X67215000Y43540000D01*
G75*
G02*
X67085000Y43670000I0J130000D01*
G01*
X67085000Y45280000D01*
G75*
G02*
X67215000Y45410000I130000J0D01*
G01*
G37*
G36*
G01*
X68485000Y45410000D02*
X68745000Y45410000D01*
G75*
G02*
X68875000Y45280000I0J-130000D01*
G01*
X68875000Y43670000D01*
G75*
G02*
X68745000Y43540000I-130000J0D01*
G01*
X68485000Y43540000D01*
G75*
G02*
X68355000Y43670000I0J130000D01*
G01*
X68355000Y45280000D01*
G75*
G02*
X68485000Y45410000I130000J0D01*
G01*
G37*
G36*
G01*
X69755000Y45410000D02*
X70015000Y45410000D01*
G75*
G02*
X70145000Y45280000I0J-130000D01*
G01*
X70145000Y43670000D01*
G75*
G02*
X70015000Y43540000I-130000J0D01*
G01*
X69755000Y43540000D01*
G75*
G02*
X69625000Y43670000I0J130000D01*
G01*
X69625000Y45280000D01*
G75*
G02*
X69755000Y45410000I130000J0D01*
G01*
G37*
G36*
G01*
X71025000Y45410000D02*
X71285000Y45410000D01*
G75*
G02*
X71415000Y45280000I0J-130000D01*
G01*
X71415000Y43670000D01*
G75*
G02*
X71285000Y43540000I-130000J0D01*
G01*
X71025000Y43540000D01*
G75*
G02*
X70895000Y43670000I0J130000D01*
G01*
X70895000Y45280000D01*
G75*
G02*
X71025000Y45410000I130000J0D01*
G01*
G37*
G36*
G01*
X72295000Y45410000D02*
X72555000Y45410000D01*
G75*
G02*
X72685000Y45280000I0J-130000D01*
G01*
X72685000Y43670000D01*
G75*
G02*
X72555000Y43540000I-130000J0D01*
G01*
X72295000Y43540000D01*
G75*
G02*
X72165000Y43670000I0J130000D01*
G01*
X72165000Y45280000D01*
G75*
G02*
X72295000Y45410000I130000J0D01*
G01*
G37*
G36*
G01*
X73565000Y45410000D02*
X73825000Y45410000D01*
G75*
G02*
X73955000Y45280000I0J-130000D01*
G01*
X73955000Y43670000D01*
G75*
G02*
X73825000Y43540000I-130000J0D01*
G01*
X73565000Y43540000D01*
G75*
G02*
X73435000Y43670000I0J130000D01*
G01*
X73435000Y45280000D01*
G75*
G02*
X73565000Y45410000I130000J0D01*
G01*
G37*
G36*
G01*
X21685000Y16790000D02*
X21425000Y16790000D01*
G75*
G02*
X21295000Y16920000I0J130000D01*
G01*
X21295000Y18530000D01*
G75*
G02*
X21425000Y18660000I130000J0D01*
G01*
X21685000Y18660000D01*
G75*
G02*
X21815000Y18530000I0J-130000D01*
G01*
X21815000Y16920000D01*
G75*
G02*
X21685000Y16790000I-130000J0D01*
G01*
G37*
G36*
G01*
X22955000Y16790000D02*
X22695000Y16790000D01*
G75*
G02*
X22565000Y16920000I0J130000D01*
G01*
X22565000Y18530000D01*
G75*
G02*
X22695000Y18660000I130000J0D01*
G01*
X22955000Y18660000D01*
G75*
G02*
X23085000Y18530000I0J-130000D01*
G01*
X23085000Y16920000D01*
G75*
G02*
X22955000Y16790000I-130000J0D01*
G01*
G37*
G36*
G01*
X24225000Y16790000D02*
X23965000Y16790000D01*
G75*
G02*
X23835000Y16920000I0J130000D01*
G01*
X23835000Y18530000D01*
G75*
G02*
X23965000Y18660000I130000J0D01*
G01*
X24225000Y18660000D01*
G75*
G02*
X24355000Y18530000I0J-130000D01*
G01*
X24355000Y16920000D01*
G75*
G02*
X24225000Y16790000I-130000J0D01*
G01*
G37*
G36*
G01*
X25495000Y16790000D02*
X25235000Y16790000D01*
G75*
G02*
X25105000Y16920000I0J130000D01*
G01*
X25105000Y18530000D01*
G75*
G02*
X25235000Y18660000I130000J0D01*
G01*
X25495000Y18660000D01*
G75*
G02*
X25625000Y18530000I0J-130000D01*
G01*
X25625000Y16920000D01*
G75*
G02*
X25495000Y16790000I-130000J0D01*
G01*
G37*
G36*
G01*
X26765000Y16790000D02*
X26505000Y16790000D01*
G75*
G02*
X26375000Y16920000I0J130000D01*
G01*
X26375000Y18530000D01*
G75*
G02*
X26505000Y18660000I130000J0D01*
G01*
X26765000Y18660000D01*
G75*
G02*
X26895000Y18530000I0J-130000D01*
G01*
X26895000Y16920000D01*
G75*
G02*
X26765000Y16790000I-130000J0D01*
G01*
G37*
G36*
G01*
X28035000Y16790000D02*
X27775000Y16790000D01*
G75*
G02*
X27645000Y16920000I0J130000D01*
G01*
X27645000Y18530000D01*
G75*
G02*
X27775000Y18660000I130000J0D01*
G01*
X28035000Y18660000D01*
G75*
G02*
X28165000Y18530000I0J-130000D01*
G01*
X28165000Y16920000D01*
G75*
G02*
X28035000Y16790000I-130000J0D01*
G01*
G37*
G36*
G01*
X29305000Y16790000D02*
X29045000Y16790000D01*
G75*
G02*
X28915000Y16920000I0J130000D01*
G01*
X28915000Y18530000D01*
G75*
G02*
X29045000Y18660000I130000J0D01*
G01*
X29305000Y18660000D01*
G75*
G02*
X29435000Y18530000I0J-130000D01*
G01*
X29435000Y16920000D01*
G75*
G02*
X29305000Y16790000I-130000J0D01*
G01*
G37*
G36*
G01*
X30575000Y16790000D02*
X30315000Y16790000D01*
G75*
G02*
X30185000Y16920000I0J130000D01*
G01*
X30185000Y18530000D01*
G75*
G02*
X30315000Y18660000I130000J0D01*
G01*
X30575000Y18660000D01*
G75*
G02*
X30705000Y18530000I0J-130000D01*
G01*
X30705000Y16920000D01*
G75*
G02*
X30575000Y16790000I-130000J0D01*
G01*
G37*
G36*
G01*
X30575000Y11840000D02*
X30315000Y11840000D01*
G75*
G02*
X30185000Y11970000I0J130000D01*
G01*
X30185000Y13580000D01*
G75*
G02*
X30315000Y13710000I130000J0D01*
G01*
X30575000Y13710000D01*
G75*
G02*
X30705000Y13580000I0J-130000D01*
G01*
X30705000Y11970000D01*
G75*
G02*
X30575000Y11840000I-130000J0D01*
G01*
G37*
G36*
G01*
X29305000Y11840000D02*
X29045000Y11840000D01*
G75*
G02*
X28915000Y11970000I0J130000D01*
G01*
X28915000Y13580000D01*
G75*
G02*
X29045000Y13710000I130000J0D01*
G01*
X29305000Y13710000D01*
G75*
G02*
X29435000Y13580000I0J-130000D01*
G01*
X29435000Y11970000D01*
G75*
G02*
X29305000Y11840000I-130000J0D01*
G01*
G37*
G36*
G01*
X28035000Y11840000D02*
X27775000Y11840000D01*
G75*
G02*
X27645000Y11970000I0J130000D01*
G01*
X27645000Y13580000D01*
G75*
G02*
X27775000Y13710000I130000J0D01*
G01*
X28035000Y13710000D01*
G75*
G02*
X28165000Y13580000I0J-130000D01*
G01*
X28165000Y11970000D01*
G75*
G02*
X28035000Y11840000I-130000J0D01*
G01*
G37*
G36*
G01*
X26765000Y11840000D02*
X26505000Y11840000D01*
G75*
G02*
X26375000Y11970000I0J130000D01*
G01*
X26375000Y13580000D01*
G75*
G02*
X26505000Y13710000I130000J0D01*
G01*
X26765000Y13710000D01*
G75*
G02*
X26895000Y13580000I0J-130000D01*
G01*
X26895000Y11970000D01*
G75*
G02*
X26765000Y11840000I-130000J0D01*
G01*
G37*
G36*
G01*
X25495000Y11840000D02*
X25235000Y11840000D01*
G75*
G02*
X25105000Y11970000I0J130000D01*
G01*
X25105000Y13580000D01*
G75*
G02*
X25235000Y13710000I130000J0D01*
G01*
X25495000Y13710000D01*
G75*
G02*
X25625000Y13580000I0J-130000D01*
G01*
X25625000Y11970000D01*
G75*
G02*
X25495000Y11840000I-130000J0D01*
G01*
G37*
G36*
G01*
X24225000Y11840000D02*
X23965000Y11840000D01*
G75*
G02*
X23835000Y11970000I0J130000D01*
G01*
X23835000Y13580000D01*
G75*
G02*
X23965000Y13710000I130000J0D01*
G01*
X24225000Y13710000D01*
G75*
G02*
X24355000Y13580000I0J-130000D01*
G01*
X24355000Y11970000D01*
G75*
G02*
X24225000Y11840000I-130000J0D01*
G01*
G37*
G36*
G01*
X22955000Y11840000D02*
X22695000Y11840000D01*
G75*
G02*
X22565000Y11970000I0J130000D01*
G01*
X22565000Y13580000D01*
G75*
G02*
X22695000Y13710000I130000J0D01*
G01*
X22955000Y13710000D01*
G75*
G02*
X23085000Y13580000I0J-130000D01*
G01*
X23085000Y11970000D01*
G75*
G02*
X22955000Y11840000I-130000J0D01*
G01*
G37*
G36*
G01*
X21685000Y11840000D02*
X21425000Y11840000D01*
G75*
G02*
X21295000Y11970000I0J130000D01*
G01*
X21295000Y13580000D01*
G75*
G02*
X21425000Y13710000I130000J0D01*
G01*
X21685000Y13710000D01*
G75*
G02*
X21815000Y13580000I0J-130000D01*
G01*
X21815000Y11970000D01*
G75*
G02*
X21685000Y11840000I-130000J0D01*
G01*
G37*
G36*
G01*
X74685000Y19790000D02*
X74425000Y19790000D01*
G75*
G02*
X74295000Y19920000I0J130000D01*
G01*
X74295000Y21530000D01*
G75*
G02*
X74425000Y21660000I130000J0D01*
G01*
X74685000Y21660000D01*
G75*
G02*
X74815000Y21530000I0J-130000D01*
G01*
X74815000Y19920000D01*
G75*
G02*
X74685000Y19790000I-130000J0D01*
G01*
G37*
G36*
G01*
X75955000Y19790000D02*
X75695000Y19790000D01*
G75*
G02*
X75565000Y19920000I0J130000D01*
G01*
X75565000Y21530000D01*
G75*
G02*
X75695000Y21660000I130000J0D01*
G01*
X75955000Y21660000D01*
G75*
G02*
X76085000Y21530000I0J-130000D01*
G01*
X76085000Y19920000D01*
G75*
G02*
X75955000Y19790000I-130000J0D01*
G01*
G37*
G36*
G01*
X77225000Y19790000D02*
X76965000Y19790000D01*
G75*
G02*
X76835000Y19920000I0J130000D01*
G01*
X76835000Y21530000D01*
G75*
G02*
X76965000Y21660000I130000J0D01*
G01*
X77225000Y21660000D01*
G75*
G02*
X77355000Y21530000I0J-130000D01*
G01*
X77355000Y19920000D01*
G75*
G02*
X77225000Y19790000I-130000J0D01*
G01*
G37*
G36*
G01*
X78495000Y19790000D02*
X78235000Y19790000D01*
G75*
G02*
X78105000Y19920000I0J130000D01*
G01*
X78105000Y21530000D01*
G75*
G02*
X78235000Y21660000I130000J0D01*
G01*
X78495000Y21660000D01*
G75*
G02*
X78625000Y21530000I0J-130000D01*
G01*
X78625000Y19920000D01*
G75*
G02*
X78495000Y19790000I-130000J0D01*
G01*
G37*
G36*
G01*
X79765000Y19790000D02*
X79505000Y19790000D01*
G75*
G02*
X79375000Y19920000I0J130000D01*
G01*
X79375000Y21530000D01*
G75*
G02*
X79505000Y21660000I130000J0D01*
G01*
X79765000Y21660000D01*
G75*
G02*
X79895000Y21530000I0J-130000D01*
G01*
X79895000Y19920000D01*
G75*
G02*
X79765000Y19790000I-130000J0D01*
G01*
G37*
G36*
G01*
X81035000Y19790000D02*
X80775000Y19790000D01*
G75*
G02*
X80645000Y19920000I0J130000D01*
G01*
X80645000Y21530000D01*
G75*
G02*
X80775000Y21660000I130000J0D01*
G01*
X81035000Y21660000D01*
G75*
G02*
X81165000Y21530000I0J-130000D01*
G01*
X81165000Y19920000D01*
G75*
G02*
X81035000Y19790000I-130000J0D01*
G01*
G37*
G36*
G01*
X82305000Y19790000D02*
X82045000Y19790000D01*
G75*
G02*
X81915000Y19920000I0J130000D01*
G01*
X81915000Y21530000D01*
G75*
G02*
X82045000Y21660000I130000J0D01*
G01*
X82305000Y21660000D01*
G75*
G02*
X82435000Y21530000I0J-130000D01*
G01*
X82435000Y19920000D01*
G75*
G02*
X82305000Y19790000I-130000J0D01*
G01*
G37*
G36*
G01*
X83575000Y19790000D02*
X83315000Y19790000D01*
G75*
G02*
X83185000Y19920000I0J130000D01*
G01*
X83185000Y21530000D01*
G75*
G02*
X83315000Y21660000I130000J0D01*
G01*
X83575000Y21660000D01*
G75*
G02*
X83705000Y21530000I0J-130000D01*
G01*
X83705000Y19920000D01*
G75*
G02*
X83575000Y19790000I-130000J0D01*
G01*
G37*
G36*
G01*
X83575000Y14840000D02*
X83315000Y14840000D01*
G75*
G02*
X83185000Y14970000I0J130000D01*
G01*
X83185000Y16580000D01*
G75*
G02*
X83315000Y16710000I130000J0D01*
G01*
X83575000Y16710000D01*
G75*
G02*
X83705000Y16580000I0J-130000D01*
G01*
X83705000Y14970000D01*
G75*
G02*
X83575000Y14840000I-130000J0D01*
G01*
G37*
G36*
G01*
X82305000Y14840000D02*
X82045000Y14840000D01*
G75*
G02*
X81915000Y14970000I0J130000D01*
G01*
X81915000Y16580000D01*
G75*
G02*
X82045000Y16710000I130000J0D01*
G01*
X82305000Y16710000D01*
G75*
G02*
X82435000Y16580000I0J-130000D01*
G01*
X82435000Y14970000D01*
G75*
G02*
X82305000Y14840000I-130000J0D01*
G01*
G37*
G36*
G01*
X81035000Y14840000D02*
X80775000Y14840000D01*
G75*
G02*
X80645000Y14970000I0J130000D01*
G01*
X80645000Y16580000D01*
G75*
G02*
X80775000Y16710000I130000J0D01*
G01*
X81035000Y16710000D01*
G75*
G02*
X81165000Y16580000I0J-130000D01*
G01*
X81165000Y14970000D01*
G75*
G02*
X81035000Y14840000I-130000J0D01*
G01*
G37*
G36*
G01*
X79765000Y14840000D02*
X79505000Y14840000D01*
G75*
G02*
X79375000Y14970000I0J130000D01*
G01*
X79375000Y16580000D01*
G75*
G02*
X79505000Y16710000I130000J0D01*
G01*
X79765000Y16710000D01*
G75*
G02*
X79895000Y16580000I0J-130000D01*
G01*
X79895000Y14970000D01*
G75*
G02*
X79765000Y14840000I-130000J0D01*
G01*
G37*
G36*
G01*
X78495000Y14840000D02*
X78235000Y14840000D01*
G75*
G02*
X78105000Y14970000I0J130000D01*
G01*
X78105000Y16580000D01*
G75*
G02*
X78235000Y16710000I130000J0D01*
G01*
X78495000Y16710000D01*
G75*
G02*
X78625000Y16580000I0J-130000D01*
G01*
X78625000Y14970000D01*
G75*
G02*
X78495000Y14840000I-130000J0D01*
G01*
G37*
G36*
G01*
X77225000Y14840000D02*
X76965000Y14840000D01*
G75*
G02*
X76835000Y14970000I0J130000D01*
G01*
X76835000Y16580000D01*
G75*
G02*
X76965000Y16710000I130000J0D01*
G01*
X77225000Y16710000D01*
G75*
G02*
X77355000Y16580000I0J-130000D01*
G01*
X77355000Y14970000D01*
G75*
G02*
X77225000Y14840000I-130000J0D01*
G01*
G37*
G36*
G01*
X75955000Y14840000D02*
X75695000Y14840000D01*
G75*
G02*
X75565000Y14970000I0J130000D01*
G01*
X75565000Y16580000D01*
G75*
G02*
X75695000Y16710000I130000J0D01*
G01*
X75955000Y16710000D01*
G75*
G02*
X76085000Y16580000I0J-130000D01*
G01*
X76085000Y14970000D01*
G75*
G02*
X75955000Y14840000I-130000J0D01*
G01*
G37*
G36*
G01*
X74685000Y14840000D02*
X74425000Y14840000D01*
G75*
G02*
X74295000Y14970000I0J130000D01*
G01*
X74295000Y16580000D01*
G75*
G02*
X74425000Y16710000I130000J0D01*
G01*
X74685000Y16710000D01*
G75*
G02*
X74815000Y16580000I0J-130000D01*
G01*
X74815000Y14970000D01*
G75*
G02*
X74685000Y14840000I-130000J0D01*
G01*
G37*
D12*
X53300000Y28150000D03*
X48700000Y28150000D03*
X51000000Y28150000D03*
D13*
X51000000Y21850000D03*
G36*
G01*
X88960000Y53105000D02*
X88960000Y51895000D01*
G75*
G02*
X88355000Y51290000I-605000J0D01*
G01*
X85645000Y51290000D01*
G75*
G02*
X85040000Y51895000I0J605000D01*
G01*
X85040000Y53105000D01*
G75*
G02*
X85645000Y53710000I605000J0D01*
G01*
X88355000Y53710000D01*
G75*
G02*
X88960000Y53105000I0J-605000D01*
G01*
G37*
G36*
G01*
X88960000Y57605000D02*
X88960000Y56395000D01*
G75*
G02*
X88355000Y55790000I-605000J0D01*
G01*
X85645000Y55790000D01*
G75*
G02*
X85040000Y56395000I0J605000D01*
G01*
X85040000Y57605000D01*
G75*
G02*
X85645000Y58210000I605000J0D01*
G01*
X88355000Y58210000D01*
G75*
G02*
X88960000Y57605000I0J-605000D01*
G01*
G37*
G36*
G01*
X88960000Y79355000D02*
X88960000Y78145000D01*
G75*
G02*
X88355000Y77540000I-605000J0D01*
G01*
X85645000Y77540000D01*
G75*
G02*
X85040000Y78145000I0J605000D01*
G01*
X85040000Y79355000D01*
G75*
G02*
X85645000Y79960000I605000J0D01*
G01*
X88355000Y79960000D01*
G75*
G02*
X88960000Y79355000I0J-605000D01*
G01*
G37*
G36*
G01*
X88960000Y83855000D02*
X88960000Y82645000D01*
G75*
G02*
X88355000Y82040000I-605000J0D01*
G01*
X85645000Y82040000D01*
G75*
G02*
X85040000Y82645000I0J605000D01*
G01*
X85040000Y83855000D01*
G75*
G02*
X85645000Y84460000I605000J0D01*
G01*
X88355000Y84460000D01*
G75*
G02*
X88960000Y83855000I0J-605000D01*
G01*
G37*
G36*
G01*
X88960000Y88355000D02*
X88960000Y87145000D01*
G75*
G02*
X88355000Y86540000I-605000J0D01*
G01*
X85645000Y86540000D01*
G75*
G02*
X85040000Y87145000I0J605000D01*
G01*
X85040000Y88355000D01*
G75*
G02*
X85645000Y88960000I605000J0D01*
G01*
X88355000Y88960000D01*
G75*
G02*
X88960000Y88355000I0J-605000D01*
G01*
G37*
G36*
G01*
X88960000Y71855000D02*
X88960000Y70645000D01*
G75*
G02*
X88355000Y70040000I-605000J0D01*
G01*
X85645000Y70040000D01*
G75*
G02*
X85040000Y70645000I0J605000D01*
G01*
X85040000Y71855000D01*
G75*
G02*
X85645000Y72460000I605000J0D01*
G01*
X88355000Y72460000D01*
G75*
G02*
X88960000Y71855000I0J-605000D01*
G01*
G37*
G36*
G01*
X88960000Y67355000D02*
X88960000Y66145000D01*
G75*
G02*
X88355000Y65540000I-605000J0D01*
G01*
X85645000Y65540000D01*
G75*
G02*
X85040000Y66145000I0J605000D01*
G01*
X85040000Y67355000D01*
G75*
G02*
X85645000Y67960000I605000J0D01*
G01*
X88355000Y67960000D01*
G75*
G02*
X88960000Y67355000I0J-605000D01*
G01*
G37*
G36*
G01*
X13785000Y52840000D02*
X13785000Y54050000D01*
G75*
G02*
X14390000Y54655000I605000J0D01*
G01*
X17100000Y54655000D01*
G75*
G02*
X17705000Y54050000I0J-605000D01*
G01*
X17705000Y52840000D01*
G75*
G02*
X17100000Y52235000I-605000J0D01*
G01*
X14390000Y52235000D01*
G75*
G02*
X13785000Y52840000I0J605000D01*
G01*
G37*
G36*
G01*
X13785000Y57090000D02*
X13785000Y58300000D01*
G75*
G02*
X14390000Y58905000I605000J0D01*
G01*
X17100000Y58905000D01*
G75*
G02*
X17705000Y58300000I0J-605000D01*
G01*
X17705000Y57090000D01*
G75*
G02*
X17100000Y56485000I-605000J0D01*
G01*
X14390000Y56485000D01*
G75*
G02*
X13785000Y57090000I0J605000D01*
G01*
G37*
G36*
G01*
X13785000Y78840000D02*
X13785000Y80050000D01*
G75*
G02*
X14390000Y80655000I605000J0D01*
G01*
X17100000Y80655000D01*
G75*
G02*
X17705000Y80050000I0J-605000D01*
G01*
X17705000Y78840000D01*
G75*
G02*
X17100000Y78235000I-605000J0D01*
G01*
X14390000Y78235000D01*
G75*
G02*
X13785000Y78840000I0J605000D01*
G01*
G37*
G36*
G01*
X13785000Y61590000D02*
X13785000Y62800000D01*
G75*
G02*
X14390000Y63405000I605000J0D01*
G01*
X17100000Y63405000D01*
G75*
G02*
X17705000Y62800000I0J-605000D01*
G01*
X17705000Y61590000D01*
G75*
G02*
X17100000Y60985000I-605000J0D01*
G01*
X14390000Y60985000D01*
G75*
G02*
X13785000Y61590000I0J605000D01*
G01*
G37*
G36*
G01*
X13785000Y83090000D02*
X13785000Y84300000D01*
G75*
G02*
X14390000Y84905000I605000J0D01*
G01*
X17100000Y84905000D01*
G75*
G02*
X17705000Y84300000I0J-605000D01*
G01*
X17705000Y83090000D01*
G75*
G02*
X17100000Y82485000I-605000J0D01*
G01*
X14390000Y82485000D01*
G75*
G02*
X13785000Y83090000I0J605000D01*
G01*
G37*
G36*
G01*
X13785000Y87340000D02*
X13785000Y88550000D01*
G75*
G02*
X14390000Y89155000I605000J0D01*
G01*
X17100000Y89155000D01*
G75*
G02*
X17705000Y88550000I0J-605000D01*
G01*
X17705000Y87340000D01*
G75*
G02*
X17100000Y86735000I-605000J0D01*
G01*
X14390000Y86735000D01*
G75*
G02*
X13785000Y87340000I0J605000D01*
G01*
G37*
G36*
G01*
X13785000Y70340000D02*
X13785000Y71550000D01*
G75*
G02*
X14390000Y72155000I605000J0D01*
G01*
X17100000Y72155000D01*
G75*
G02*
X17705000Y71550000I0J-605000D01*
G01*
X17705000Y70340000D01*
G75*
G02*
X17100000Y69735000I-605000J0D01*
G01*
X14390000Y69735000D01*
G75*
G02*
X13785000Y70340000I0J605000D01*
G01*
G37*
G36*
G01*
X13785000Y66090000D02*
X13785000Y67300000D01*
G75*
G02*
X14390000Y67905000I605000J0D01*
G01*
X17100000Y67905000D01*
G75*
G02*
X17705000Y67300000I0J-605000D01*
G01*
X17705000Y66090000D01*
G75*
G02*
X17100000Y65485000I-605000J0D01*
G01*
X14390000Y65485000D01*
G75*
G02*
X13785000Y66090000I0J605000D01*
G01*
G37*
G36*
G01*
X73710000Y75855000D02*
X73710000Y74645000D01*
G75*
G02*
X73105000Y74040000I-605000J0D01*
G01*
X70395000Y74040000D01*
G75*
G02*
X69790000Y74645000I0J605000D01*
G01*
X69790000Y75855000D01*
G75*
G02*
X70395000Y76460000I605000J0D01*
G01*
X73105000Y76460000D01*
G75*
G02*
X73710000Y75855000I0J-605000D01*
G01*
G37*
G36*
G01*
X49040000Y41895000D02*
X49040000Y43105000D01*
G75*
G02*
X49645000Y43710000I605000J0D01*
G01*
X52355000Y43710000D01*
G75*
G02*
X52960000Y43105000I0J-605000D01*
G01*
X52960000Y41895000D01*
G75*
G02*
X52355000Y41290000I-605000J0D01*
G01*
X49645000Y41290000D01*
G75*
G02*
X49040000Y41895000I0J605000D01*
G01*
G37*
G36*
G01*
X34710000Y75855000D02*
X34710000Y74645000D01*
G75*
G02*
X34105000Y74040000I-605000J0D01*
G01*
X31395000Y74040000D01*
G75*
G02*
X30790000Y74645000I0J605000D01*
G01*
X30790000Y75855000D01*
G75*
G02*
X31395000Y76460000I605000J0D01*
G01*
X34105000Y76460000D01*
G75*
G02*
X34710000Y75855000I0J-605000D01*
G01*
G37*
D14*
X18860000Y33805000D03*
X36640000Y25195000D03*
X21400000Y33805000D03*
X34100000Y25195000D03*
X23940000Y33805000D03*
X31560000Y25195000D03*
X26480000Y33805000D03*
X29020000Y25195000D03*
X29020000Y33805000D03*
X26480000Y25195000D03*
X31560000Y33805000D03*
X23940000Y25195000D03*
X34100000Y33805000D03*
X21400000Y25195000D03*
X36640000Y33805000D03*
X18860000Y25195000D03*
X65860000Y33805000D03*
X83640000Y25195000D03*
X68400000Y33805000D03*
X81100000Y25195000D03*
X70940000Y33805000D03*
X78560000Y25195000D03*
X73480000Y33805000D03*
X76020000Y25195000D03*
X76020000Y33805000D03*
X73480000Y25195000D03*
X78560000Y33805000D03*
X70940000Y25195000D03*
X81100000Y33805000D03*
X68400000Y25195000D03*
X83640000Y33805000D03*
X65860000Y25195000D03*
X41610000Y63305000D03*
X59390000Y54695000D03*
X44150000Y63305000D03*
X56850000Y54695000D03*
X46690000Y63305000D03*
X54310000Y54695000D03*
X49230000Y63305000D03*
X51770000Y54695000D03*
X51770000Y63305000D03*
X49230000Y54695000D03*
X54310000Y63305000D03*
X46690000Y54695000D03*
X56850000Y63305000D03*
X44150000Y54695000D03*
X59390000Y63305000D03*
X41610000Y54695000D03*
G36*
G01*
X21160000Y20786250D02*
X21160000Y20313750D01*
G75*
G02*
X20961250Y20115000I-198750J0D01*
G01*
X20563750Y20115000D01*
G75*
G02*
X20365000Y20313750I0J198750D01*
G01*
X20365000Y20786250D01*
G75*
G02*
X20563750Y20985000I198750J0D01*
G01*
X20961250Y20985000D01*
G75*
G02*
X21160000Y20786250I0J-198750D01*
G01*
G37*
G36*
G01*
X22735000Y20786250D02*
X22735000Y20313750D01*
G75*
G02*
X22536250Y20115000I-198750J0D01*
G01*
X22138750Y20115000D01*
G75*
G02*
X21940000Y20313750I0J198750D01*
G01*
X21940000Y20786250D01*
G75*
G02*
X22138750Y20985000I198750J0D01*
G01*
X22536250Y20985000D01*
G75*
G02*
X22735000Y20786250I0J-198750D01*
G01*
G37*
G36*
G01*
X72513750Y19360000D02*
X72986250Y19360000D01*
G75*
G02*
X73185000Y19161250I0J-198750D01*
G01*
X73185000Y18763750D01*
G75*
G02*
X72986250Y18565000I-198750J0D01*
G01*
X72513750Y18565000D01*
G75*
G02*
X72315000Y18763750I0J198750D01*
G01*
X72315000Y19161250D01*
G75*
G02*
X72513750Y19360000I198750J0D01*
G01*
G37*
G36*
G01*
X72513750Y20935000D02*
X72986250Y20935000D01*
G75*
G02*
X73185000Y20736250I0J-198750D01*
G01*
X73185000Y20338750D01*
G75*
G02*
X72986250Y20140000I-198750J0D01*
G01*
X72513750Y20140000D01*
G75*
G02*
X72315000Y20338750I0J198750D01*
G01*
X72315000Y20736250D01*
G75*
G02*
X72513750Y20935000I198750J0D01*
G01*
G37*
G36*
G01*
X14360000Y38486250D02*
X14360000Y38013750D01*
G75*
G02*
X14161250Y37815000I-198750J0D01*
G01*
X13763750Y37815000D01*
G75*
G02*
X13565000Y38013750I0J198750D01*
G01*
X13565000Y38486250D01*
G75*
G02*
X13763750Y38685000I198750J0D01*
G01*
X14161250Y38685000D01*
G75*
G02*
X14360000Y38486250I0J-198750D01*
G01*
G37*
G36*
G01*
X15935000Y38486250D02*
X15935000Y38013750D01*
G75*
G02*
X15736250Y37815000I-198750J0D01*
G01*
X15338750Y37815000D01*
G75*
G02*
X15140000Y38013750I0J198750D01*
G01*
X15140000Y38486250D01*
G75*
G02*
X15338750Y38685000I198750J0D01*
G01*
X15736250Y38685000D01*
G75*
G02*
X15935000Y38486250I0J-198750D01*
G01*
G37*
G36*
G01*
X14360000Y39986250D02*
X14360000Y39513750D01*
G75*
G02*
X14161250Y39315000I-198750J0D01*
G01*
X13763750Y39315000D01*
G75*
G02*
X13565000Y39513750I0J198750D01*
G01*
X13565000Y39986250D01*
G75*
G02*
X13763750Y40185000I198750J0D01*
G01*
X14161250Y40185000D01*
G75*
G02*
X14360000Y39986250I0J-198750D01*
G01*
G37*
G36*
G01*
X15935000Y39986250D02*
X15935000Y39513750D01*
G75*
G02*
X15736250Y39315000I-198750J0D01*
G01*
X15338750Y39315000D01*
G75*
G02*
X15140000Y39513750I0J198750D01*
G01*
X15140000Y39986250D01*
G75*
G02*
X15338750Y40185000I198750J0D01*
G01*
X15736250Y40185000D01*
G75*
G02*
X15935000Y39986250I0J-198750D01*
G01*
G37*
G36*
G01*
X14360000Y41486250D02*
X14360000Y41013750D01*
G75*
G02*
X14161250Y40815000I-198750J0D01*
G01*
X13763750Y40815000D01*
G75*
G02*
X13565000Y41013750I0J198750D01*
G01*
X13565000Y41486250D01*
G75*
G02*
X13763750Y41685000I198750J0D01*
G01*
X14161250Y41685000D01*
G75*
G02*
X14360000Y41486250I0J-198750D01*
G01*
G37*
G36*
G01*
X15935000Y41486250D02*
X15935000Y41013750D01*
G75*
G02*
X15736250Y40815000I-198750J0D01*
G01*
X15338750Y40815000D01*
G75*
G02*
X15140000Y41013750I0J198750D01*
G01*
X15140000Y41486250D01*
G75*
G02*
X15338750Y41685000I198750J0D01*
G01*
X15736250Y41685000D01*
G75*
G02*
X15935000Y41486250I0J-198750D01*
G01*
G37*
G36*
G01*
X14360000Y42986250D02*
X14360000Y42513750D01*
G75*
G02*
X14161250Y42315000I-198750J0D01*
G01*
X13763750Y42315000D01*
G75*
G02*
X13565000Y42513750I0J198750D01*
G01*
X13565000Y42986250D01*
G75*
G02*
X13763750Y43185000I198750J0D01*
G01*
X14161250Y43185000D01*
G75*
G02*
X14360000Y42986250I0J-198750D01*
G01*
G37*
G36*
G01*
X15935000Y42986250D02*
X15935000Y42513750D01*
G75*
G02*
X15736250Y42315000I-198750J0D01*
G01*
X15338750Y42315000D01*
G75*
G02*
X15140000Y42513750I0J198750D01*
G01*
X15140000Y42986250D01*
G75*
G02*
X15338750Y43185000I198750J0D01*
G01*
X15736250Y43185000D01*
G75*
G02*
X15935000Y42986250I0J-198750D01*
G01*
G37*
G36*
G01*
X14360000Y44736250D02*
X14360000Y44263750D01*
G75*
G02*
X14161250Y44065000I-198750J0D01*
G01*
X13763750Y44065000D01*
G75*
G02*
X13565000Y44263750I0J198750D01*
G01*
X13565000Y44736250D01*
G75*
G02*
X13763750Y44935000I198750J0D01*
G01*
X14161250Y44935000D01*
G75*
G02*
X14360000Y44736250I0J-198750D01*
G01*
G37*
G36*
G01*
X15935000Y44736250D02*
X15935000Y44263750D01*
G75*
G02*
X15736250Y44065000I-198750J0D01*
G01*
X15338750Y44065000D01*
G75*
G02*
X15140000Y44263750I0J198750D01*
G01*
X15140000Y44736250D01*
G75*
G02*
X15338750Y44935000I198750J0D01*
G01*
X15736250Y44935000D01*
G75*
G02*
X15935000Y44736250I0J-198750D01*
G01*
G37*
G36*
G01*
X15140000Y45763750D02*
X15140000Y46236250D01*
G75*
G02*
X15338750Y46435000I198750J0D01*
G01*
X15736250Y46435000D01*
G75*
G02*
X15935000Y46236250I0J-198750D01*
G01*
X15935000Y45763750D01*
G75*
G02*
X15736250Y45565000I-198750J0D01*
G01*
X15338750Y45565000D01*
G75*
G02*
X15140000Y45763750I0J198750D01*
G01*
G37*
G36*
G01*
X13565000Y45763750D02*
X13565000Y46236250D01*
G75*
G02*
X13763750Y46435000I198750J0D01*
G01*
X14161250Y46435000D01*
G75*
G02*
X14360000Y46236250I0J-198750D01*
G01*
X14360000Y45763750D01*
G75*
G02*
X14161250Y45565000I-198750J0D01*
G01*
X13763750Y45565000D01*
G75*
G02*
X13565000Y45763750I0J198750D01*
G01*
G37*
G36*
G01*
X15140000Y47263750D02*
X15140000Y47736250D01*
G75*
G02*
X15338750Y47935000I198750J0D01*
G01*
X15736250Y47935000D01*
G75*
G02*
X15935000Y47736250I0J-198750D01*
G01*
X15935000Y47263750D01*
G75*
G02*
X15736250Y47065000I-198750J0D01*
G01*
X15338750Y47065000D01*
G75*
G02*
X15140000Y47263750I0J198750D01*
G01*
G37*
G36*
G01*
X13565000Y47263750D02*
X13565000Y47736250D01*
G75*
G02*
X13763750Y47935000I198750J0D01*
G01*
X14161250Y47935000D01*
G75*
G02*
X14360000Y47736250I0J-198750D01*
G01*
X14360000Y47263750D01*
G75*
G02*
X14161250Y47065000I-198750J0D01*
G01*
X13763750Y47065000D01*
G75*
G02*
X13565000Y47263750I0J198750D01*
G01*
G37*
G36*
G01*
X15140000Y48763750D02*
X15140000Y49236250D01*
G75*
G02*
X15338750Y49435000I198750J0D01*
G01*
X15736250Y49435000D01*
G75*
G02*
X15935000Y49236250I0J-198750D01*
G01*
X15935000Y48763750D01*
G75*
G02*
X15736250Y48565000I-198750J0D01*
G01*
X15338750Y48565000D01*
G75*
G02*
X15140000Y48763750I0J198750D01*
G01*
G37*
G36*
G01*
X13565000Y48763750D02*
X13565000Y49236250D01*
G75*
G02*
X13763750Y49435000I198750J0D01*
G01*
X14161250Y49435000D01*
G75*
G02*
X14360000Y49236250I0J-198750D01*
G01*
X14360000Y48763750D01*
G75*
G02*
X14161250Y48565000I-198750J0D01*
G01*
X13763750Y48565000D01*
G75*
G02*
X13565000Y48763750I0J198750D01*
G01*
G37*
G36*
G01*
X15890000Y10763750D02*
X15890000Y11236250D01*
G75*
G02*
X16088750Y11435000I198750J0D01*
G01*
X16486250Y11435000D01*
G75*
G02*
X16685000Y11236250I0J-198750D01*
G01*
X16685000Y10763750D01*
G75*
G02*
X16486250Y10565000I-198750J0D01*
G01*
X16088750Y10565000D01*
G75*
G02*
X15890000Y10763750I0J198750D01*
G01*
G37*
G36*
G01*
X14315000Y10763750D02*
X14315000Y11236250D01*
G75*
G02*
X14513750Y11435000I198750J0D01*
G01*
X14911250Y11435000D01*
G75*
G02*
X15110000Y11236250I0J-198750D01*
G01*
X15110000Y10763750D01*
G75*
G02*
X14911250Y10565000I-198750J0D01*
G01*
X14513750Y10565000D01*
G75*
G02*
X14315000Y10763750I0J198750D01*
G01*
G37*
G36*
G01*
X15890000Y12263750D02*
X15890000Y12736250D01*
G75*
G02*
X16088750Y12935000I198750J0D01*
G01*
X16486250Y12935000D01*
G75*
G02*
X16685000Y12736250I0J-198750D01*
G01*
X16685000Y12263750D01*
G75*
G02*
X16486250Y12065000I-198750J0D01*
G01*
X16088750Y12065000D01*
G75*
G02*
X15890000Y12263750I0J198750D01*
G01*
G37*
G36*
G01*
X14315000Y12263750D02*
X14315000Y12736250D01*
G75*
G02*
X14513750Y12935000I198750J0D01*
G01*
X14911250Y12935000D01*
G75*
G02*
X15110000Y12736250I0J-198750D01*
G01*
X15110000Y12263750D01*
G75*
G02*
X14911250Y12065000I-198750J0D01*
G01*
X14513750Y12065000D01*
G75*
G02*
X14315000Y12263750I0J198750D01*
G01*
G37*
G36*
G01*
X15890000Y13763750D02*
X15890000Y14236250D01*
G75*
G02*
X16088750Y14435000I198750J0D01*
G01*
X16486250Y14435000D01*
G75*
G02*
X16685000Y14236250I0J-198750D01*
G01*
X16685000Y13763750D01*
G75*
G02*
X16486250Y13565000I-198750J0D01*
G01*
X16088750Y13565000D01*
G75*
G02*
X15890000Y13763750I0J198750D01*
G01*
G37*
G36*
G01*
X14315000Y13763750D02*
X14315000Y14236250D01*
G75*
G02*
X14513750Y14435000I198750J0D01*
G01*
X14911250Y14435000D01*
G75*
G02*
X15110000Y14236250I0J-198750D01*
G01*
X15110000Y13763750D01*
G75*
G02*
X14911250Y13565000I-198750J0D01*
G01*
X14513750Y13565000D01*
G75*
G02*
X14315000Y13763750I0J198750D01*
G01*
G37*
G36*
G01*
X15890000Y15263750D02*
X15890000Y15736250D01*
G75*
G02*
X16088750Y15935000I198750J0D01*
G01*
X16486250Y15935000D01*
G75*
G02*
X16685000Y15736250I0J-198750D01*
G01*
X16685000Y15263750D01*
G75*
G02*
X16486250Y15065000I-198750J0D01*
G01*
X16088750Y15065000D01*
G75*
G02*
X15890000Y15263750I0J198750D01*
G01*
G37*
G36*
G01*
X14315000Y15263750D02*
X14315000Y15736250D01*
G75*
G02*
X14513750Y15935000I198750J0D01*
G01*
X14911250Y15935000D01*
G75*
G02*
X15110000Y15736250I0J-198750D01*
G01*
X15110000Y15263750D01*
G75*
G02*
X14911250Y15065000I-198750J0D01*
G01*
X14513750Y15065000D01*
G75*
G02*
X14315000Y15263750I0J198750D01*
G01*
G37*
G36*
G01*
X15890000Y16763750D02*
X15890000Y17236250D01*
G75*
G02*
X16088750Y17435000I198750J0D01*
G01*
X16486250Y17435000D01*
G75*
G02*
X16685000Y17236250I0J-198750D01*
G01*
X16685000Y16763750D01*
G75*
G02*
X16486250Y16565000I-198750J0D01*
G01*
X16088750Y16565000D01*
G75*
G02*
X15890000Y16763750I0J198750D01*
G01*
G37*
G36*
G01*
X14315000Y16763750D02*
X14315000Y17236250D01*
G75*
G02*
X14513750Y17435000I198750J0D01*
G01*
X14911250Y17435000D01*
G75*
G02*
X15110000Y17236250I0J-198750D01*
G01*
X15110000Y16763750D01*
G75*
G02*
X14911250Y16565000I-198750J0D01*
G01*
X14513750Y16565000D01*
G75*
G02*
X14315000Y16763750I0J198750D01*
G01*
G37*
G36*
G01*
X15110000Y18736250D02*
X15110000Y18263750D01*
G75*
G02*
X14911250Y18065000I-198750J0D01*
G01*
X14513750Y18065000D01*
G75*
G02*
X14315000Y18263750I0J198750D01*
G01*
X14315000Y18736250D01*
G75*
G02*
X14513750Y18935000I198750J0D01*
G01*
X14911250Y18935000D01*
G75*
G02*
X15110000Y18736250I0J-198750D01*
G01*
G37*
G36*
G01*
X16685000Y18736250D02*
X16685000Y18263750D01*
G75*
G02*
X16486250Y18065000I-198750J0D01*
G01*
X16088750Y18065000D01*
G75*
G02*
X15890000Y18263750I0J198750D01*
G01*
X15890000Y18736250D01*
G75*
G02*
X16088750Y18935000I198750J0D01*
G01*
X16486250Y18935000D01*
G75*
G02*
X16685000Y18736250I0J-198750D01*
G01*
G37*
G36*
G01*
X15110000Y20236250D02*
X15110000Y19763750D01*
G75*
G02*
X14911250Y19565000I-198750J0D01*
G01*
X14513750Y19565000D01*
G75*
G02*
X14315000Y19763750I0J198750D01*
G01*
X14315000Y20236250D01*
G75*
G02*
X14513750Y20435000I198750J0D01*
G01*
X14911250Y20435000D01*
G75*
G02*
X15110000Y20236250I0J-198750D01*
G01*
G37*
G36*
G01*
X16685000Y20236250D02*
X16685000Y19763750D01*
G75*
G02*
X16486250Y19565000I-198750J0D01*
G01*
X16088750Y19565000D01*
G75*
G02*
X15890000Y19763750I0J198750D01*
G01*
X15890000Y20236250D01*
G75*
G02*
X16088750Y20435000I198750J0D01*
G01*
X16486250Y20435000D01*
G75*
G02*
X16685000Y20236250I0J-198750D01*
G01*
G37*
G36*
G01*
X15110000Y21736250D02*
X15110000Y21263750D01*
G75*
G02*
X14911250Y21065000I-198750J0D01*
G01*
X14513750Y21065000D01*
G75*
G02*
X14315000Y21263750I0J198750D01*
G01*
X14315000Y21736250D01*
G75*
G02*
X14513750Y21935000I198750J0D01*
G01*
X14911250Y21935000D01*
G75*
G02*
X15110000Y21736250I0J-198750D01*
G01*
G37*
G36*
G01*
X16685000Y21736250D02*
X16685000Y21263750D01*
G75*
G02*
X16486250Y21065000I-198750J0D01*
G01*
X16088750Y21065000D01*
G75*
G02*
X15890000Y21263750I0J198750D01*
G01*
X15890000Y21736250D01*
G75*
G02*
X16088750Y21935000I198750J0D01*
G01*
X16486250Y21935000D01*
G75*
G02*
X16685000Y21736250I0J-198750D01*
G01*
G37*
G36*
G01*
X87110000Y15986250D02*
X87110000Y15513750D01*
G75*
G02*
X86911250Y15315000I-198750J0D01*
G01*
X86513750Y15315000D01*
G75*
G02*
X86315000Y15513750I0J198750D01*
G01*
X86315000Y15986250D01*
G75*
G02*
X86513750Y16185000I198750J0D01*
G01*
X86911250Y16185000D01*
G75*
G02*
X87110000Y15986250I0J-198750D01*
G01*
G37*
G36*
G01*
X88685000Y15986250D02*
X88685000Y15513750D01*
G75*
G02*
X88486250Y15315000I-198750J0D01*
G01*
X88088750Y15315000D01*
G75*
G02*
X87890000Y15513750I0J198750D01*
G01*
X87890000Y15986250D01*
G75*
G02*
X88088750Y16185000I198750J0D01*
G01*
X88486250Y16185000D01*
G75*
G02*
X88685000Y15986250I0J-198750D01*
G01*
G37*
G36*
G01*
X87110000Y17486250D02*
X87110000Y17013750D01*
G75*
G02*
X86911250Y16815000I-198750J0D01*
G01*
X86513750Y16815000D01*
G75*
G02*
X86315000Y17013750I0J198750D01*
G01*
X86315000Y17486250D01*
G75*
G02*
X86513750Y17685000I198750J0D01*
G01*
X86911250Y17685000D01*
G75*
G02*
X87110000Y17486250I0J-198750D01*
G01*
G37*
G36*
G01*
X88685000Y17486250D02*
X88685000Y17013750D01*
G75*
G02*
X88486250Y16815000I-198750J0D01*
G01*
X88088750Y16815000D01*
G75*
G02*
X87890000Y17013750I0J198750D01*
G01*
X87890000Y17486250D01*
G75*
G02*
X88088750Y17685000I198750J0D01*
G01*
X88486250Y17685000D01*
G75*
G02*
X88685000Y17486250I0J-198750D01*
G01*
G37*
G36*
G01*
X87890000Y26013750D02*
X87890000Y26486250D01*
G75*
G02*
X88088750Y26685000I198750J0D01*
G01*
X88486250Y26685000D01*
G75*
G02*
X88685000Y26486250I0J-198750D01*
G01*
X88685000Y26013750D01*
G75*
G02*
X88486250Y25815000I-198750J0D01*
G01*
X88088750Y25815000D01*
G75*
G02*
X87890000Y26013750I0J198750D01*
G01*
G37*
G36*
G01*
X86315000Y26013750D02*
X86315000Y26486250D01*
G75*
G02*
X86513750Y26685000I198750J0D01*
G01*
X86911250Y26685000D01*
G75*
G02*
X87110000Y26486250I0J-198750D01*
G01*
X87110000Y26013750D01*
G75*
G02*
X86911250Y25815000I-198750J0D01*
G01*
X86513750Y25815000D01*
G75*
G02*
X86315000Y26013750I0J198750D01*
G01*
G37*
G36*
G01*
X87110000Y18986250D02*
X87110000Y18513750D01*
G75*
G02*
X86911250Y18315000I-198750J0D01*
G01*
X86513750Y18315000D01*
G75*
G02*
X86315000Y18513750I0J198750D01*
G01*
X86315000Y18986250D01*
G75*
G02*
X86513750Y19185000I198750J0D01*
G01*
X86911250Y19185000D01*
G75*
G02*
X87110000Y18986250I0J-198750D01*
G01*
G37*
G36*
G01*
X88685000Y18986250D02*
X88685000Y18513750D01*
G75*
G02*
X88486250Y18315000I-198750J0D01*
G01*
X88088750Y18315000D01*
G75*
G02*
X87890000Y18513750I0J198750D01*
G01*
X87890000Y18986250D01*
G75*
G02*
X88088750Y19185000I198750J0D01*
G01*
X88486250Y19185000D01*
G75*
G02*
X88685000Y18986250I0J-198750D01*
G01*
G37*
G36*
G01*
X87890000Y23013750D02*
X87890000Y23486250D01*
G75*
G02*
X88088750Y23685000I198750J0D01*
G01*
X88486250Y23685000D01*
G75*
G02*
X88685000Y23486250I0J-198750D01*
G01*
X88685000Y23013750D01*
G75*
G02*
X88486250Y22815000I-198750J0D01*
G01*
X88088750Y22815000D01*
G75*
G02*
X87890000Y23013750I0J198750D01*
G01*
G37*
G36*
G01*
X86315000Y23013750D02*
X86315000Y23486250D01*
G75*
G02*
X86513750Y23685000I198750J0D01*
G01*
X86911250Y23685000D01*
G75*
G02*
X87110000Y23486250I0J-198750D01*
G01*
X87110000Y23013750D01*
G75*
G02*
X86911250Y22815000I-198750J0D01*
G01*
X86513750Y22815000D01*
G75*
G02*
X86315000Y23013750I0J198750D01*
G01*
G37*
G36*
G01*
X87890000Y24513750D02*
X87890000Y24986250D01*
G75*
G02*
X88088750Y25185000I198750J0D01*
G01*
X88486250Y25185000D01*
G75*
G02*
X88685000Y24986250I0J-198750D01*
G01*
X88685000Y24513750D01*
G75*
G02*
X88486250Y24315000I-198750J0D01*
G01*
X88088750Y24315000D01*
G75*
G02*
X87890000Y24513750I0J198750D01*
G01*
G37*
G36*
G01*
X86315000Y24513750D02*
X86315000Y24986250D01*
G75*
G02*
X86513750Y25185000I198750J0D01*
G01*
X86911250Y25185000D01*
G75*
G02*
X87110000Y24986250I0J-198750D01*
G01*
X87110000Y24513750D01*
G75*
G02*
X86911250Y24315000I-198750J0D01*
G01*
X86513750Y24315000D01*
G75*
G02*
X86315000Y24513750I0J198750D01*
G01*
G37*
G36*
G01*
X87110000Y20486250D02*
X87110000Y20013750D01*
G75*
G02*
X86911250Y19815000I-198750J0D01*
G01*
X86513750Y19815000D01*
G75*
G02*
X86315000Y20013750I0J198750D01*
G01*
X86315000Y20486250D01*
G75*
G02*
X86513750Y20685000I198750J0D01*
G01*
X86911250Y20685000D01*
G75*
G02*
X87110000Y20486250I0J-198750D01*
G01*
G37*
G36*
G01*
X88685000Y20486250D02*
X88685000Y20013750D01*
G75*
G02*
X88486250Y19815000I-198750J0D01*
G01*
X88088750Y19815000D01*
G75*
G02*
X87890000Y20013750I0J198750D01*
G01*
X87890000Y20486250D01*
G75*
G02*
X88088750Y20685000I198750J0D01*
G01*
X88486250Y20685000D01*
G75*
G02*
X88685000Y20486250I0J-198750D01*
G01*
G37*
G36*
G01*
X87110000Y21986250D02*
X87110000Y21513750D01*
G75*
G02*
X86911250Y21315000I-198750J0D01*
G01*
X86513750Y21315000D01*
G75*
G02*
X86315000Y21513750I0J198750D01*
G01*
X86315000Y21986250D01*
G75*
G02*
X86513750Y22185000I198750J0D01*
G01*
X86911250Y22185000D01*
G75*
G02*
X87110000Y21986250I0J-198750D01*
G01*
G37*
G36*
G01*
X88685000Y21986250D02*
X88685000Y21513750D01*
G75*
G02*
X88486250Y21315000I-198750J0D01*
G01*
X88088750Y21315000D01*
G75*
G02*
X87890000Y21513750I0J198750D01*
G01*
X87890000Y21986250D01*
G75*
G02*
X88088750Y22185000I198750J0D01*
G01*
X88486250Y22185000D01*
G75*
G02*
X88685000Y21986250I0J-198750D01*
G01*
G37*
G36*
G01*
X88640000Y40013750D02*
X88640000Y40486250D01*
G75*
G02*
X88838750Y40685000I198750J0D01*
G01*
X89236250Y40685000D01*
G75*
G02*
X89435000Y40486250I0J-198750D01*
G01*
X89435000Y40013750D01*
G75*
G02*
X89236250Y39815000I-198750J0D01*
G01*
X88838750Y39815000D01*
G75*
G02*
X88640000Y40013750I0J198750D01*
G01*
G37*
G36*
G01*
X87065000Y40013750D02*
X87065000Y40486250D01*
G75*
G02*
X87263750Y40685000I198750J0D01*
G01*
X87661250Y40685000D01*
G75*
G02*
X87860000Y40486250I0J-198750D01*
G01*
X87860000Y40013750D01*
G75*
G02*
X87661250Y39815000I-198750J0D01*
G01*
X87263750Y39815000D01*
G75*
G02*
X87065000Y40013750I0J198750D01*
G01*
G37*
G36*
G01*
X88640000Y41513750D02*
X88640000Y41986250D01*
G75*
G02*
X88838750Y42185000I198750J0D01*
G01*
X89236250Y42185000D01*
G75*
G02*
X89435000Y41986250I0J-198750D01*
G01*
X89435000Y41513750D01*
G75*
G02*
X89236250Y41315000I-198750J0D01*
G01*
X88838750Y41315000D01*
G75*
G02*
X88640000Y41513750I0J198750D01*
G01*
G37*
G36*
G01*
X87065000Y41513750D02*
X87065000Y41986250D01*
G75*
G02*
X87263750Y42185000I198750J0D01*
G01*
X87661250Y42185000D01*
G75*
G02*
X87860000Y41986250I0J-198750D01*
G01*
X87860000Y41513750D01*
G75*
G02*
X87661250Y41315000I-198750J0D01*
G01*
X87263750Y41315000D01*
G75*
G02*
X87065000Y41513750I0J198750D01*
G01*
G37*
G36*
G01*
X88640000Y43013750D02*
X88640000Y43486250D01*
G75*
G02*
X88838750Y43685000I198750J0D01*
G01*
X89236250Y43685000D01*
G75*
G02*
X89435000Y43486250I0J-198750D01*
G01*
X89435000Y43013750D01*
G75*
G02*
X89236250Y42815000I-198750J0D01*
G01*
X88838750Y42815000D01*
G75*
G02*
X88640000Y43013750I0J198750D01*
G01*
G37*
G36*
G01*
X87065000Y43013750D02*
X87065000Y43486250D01*
G75*
G02*
X87263750Y43685000I198750J0D01*
G01*
X87661250Y43685000D01*
G75*
G02*
X87860000Y43486250I0J-198750D01*
G01*
X87860000Y43013750D01*
G75*
G02*
X87661250Y42815000I-198750J0D01*
G01*
X87263750Y42815000D01*
G75*
G02*
X87065000Y43013750I0J198750D01*
G01*
G37*
G36*
G01*
X88640000Y44513750D02*
X88640000Y44986250D01*
G75*
G02*
X88838750Y45185000I198750J0D01*
G01*
X89236250Y45185000D01*
G75*
G02*
X89435000Y44986250I0J-198750D01*
G01*
X89435000Y44513750D01*
G75*
G02*
X89236250Y44315000I-198750J0D01*
G01*
X88838750Y44315000D01*
G75*
G02*
X88640000Y44513750I0J198750D01*
G01*
G37*
G36*
G01*
X87065000Y44513750D02*
X87065000Y44986250D01*
G75*
G02*
X87263750Y45185000I198750J0D01*
G01*
X87661250Y45185000D01*
G75*
G02*
X87860000Y44986250I0J-198750D01*
G01*
X87860000Y44513750D01*
G75*
G02*
X87661250Y44315000I-198750J0D01*
G01*
X87263750Y44315000D01*
G75*
G02*
X87065000Y44513750I0J198750D01*
G01*
G37*
G36*
G01*
X87860000Y46486250D02*
X87860000Y46013750D01*
G75*
G02*
X87661250Y45815000I-198750J0D01*
G01*
X87263750Y45815000D01*
G75*
G02*
X87065000Y46013750I0J198750D01*
G01*
X87065000Y46486250D01*
G75*
G02*
X87263750Y46685000I198750J0D01*
G01*
X87661250Y46685000D01*
G75*
G02*
X87860000Y46486250I0J-198750D01*
G01*
G37*
G36*
G01*
X89435000Y46486250D02*
X89435000Y46013750D01*
G75*
G02*
X89236250Y45815000I-198750J0D01*
G01*
X88838750Y45815000D01*
G75*
G02*
X88640000Y46013750I0J198750D01*
G01*
X88640000Y46486250D01*
G75*
G02*
X88838750Y46685000I198750J0D01*
G01*
X89236250Y46685000D01*
G75*
G02*
X89435000Y46486250I0J-198750D01*
G01*
G37*
G36*
G01*
X87860000Y47986250D02*
X87860000Y47513750D01*
G75*
G02*
X87661250Y47315000I-198750J0D01*
G01*
X87263750Y47315000D01*
G75*
G02*
X87065000Y47513750I0J198750D01*
G01*
X87065000Y47986250D01*
G75*
G02*
X87263750Y48185000I198750J0D01*
G01*
X87661250Y48185000D01*
G75*
G02*
X87860000Y47986250I0J-198750D01*
G01*
G37*
G36*
G01*
X89435000Y47986250D02*
X89435000Y47513750D01*
G75*
G02*
X89236250Y47315000I-198750J0D01*
G01*
X88838750Y47315000D01*
G75*
G02*
X88640000Y47513750I0J198750D01*
G01*
X88640000Y47986250D01*
G75*
G02*
X88838750Y48185000I198750J0D01*
G01*
X89236250Y48185000D01*
G75*
G02*
X89435000Y47986250I0J-198750D01*
G01*
G37*
G36*
G01*
X87860000Y49486250D02*
X87860000Y49013750D01*
G75*
G02*
X87661250Y48815000I-198750J0D01*
G01*
X87263750Y48815000D01*
G75*
G02*
X87065000Y49013750I0J198750D01*
G01*
X87065000Y49486250D01*
G75*
G02*
X87263750Y49685000I198750J0D01*
G01*
X87661250Y49685000D01*
G75*
G02*
X87860000Y49486250I0J-198750D01*
G01*
G37*
G36*
G01*
X89435000Y49486250D02*
X89435000Y49013750D01*
G75*
G02*
X89236250Y48815000I-198750J0D01*
G01*
X88838750Y48815000D01*
G75*
G02*
X88640000Y49013750I0J198750D01*
G01*
X88640000Y49486250D01*
G75*
G02*
X88838750Y49685000I198750J0D01*
G01*
X89236250Y49685000D01*
G75*
G02*
X89435000Y49486250I0J-198750D01*
G01*
G37*
G36*
G01*
X81736250Y52890000D02*
X81263750Y52890000D01*
G75*
G02*
X81065000Y53088750I0J198750D01*
G01*
X81065000Y53486250D01*
G75*
G02*
X81263750Y53685000I198750J0D01*
G01*
X81736250Y53685000D01*
G75*
G02*
X81935000Y53486250I0J-198750D01*
G01*
X81935000Y53088750D01*
G75*
G02*
X81736250Y52890000I-198750J0D01*
G01*
G37*
G36*
G01*
X81736250Y51315000D02*
X81263750Y51315000D01*
G75*
G02*
X81065000Y51513750I0J198750D01*
G01*
X81065000Y51911250D01*
G75*
G02*
X81263750Y52110000I198750J0D01*
G01*
X81736250Y52110000D01*
G75*
G02*
X81935000Y51911250I0J-198750D01*
G01*
X81935000Y51513750D01*
G75*
G02*
X81736250Y51315000I-198750J0D01*
G01*
G37*
G36*
G01*
X81736250Y57390000D02*
X81263750Y57390000D01*
G75*
G02*
X81065000Y57588750I0J198750D01*
G01*
X81065000Y57986250D01*
G75*
G02*
X81263750Y58185000I198750J0D01*
G01*
X81736250Y58185000D01*
G75*
G02*
X81935000Y57986250I0J-198750D01*
G01*
X81935000Y57588750D01*
G75*
G02*
X81736250Y57390000I-198750J0D01*
G01*
G37*
G36*
G01*
X81736250Y55815000D02*
X81263750Y55815000D01*
G75*
G02*
X81065000Y56013750I0J198750D01*
G01*
X81065000Y56411250D01*
G75*
G02*
X81263750Y56610000I198750J0D01*
G01*
X81736250Y56610000D01*
G75*
G02*
X81935000Y56411250I0J-198750D01*
G01*
X81935000Y56013750D01*
G75*
G02*
X81736250Y55815000I-198750J0D01*
G01*
G37*
G36*
G01*
X81736250Y79140000D02*
X81263750Y79140000D01*
G75*
G02*
X81065000Y79338750I0J198750D01*
G01*
X81065000Y79736250D01*
G75*
G02*
X81263750Y79935000I198750J0D01*
G01*
X81736250Y79935000D01*
G75*
G02*
X81935000Y79736250I0J-198750D01*
G01*
X81935000Y79338750D01*
G75*
G02*
X81736250Y79140000I-198750J0D01*
G01*
G37*
G36*
G01*
X81736250Y77565000D02*
X81263750Y77565000D01*
G75*
G02*
X81065000Y77763750I0J198750D01*
G01*
X81065000Y78161250D01*
G75*
G02*
X81263750Y78360000I198750J0D01*
G01*
X81736250Y78360000D01*
G75*
G02*
X81935000Y78161250I0J-198750D01*
G01*
X81935000Y77763750D01*
G75*
G02*
X81736250Y77565000I-198750J0D01*
G01*
G37*
G36*
G01*
X81736250Y83640000D02*
X81263750Y83640000D01*
G75*
G02*
X81065000Y83838750I0J198750D01*
G01*
X81065000Y84236250D01*
G75*
G02*
X81263750Y84435000I198750J0D01*
G01*
X81736250Y84435000D01*
G75*
G02*
X81935000Y84236250I0J-198750D01*
G01*
X81935000Y83838750D01*
G75*
G02*
X81736250Y83640000I-198750J0D01*
G01*
G37*
G36*
G01*
X81736250Y82065000D02*
X81263750Y82065000D01*
G75*
G02*
X81065000Y82263750I0J198750D01*
G01*
X81065000Y82661250D01*
G75*
G02*
X81263750Y82860000I198750J0D01*
G01*
X81736250Y82860000D01*
G75*
G02*
X81935000Y82661250I0J-198750D01*
G01*
X81935000Y82263750D01*
G75*
G02*
X81736250Y82065000I-198750J0D01*
G01*
G37*
G36*
G01*
X81736250Y88140000D02*
X81263750Y88140000D01*
G75*
G02*
X81065000Y88338750I0J198750D01*
G01*
X81065000Y88736250D01*
G75*
G02*
X81263750Y88935000I198750J0D01*
G01*
X81736250Y88935000D01*
G75*
G02*
X81935000Y88736250I0J-198750D01*
G01*
X81935000Y88338750D01*
G75*
G02*
X81736250Y88140000I-198750J0D01*
G01*
G37*
G36*
G01*
X81736250Y86565000D02*
X81263750Y86565000D01*
G75*
G02*
X81065000Y86763750I0J198750D01*
G01*
X81065000Y87161250D01*
G75*
G02*
X81263750Y87360000I198750J0D01*
G01*
X81736250Y87360000D01*
G75*
G02*
X81935000Y87161250I0J-198750D01*
G01*
X81935000Y86763750D01*
G75*
G02*
X81736250Y86565000I-198750J0D01*
G01*
G37*
G36*
G01*
X81736250Y71640000D02*
X81263750Y71640000D01*
G75*
G02*
X81065000Y71838750I0J198750D01*
G01*
X81065000Y72236250D01*
G75*
G02*
X81263750Y72435000I198750J0D01*
G01*
X81736250Y72435000D01*
G75*
G02*
X81935000Y72236250I0J-198750D01*
G01*
X81935000Y71838750D01*
G75*
G02*
X81736250Y71640000I-198750J0D01*
G01*
G37*
G36*
G01*
X81736250Y70065000D02*
X81263750Y70065000D01*
G75*
G02*
X81065000Y70263750I0J198750D01*
G01*
X81065000Y70661250D01*
G75*
G02*
X81263750Y70860000I198750J0D01*
G01*
X81736250Y70860000D01*
G75*
G02*
X81935000Y70661250I0J-198750D01*
G01*
X81935000Y70263750D01*
G75*
G02*
X81736250Y70065000I-198750J0D01*
G01*
G37*
G36*
G01*
X81736250Y67140000D02*
X81263750Y67140000D01*
G75*
G02*
X81065000Y67338750I0J198750D01*
G01*
X81065000Y67736250D01*
G75*
G02*
X81263750Y67935000I198750J0D01*
G01*
X81736250Y67935000D01*
G75*
G02*
X81935000Y67736250I0J-198750D01*
G01*
X81935000Y67338750D01*
G75*
G02*
X81736250Y67140000I-198750J0D01*
G01*
G37*
G36*
G01*
X81736250Y65565000D02*
X81263750Y65565000D01*
G75*
G02*
X81065000Y65763750I0J198750D01*
G01*
X81065000Y66161250D01*
G75*
G02*
X81263750Y66360000I198750J0D01*
G01*
X81736250Y66360000D01*
G75*
G02*
X81935000Y66161250I0J-198750D01*
G01*
X81935000Y65763750D01*
G75*
G02*
X81736250Y65565000I-198750J0D01*
G01*
G37*
G36*
G01*
X21008750Y53055000D02*
X21481250Y53055000D01*
G75*
G02*
X21680000Y52856250I0J-198750D01*
G01*
X21680000Y52458750D01*
G75*
G02*
X21481250Y52260000I-198750J0D01*
G01*
X21008750Y52260000D01*
G75*
G02*
X20810000Y52458750I0J198750D01*
G01*
X20810000Y52856250D01*
G75*
G02*
X21008750Y53055000I198750J0D01*
G01*
G37*
G36*
G01*
X21008750Y54630000D02*
X21481250Y54630000D01*
G75*
G02*
X21680000Y54431250I0J-198750D01*
G01*
X21680000Y54033750D01*
G75*
G02*
X21481250Y53835000I-198750J0D01*
G01*
X21008750Y53835000D01*
G75*
G02*
X20810000Y54033750I0J198750D01*
G01*
X20810000Y54431250D01*
G75*
G02*
X21008750Y54630000I198750J0D01*
G01*
G37*
G36*
G01*
X21008750Y57305000D02*
X21481250Y57305000D01*
G75*
G02*
X21680000Y57106250I0J-198750D01*
G01*
X21680000Y56708750D01*
G75*
G02*
X21481250Y56510000I-198750J0D01*
G01*
X21008750Y56510000D01*
G75*
G02*
X20810000Y56708750I0J198750D01*
G01*
X20810000Y57106250D01*
G75*
G02*
X21008750Y57305000I198750J0D01*
G01*
G37*
G36*
G01*
X21008750Y58880000D02*
X21481250Y58880000D01*
G75*
G02*
X21680000Y58681250I0J-198750D01*
G01*
X21680000Y58283750D01*
G75*
G02*
X21481250Y58085000I-198750J0D01*
G01*
X21008750Y58085000D01*
G75*
G02*
X20810000Y58283750I0J198750D01*
G01*
X20810000Y58681250D01*
G75*
G02*
X21008750Y58880000I198750J0D01*
G01*
G37*
G36*
G01*
X21008750Y79055000D02*
X21481250Y79055000D01*
G75*
G02*
X21680000Y78856250I0J-198750D01*
G01*
X21680000Y78458750D01*
G75*
G02*
X21481250Y78260000I-198750J0D01*
G01*
X21008750Y78260000D01*
G75*
G02*
X20810000Y78458750I0J198750D01*
G01*
X20810000Y78856250D01*
G75*
G02*
X21008750Y79055000I198750J0D01*
G01*
G37*
G36*
G01*
X21008750Y80630000D02*
X21481250Y80630000D01*
G75*
G02*
X21680000Y80431250I0J-198750D01*
G01*
X21680000Y80033750D01*
G75*
G02*
X21481250Y79835000I-198750J0D01*
G01*
X21008750Y79835000D01*
G75*
G02*
X20810000Y80033750I0J198750D01*
G01*
X20810000Y80431250D01*
G75*
G02*
X21008750Y80630000I198750J0D01*
G01*
G37*
G36*
G01*
X21008750Y61805000D02*
X21481250Y61805000D01*
G75*
G02*
X21680000Y61606250I0J-198750D01*
G01*
X21680000Y61208750D01*
G75*
G02*
X21481250Y61010000I-198750J0D01*
G01*
X21008750Y61010000D01*
G75*
G02*
X20810000Y61208750I0J198750D01*
G01*
X20810000Y61606250D01*
G75*
G02*
X21008750Y61805000I198750J0D01*
G01*
G37*
G36*
G01*
X21008750Y63380000D02*
X21481250Y63380000D01*
G75*
G02*
X21680000Y63181250I0J-198750D01*
G01*
X21680000Y62783750D01*
G75*
G02*
X21481250Y62585000I-198750J0D01*
G01*
X21008750Y62585000D01*
G75*
G02*
X20810000Y62783750I0J198750D01*
G01*
X20810000Y63181250D01*
G75*
G02*
X21008750Y63380000I198750J0D01*
G01*
G37*
G36*
G01*
X21008750Y83305000D02*
X21481250Y83305000D01*
G75*
G02*
X21680000Y83106250I0J-198750D01*
G01*
X21680000Y82708750D01*
G75*
G02*
X21481250Y82510000I-198750J0D01*
G01*
X21008750Y82510000D01*
G75*
G02*
X20810000Y82708750I0J198750D01*
G01*
X20810000Y83106250D01*
G75*
G02*
X21008750Y83305000I198750J0D01*
G01*
G37*
G36*
G01*
X21008750Y84880000D02*
X21481250Y84880000D01*
G75*
G02*
X21680000Y84681250I0J-198750D01*
G01*
X21680000Y84283750D01*
G75*
G02*
X21481250Y84085000I-198750J0D01*
G01*
X21008750Y84085000D01*
G75*
G02*
X20810000Y84283750I0J198750D01*
G01*
X20810000Y84681250D01*
G75*
G02*
X21008750Y84880000I198750J0D01*
G01*
G37*
G36*
G01*
X21008750Y87555000D02*
X21481250Y87555000D01*
G75*
G02*
X21680000Y87356250I0J-198750D01*
G01*
X21680000Y86958750D01*
G75*
G02*
X21481250Y86760000I-198750J0D01*
G01*
X21008750Y86760000D01*
G75*
G02*
X20810000Y86958750I0J198750D01*
G01*
X20810000Y87356250D01*
G75*
G02*
X21008750Y87555000I198750J0D01*
G01*
G37*
G36*
G01*
X21008750Y89130000D02*
X21481250Y89130000D01*
G75*
G02*
X21680000Y88931250I0J-198750D01*
G01*
X21680000Y88533750D01*
G75*
G02*
X21481250Y88335000I-198750J0D01*
G01*
X21008750Y88335000D01*
G75*
G02*
X20810000Y88533750I0J198750D01*
G01*
X20810000Y88931250D01*
G75*
G02*
X21008750Y89130000I198750J0D01*
G01*
G37*
G36*
G01*
X21008750Y70555000D02*
X21481250Y70555000D01*
G75*
G02*
X21680000Y70356250I0J-198750D01*
G01*
X21680000Y69958750D01*
G75*
G02*
X21481250Y69760000I-198750J0D01*
G01*
X21008750Y69760000D01*
G75*
G02*
X20810000Y69958750I0J198750D01*
G01*
X20810000Y70356250D01*
G75*
G02*
X21008750Y70555000I198750J0D01*
G01*
G37*
G36*
G01*
X21008750Y72130000D02*
X21481250Y72130000D01*
G75*
G02*
X21680000Y71931250I0J-198750D01*
G01*
X21680000Y71533750D01*
G75*
G02*
X21481250Y71335000I-198750J0D01*
G01*
X21008750Y71335000D01*
G75*
G02*
X20810000Y71533750I0J198750D01*
G01*
X20810000Y71931250D01*
G75*
G02*
X21008750Y72130000I198750J0D01*
G01*
G37*
G36*
G01*
X21008750Y66305000D02*
X21481250Y66305000D01*
G75*
G02*
X21680000Y66106250I0J-198750D01*
G01*
X21680000Y65708750D01*
G75*
G02*
X21481250Y65510000I-198750J0D01*
G01*
X21008750Y65510000D01*
G75*
G02*
X20810000Y65708750I0J198750D01*
G01*
X20810000Y66106250D01*
G75*
G02*
X21008750Y66305000I198750J0D01*
G01*
G37*
G36*
G01*
X21008750Y67880000D02*
X21481250Y67880000D01*
G75*
G02*
X21680000Y67681250I0J-198750D01*
G01*
X21680000Y67283750D01*
G75*
G02*
X21481250Y67085000I-198750J0D01*
G01*
X21008750Y67085000D01*
G75*
G02*
X20810000Y67283750I0J198750D01*
G01*
X20810000Y67681250D01*
G75*
G02*
X21008750Y67880000I198750J0D01*
G01*
G37*
G36*
G01*
X58836250Y48590000D02*
X58363750Y48590000D01*
G75*
G02*
X58165000Y48788750I0J198750D01*
G01*
X58165000Y49186250D01*
G75*
G02*
X58363750Y49385000I198750J0D01*
G01*
X58836250Y49385000D01*
G75*
G02*
X59035000Y49186250I0J-198750D01*
G01*
X59035000Y48788750D01*
G75*
G02*
X58836250Y48590000I-198750J0D01*
G01*
G37*
G36*
G01*
X58836250Y47015000D02*
X58363750Y47015000D01*
G75*
G02*
X58165000Y47213750I0J198750D01*
G01*
X58165000Y47611250D01*
G75*
G02*
X58363750Y47810000I198750J0D01*
G01*
X58836250Y47810000D01*
G75*
G02*
X59035000Y47611250I0J-198750D01*
G01*
X59035000Y47213750D01*
G75*
G02*
X58836250Y47015000I-198750J0D01*
G01*
G37*
G36*
G01*
X57086250Y48590000D02*
X56613750Y48590000D01*
G75*
G02*
X56415000Y48788750I0J198750D01*
G01*
X56415000Y49186250D01*
G75*
G02*
X56613750Y49385000I198750J0D01*
G01*
X57086250Y49385000D01*
G75*
G02*
X57285000Y49186250I0J-198750D01*
G01*
X57285000Y48788750D01*
G75*
G02*
X57086250Y48590000I-198750J0D01*
G01*
G37*
G36*
G01*
X57086250Y47015000D02*
X56613750Y47015000D01*
G75*
G02*
X56415000Y47213750I0J198750D01*
G01*
X56415000Y47611250D01*
G75*
G02*
X56613750Y47810000I198750J0D01*
G01*
X57086250Y47810000D01*
G75*
G02*
X57285000Y47611250I0J-198750D01*
G01*
X57285000Y47213750D01*
G75*
G02*
X57086250Y47015000I-198750J0D01*
G01*
G37*
G36*
G01*
X55336250Y48590000D02*
X54863750Y48590000D01*
G75*
G02*
X54665000Y48788750I0J198750D01*
G01*
X54665000Y49186250D01*
G75*
G02*
X54863750Y49385000I198750J0D01*
G01*
X55336250Y49385000D01*
G75*
G02*
X55535000Y49186250I0J-198750D01*
G01*
X55535000Y48788750D01*
G75*
G02*
X55336250Y48590000I-198750J0D01*
G01*
G37*
G36*
G01*
X55336250Y47015000D02*
X54863750Y47015000D01*
G75*
G02*
X54665000Y47213750I0J198750D01*
G01*
X54665000Y47611250D01*
G75*
G02*
X54863750Y47810000I198750J0D01*
G01*
X55336250Y47810000D01*
G75*
G02*
X55535000Y47611250I0J-198750D01*
G01*
X55535000Y47213750D01*
G75*
G02*
X55336250Y47015000I-198750J0D01*
G01*
G37*
G36*
G01*
X75110000Y10736250D02*
X75110000Y10263750D01*
G75*
G02*
X74911250Y10065000I-198750J0D01*
G01*
X74513750Y10065000D01*
G75*
G02*
X74315000Y10263750I0J198750D01*
G01*
X74315000Y10736250D01*
G75*
G02*
X74513750Y10935000I198750J0D01*
G01*
X74911250Y10935000D01*
G75*
G02*
X75110000Y10736250I0J-198750D01*
G01*
G37*
G36*
G01*
X76685000Y10736250D02*
X76685000Y10263750D01*
G75*
G02*
X76486250Y10065000I-198750J0D01*
G01*
X76088750Y10065000D01*
G75*
G02*
X75890000Y10263750I0J198750D01*
G01*
X75890000Y10736250D01*
G75*
G02*
X76088750Y10935000I198750J0D01*
G01*
X76486250Y10935000D01*
G75*
G02*
X76685000Y10736250I0J-198750D01*
G01*
G37*
G36*
G01*
X74763750Y57860000D02*
X75236250Y57860000D01*
G75*
G02*
X75435000Y57661250I0J-198750D01*
G01*
X75435000Y57263750D01*
G75*
G02*
X75236250Y57065000I-198750J0D01*
G01*
X74763750Y57065000D01*
G75*
G02*
X74565000Y57263750I0J198750D01*
G01*
X74565000Y57661250D01*
G75*
G02*
X74763750Y57860000I198750J0D01*
G01*
G37*
G36*
G01*
X74763750Y59435000D02*
X75236250Y59435000D01*
G75*
G02*
X75435000Y59236250I0J-198750D01*
G01*
X75435000Y58838750D01*
G75*
G02*
X75236250Y58640000I-198750J0D01*
G01*
X74763750Y58640000D01*
G75*
G02*
X74565000Y58838750I0J198750D01*
G01*
X74565000Y59236250D01*
G75*
G02*
X74763750Y59435000I198750J0D01*
G01*
G37*
G36*
G01*
X31640000Y8413750D02*
X31640000Y8886250D01*
G75*
G02*
X31838750Y9085000I198750J0D01*
G01*
X32236250Y9085000D01*
G75*
G02*
X32435000Y8886250I0J-198750D01*
G01*
X32435000Y8413750D01*
G75*
G02*
X32236250Y8215000I-198750J0D01*
G01*
X31838750Y8215000D01*
G75*
G02*
X31640000Y8413750I0J198750D01*
G01*
G37*
G36*
G01*
X30065000Y8413750D02*
X30065000Y8886250D01*
G75*
G02*
X30263750Y9085000I198750J0D01*
G01*
X30661250Y9085000D01*
G75*
G02*
X30860000Y8886250I0J-198750D01*
G01*
X30860000Y8413750D01*
G75*
G02*
X30661250Y8215000I-198750J0D01*
G01*
X30263750Y8215000D01*
G75*
G02*
X30065000Y8413750I0J198750D01*
G01*
G37*
G36*
G01*
X73013750Y57860000D02*
X73486250Y57860000D01*
G75*
G02*
X73685000Y57661250I0J-198750D01*
G01*
X73685000Y57263750D01*
G75*
G02*
X73486250Y57065000I-198750J0D01*
G01*
X73013750Y57065000D01*
G75*
G02*
X72815000Y57263750I0J198750D01*
G01*
X72815000Y57661250D01*
G75*
G02*
X73013750Y57860000I198750J0D01*
G01*
G37*
G36*
G01*
X73013750Y59435000D02*
X73486250Y59435000D01*
G75*
G02*
X73685000Y59236250I0J-198750D01*
G01*
X73685000Y58838750D01*
G75*
G02*
X73486250Y58640000I-198750J0D01*
G01*
X73013750Y58640000D01*
G75*
G02*
X72815000Y58838750I0J198750D01*
G01*
X72815000Y59236250D01*
G75*
G02*
X73013750Y59435000I198750J0D01*
G01*
G37*
G36*
G01*
X71263750Y57860000D02*
X71736250Y57860000D01*
G75*
G02*
X71935000Y57661250I0J-198750D01*
G01*
X71935000Y57263750D01*
G75*
G02*
X71736250Y57065000I-198750J0D01*
G01*
X71263750Y57065000D01*
G75*
G02*
X71065000Y57263750I0J198750D01*
G01*
X71065000Y57661250D01*
G75*
G02*
X71263750Y57860000I198750J0D01*
G01*
G37*
G36*
G01*
X71263750Y59435000D02*
X71736250Y59435000D01*
G75*
G02*
X71935000Y59236250I0J-198750D01*
G01*
X71935000Y58838750D01*
G75*
G02*
X71736250Y58640000I-198750J0D01*
G01*
X71263750Y58640000D01*
G75*
G02*
X71065000Y58838750I0J198750D01*
G01*
X71065000Y59236250D01*
G75*
G02*
X71263750Y59435000I198750J0D01*
G01*
G37*
G36*
G01*
X69513750Y57860000D02*
X69986250Y57860000D01*
G75*
G02*
X70185000Y57661250I0J-198750D01*
G01*
X70185000Y57263750D01*
G75*
G02*
X69986250Y57065000I-198750J0D01*
G01*
X69513750Y57065000D01*
G75*
G02*
X69315000Y57263750I0J198750D01*
G01*
X69315000Y57661250D01*
G75*
G02*
X69513750Y57860000I198750J0D01*
G01*
G37*
G36*
G01*
X69513750Y59435000D02*
X69986250Y59435000D01*
G75*
G02*
X70185000Y59236250I0J-198750D01*
G01*
X70185000Y58838750D01*
G75*
G02*
X69986250Y58640000I-198750J0D01*
G01*
X69513750Y58640000D01*
G75*
G02*
X69315000Y58838750I0J198750D01*
G01*
X69315000Y59236250D01*
G75*
G02*
X69513750Y59435000I198750J0D01*
G01*
G37*
G36*
G01*
X67763750Y57860000D02*
X68236250Y57860000D01*
G75*
G02*
X68435000Y57661250I0J-198750D01*
G01*
X68435000Y57263750D01*
G75*
G02*
X68236250Y57065000I-198750J0D01*
G01*
X67763750Y57065000D01*
G75*
G02*
X67565000Y57263750I0J198750D01*
G01*
X67565000Y57661250D01*
G75*
G02*
X67763750Y57860000I198750J0D01*
G01*
G37*
G36*
G01*
X67763750Y59435000D02*
X68236250Y59435000D01*
G75*
G02*
X68435000Y59236250I0J-198750D01*
G01*
X68435000Y58838750D01*
G75*
G02*
X68236250Y58640000I-198750J0D01*
G01*
X67763750Y58640000D01*
G75*
G02*
X67565000Y58838750I0J198750D01*
G01*
X67565000Y59236250D01*
G75*
G02*
X67763750Y59435000I198750J0D01*
G01*
G37*
G36*
G01*
X59013750Y26610000D02*
X59486250Y26610000D01*
G75*
G02*
X59685000Y26411250I0J-198750D01*
G01*
X59685000Y26013750D01*
G75*
G02*
X59486250Y25815000I-198750J0D01*
G01*
X59013750Y25815000D01*
G75*
G02*
X58815000Y26013750I0J198750D01*
G01*
X58815000Y26411250D01*
G75*
G02*
X59013750Y26610000I198750J0D01*
G01*
G37*
G36*
G01*
X59013750Y28185000D02*
X59486250Y28185000D01*
G75*
G02*
X59685000Y27986250I0J-198750D01*
G01*
X59685000Y27588750D01*
G75*
G02*
X59486250Y27390000I-198750J0D01*
G01*
X59013750Y27390000D01*
G75*
G02*
X58815000Y27588750I0J198750D01*
G01*
X58815000Y27986250D01*
G75*
G02*
X59013750Y28185000I198750J0D01*
G01*
G37*
G36*
G01*
X47986250Y48590000D02*
X47513750Y48590000D01*
G75*
G02*
X47315000Y48788750I0J198750D01*
G01*
X47315000Y49186250D01*
G75*
G02*
X47513750Y49385000I198750J0D01*
G01*
X47986250Y49385000D01*
G75*
G02*
X48185000Y49186250I0J-198750D01*
G01*
X48185000Y48788750D01*
G75*
G02*
X47986250Y48590000I-198750J0D01*
G01*
G37*
G36*
G01*
X47986250Y47015000D02*
X47513750Y47015000D01*
G75*
G02*
X47315000Y47213750I0J198750D01*
G01*
X47315000Y47611250D01*
G75*
G02*
X47513750Y47810000I198750J0D01*
G01*
X47986250Y47810000D01*
G75*
G02*
X48185000Y47611250I0J-198750D01*
G01*
X48185000Y47213750D01*
G75*
G02*
X47986250Y47015000I-198750J0D01*
G01*
G37*
G36*
G01*
X46236250Y48590000D02*
X45763750Y48590000D01*
G75*
G02*
X45565000Y48788750I0J198750D01*
G01*
X45565000Y49186250D01*
G75*
G02*
X45763750Y49385000I198750J0D01*
G01*
X46236250Y49385000D01*
G75*
G02*
X46435000Y49186250I0J-198750D01*
G01*
X46435000Y48788750D01*
G75*
G02*
X46236250Y48590000I-198750J0D01*
G01*
G37*
G36*
G01*
X46236250Y47015000D02*
X45763750Y47015000D01*
G75*
G02*
X45565000Y47213750I0J198750D01*
G01*
X45565000Y47611250D01*
G75*
G02*
X45763750Y47810000I198750J0D01*
G01*
X46236250Y47810000D01*
G75*
G02*
X46435000Y47611250I0J-198750D01*
G01*
X46435000Y47213750D01*
G75*
G02*
X46236250Y47015000I-198750J0D01*
G01*
G37*
G36*
G01*
X44486250Y48590000D02*
X44013750Y48590000D01*
G75*
G02*
X43815000Y48788750I0J198750D01*
G01*
X43815000Y49186250D01*
G75*
G02*
X44013750Y49385000I198750J0D01*
G01*
X44486250Y49385000D01*
G75*
G02*
X44685000Y49186250I0J-198750D01*
G01*
X44685000Y48788750D01*
G75*
G02*
X44486250Y48590000I-198750J0D01*
G01*
G37*
G36*
G01*
X44486250Y47015000D02*
X44013750Y47015000D01*
G75*
G02*
X43815000Y47213750I0J198750D01*
G01*
X43815000Y47611250D01*
G75*
G02*
X44013750Y47810000I198750J0D01*
G01*
X44486250Y47810000D01*
G75*
G02*
X44685000Y47611250I0J-198750D01*
G01*
X44685000Y47213750D01*
G75*
G02*
X44486250Y47015000I-198750J0D01*
G01*
G37*
G36*
G01*
X42736250Y48590000D02*
X42263750Y48590000D01*
G75*
G02*
X42065000Y48788750I0J198750D01*
G01*
X42065000Y49186250D01*
G75*
G02*
X42263750Y49385000I198750J0D01*
G01*
X42736250Y49385000D01*
G75*
G02*
X42935000Y49186250I0J-198750D01*
G01*
X42935000Y48788750D01*
G75*
G02*
X42736250Y48590000I-198750J0D01*
G01*
G37*
G36*
G01*
X42736250Y47015000D02*
X42263750Y47015000D01*
G75*
G02*
X42065000Y47213750I0J198750D01*
G01*
X42065000Y47611250D01*
G75*
G02*
X42263750Y47810000I198750J0D01*
G01*
X42736250Y47810000D01*
G75*
G02*
X42935000Y47611250I0J-198750D01*
G01*
X42935000Y47213750D01*
G75*
G02*
X42736250Y47015000I-198750J0D01*
G01*
G37*
G36*
G01*
X27513750Y57860000D02*
X27986250Y57860000D01*
G75*
G02*
X28185000Y57661250I0J-198750D01*
G01*
X28185000Y57263750D01*
G75*
G02*
X27986250Y57065000I-198750J0D01*
G01*
X27513750Y57065000D01*
G75*
G02*
X27315000Y57263750I0J198750D01*
G01*
X27315000Y57661250D01*
G75*
G02*
X27513750Y57860000I198750J0D01*
G01*
G37*
G36*
G01*
X27513750Y59435000D02*
X27986250Y59435000D01*
G75*
G02*
X28185000Y59236250I0J-198750D01*
G01*
X28185000Y58838750D01*
G75*
G02*
X27986250Y58640000I-198750J0D01*
G01*
X27513750Y58640000D01*
G75*
G02*
X27315000Y58838750I0J198750D01*
G01*
X27315000Y59236250D01*
G75*
G02*
X27513750Y59435000I198750J0D01*
G01*
G37*
G36*
G01*
X31013750Y57860000D02*
X31486250Y57860000D01*
G75*
G02*
X31685000Y57661250I0J-198750D01*
G01*
X31685000Y57263750D01*
G75*
G02*
X31486250Y57065000I-198750J0D01*
G01*
X31013750Y57065000D01*
G75*
G02*
X30815000Y57263750I0J198750D01*
G01*
X30815000Y57661250D01*
G75*
G02*
X31013750Y57860000I198750J0D01*
G01*
G37*
G36*
G01*
X31013750Y59435000D02*
X31486250Y59435000D01*
G75*
G02*
X31685000Y59236250I0J-198750D01*
G01*
X31685000Y58838750D01*
G75*
G02*
X31486250Y58640000I-198750J0D01*
G01*
X31013750Y58640000D01*
G75*
G02*
X30815000Y58838750I0J198750D01*
G01*
X30815000Y59236250D01*
G75*
G02*
X31013750Y59435000I198750J0D01*
G01*
G37*
G36*
G01*
X29263750Y57860000D02*
X29736250Y57860000D01*
G75*
G02*
X29935000Y57661250I0J-198750D01*
G01*
X29935000Y57263750D01*
G75*
G02*
X29736250Y57065000I-198750J0D01*
G01*
X29263750Y57065000D01*
G75*
G02*
X29065000Y57263750I0J198750D01*
G01*
X29065000Y57661250D01*
G75*
G02*
X29263750Y57860000I198750J0D01*
G01*
G37*
G36*
G01*
X29263750Y59435000D02*
X29736250Y59435000D01*
G75*
G02*
X29935000Y59236250I0J-198750D01*
G01*
X29935000Y58838750D01*
G75*
G02*
X29736250Y58640000I-198750J0D01*
G01*
X29263750Y58640000D01*
G75*
G02*
X29065000Y58838750I0J198750D01*
G01*
X29065000Y59236250D01*
G75*
G02*
X29263750Y59435000I198750J0D01*
G01*
G37*
G36*
G01*
X25763750Y57860000D02*
X26236250Y57860000D01*
G75*
G02*
X26435000Y57661250I0J-198750D01*
G01*
X26435000Y57263750D01*
G75*
G02*
X26236250Y57065000I-198750J0D01*
G01*
X25763750Y57065000D01*
G75*
G02*
X25565000Y57263750I0J198750D01*
G01*
X25565000Y57661250D01*
G75*
G02*
X25763750Y57860000I198750J0D01*
G01*
G37*
G36*
G01*
X25763750Y59435000D02*
X26236250Y59435000D01*
G75*
G02*
X26435000Y59236250I0J-198750D01*
G01*
X26435000Y58838750D01*
G75*
G02*
X26236250Y58640000I-198750J0D01*
G01*
X25763750Y58640000D01*
G75*
G02*
X25565000Y58838750I0J198750D01*
G01*
X25565000Y59236250D01*
G75*
G02*
X25763750Y59435000I198750J0D01*
G01*
G37*
G36*
G01*
X42763750Y26610000D02*
X43236250Y26610000D01*
G75*
G02*
X43435000Y26411250I0J-198750D01*
G01*
X43435000Y26013750D01*
G75*
G02*
X43236250Y25815000I-198750J0D01*
G01*
X42763750Y25815000D01*
G75*
G02*
X42565000Y26013750I0J198750D01*
G01*
X42565000Y26411250D01*
G75*
G02*
X42763750Y26610000I198750J0D01*
G01*
G37*
G36*
G01*
X42763750Y28185000D02*
X43236250Y28185000D01*
G75*
G02*
X43435000Y27986250I0J-198750D01*
G01*
X43435000Y27588750D01*
G75*
G02*
X43236250Y27390000I-198750J0D01*
G01*
X42763750Y27390000D01*
G75*
G02*
X42565000Y27588750I0J198750D01*
G01*
X42565000Y27986250D01*
G75*
G02*
X42763750Y28185000I198750J0D01*
G01*
G37*
D15*
X65960000Y88000000D03*
X68730000Y88000000D03*
X71500000Y88000000D03*
X74270000Y88000000D03*
X77040000Y88000000D03*
X36540000Y88000000D03*
X33770000Y88000000D03*
X31000000Y88000000D03*
X28230000Y88000000D03*
X25460000Y88000000D03*
G36*
G01*
X84210000Y52017500D02*
X84210000Y51532500D01*
G75*
G02*
X84067500Y51390000I-142500J0D01*
G01*
X83782500Y51390000D01*
G75*
G02*
X83640000Y51532500I0J142500D01*
G01*
X83640000Y52017500D01*
G75*
G02*
X83782500Y52160000I142500J0D01*
G01*
X84067500Y52160000D01*
G75*
G02*
X84210000Y52017500I0J-142500D01*
G01*
G37*
G36*
G01*
X84210000Y53467500D02*
X84210000Y52982500D01*
G75*
G02*
X84067500Y52840000I-142500J0D01*
G01*
X83782500Y52840000D01*
G75*
G02*
X83640000Y52982500I0J142500D01*
G01*
X83640000Y53467500D01*
G75*
G02*
X83782500Y53610000I142500J0D01*
G01*
X84067500Y53610000D01*
G75*
G02*
X84210000Y53467500I0J-142500D01*
G01*
G37*
G36*
G01*
X83360000Y53467500D02*
X83360000Y52982500D01*
G75*
G02*
X83217500Y52840000I-142500J0D01*
G01*
X82932500Y52840000D01*
G75*
G02*
X82790000Y52982500I0J142500D01*
G01*
X82790000Y53467500D01*
G75*
G02*
X82932500Y53610000I142500J0D01*
G01*
X83217500Y53610000D01*
G75*
G02*
X83360000Y53467500I0J-142500D01*
G01*
G37*
G36*
G01*
X83360000Y52017500D02*
X83360000Y51532500D01*
G75*
G02*
X83217500Y51390000I-142500J0D01*
G01*
X82932500Y51390000D01*
G75*
G02*
X82790000Y51532500I0J142500D01*
G01*
X82790000Y52017500D01*
G75*
G02*
X82932500Y52160000I142500J0D01*
G01*
X83217500Y52160000D01*
G75*
G02*
X83360000Y52017500I0J-142500D01*
G01*
G37*
G36*
G01*
X84210000Y56517500D02*
X84210000Y56032500D01*
G75*
G02*
X84067500Y55890000I-142500J0D01*
G01*
X83782500Y55890000D01*
G75*
G02*
X83640000Y56032500I0J142500D01*
G01*
X83640000Y56517500D01*
G75*
G02*
X83782500Y56660000I142500J0D01*
G01*
X84067500Y56660000D01*
G75*
G02*
X84210000Y56517500I0J-142500D01*
G01*
G37*
G36*
G01*
X84210000Y57967500D02*
X84210000Y57482500D01*
G75*
G02*
X84067500Y57340000I-142500J0D01*
G01*
X83782500Y57340000D01*
G75*
G02*
X83640000Y57482500I0J142500D01*
G01*
X83640000Y57967500D01*
G75*
G02*
X83782500Y58110000I142500J0D01*
G01*
X84067500Y58110000D01*
G75*
G02*
X84210000Y57967500I0J-142500D01*
G01*
G37*
G36*
G01*
X83360000Y57967500D02*
X83360000Y57482500D01*
G75*
G02*
X83217500Y57340000I-142500J0D01*
G01*
X82932500Y57340000D01*
G75*
G02*
X82790000Y57482500I0J142500D01*
G01*
X82790000Y57967500D01*
G75*
G02*
X82932500Y58110000I142500J0D01*
G01*
X83217500Y58110000D01*
G75*
G02*
X83360000Y57967500I0J-142500D01*
G01*
G37*
G36*
G01*
X83360000Y56517500D02*
X83360000Y56032500D01*
G75*
G02*
X83217500Y55890000I-142500J0D01*
G01*
X82932500Y55890000D01*
G75*
G02*
X82790000Y56032500I0J142500D01*
G01*
X82790000Y56517500D01*
G75*
G02*
X82932500Y56660000I142500J0D01*
G01*
X83217500Y56660000D01*
G75*
G02*
X83360000Y56517500I0J-142500D01*
G01*
G37*
G36*
G01*
X84210000Y78267500D02*
X84210000Y77782500D01*
G75*
G02*
X84067500Y77640000I-142500J0D01*
G01*
X83782500Y77640000D01*
G75*
G02*
X83640000Y77782500I0J142500D01*
G01*
X83640000Y78267500D01*
G75*
G02*
X83782500Y78410000I142500J0D01*
G01*
X84067500Y78410000D01*
G75*
G02*
X84210000Y78267500I0J-142500D01*
G01*
G37*
G36*
G01*
X84210000Y79717500D02*
X84210000Y79232500D01*
G75*
G02*
X84067500Y79090000I-142500J0D01*
G01*
X83782500Y79090000D01*
G75*
G02*
X83640000Y79232500I0J142500D01*
G01*
X83640000Y79717500D01*
G75*
G02*
X83782500Y79860000I142500J0D01*
G01*
X84067500Y79860000D01*
G75*
G02*
X84210000Y79717500I0J-142500D01*
G01*
G37*
G36*
G01*
X83360000Y79717500D02*
X83360000Y79232500D01*
G75*
G02*
X83217500Y79090000I-142500J0D01*
G01*
X82932500Y79090000D01*
G75*
G02*
X82790000Y79232500I0J142500D01*
G01*
X82790000Y79717500D01*
G75*
G02*
X82932500Y79860000I142500J0D01*
G01*
X83217500Y79860000D01*
G75*
G02*
X83360000Y79717500I0J-142500D01*
G01*
G37*
G36*
G01*
X83360000Y78267500D02*
X83360000Y77782500D01*
G75*
G02*
X83217500Y77640000I-142500J0D01*
G01*
X82932500Y77640000D01*
G75*
G02*
X82790000Y77782500I0J142500D01*
G01*
X82790000Y78267500D01*
G75*
G02*
X82932500Y78410000I142500J0D01*
G01*
X83217500Y78410000D01*
G75*
G02*
X83360000Y78267500I0J-142500D01*
G01*
G37*
G36*
G01*
X84210000Y82767500D02*
X84210000Y82282500D01*
G75*
G02*
X84067500Y82140000I-142500J0D01*
G01*
X83782500Y82140000D01*
G75*
G02*
X83640000Y82282500I0J142500D01*
G01*
X83640000Y82767500D01*
G75*
G02*
X83782500Y82910000I142500J0D01*
G01*
X84067500Y82910000D01*
G75*
G02*
X84210000Y82767500I0J-142500D01*
G01*
G37*
G36*
G01*
X84210000Y84217500D02*
X84210000Y83732500D01*
G75*
G02*
X84067500Y83590000I-142500J0D01*
G01*
X83782500Y83590000D01*
G75*
G02*
X83640000Y83732500I0J142500D01*
G01*
X83640000Y84217500D01*
G75*
G02*
X83782500Y84360000I142500J0D01*
G01*
X84067500Y84360000D01*
G75*
G02*
X84210000Y84217500I0J-142500D01*
G01*
G37*
G36*
G01*
X83360000Y84217500D02*
X83360000Y83732500D01*
G75*
G02*
X83217500Y83590000I-142500J0D01*
G01*
X82932500Y83590000D01*
G75*
G02*
X82790000Y83732500I0J142500D01*
G01*
X82790000Y84217500D01*
G75*
G02*
X82932500Y84360000I142500J0D01*
G01*
X83217500Y84360000D01*
G75*
G02*
X83360000Y84217500I0J-142500D01*
G01*
G37*
G36*
G01*
X83360000Y82767500D02*
X83360000Y82282500D01*
G75*
G02*
X83217500Y82140000I-142500J0D01*
G01*
X82932500Y82140000D01*
G75*
G02*
X82790000Y82282500I0J142500D01*
G01*
X82790000Y82767500D01*
G75*
G02*
X82932500Y82910000I142500J0D01*
G01*
X83217500Y82910000D01*
G75*
G02*
X83360000Y82767500I0J-142500D01*
G01*
G37*
G36*
G01*
X84210000Y87267500D02*
X84210000Y86782500D01*
G75*
G02*
X84067500Y86640000I-142500J0D01*
G01*
X83782500Y86640000D01*
G75*
G02*
X83640000Y86782500I0J142500D01*
G01*
X83640000Y87267500D01*
G75*
G02*
X83782500Y87410000I142500J0D01*
G01*
X84067500Y87410000D01*
G75*
G02*
X84210000Y87267500I0J-142500D01*
G01*
G37*
G36*
G01*
X84210000Y88717500D02*
X84210000Y88232500D01*
G75*
G02*
X84067500Y88090000I-142500J0D01*
G01*
X83782500Y88090000D01*
G75*
G02*
X83640000Y88232500I0J142500D01*
G01*
X83640000Y88717500D01*
G75*
G02*
X83782500Y88860000I142500J0D01*
G01*
X84067500Y88860000D01*
G75*
G02*
X84210000Y88717500I0J-142500D01*
G01*
G37*
G36*
G01*
X83360000Y88717500D02*
X83360000Y88232500D01*
G75*
G02*
X83217500Y88090000I-142500J0D01*
G01*
X82932500Y88090000D01*
G75*
G02*
X82790000Y88232500I0J142500D01*
G01*
X82790000Y88717500D01*
G75*
G02*
X82932500Y88860000I142500J0D01*
G01*
X83217500Y88860000D01*
G75*
G02*
X83360000Y88717500I0J-142500D01*
G01*
G37*
G36*
G01*
X83360000Y87267500D02*
X83360000Y86782500D01*
G75*
G02*
X83217500Y86640000I-142500J0D01*
G01*
X82932500Y86640000D01*
G75*
G02*
X82790000Y86782500I0J142500D01*
G01*
X82790000Y87267500D01*
G75*
G02*
X82932500Y87410000I142500J0D01*
G01*
X83217500Y87410000D01*
G75*
G02*
X83360000Y87267500I0J-142500D01*
G01*
G37*
G36*
G01*
X84210000Y70767500D02*
X84210000Y70282500D01*
G75*
G02*
X84067500Y70140000I-142500J0D01*
G01*
X83782500Y70140000D01*
G75*
G02*
X83640000Y70282500I0J142500D01*
G01*
X83640000Y70767500D01*
G75*
G02*
X83782500Y70910000I142500J0D01*
G01*
X84067500Y70910000D01*
G75*
G02*
X84210000Y70767500I0J-142500D01*
G01*
G37*
G36*
G01*
X84210000Y72217500D02*
X84210000Y71732500D01*
G75*
G02*
X84067500Y71590000I-142500J0D01*
G01*
X83782500Y71590000D01*
G75*
G02*
X83640000Y71732500I0J142500D01*
G01*
X83640000Y72217500D01*
G75*
G02*
X83782500Y72360000I142500J0D01*
G01*
X84067500Y72360000D01*
G75*
G02*
X84210000Y72217500I0J-142500D01*
G01*
G37*
G36*
G01*
X83360000Y72217500D02*
X83360000Y71732500D01*
G75*
G02*
X83217500Y71590000I-142500J0D01*
G01*
X82932500Y71590000D01*
G75*
G02*
X82790000Y71732500I0J142500D01*
G01*
X82790000Y72217500D01*
G75*
G02*
X82932500Y72360000I142500J0D01*
G01*
X83217500Y72360000D01*
G75*
G02*
X83360000Y72217500I0J-142500D01*
G01*
G37*
G36*
G01*
X83360000Y70767500D02*
X83360000Y70282500D01*
G75*
G02*
X83217500Y70140000I-142500J0D01*
G01*
X82932500Y70140000D01*
G75*
G02*
X82790000Y70282500I0J142500D01*
G01*
X82790000Y70767500D01*
G75*
G02*
X82932500Y70910000I142500J0D01*
G01*
X83217500Y70910000D01*
G75*
G02*
X83360000Y70767500I0J-142500D01*
G01*
G37*
G36*
G01*
X84210000Y66267500D02*
X84210000Y65782500D01*
G75*
G02*
X84067500Y65640000I-142500J0D01*
G01*
X83782500Y65640000D01*
G75*
G02*
X83640000Y65782500I0J142500D01*
G01*
X83640000Y66267500D01*
G75*
G02*
X83782500Y66410000I142500J0D01*
G01*
X84067500Y66410000D01*
G75*
G02*
X84210000Y66267500I0J-142500D01*
G01*
G37*
G36*
G01*
X84210000Y67717500D02*
X84210000Y67232500D01*
G75*
G02*
X84067500Y67090000I-142500J0D01*
G01*
X83782500Y67090000D01*
G75*
G02*
X83640000Y67232500I0J142500D01*
G01*
X83640000Y67717500D01*
G75*
G02*
X83782500Y67860000I142500J0D01*
G01*
X84067500Y67860000D01*
G75*
G02*
X84210000Y67717500I0J-142500D01*
G01*
G37*
G36*
G01*
X83360000Y67717500D02*
X83360000Y67232500D01*
G75*
G02*
X83217500Y67090000I-142500J0D01*
G01*
X82932500Y67090000D01*
G75*
G02*
X82790000Y67232500I0J142500D01*
G01*
X82790000Y67717500D01*
G75*
G02*
X82932500Y67860000I142500J0D01*
G01*
X83217500Y67860000D01*
G75*
G02*
X83360000Y67717500I0J-142500D01*
G01*
G37*
G36*
G01*
X83360000Y66267500D02*
X83360000Y65782500D01*
G75*
G02*
X83217500Y65640000I-142500J0D01*
G01*
X82932500Y65640000D01*
G75*
G02*
X82790000Y65782500I0J142500D01*
G01*
X82790000Y66267500D01*
G75*
G02*
X82932500Y66410000I142500J0D01*
G01*
X83217500Y66410000D01*
G75*
G02*
X83360000Y66267500I0J-142500D01*
G01*
G37*
G36*
G01*
X18535000Y53927500D02*
X18535000Y54412500D01*
G75*
G02*
X18677500Y54555000I142500J0D01*
G01*
X18962500Y54555000D01*
G75*
G02*
X19105000Y54412500I0J-142500D01*
G01*
X19105000Y53927500D01*
G75*
G02*
X18962500Y53785000I-142500J0D01*
G01*
X18677500Y53785000D01*
G75*
G02*
X18535000Y53927500I0J142500D01*
G01*
G37*
G36*
G01*
X18535000Y52477500D02*
X18535000Y52962500D01*
G75*
G02*
X18677500Y53105000I142500J0D01*
G01*
X18962500Y53105000D01*
G75*
G02*
X19105000Y52962500I0J-142500D01*
G01*
X19105000Y52477500D01*
G75*
G02*
X18962500Y52335000I-142500J0D01*
G01*
X18677500Y52335000D01*
G75*
G02*
X18535000Y52477500I0J142500D01*
G01*
G37*
G36*
G01*
X19385000Y52477500D02*
X19385000Y52962500D01*
G75*
G02*
X19527500Y53105000I142500J0D01*
G01*
X19812500Y53105000D01*
G75*
G02*
X19955000Y52962500I0J-142500D01*
G01*
X19955000Y52477500D01*
G75*
G02*
X19812500Y52335000I-142500J0D01*
G01*
X19527500Y52335000D01*
G75*
G02*
X19385000Y52477500I0J142500D01*
G01*
G37*
G36*
G01*
X19385000Y53927500D02*
X19385000Y54412500D01*
G75*
G02*
X19527500Y54555000I142500J0D01*
G01*
X19812500Y54555000D01*
G75*
G02*
X19955000Y54412500I0J-142500D01*
G01*
X19955000Y53927500D01*
G75*
G02*
X19812500Y53785000I-142500J0D01*
G01*
X19527500Y53785000D01*
G75*
G02*
X19385000Y53927500I0J142500D01*
G01*
G37*
G36*
G01*
X18535000Y58177500D02*
X18535000Y58662500D01*
G75*
G02*
X18677500Y58805000I142500J0D01*
G01*
X18962500Y58805000D01*
G75*
G02*
X19105000Y58662500I0J-142500D01*
G01*
X19105000Y58177500D01*
G75*
G02*
X18962500Y58035000I-142500J0D01*
G01*
X18677500Y58035000D01*
G75*
G02*
X18535000Y58177500I0J142500D01*
G01*
G37*
G36*
G01*
X18535000Y56727500D02*
X18535000Y57212500D01*
G75*
G02*
X18677500Y57355000I142500J0D01*
G01*
X18962500Y57355000D01*
G75*
G02*
X19105000Y57212500I0J-142500D01*
G01*
X19105000Y56727500D01*
G75*
G02*
X18962500Y56585000I-142500J0D01*
G01*
X18677500Y56585000D01*
G75*
G02*
X18535000Y56727500I0J142500D01*
G01*
G37*
G36*
G01*
X19385000Y56727500D02*
X19385000Y57212500D01*
G75*
G02*
X19527500Y57355000I142500J0D01*
G01*
X19812500Y57355000D01*
G75*
G02*
X19955000Y57212500I0J-142500D01*
G01*
X19955000Y56727500D01*
G75*
G02*
X19812500Y56585000I-142500J0D01*
G01*
X19527500Y56585000D01*
G75*
G02*
X19385000Y56727500I0J142500D01*
G01*
G37*
G36*
G01*
X19385000Y58177500D02*
X19385000Y58662500D01*
G75*
G02*
X19527500Y58805000I142500J0D01*
G01*
X19812500Y58805000D01*
G75*
G02*
X19955000Y58662500I0J-142500D01*
G01*
X19955000Y58177500D01*
G75*
G02*
X19812500Y58035000I-142500J0D01*
G01*
X19527500Y58035000D01*
G75*
G02*
X19385000Y58177500I0J142500D01*
G01*
G37*
G36*
G01*
X18535000Y79927500D02*
X18535000Y80412500D01*
G75*
G02*
X18677500Y80555000I142500J0D01*
G01*
X18962500Y80555000D01*
G75*
G02*
X19105000Y80412500I0J-142500D01*
G01*
X19105000Y79927500D01*
G75*
G02*
X18962500Y79785000I-142500J0D01*
G01*
X18677500Y79785000D01*
G75*
G02*
X18535000Y79927500I0J142500D01*
G01*
G37*
G36*
G01*
X18535000Y78477500D02*
X18535000Y78962500D01*
G75*
G02*
X18677500Y79105000I142500J0D01*
G01*
X18962500Y79105000D01*
G75*
G02*
X19105000Y78962500I0J-142500D01*
G01*
X19105000Y78477500D01*
G75*
G02*
X18962500Y78335000I-142500J0D01*
G01*
X18677500Y78335000D01*
G75*
G02*
X18535000Y78477500I0J142500D01*
G01*
G37*
G36*
G01*
X19385000Y78477500D02*
X19385000Y78962500D01*
G75*
G02*
X19527500Y79105000I142500J0D01*
G01*
X19812500Y79105000D01*
G75*
G02*
X19955000Y78962500I0J-142500D01*
G01*
X19955000Y78477500D01*
G75*
G02*
X19812500Y78335000I-142500J0D01*
G01*
X19527500Y78335000D01*
G75*
G02*
X19385000Y78477500I0J142500D01*
G01*
G37*
G36*
G01*
X19385000Y79927500D02*
X19385000Y80412500D01*
G75*
G02*
X19527500Y80555000I142500J0D01*
G01*
X19812500Y80555000D01*
G75*
G02*
X19955000Y80412500I0J-142500D01*
G01*
X19955000Y79927500D01*
G75*
G02*
X19812500Y79785000I-142500J0D01*
G01*
X19527500Y79785000D01*
G75*
G02*
X19385000Y79927500I0J142500D01*
G01*
G37*
G36*
G01*
X18535000Y62677500D02*
X18535000Y63162500D01*
G75*
G02*
X18677500Y63305000I142500J0D01*
G01*
X18962500Y63305000D01*
G75*
G02*
X19105000Y63162500I0J-142500D01*
G01*
X19105000Y62677500D01*
G75*
G02*
X18962500Y62535000I-142500J0D01*
G01*
X18677500Y62535000D01*
G75*
G02*
X18535000Y62677500I0J142500D01*
G01*
G37*
G36*
G01*
X18535000Y61227500D02*
X18535000Y61712500D01*
G75*
G02*
X18677500Y61855000I142500J0D01*
G01*
X18962500Y61855000D01*
G75*
G02*
X19105000Y61712500I0J-142500D01*
G01*
X19105000Y61227500D01*
G75*
G02*
X18962500Y61085000I-142500J0D01*
G01*
X18677500Y61085000D01*
G75*
G02*
X18535000Y61227500I0J142500D01*
G01*
G37*
G36*
G01*
X19385000Y61227500D02*
X19385000Y61712500D01*
G75*
G02*
X19527500Y61855000I142500J0D01*
G01*
X19812500Y61855000D01*
G75*
G02*
X19955000Y61712500I0J-142500D01*
G01*
X19955000Y61227500D01*
G75*
G02*
X19812500Y61085000I-142500J0D01*
G01*
X19527500Y61085000D01*
G75*
G02*
X19385000Y61227500I0J142500D01*
G01*
G37*
G36*
G01*
X19385000Y62677500D02*
X19385000Y63162500D01*
G75*
G02*
X19527500Y63305000I142500J0D01*
G01*
X19812500Y63305000D01*
G75*
G02*
X19955000Y63162500I0J-142500D01*
G01*
X19955000Y62677500D01*
G75*
G02*
X19812500Y62535000I-142500J0D01*
G01*
X19527500Y62535000D01*
G75*
G02*
X19385000Y62677500I0J142500D01*
G01*
G37*
G36*
G01*
X18535000Y84177500D02*
X18535000Y84662500D01*
G75*
G02*
X18677500Y84805000I142500J0D01*
G01*
X18962500Y84805000D01*
G75*
G02*
X19105000Y84662500I0J-142500D01*
G01*
X19105000Y84177500D01*
G75*
G02*
X18962500Y84035000I-142500J0D01*
G01*
X18677500Y84035000D01*
G75*
G02*
X18535000Y84177500I0J142500D01*
G01*
G37*
G36*
G01*
X18535000Y82727500D02*
X18535000Y83212500D01*
G75*
G02*
X18677500Y83355000I142500J0D01*
G01*
X18962500Y83355000D01*
G75*
G02*
X19105000Y83212500I0J-142500D01*
G01*
X19105000Y82727500D01*
G75*
G02*
X18962500Y82585000I-142500J0D01*
G01*
X18677500Y82585000D01*
G75*
G02*
X18535000Y82727500I0J142500D01*
G01*
G37*
G36*
G01*
X19385000Y82727500D02*
X19385000Y83212500D01*
G75*
G02*
X19527500Y83355000I142500J0D01*
G01*
X19812500Y83355000D01*
G75*
G02*
X19955000Y83212500I0J-142500D01*
G01*
X19955000Y82727500D01*
G75*
G02*
X19812500Y82585000I-142500J0D01*
G01*
X19527500Y82585000D01*
G75*
G02*
X19385000Y82727500I0J142500D01*
G01*
G37*
G36*
G01*
X19385000Y84177500D02*
X19385000Y84662500D01*
G75*
G02*
X19527500Y84805000I142500J0D01*
G01*
X19812500Y84805000D01*
G75*
G02*
X19955000Y84662500I0J-142500D01*
G01*
X19955000Y84177500D01*
G75*
G02*
X19812500Y84035000I-142500J0D01*
G01*
X19527500Y84035000D01*
G75*
G02*
X19385000Y84177500I0J142500D01*
G01*
G37*
G36*
G01*
X18535000Y88427500D02*
X18535000Y88912500D01*
G75*
G02*
X18677500Y89055000I142500J0D01*
G01*
X18962500Y89055000D01*
G75*
G02*
X19105000Y88912500I0J-142500D01*
G01*
X19105000Y88427500D01*
G75*
G02*
X18962500Y88285000I-142500J0D01*
G01*
X18677500Y88285000D01*
G75*
G02*
X18535000Y88427500I0J142500D01*
G01*
G37*
G36*
G01*
X18535000Y86977500D02*
X18535000Y87462500D01*
G75*
G02*
X18677500Y87605000I142500J0D01*
G01*
X18962500Y87605000D01*
G75*
G02*
X19105000Y87462500I0J-142500D01*
G01*
X19105000Y86977500D01*
G75*
G02*
X18962500Y86835000I-142500J0D01*
G01*
X18677500Y86835000D01*
G75*
G02*
X18535000Y86977500I0J142500D01*
G01*
G37*
G36*
G01*
X19385000Y86977500D02*
X19385000Y87462500D01*
G75*
G02*
X19527500Y87605000I142500J0D01*
G01*
X19812500Y87605000D01*
G75*
G02*
X19955000Y87462500I0J-142500D01*
G01*
X19955000Y86977500D01*
G75*
G02*
X19812500Y86835000I-142500J0D01*
G01*
X19527500Y86835000D01*
G75*
G02*
X19385000Y86977500I0J142500D01*
G01*
G37*
G36*
G01*
X19385000Y88427500D02*
X19385000Y88912500D01*
G75*
G02*
X19527500Y89055000I142500J0D01*
G01*
X19812500Y89055000D01*
G75*
G02*
X19955000Y88912500I0J-142500D01*
G01*
X19955000Y88427500D01*
G75*
G02*
X19812500Y88285000I-142500J0D01*
G01*
X19527500Y88285000D01*
G75*
G02*
X19385000Y88427500I0J142500D01*
G01*
G37*
G36*
G01*
X18535000Y71427500D02*
X18535000Y71912500D01*
G75*
G02*
X18677500Y72055000I142500J0D01*
G01*
X18962500Y72055000D01*
G75*
G02*
X19105000Y71912500I0J-142500D01*
G01*
X19105000Y71427500D01*
G75*
G02*
X18962500Y71285000I-142500J0D01*
G01*
X18677500Y71285000D01*
G75*
G02*
X18535000Y71427500I0J142500D01*
G01*
G37*
G36*
G01*
X18535000Y69977500D02*
X18535000Y70462500D01*
G75*
G02*
X18677500Y70605000I142500J0D01*
G01*
X18962500Y70605000D01*
G75*
G02*
X19105000Y70462500I0J-142500D01*
G01*
X19105000Y69977500D01*
G75*
G02*
X18962500Y69835000I-142500J0D01*
G01*
X18677500Y69835000D01*
G75*
G02*
X18535000Y69977500I0J142500D01*
G01*
G37*
G36*
G01*
X19385000Y69977500D02*
X19385000Y70462500D01*
G75*
G02*
X19527500Y70605000I142500J0D01*
G01*
X19812500Y70605000D01*
G75*
G02*
X19955000Y70462500I0J-142500D01*
G01*
X19955000Y69977500D01*
G75*
G02*
X19812500Y69835000I-142500J0D01*
G01*
X19527500Y69835000D01*
G75*
G02*
X19385000Y69977500I0J142500D01*
G01*
G37*
G36*
G01*
X19385000Y71427500D02*
X19385000Y71912500D01*
G75*
G02*
X19527500Y72055000I142500J0D01*
G01*
X19812500Y72055000D01*
G75*
G02*
X19955000Y71912500I0J-142500D01*
G01*
X19955000Y71427500D01*
G75*
G02*
X19812500Y71285000I-142500J0D01*
G01*
X19527500Y71285000D01*
G75*
G02*
X19385000Y71427500I0J142500D01*
G01*
G37*
G36*
G01*
X18535000Y67177500D02*
X18535000Y67662500D01*
G75*
G02*
X18677500Y67805000I142500J0D01*
G01*
X18962500Y67805000D01*
G75*
G02*
X19105000Y67662500I0J-142500D01*
G01*
X19105000Y67177500D01*
G75*
G02*
X18962500Y67035000I-142500J0D01*
G01*
X18677500Y67035000D01*
G75*
G02*
X18535000Y67177500I0J142500D01*
G01*
G37*
G36*
G01*
X18535000Y65727500D02*
X18535000Y66212500D01*
G75*
G02*
X18677500Y66355000I142500J0D01*
G01*
X18962500Y66355000D01*
G75*
G02*
X19105000Y66212500I0J-142500D01*
G01*
X19105000Y65727500D01*
G75*
G02*
X18962500Y65585000I-142500J0D01*
G01*
X18677500Y65585000D01*
G75*
G02*
X18535000Y65727500I0J142500D01*
G01*
G37*
G36*
G01*
X19385000Y65727500D02*
X19385000Y66212500D01*
G75*
G02*
X19527500Y66355000I142500J0D01*
G01*
X19812500Y66355000D01*
G75*
G02*
X19955000Y66212500I0J-142500D01*
G01*
X19955000Y65727500D01*
G75*
G02*
X19812500Y65585000I-142500J0D01*
G01*
X19527500Y65585000D01*
G75*
G02*
X19385000Y65727500I0J142500D01*
G01*
G37*
G36*
G01*
X19385000Y67177500D02*
X19385000Y67662500D01*
G75*
G02*
X19527500Y67805000I142500J0D01*
G01*
X19812500Y67805000D01*
G75*
G02*
X19955000Y67662500I0J-142500D01*
G01*
X19955000Y67177500D01*
G75*
G02*
X19812500Y67035000I-142500J0D01*
G01*
X19527500Y67035000D01*
G75*
G02*
X19385000Y67177500I0J142500D01*
G01*
G37*
G36*
G01*
X58040000Y23732500D02*
X58040000Y24217500D01*
G75*
G02*
X58182500Y24360000I142500J0D01*
G01*
X58467500Y24360000D01*
G75*
G02*
X58610000Y24217500I0J-142500D01*
G01*
X58610000Y23732500D01*
G75*
G02*
X58467500Y23590000I-142500J0D01*
G01*
X58182500Y23590000D01*
G75*
G02*
X58040000Y23732500I0J142500D01*
G01*
G37*
G36*
G01*
X58040000Y22282500D02*
X58040000Y22767500D01*
G75*
G02*
X58182500Y22910000I142500J0D01*
G01*
X58467500Y22910000D01*
G75*
G02*
X58610000Y22767500I0J-142500D01*
G01*
X58610000Y22282500D01*
G75*
G02*
X58467500Y22140000I-142500J0D01*
G01*
X58182500Y22140000D01*
G75*
G02*
X58040000Y22282500I0J142500D01*
G01*
G37*
G36*
G01*
X58890000Y22282500D02*
X58890000Y22767500D01*
G75*
G02*
X59032500Y22910000I142500J0D01*
G01*
X59317500Y22910000D01*
G75*
G02*
X59460000Y22767500I0J-142500D01*
G01*
X59460000Y22282500D01*
G75*
G02*
X59317500Y22140000I-142500J0D01*
G01*
X59032500Y22140000D01*
G75*
G02*
X58890000Y22282500I0J142500D01*
G01*
G37*
G36*
G01*
X58890000Y23732500D02*
X58890000Y24217500D01*
G75*
G02*
X59032500Y24360000I142500J0D01*
G01*
X59317500Y24360000D01*
G75*
G02*
X59460000Y24217500I0J-142500D01*
G01*
X59460000Y23732500D01*
G75*
G02*
X59317500Y23590000I-142500J0D01*
G01*
X59032500Y23590000D01*
G75*
G02*
X58890000Y23732500I0J142500D01*
G01*
G37*
G36*
G01*
X42290000Y23732500D02*
X42290000Y24217500D01*
G75*
G02*
X42432500Y24360000I142500J0D01*
G01*
X42717500Y24360000D01*
G75*
G02*
X42860000Y24217500I0J-142500D01*
G01*
X42860000Y23732500D01*
G75*
G02*
X42717500Y23590000I-142500J0D01*
G01*
X42432500Y23590000D01*
G75*
G02*
X42290000Y23732500I0J142500D01*
G01*
G37*
G36*
G01*
X42290000Y22282500D02*
X42290000Y22767500D01*
G75*
G02*
X42432500Y22910000I142500J0D01*
G01*
X42717500Y22910000D01*
G75*
G02*
X42860000Y22767500I0J-142500D01*
G01*
X42860000Y22282500D01*
G75*
G02*
X42717500Y22140000I-142500J0D01*
G01*
X42432500Y22140000D01*
G75*
G02*
X42290000Y22282500I0J142500D01*
G01*
G37*
G36*
G01*
X43140000Y22282500D02*
X43140000Y22767500D01*
G75*
G02*
X43282500Y22910000I142500J0D01*
G01*
X43567500Y22910000D01*
G75*
G02*
X43710000Y22767500I0J-142500D01*
G01*
X43710000Y22282500D01*
G75*
G02*
X43567500Y22140000I-142500J0D01*
G01*
X43282500Y22140000D01*
G75*
G02*
X43140000Y22282500I0J142500D01*
G01*
G37*
G36*
G01*
X43140000Y23732500D02*
X43140000Y24217500D01*
G75*
G02*
X43282500Y24360000I142500J0D01*
G01*
X43567500Y24360000D01*
G75*
G02*
X43710000Y24217500I0J-142500D01*
G01*
X43710000Y23732500D01*
G75*
G02*
X43567500Y23590000I-142500J0D01*
G01*
X43282500Y23590000D01*
G75*
G02*
X43140000Y23732500I0J142500D01*
G01*
G37*
G36*
G01*
X36513750Y47110000D02*
X36986250Y47110000D01*
G75*
G02*
X37185000Y46911250I0J-198750D01*
G01*
X37185000Y46513750D01*
G75*
G02*
X36986250Y46315000I-198750J0D01*
G01*
X36513750Y46315000D01*
G75*
G02*
X36315000Y46513750I0J198750D01*
G01*
X36315000Y46911250D01*
G75*
G02*
X36513750Y47110000I198750J0D01*
G01*
G37*
G36*
G01*
X36513750Y48685000D02*
X36986250Y48685000D01*
G75*
G02*
X37185000Y48486250I0J-198750D01*
G01*
X37185000Y48088750D01*
G75*
G02*
X36986250Y47890000I-198750J0D01*
G01*
X36513750Y47890000D01*
G75*
G02*
X36315000Y48088750I0J198750D01*
G01*
X36315000Y48486250D01*
G75*
G02*
X36513750Y48685000I198750J0D01*
G01*
G37*
G36*
G01*
X31513750Y47110000D02*
X31986250Y47110000D01*
G75*
G02*
X32185000Y46911250I0J-198750D01*
G01*
X32185000Y46513750D01*
G75*
G02*
X31986250Y46315000I-198750J0D01*
G01*
X31513750Y46315000D01*
G75*
G02*
X31315000Y46513750I0J198750D01*
G01*
X31315000Y46911250D01*
G75*
G02*
X31513750Y47110000I198750J0D01*
G01*
G37*
G36*
G01*
X31513750Y48685000D02*
X31986250Y48685000D01*
G75*
G02*
X32185000Y48486250I0J-198750D01*
G01*
X32185000Y48088750D01*
G75*
G02*
X31986250Y47890000I-198750J0D01*
G01*
X31513750Y47890000D01*
G75*
G02*
X31315000Y48088750I0J198750D01*
G01*
X31315000Y48486250D01*
G75*
G02*
X31513750Y48685000I198750J0D01*
G01*
G37*
G36*
G01*
X33013750Y47110000D02*
X33486250Y47110000D01*
G75*
G02*
X33685000Y46911250I0J-198750D01*
G01*
X33685000Y46513750D01*
G75*
G02*
X33486250Y46315000I-198750J0D01*
G01*
X33013750Y46315000D01*
G75*
G02*
X32815000Y46513750I0J198750D01*
G01*
X32815000Y46911250D01*
G75*
G02*
X33013750Y47110000I198750J0D01*
G01*
G37*
G36*
G01*
X33013750Y48685000D02*
X33486250Y48685000D01*
G75*
G02*
X33685000Y48486250I0J-198750D01*
G01*
X33685000Y48088750D01*
G75*
G02*
X33486250Y47890000I-198750J0D01*
G01*
X33013750Y47890000D01*
G75*
G02*
X32815000Y48088750I0J198750D01*
G01*
X32815000Y48486250D01*
G75*
G02*
X33013750Y48685000I198750J0D01*
G01*
G37*
G36*
G01*
X37890000Y36513750D02*
X37890000Y36986250D01*
G75*
G02*
X38088750Y37185000I198750J0D01*
G01*
X38486250Y37185000D01*
G75*
G02*
X38685000Y36986250I0J-198750D01*
G01*
X38685000Y36513750D01*
G75*
G02*
X38486250Y36315000I-198750J0D01*
G01*
X38088750Y36315000D01*
G75*
G02*
X37890000Y36513750I0J198750D01*
G01*
G37*
G36*
G01*
X36315000Y36513750D02*
X36315000Y36986250D01*
G75*
G02*
X36513750Y37185000I198750J0D01*
G01*
X36911250Y37185000D01*
G75*
G02*
X37110000Y36986250I0J-198750D01*
G01*
X37110000Y36513750D01*
G75*
G02*
X36911250Y36315000I-198750J0D01*
G01*
X36513750Y36315000D01*
G75*
G02*
X36315000Y36513750I0J198750D01*
G01*
G37*
G36*
G01*
X38486250Y47890000D02*
X38013750Y47890000D01*
G75*
G02*
X37815000Y48088750I0J198750D01*
G01*
X37815000Y48486250D01*
G75*
G02*
X38013750Y48685000I198750J0D01*
G01*
X38486250Y48685000D01*
G75*
G02*
X38685000Y48486250I0J-198750D01*
G01*
X38685000Y48088750D01*
G75*
G02*
X38486250Y47890000I-198750J0D01*
G01*
G37*
G36*
G01*
X38486250Y46315000D02*
X38013750Y46315000D01*
G75*
G02*
X37815000Y46513750I0J198750D01*
G01*
X37815000Y46911250D01*
G75*
G02*
X38013750Y47110000I198750J0D01*
G01*
X38486250Y47110000D01*
G75*
G02*
X38685000Y46911250I0J-198750D01*
G01*
X38685000Y46513750D01*
G75*
G02*
X38486250Y46315000I-198750J0D01*
G01*
G37*
G36*
G01*
X82763750Y47860000D02*
X83236250Y47860000D01*
G75*
G02*
X83435000Y47661250I0J-198750D01*
G01*
X83435000Y47263750D01*
G75*
G02*
X83236250Y47065000I-198750J0D01*
G01*
X82763750Y47065000D01*
G75*
G02*
X82565000Y47263750I0J198750D01*
G01*
X82565000Y47661250D01*
G75*
G02*
X82763750Y47860000I198750J0D01*
G01*
G37*
G36*
G01*
X82763750Y49435000D02*
X83236250Y49435000D01*
G75*
G02*
X83435000Y49236250I0J-198750D01*
G01*
X83435000Y48838750D01*
G75*
G02*
X83236250Y48640000I-198750J0D01*
G01*
X82763750Y48640000D01*
G75*
G02*
X82565000Y48838750I0J198750D01*
G01*
X82565000Y49236250D01*
G75*
G02*
X82763750Y49435000I198750J0D01*
G01*
G37*
G36*
G01*
X77763750Y47860000D02*
X78236250Y47860000D01*
G75*
G02*
X78435000Y47661250I0J-198750D01*
G01*
X78435000Y47263750D01*
G75*
G02*
X78236250Y47065000I-198750J0D01*
G01*
X77763750Y47065000D01*
G75*
G02*
X77565000Y47263750I0J198750D01*
G01*
X77565000Y47661250D01*
G75*
G02*
X77763750Y47860000I198750J0D01*
G01*
G37*
G36*
G01*
X77763750Y49435000D02*
X78236250Y49435000D01*
G75*
G02*
X78435000Y49236250I0J-198750D01*
G01*
X78435000Y48838750D01*
G75*
G02*
X78236250Y48640000I-198750J0D01*
G01*
X77763750Y48640000D01*
G75*
G02*
X77565000Y48838750I0J198750D01*
G01*
X77565000Y49236250D01*
G75*
G02*
X77763750Y49435000I198750J0D01*
G01*
G37*
G36*
G01*
X80986250Y48640000D02*
X80513750Y48640000D01*
G75*
G02*
X80315000Y48838750I0J198750D01*
G01*
X80315000Y49236250D01*
G75*
G02*
X80513750Y49435000I198750J0D01*
G01*
X80986250Y49435000D01*
G75*
G02*
X81185000Y49236250I0J-198750D01*
G01*
X81185000Y48838750D01*
G75*
G02*
X80986250Y48640000I-198750J0D01*
G01*
G37*
G36*
G01*
X80986250Y47065000D02*
X80513750Y47065000D01*
G75*
G02*
X80315000Y47263750I0J198750D01*
G01*
X80315000Y47661250D01*
G75*
G02*
X80513750Y47860000I198750J0D01*
G01*
X80986250Y47860000D01*
G75*
G02*
X81185000Y47661250I0J-198750D01*
G01*
X81185000Y47263750D01*
G75*
G02*
X80986250Y47065000I-198750J0D01*
G01*
G37*
G36*
G01*
X84140000Y36763750D02*
X84140000Y37236250D01*
G75*
G02*
X84338750Y37435000I198750J0D01*
G01*
X84736250Y37435000D01*
G75*
G02*
X84935000Y37236250I0J-198750D01*
G01*
X84935000Y36763750D01*
G75*
G02*
X84736250Y36565000I-198750J0D01*
G01*
X84338750Y36565000D01*
G75*
G02*
X84140000Y36763750I0J198750D01*
G01*
G37*
G36*
G01*
X82565000Y36763750D02*
X82565000Y37236250D01*
G75*
G02*
X82763750Y37435000I198750J0D01*
G01*
X83161250Y37435000D01*
G75*
G02*
X83360000Y37236250I0J-198750D01*
G01*
X83360000Y36763750D01*
G75*
G02*
X83161250Y36565000I-198750J0D01*
G01*
X82763750Y36565000D01*
G75*
G02*
X82565000Y36763750I0J198750D01*
G01*
G37*
G36*
G01*
X84736250Y48640000D02*
X84263750Y48640000D01*
G75*
G02*
X84065000Y48838750I0J198750D01*
G01*
X84065000Y49236250D01*
G75*
G02*
X84263750Y49435000I198750J0D01*
G01*
X84736250Y49435000D01*
G75*
G02*
X84935000Y49236250I0J-198750D01*
G01*
X84935000Y48838750D01*
G75*
G02*
X84736250Y48640000I-198750J0D01*
G01*
G37*
G36*
G01*
X84736250Y47065000D02*
X84263750Y47065000D01*
G75*
G02*
X84065000Y47263750I0J198750D01*
G01*
X84065000Y47661250D01*
G75*
G02*
X84263750Y47860000I198750J0D01*
G01*
X84736250Y47860000D01*
G75*
G02*
X84935000Y47661250I0J-198750D01*
G01*
X84935000Y47263750D01*
G75*
G02*
X84736250Y47065000I-198750J0D01*
G01*
G37*
G36*
G01*
X25763750Y47110000D02*
X26236250Y47110000D01*
G75*
G02*
X26435000Y46911250I0J-198750D01*
G01*
X26435000Y46513750D01*
G75*
G02*
X26236250Y46315000I-198750J0D01*
G01*
X25763750Y46315000D01*
G75*
G02*
X25565000Y46513750I0J198750D01*
G01*
X25565000Y46911250D01*
G75*
G02*
X25763750Y47110000I198750J0D01*
G01*
G37*
G36*
G01*
X25763750Y48685000D02*
X26236250Y48685000D01*
G75*
G02*
X26435000Y48486250I0J-198750D01*
G01*
X26435000Y48088750D01*
G75*
G02*
X26236250Y47890000I-198750J0D01*
G01*
X25763750Y47890000D01*
G75*
G02*
X25565000Y48088750I0J198750D01*
G01*
X25565000Y48486250D01*
G75*
G02*
X25763750Y48685000I198750J0D01*
G01*
G37*
G36*
G01*
X20763750Y47110000D02*
X21236250Y47110000D01*
G75*
G02*
X21435000Y46911250I0J-198750D01*
G01*
X21435000Y46513750D01*
G75*
G02*
X21236250Y46315000I-198750J0D01*
G01*
X20763750Y46315000D01*
G75*
G02*
X20565000Y46513750I0J198750D01*
G01*
X20565000Y46911250D01*
G75*
G02*
X20763750Y47110000I198750J0D01*
G01*
G37*
G36*
G01*
X20763750Y48685000D02*
X21236250Y48685000D01*
G75*
G02*
X21435000Y48486250I0J-198750D01*
G01*
X21435000Y48088750D01*
G75*
G02*
X21236250Y47890000I-198750J0D01*
G01*
X20763750Y47890000D01*
G75*
G02*
X20565000Y48088750I0J198750D01*
G01*
X20565000Y48486250D01*
G75*
G02*
X20763750Y48685000I198750J0D01*
G01*
G37*
G36*
G01*
X22263750Y47110000D02*
X22736250Y47110000D01*
G75*
G02*
X22935000Y46911250I0J-198750D01*
G01*
X22935000Y46513750D01*
G75*
G02*
X22736250Y46315000I-198750J0D01*
G01*
X22263750Y46315000D01*
G75*
G02*
X22065000Y46513750I0J198750D01*
G01*
X22065000Y46911250D01*
G75*
G02*
X22263750Y47110000I198750J0D01*
G01*
G37*
G36*
G01*
X22263750Y48685000D02*
X22736250Y48685000D01*
G75*
G02*
X22935000Y48486250I0J-198750D01*
G01*
X22935000Y48088750D01*
G75*
G02*
X22736250Y47890000I-198750J0D01*
G01*
X22263750Y47890000D01*
G75*
G02*
X22065000Y48088750I0J198750D01*
G01*
X22065000Y48486250D01*
G75*
G02*
X22263750Y48685000I198750J0D01*
G01*
G37*
G36*
G01*
X27140000Y36513750D02*
X27140000Y36986250D01*
G75*
G02*
X27338750Y37185000I198750J0D01*
G01*
X27736250Y37185000D01*
G75*
G02*
X27935000Y36986250I0J-198750D01*
G01*
X27935000Y36513750D01*
G75*
G02*
X27736250Y36315000I-198750J0D01*
G01*
X27338750Y36315000D01*
G75*
G02*
X27140000Y36513750I0J198750D01*
G01*
G37*
G36*
G01*
X25565000Y36513750D02*
X25565000Y36986250D01*
G75*
G02*
X25763750Y37185000I198750J0D01*
G01*
X26161250Y37185000D01*
G75*
G02*
X26360000Y36986250I0J-198750D01*
G01*
X26360000Y36513750D01*
G75*
G02*
X26161250Y36315000I-198750J0D01*
G01*
X25763750Y36315000D01*
G75*
G02*
X25565000Y36513750I0J198750D01*
G01*
G37*
G36*
G01*
X27736250Y47890000D02*
X27263750Y47890000D01*
G75*
G02*
X27065000Y48088750I0J198750D01*
G01*
X27065000Y48486250D01*
G75*
G02*
X27263750Y48685000I198750J0D01*
G01*
X27736250Y48685000D01*
G75*
G02*
X27935000Y48486250I0J-198750D01*
G01*
X27935000Y48088750D01*
G75*
G02*
X27736250Y47890000I-198750J0D01*
G01*
G37*
G36*
G01*
X27736250Y46315000D02*
X27263750Y46315000D01*
G75*
G02*
X27065000Y46513750I0J198750D01*
G01*
X27065000Y46911250D01*
G75*
G02*
X27263750Y47110000I198750J0D01*
G01*
X27736250Y47110000D01*
G75*
G02*
X27935000Y46911250I0J-198750D01*
G01*
X27935000Y46513750D01*
G75*
G02*
X27736250Y46315000I-198750J0D01*
G01*
G37*
G36*
G01*
X72013750Y47860000D02*
X72486250Y47860000D01*
G75*
G02*
X72685000Y47661250I0J-198750D01*
G01*
X72685000Y47263750D01*
G75*
G02*
X72486250Y47065000I-198750J0D01*
G01*
X72013750Y47065000D01*
G75*
G02*
X71815000Y47263750I0J198750D01*
G01*
X71815000Y47661250D01*
G75*
G02*
X72013750Y47860000I198750J0D01*
G01*
G37*
G36*
G01*
X72013750Y49435000D02*
X72486250Y49435000D01*
G75*
G02*
X72685000Y49236250I0J-198750D01*
G01*
X72685000Y48838750D01*
G75*
G02*
X72486250Y48640000I-198750J0D01*
G01*
X72013750Y48640000D01*
G75*
G02*
X71815000Y48838750I0J198750D01*
G01*
X71815000Y49236250D01*
G75*
G02*
X72013750Y49435000I198750J0D01*
G01*
G37*
G36*
G01*
X66763750Y47860000D02*
X67236250Y47860000D01*
G75*
G02*
X67435000Y47661250I0J-198750D01*
G01*
X67435000Y47263750D01*
G75*
G02*
X67236250Y47065000I-198750J0D01*
G01*
X66763750Y47065000D01*
G75*
G02*
X66565000Y47263750I0J198750D01*
G01*
X66565000Y47661250D01*
G75*
G02*
X66763750Y47860000I198750J0D01*
G01*
G37*
G36*
G01*
X66763750Y49435000D02*
X67236250Y49435000D01*
G75*
G02*
X67435000Y49236250I0J-198750D01*
G01*
X67435000Y48838750D01*
G75*
G02*
X67236250Y48640000I-198750J0D01*
G01*
X66763750Y48640000D01*
G75*
G02*
X66565000Y48838750I0J198750D01*
G01*
X66565000Y49236250D01*
G75*
G02*
X66763750Y49435000I198750J0D01*
G01*
G37*
G36*
G01*
X68513750Y47860000D02*
X68986250Y47860000D01*
G75*
G02*
X69185000Y47661250I0J-198750D01*
G01*
X69185000Y47263750D01*
G75*
G02*
X68986250Y47065000I-198750J0D01*
G01*
X68513750Y47065000D01*
G75*
G02*
X68315000Y47263750I0J198750D01*
G01*
X68315000Y47661250D01*
G75*
G02*
X68513750Y47860000I198750J0D01*
G01*
G37*
G36*
G01*
X68513750Y49435000D02*
X68986250Y49435000D01*
G75*
G02*
X69185000Y49236250I0J-198750D01*
G01*
X69185000Y48838750D01*
G75*
G02*
X68986250Y48640000I-198750J0D01*
G01*
X68513750Y48640000D01*
G75*
G02*
X68315000Y48838750I0J198750D01*
G01*
X68315000Y49236250D01*
G75*
G02*
X68513750Y49435000I198750J0D01*
G01*
G37*
G36*
G01*
X73390000Y36763750D02*
X73390000Y37236250D01*
G75*
G02*
X73588750Y37435000I198750J0D01*
G01*
X73986250Y37435000D01*
G75*
G02*
X74185000Y37236250I0J-198750D01*
G01*
X74185000Y36763750D01*
G75*
G02*
X73986250Y36565000I-198750J0D01*
G01*
X73588750Y36565000D01*
G75*
G02*
X73390000Y36763750I0J198750D01*
G01*
G37*
G36*
G01*
X71815000Y36763750D02*
X71815000Y37236250D01*
G75*
G02*
X72013750Y37435000I198750J0D01*
G01*
X72411250Y37435000D01*
G75*
G02*
X72610000Y37236250I0J-198750D01*
G01*
X72610000Y36763750D01*
G75*
G02*
X72411250Y36565000I-198750J0D01*
G01*
X72013750Y36565000D01*
G75*
G02*
X71815000Y36763750I0J198750D01*
G01*
G37*
G36*
G01*
X70263750Y47860000D02*
X70736250Y47860000D01*
G75*
G02*
X70935000Y47661250I0J-198750D01*
G01*
X70935000Y47263750D01*
G75*
G02*
X70736250Y47065000I-198750J0D01*
G01*
X70263750Y47065000D01*
G75*
G02*
X70065000Y47263750I0J198750D01*
G01*
X70065000Y47661250D01*
G75*
G02*
X70263750Y47860000I198750J0D01*
G01*
G37*
G36*
G01*
X70263750Y49435000D02*
X70736250Y49435000D01*
G75*
G02*
X70935000Y49236250I0J-198750D01*
G01*
X70935000Y48838750D01*
G75*
G02*
X70736250Y48640000I-198750J0D01*
G01*
X70263750Y48640000D01*
G75*
G02*
X70065000Y48838750I0J198750D01*
G01*
X70065000Y49236250D01*
G75*
G02*
X70263750Y49435000I198750J0D01*
G01*
G37*
G36*
G01*
X20236250Y16390000D02*
X19763750Y16390000D01*
G75*
G02*
X19565000Y16588750I0J198750D01*
G01*
X19565000Y16986250D01*
G75*
G02*
X19763750Y17185000I198750J0D01*
G01*
X20236250Y17185000D01*
G75*
G02*
X20435000Y16986250I0J-198750D01*
G01*
X20435000Y16588750D01*
G75*
G02*
X20236250Y16390000I-198750J0D01*
G01*
G37*
G36*
G01*
X20236250Y14815000D02*
X19763750Y14815000D01*
G75*
G02*
X19565000Y15013750I0J198750D01*
G01*
X19565000Y15411250D01*
G75*
G02*
X19763750Y15610000I198750J0D01*
G01*
X20236250Y15610000D01*
G75*
G02*
X20435000Y15411250I0J-198750D01*
G01*
X20435000Y15013750D01*
G75*
G02*
X20236250Y14815000I-198750J0D01*
G01*
G37*
G36*
G01*
X22360000Y10486250D02*
X22360000Y10013750D01*
G75*
G02*
X22161250Y9815000I-198750J0D01*
G01*
X21763750Y9815000D01*
G75*
G02*
X21565000Y10013750I0J198750D01*
G01*
X21565000Y10486250D01*
G75*
G02*
X21763750Y10685000I198750J0D01*
G01*
X22161250Y10685000D01*
G75*
G02*
X22360000Y10486250I0J-198750D01*
G01*
G37*
G36*
G01*
X23935000Y10486250D02*
X23935000Y10013750D01*
G75*
G02*
X23736250Y9815000I-198750J0D01*
G01*
X23338750Y9815000D01*
G75*
G02*
X23140000Y10013750I0J198750D01*
G01*
X23140000Y10486250D01*
G75*
G02*
X23338750Y10685000I198750J0D01*
G01*
X23736250Y10685000D01*
G75*
G02*
X23935000Y10486250I0J-198750D01*
G01*
G37*
G36*
G01*
X19463750Y7010000D02*
X19936250Y7010000D01*
G75*
G02*
X20135000Y6811250I0J-198750D01*
G01*
X20135000Y6413750D01*
G75*
G02*
X19936250Y6215000I-198750J0D01*
G01*
X19463750Y6215000D01*
G75*
G02*
X19265000Y6413750I0J198750D01*
G01*
X19265000Y6811250D01*
G75*
G02*
X19463750Y7010000I198750J0D01*
G01*
G37*
G36*
G01*
X19463750Y8585000D02*
X19936250Y8585000D01*
G75*
G02*
X20135000Y8386250I0J-198750D01*
G01*
X20135000Y7988750D01*
G75*
G02*
X19936250Y7790000I-198750J0D01*
G01*
X19463750Y7790000D01*
G75*
G02*
X19265000Y7988750I0J198750D01*
G01*
X19265000Y8386250D01*
G75*
G02*
X19463750Y8585000I198750J0D01*
G01*
G37*
G36*
G01*
X72986250Y16890000D02*
X72513750Y16890000D01*
G75*
G02*
X72315000Y17088750I0J198750D01*
G01*
X72315000Y17486250D01*
G75*
G02*
X72513750Y17685000I198750J0D01*
G01*
X72986250Y17685000D01*
G75*
G02*
X73185000Y17486250I0J-198750D01*
G01*
X73185000Y17088750D01*
G75*
G02*
X72986250Y16890000I-198750J0D01*
G01*
G37*
G36*
G01*
X72986250Y15315000D02*
X72513750Y15315000D01*
G75*
G02*
X72315000Y15513750I0J198750D01*
G01*
X72315000Y15911250D01*
G75*
G02*
X72513750Y16110000I198750J0D01*
G01*
X72986250Y16110000D01*
G75*
G02*
X73185000Y15911250I0J-198750D01*
G01*
X73185000Y15513750D01*
G75*
G02*
X72986250Y15315000I-198750J0D01*
G01*
G37*
G36*
G01*
X75360000Y13486250D02*
X75360000Y13013750D01*
G75*
G02*
X75161250Y12815000I-198750J0D01*
G01*
X74763750Y12815000D01*
G75*
G02*
X74565000Y13013750I0J198750D01*
G01*
X74565000Y13486250D01*
G75*
G02*
X74763750Y13685000I198750J0D01*
G01*
X75161250Y13685000D01*
G75*
G02*
X75360000Y13486250I0J-198750D01*
G01*
G37*
G36*
G01*
X76935000Y13486250D02*
X76935000Y13013750D01*
G75*
G02*
X76736250Y12815000I-198750J0D01*
G01*
X76338750Y12815000D01*
G75*
G02*
X76140000Y13013750I0J198750D01*
G01*
X76140000Y13486250D01*
G75*
G02*
X76338750Y13685000I198750J0D01*
G01*
X76736250Y13685000D01*
G75*
G02*
X76935000Y13486250I0J-198750D01*
G01*
G37*
G36*
G01*
X71763750Y7647500D02*
X72236250Y7647500D01*
G75*
G02*
X72435000Y7448750I0J-198750D01*
G01*
X72435000Y7051250D01*
G75*
G02*
X72236250Y6852500I-198750J0D01*
G01*
X71763750Y6852500D01*
G75*
G02*
X71565000Y7051250I0J198750D01*
G01*
X71565000Y7448750D01*
G75*
G02*
X71763750Y7647500I198750J0D01*
G01*
G37*
G36*
G01*
X71763750Y9222500D02*
X72236250Y9222500D01*
G75*
G02*
X72435000Y9023750I0J-198750D01*
G01*
X72435000Y8626250D01*
G75*
G02*
X72236250Y8427500I-198750J0D01*
G01*
X71763750Y8427500D01*
G75*
G02*
X71565000Y8626250I0J198750D01*
G01*
X71565000Y9023750D01*
G75*
G02*
X71763750Y9222500I198750J0D01*
G01*
G37*
M02*
